<svg width="180" height="505" viewBox="0 0 180 505" fill="none" xmlns="http://www.w3.org/2000/svg">
<path d="M118.043 23.7412C118.043 23.7412 120.556 56.8031 122.351 69.8576C124.146 82.9122 126.264 96.2055 126.264 96.2055L98.395 95.1364L94.042 46.2504L118.043 23.7412Z" fill="#593014"/>
<path d="M113.266 42.8711C113.266 42.8711 114.748 66.1653 115.279 75.8272C115.809 85.4878 115.279 91.8462 115.279 91.8462C115.279 91.8462 99.7973 81.8824 99.6633 80.4647C99.5294 79.047 92.0671 65.0358 95.4669 59.9976C98.8666 54.9594 105.484 50.4469 106.808 49.4835C108.131 48.5173 113.266 42.8711 113.266 42.8711Z" fill="#643B1F"/>
<path d="M62.9081 23.5C62.9081 23.5 60.4905 56.8063 58.7648 69.9573C57.0377 83.1084 55 96.5 55 96.5L81.8133 95.423L86 46.1756L62.9081 23.5Z" fill="#593014"/>
<path d="M66.6424 42.8711C66.6424 42.8711 65.1604 66.1653 64.6302 75.8272C64.1 85.4878 64.6302 91.8462 64.6302 91.8462C64.6302 91.8462 80.1116 81.8824 80.2455 80.4647C80.3795 79.047 87.8417 65.0358 84.442 59.9976C81.0423 54.9594 74.4247 50.4469 73.1006 49.4835C71.7779 48.5173 66.6424 42.8711 66.6424 42.8711Z" fill="#643B1F"/>
<path d="M89.9977 253.17V61.9551H77.8074C77.8074 61.9551 77.1489 75.9964 72.2516 81.6645C67.3544 87.3327 57.0424 90.6814 56.3796 90.6814C55.7183 90.6814 52.8064 90.0377 50.5559 91.5831C48.3054 93.1284 38.3798 94.4172 34.5415 107.557C30.7032 120.696 27.3952 174.928 26.3362 178.406C25.2772 181.883 18.3945 205.458 13.3661 221.301C8.33632 237.146 7.01367 240.842 7.01367 240.842L17.6021 242.516C17.6021 242.516 23.6908 231.478 30.0433 221.172C36.3958 210.866 40.234 201.721 41.4256 196.825C42.6171 191.93 44.0723 185.876 44.6025 183.685C45.1327 181.495 53.7343 152.682 53.7343 152.682C53.7343 152.682 58.7641 160.626 59.0292 164.878C59.2943 169.128 59.6905 177.566 58.1056 184.048C57.6064 186.087 51.55 194.285 44.8013 216.359C38.0512 238.433 35.9276 271.089 41.8824 293.116C47.8387 315.144 56.9704 341.24 56.9704 344.139C56.9704 347.038 56.4417 353.543 57.2355 357.664C58.0294 361.787 58.162 367.325 58.0294 370.288C57.8969 373.251 54.1912 395.526 57.9632 416.78C61.7352 438.035 68.6841 459.967 69.5767 464.894C70.4707 469.821 68.7828 479.192 69.478 481.607C70.1731 484.023 71.1659 485.278 70.967 487.598C70.7682 489.916 68.4528 494.168 65.4747 497.033C63.2961 499.13 61.5039 500.028 62.4642 503.414C63.031 505.413 69.5781 504.955 76.7244 504.955C83.8722 504.955 85.8562 504.955 85.8562 504.955C85.8562 504.955 90.0258 504.955 89.1318 501.863C88.2378 498.771 87.1803 498.095 85.2936 492.202C83.4083 486.309 83.9131 482.38 83.8144 480.351C83.7157 478.323 86.1876 475.52 84.3023 471.172C82.4156 466.825 81.523 460.546 81.523 456.777C81.523 453.01 81.523 429.339 82.9782 420.194C84.4348 411.048 81.9192 400.742 81.3904 393.4C80.8617 386.057 81.6555 376.085 81.6555 372.993C81.6555 369.901 84.6999 364.491 84.1697 355.99C83.6409 347.488 82.8471 340.403 82.582 335.637C82.3169 330.87 83.6409 309.154 82.2506 290.411C80.8602 271.668 84.0104 262.201 83.7128 258.819C83.4153 255.437 84.9044 252.539 84.9044 252.539L89.9977 253.17Z" fill="#EFB686"/>
<path d="M20.1327 277.408C20.1327 277.408 21.9687 275.669 20.976 274.366C19.9833 273.062 15.6162 277.408 15.6162 277.408C15.6162 277.408 18.545 273.975 18.6437 273.448C18.7438 272.921 17.6016 271.998 16.1619 273.206C14.7222 274.414 13.2331 275.959 13.2331 275.959C13.2331 275.959 15.0691 273.689 15.2679 273.06C15.4667 272.432 14.4247 271.611 12.6875 273.254C10.9502 274.897 9.32297 272.867 9.32297 272.867C9.32297 272.867 8.56715 275.91 9.65998 277.408C10.7514 278.906 12.7861 280.403 13.2331 281.032C13.6801 281.659 14.4247 282.577 15.8136 282.143C17.2026 281.708 14.9196 281.49 15.5161 280.861C16.1126 280.234 20.1327 277.408 20.1327 277.408Z" fill="#DD945E"/>
<g opacity="0.66">
<path d="M69.0771 165.967C69.2449 165.863 69.3817 165.749 69.565 165.65C69.565 165.65 69.3662 165.755 69.0771 165.967Z" fill="#DD945E"/>
<path d="M89.5583 156.197C89.3016 154.964 87.8675 154.05 87.8675 154.05C87.8675 154.05 85.0742 154.872 84.6328 155.147C84.1914 155.421 82.2441 156.289 79.8921 157.841C77.54 159.393 76.144 161.585 76.144 161.585C76.144 161.585 80.9581 158.069 83.4201 157.704C85.8821 157.339 89.0069 158.48 89.3002 160.627C89.5935 162.773 89.9982 171.175 89.7049 173.459C89.4116 175.743 88.3822 177.888 86.3968 178.345C84.4128 178.802 82.6488 179.715 79.0474 181.816C75.4461 183.916 71.4766 182.181 70.5939 180.811C69.7126 179.442 67.5806 174.601 66.9926 170.948C66.5526 168.211 68.2151 166.603 69.0767 165.967C65.6064 168.115 65.323 171.28 66.5145 175.331C67.7639 179.577 71.3652 184.008 71.8066 184.555C71.9363 184.716 72.0393 184.889 72.1323 185.075C72.1422 185.147 72.4722 187.654 72.7626 190.4C73.0559 193.186 74.27 196.018 74.7466 196.93C75.0033 198.21 75.9227 201.634 75.9593 203.506C75.996 205.378 76.364 208.574 76.5473 209.443C76.7306 210.31 76.6573 210.767 76.5107 211.863C76.364 212.959 76.7673 213.917 77.3553 213.142C77.9433 212.365 78.09 211.407 79.4874 211.132C80.8834 210.858 84.7428 210.905 86.6901 210.95C88.6375 210.995 89.9968 212.731 89.9968 212.731V206.019C89.9968 206.019 89.7035 208.21 88.3061 209.17C86.9101 210.129 84.41 210.494 81.2133 210.037C78.0152 209.58 77.5753 207.663 77.5753 206.841C77.5753 206.019 76.9506 203.872 76.804 202.228C76.6686 200.72 77.2806 199.656 77.3835 199.489C77.8319 198.955 78.4622 198.426 79.3027 198.302C81.14 198.027 83.7867 196.612 86.1754 196.795C88.5641 196.977 89.9968 197.982 89.9968 200.448C89.9968 196.478 89.9968 184.083 89.9968 180.126V178.894V159.603C89.9968 159.603 89.8149 157.429 89.5583 156.197ZM89.1536 190.446C89.0069 191.45 89.4469 194.144 85.9569 195.378C82.4655 196.611 78.8416 196.793 77.9349 197.388C77.0268 197.982 74.748 195.743 74.2348 193.277C73.7271 190.845 73.4733 188.608 73.4479 187.446C73.4536 187.319 73.4536 187.199 73.4635 187.067C73.6101 184.875 75.4474 185.377 76.9548 184.236C78.4608 183.094 84.3409 179.669 86.143 179.258C86.3503 179.211 86.5604 179.19 86.7719 179.184C86.9764 179.181 88.708 179.24 89.1578 181.861C89.6316 184.646 89.3002 189.441 89.1536 190.446Z" fill="#DD945E"/>
</g>
<path d="M17.6022 242.516C17.6022 242.516 18.3298 247.126 20.1826 250.554C22.0355 253.981 22.6306 257.267 22.0355 260.938C21.4405 264.609 21.1754 268.087 21.5716 270.084C21.9692 272.081 21.7704 275.173 19.3225 272.983C16.8732 270.792 17.3695 263.877 17.1058 262.661C16.8407 261.445 15.1543 259.778 14.2927 260.938C13.4325 262.098 11.7122 272.854 11.7122 274.657C11.7122 276.46 15.7493 279.423 17.4034 281.935C19.0574 284.447 19.19 287.668 15.9481 285.027C12.7049 282.387 9.92563 279.294 8.80179 278.393C7.67653 277.491 5.62486 273.884 5.62486 273.884C5.62486 273.884 4.76469 273.433 4.10335 272.596C3.44202 271.758 3.11067 270.857 2.91185 270.663C2.71302 270.47 1.39034 269.439 1.12524 268.795C0.860141 268.152 0.397634 266.798 0.198811 266.477C-1.23971e-05 266.155 0 264.265 0 264.265C0 264.265 4.43332 245.093 7.0152 240.842C9.59426 236.591 17.6022 242.516 17.6022 242.516Z" fill="#EFB686"/>
<path d="M56.3809 90.6816C56.3809 90.6816 62.6671 92.9996 70.8738 93.8382C79.0791 94.6754 83.4476 94.3528 85.1016 95.1269C86.7557 95.8996 89.9989 96.4801 89.9989 96.4801V94.8057C89.9989 94.8057 87.8809 94.9348 87.0208 94.6122C86.1606 94.2897 86.0281 93.1945 84.0427 92.8734C82.0573 92.5508 74.9772 92.9379 68.8884 92.4218C62.7996 91.9072 58.0659 90.0283 58.0659 90.0283L56.3809 90.6816Z" fill="#DD945E"/>
<path d="M43.8072 112.967C43.8072 112.967 45.4951 118.635 47.6779 121.05C49.8622 123.466 51.5486 123.659 51.6488 125.592C51.7475 127.524 48.83 132.258 49.8918 139.504C50.9536 146.751 53.7329 152.685 53.7329 152.685L46.7938 176.067C46.7938 176.067 49.4645 156.894 48.7694 151.966C48.0742 147.039 46.4864 145.686 45.99 138.343C45.4937 131.001 48.5705 128.875 47.9755 125.976C47.3804 123.077 43.8058 122.692 43.8058 122.692C43.8058 122.692 45.1454 121.871 46.8333 122.836C48.5212 123.802 49.1656 124.431 49.1656 124.431C49.1656 124.431 43.5097 119.52 43.8072 112.967Z" fill="#DD945E"/>
<path d="M89.9976 123.368C89.9976 123.368 89.9313 120.374 89.4349 118.312C88.9386 116.251 86.2256 113.256 86.2256 113.256C86.2256 113.256 88.2773 116.703 88.6735 118.699C89.0712 120.696 88.6072 123.37 88.6072 123.37L89.9976 123.368Z" fill="#DD945E"/>
<path d="M53.0439 328.669C53.0439 328.669 58.2937 345.363 59.419 348.068C60.5442 350.773 61.7358 351.869 60.9405 352.062C60.1466 352.256 57.9948 347.053 56.9203 343.631C55.8458 340.211 53.0439 328.669 53.0439 328.669Z" fill="#DD945E"/>
<path d="M62.1981 348.52C62.4322 349.721 65.6387 348.842 65.705 347.747C65.7713 346.652 66.8302 344.784 67.7567 344.205C68.6831 343.626 69.2133 342.015 69.2133 342.015C69.2133 342.015 67.823 343.303 67.1616 343.883C66.5003 344.462 64.9111 345.299 64.5811 346.008C64.2498 346.717 62.1078 348.052 62.1981 348.52Z" fill="#DD945E"/>
<path d="M71.5947 342.015C71.5947 342.015 72.7863 342.529 74.1752 344.913C75.5656 347.297 74.7703 348.07 76.3594 349.615C77.9472 351.161 78.4774 352.449 79.4701 351.161C80.4628 349.872 80.6616 346.523 80.6616 346.523C80.6616 346.523 79.4038 348.391 78.4111 349.164C77.4184 349.936 76.492 348.52 76.1282 347.167C75.7644 345.815 73.779 342.529 71.5947 342.015Z" fill="#DD945E"/>
<path d="M78.4768 354.059C78.4768 354.702 77.948 357.086 77.6166 358.438C77.2852 359.791 77.6829 363.59 76.4251 364.492C75.1673 365.394 70.5351 367.39 68.8148 366.295C67.0945 365.2 66.962 362.301 67.2271 361.722C67.4922 361.143 68.0209 359.983 67.4922 359.211C66.9634 358.438 65.1768 358.374 64.7129 355.733C64.2503 353.092 64.514 350.065 64.1841 350.581C63.8527 351.096 63.7201 355.669 64.1841 357.28C64.648 358.89 65.6943 359.406 65.6012 361.08C65.5082 362.754 65.5081 366.04 66.302 367.65C67.0959 369.26 68.8162 373.06 70.1403 373.64C71.463 374.22 75.1701 373.576 76.129 370.356C77.0878 367.137 77.3529 365.525 77.9494 364.238C78.5445 362.949 79.8685 362.37 79.5372 359.859C79.2058 357.347 80.066 353.224 79.4709 352.902C78.8744 352.576 78.4768 354.059 78.4768 354.059Z" fill="#DD945E"/>
<path d="M56.7999 352.067C56.7999 352.067 58.1606 363.559 59.6497 366.651C61.1387 369.743 63.7488 375.539 63.8828 377.568C64.0167 379.597 62.7265 374.622 60.6424 371.675C58.5583 368.729 58.0718 368.488 58.0718 368.488C58.0718 368.488 56.5319 355.792 56.7999 352.067Z" fill="#DD945E"/>
<path d="M83.9129 362.45C83.9129 362.45 82.4478 368.871 80.131 372.157C77.8143 375.441 75.4326 382.011 75.4326 382.011C75.4326 382.011 77.5506 378.017 78.6758 376.601C79.8011 375.184 81.4551 377.177 81.4551 377.177L81.8514 371.449C81.8514 371.449 83.5971 366.977 83.9129 362.45Z" fill="#DD945E"/>
<path d="M84.9159 473.264C84.9159 473.264 84.4999 476.744 84.0035 477.904C83.5072 479.064 82.4482 480.769 82.052 483.153C81.6543 485.536 81.887 487.243 81.887 487.243C81.887 487.243 81.9857 484.087 82.5159 482.993C83.0447 481.898 83.8555 484.25 83.8555 484.25C83.8555 484.25 83.9725 480.352 84.1375 479.612C84.3011 478.87 85.6082 475.535 84.9159 473.264Z" fill="#DD945E"/>
<path d="M84.3012 504.956C84.3012 504.956 82.1169 505.117 82.217 502.83C82.3158 500.544 83.7385 500.931 84.3012 500.64C84.8638 500.35 84.3011 499.803 82.8445 499.771C81.3879 499.738 79.8001 499.9 80.429 500.383C81.0579 500.866 81.7193 501.737 81.6868 503.024C81.6544 504.313 81.0918 504.667 79.5026 504.698C77.9148 504.73 76.657 504.505 76.822 502.541C76.987 500.577 77.716 500.866 78.2448 500.479C78.7736 500.092 75.6968 499.578 75.2667 500.092C74.8366 500.607 75.6968 500.704 76.0281 502.121C76.3595 503.538 75.8293 504.503 74.1429 504.472C72.455 504.44 71.396 503.858 71.396 502.362C71.396 500.865 72.5875 500.833 73.05 500.382C73.5139 499.93 71.561 499.867 70.5683 499.93C69.5756 499.995 68.9142 500.672 69.7081 501.155C70.502 501.638 70.9659 502.604 70.7332 503.539C70.502 504.472 68.1951 504.436 67.325 503.926C66.455 503.415 65.5272 502.668 66.1124 501.929C66.6961 501.189 68.0202 500.737 67.789 500.383C67.5577 500.029 64.9772 499.965 65.2748 500.641C65.5723 501.318 65.7711 500.995 65.6386 501.833C65.506 502.67 66.2999 503.894 64.9772 504.023C63.6532 504.152 62.7267 503.7 62.4955 502.638C62.2642 501.576 62.2642 501.157 62.2642 501.157C62.2642 501.157 61.6353 502.865 62.5617 503.96C63.4882 505.055 66.9232 504.96 70.8305 504.96C74.7379 504.96 84.3012 504.956 84.3012 504.956Z" fill="#DD945E"/>
<path d="M42.0254 228.566C42.0254 228.566 56.414 230.415 68.0275 239.013C79.641 247.612 79.7835 252.654 80.8326 258.819C81.7421 264.164 81.8972 282.005 81.8972 282.005C81.8972 282.005 83.5724 259.825 83.877 257.145C84.1801 254.464 84.9021 252.54 84.9021 252.54C84.9021 252.54 80.3362 243.523 64.9169 235.343C49.4975 227.164 42.1594 227.744 42.1594 227.744L42.0254 228.566Z" fill="#DD945E"/>
<path d="M89.9979 193.468C89.9979 193.468 88.6738 194.607 88.6738 196.397C88.6738 198.186 89.9979 199.773 89.9979 199.773V193.468Z" fill="#AF6635"/>
<path d="M55.7822 156.235C55.7822 156.235 60.0873 160.854 61.1787 163.173C62.2701 165.491 62.7664 172.641 63.8593 174.476C64.9507 176.313 66.2409 179.403 66.341 181.625C66.4397 183.847 67.1349 185.684 67.1349 185.684C67.1349 185.684 65.9772 183.945 65.3807 181.69C64.7857 179.435 63.8254 176.215 62.5027 174.412C61.1787 172.608 60.6499 167.198 60.2198 165.878C59.7897 164.558 59.0043 164.611 59.0043 164.611C59.0043 164.611 57.5956 159.406 55.7822 156.235Z" fill="#DD945E"/>
<path d="M56.3811 90.6811C56.3811 90.6811 54.8258 99.8915 54.5283 107.911C54.2307 115.93 53.7344 123.368 53.7344 123.368L59.5905 122.498C59.5905 122.498 59.1928 114.962 59.5905 104.721C59.9881 94.48 61.559 88.0776 61.559 88.0776C61.559 88.0776 58.9292 88.1367 56.3811 90.6811Z" fill="#1E7B56"/>
<path d="M65.8678 216.278C51.5497 214.474 48.5053 213.702 48.0428 214.924C47.5789 216.149 47.3815 216.084 51.2197 218.146C55.058 220.207 52.1391 220.271 49.8928 220.078C47.6466 219.884 43.5432 219.37 49.1018 221.044C54.6604 222.718 52.7412 223.685 51.6822 223.556C50.6233 223.427 48.5716 222.525 49.0355 222.912C49.498 223.299 58.6312 227.083 59.8227 227.735C61.0142 228.387 57.5722 227.485 55.3231 226.841C53.0726 226.198 49.9563 225.746 49.8928 226.133C49.8308 226.52 65.5801 233.605 72.9916 239.337C80.403 245.07 83.0498 248.033 86.0279 249.256C89.006 250.48 89.9987 250.222 89.9987 250.222V218.146C89.9987 218.146 80.1845 218.081 65.8678 216.278Z" fill="white"/>
<path d="M86.0273 249.254C83.0491 248.03 80.4024 245.069 72.991 239.336C65.5795 233.603 49.8287 226.519 49.8922 226.132C49.9542 225.745 53.072 226.196 55.3225 226.84C57.573 227.484 61.0136 228.385 59.8221 227.733C58.6306 227.081 49.4988 223.296 49.0349 222.911C48.5724 222.524 50.6226 223.425 51.6816 223.554C52.7406 223.683 54.6597 222.717 49.1012 221.043C43.5426 219.368 47.6459 219.883 49.8922 220.077C52.1385 220.27 55.0574 220.206 51.2191 218.144C47.3808 216.083 47.5797 216.147 48.0422 214.923C48.5047 213.699 51.5491 214.473 65.8672 216.276C80.1852 218.08 89.9981 218.144 89.9981 218.144V217.709C89.9981 217.709 77.9545 217.13 67.2829 216.018C56.6127 214.907 46.0511 212.396 46.0511 212.396C43.183 217.662 42.1198 225.97 42.1593 227.742C49.049 228.114 60.3833 232.394 68.3743 237.95C76.3653 243.505 83.2635 251.21 84.1575 252.466C85.0515 253.722 89.9967 253.505 89.9967 253.505V250.221C89.9967 250.221 89.0054 250.479 86.0273 249.254Z" fill="#EAE4E1"/>
<path d="M69.0162 107.931C58.3009 108.199 55.3227 113.184 54.7277 115.944C54.1326 118.704 52.6069 125.335 55.7838 136.107C58.9608 146.878 68.2942 148.17 69.8834 148.881C71.4711 149.594 68.8907 150.751 66.3102 150.84C63.7297 150.929 60.8179 151.108 64.6561 152.709C68.4944 154.312 74.3181 154.044 79.8767 151.819C85.4353 149.594 87.8846 145.499 90.0012 145.499V110.78C89.9983 110.78 79.7315 107.664 69.0162 107.931Z" fill="#1E7B56"/>
<path d="M67.1349 107.398C54.7275 108.065 50.6847 110.679 50.6847 110.679C50.6847 110.679 47.0834 121.152 48.2749 134.371C49.4664 147.59 56.4027 156.568 56.4027 156.568C56.4027 156.568 60.9883 158.458 72.6949 157.606C82.3526 156.904 89.9995 153.734 89.9995 153.734V145.5C87.8816 145.5 85.4336 149.595 79.8751 151.82C74.3165 154.045 68.4928 154.313 64.6545 152.71C60.8163 151.107 63.7281 150.931 66.3086 150.842C68.889 150.753 71.4709 149.595 69.8817 148.882C68.294 148.171 58.9592 146.879 55.7822 136.109C52.6053 125.336 54.131 118.705 54.7261 115.945C55.3211 113.185 58.2992 108.2 69.0145 107.933C79.7298 107.665 89.9967 110.782 89.9967 110.782V110.203C89.9967 110.203 79.5423 106.73 67.1349 107.398Z" fill="#145239"/>
<path opacity="0.68" d="M43.7958 96.4769C43.7958 96.4769 36.6594 104.065 34.4765 117.339C32.2923 130.613 32.0949 160.374 30.9034 167.135C29.7118 173.896 28.7191 176.594 32.4911 177.371C36.2631 178.147 44.0059 157.587 42.8144 143.23C41.6229 128.874 39.0664 119.659 40.1465 112.673C41.2266 105.689 48.3659 94.2947 43.7958 96.4769Z" fill="#F9C39B"/>
<path opacity="0.68" d="M39.5734 193.468C39.5734 193.468 35.3375 207.904 28.0586 219.884C20.7797 231.864 18.2641 240.454 17.0739 240.454C15.8824 240.454 16.4591 228.643 22.2602 210.222C28.0586 191.802 41.5574 183.024 39.5734 193.468Z" fill="#F9C39B"/>
<path opacity="0.68" d="M85.5641 92.0974C85.5641 92.0974 83.8438 87.589 81.9247 78.6366C80.0055 69.6843 80.0718 63.6936 80.4032 66.0775C80.7345 68.46 84.0102 83.9026 85.8461 87.3323C87.6821 90.762 89.9988 91.2932 89.9988 91.2932V94.0957C89.9988 94.0957 87.3183 95.3665 85.5641 92.0974Z" fill="#F9C39B"/>
<path opacity="0.68" d="M60.698 92.7344C60.698 92.7344 65.2498 94.7381 72.1973 95.1251C79.1463 95.5122 86.5577 96.4784 85.6976 97.122C84.8374 97.7657 77.6911 97.5722 71.4034 97.122C65.1173 96.6705 60.3652 95.1348 60.3652 95.1348L60.698 92.7344Z" fill="#F9C39B"/>
<path opacity="0.68" d="M51.3521 209.321C51.3521 209.321 53.8663 202.43 56.8444 200.433C59.8225 198.436 72.4034 210.295 72.66 213.425C72.9166 216.552 55.9842 213.736 53.5349 212.398C51.087 211.06 51.1039 209.962 51.3521 209.321Z" fill="#F9C39B"/>
<path opacity="0.68" d="M87.0866 162.448C87.0866 162.448 88.7745 171.916 86.4915 175.249C84.2086 178.582 77.5078 180.659 76.0695 180.321C74.6298 179.984 72.8433 178.968 73.836 177.664C74.8287 176.36 81.6338 173.172 81.8791 168.727C82.1245 164.283 85.4988 157.086 87.0866 162.448Z" fill="#F9C39B"/>
<path opacity="0.68" d="M87.6866 182.881C87.6866 182.881 89.0714 191.625 85.1499 193.943C81.2284 196.261 77.6552 196.745 77.6059 194.813C77.5565 192.88 81.9729 191.77 82.9163 188.412C83.8611 185.055 86.9477 178.437 87.6866 182.881Z" fill="#F9C39B"/>
<path opacity="0.68" d="M88.4268 201.141C88.4451 201.381 89.6184 207.422 84.903 208.29C80.1877 209.159 78.9961 208.532 79.2951 207.034C79.5926 205.537 82.2238 205.392 83.7622 202.928C85.2992 200.465 88.1293 197.084 88.4268 201.141Z" fill="#F9C39B"/>
<path opacity="0.68" d="M48.9696 241.923C48.9696 241.923 42.4775 271.09 49.8227 295.049C57.1678 319.009 61.1359 330.807 65.7032 332.546C70.2704 334.284 75.6302 342.98 77.2194 339.309C78.8071 335.638 79.7998 318.043 77.2194 302.198C74.6389 286.354 74.6445 259.431 67.4982 248.353C60.3518 237.274 49.5308 231.105 48.9696 241.923Z" fill="#F9C39B"/>
<path opacity="0.68" d="M67.0287 350.194C67.0287 350.194 68.2865 347.102 69.6755 346.458C71.0658 345.815 71.6609 348.533 73.5137 350.522C75.3666 352.512 77.4845 352.576 76.128 357.664C74.7715 362.752 73.0512 362.949 72.2573 362.175C71.4635 361.4 73.4489 357.535 71.596 355.925C69.7431 354.315 67.4264 356.504 66.3011 353.67C65.1758 350.838 67.0287 350.194 67.0287 350.194Z" fill="#F9C39B"/>
<path opacity="0.68" d="M68.916 357.665C69.0148 357.73 70.7351 357.988 70.7351 359.694C70.7351 361.401 70.5701 362.657 72.6542 363.075C74.7383 363.494 73.6483 365.749 71.2497 365.845C68.8498 365.941 67.427 364.337 67.8571 362.45C68.2871 360.563 68.6509 360.177 68.2871 359.34C67.9233 358.502 67.1619 358.438 67.427 357.665C67.6907 356.891 68.916 357.665 68.916 357.665Z" fill="#F9C39B"/>
<path opacity="0.68" d="M59.2195 383.558C59.2195 383.558 57.3667 404.995 61.7337 422.9C66.1008 440.806 71.9245 462.705 72.5872 459.227C73.2485 455.749 73.2175 422.515 71.2476 407.701C69.2777 392.887 68.7489 387.294 64.7781 382.013C60.8087 376.73 59.4466 380.444 59.2195 383.558Z" fill="#F9C39B"/>
<path opacity="0.68" d="M67.6242 497.227C67.6242 497.227 71.1311 492.331 72.654 488.983C74.1755 485.634 75.4996 483.508 78.2789 484.989C81.0582 486.47 82.3033 492.718 83.468 495.616C84.6328 498.514 82.1834 498.643 78.9416 497.548C75.6984 496.453 68.8172 498.964 67.6256 498.708C66.4341 498.451 67.6242 497.227 67.6242 497.227Z" fill="#F9C39B"/>
<path d="M77.2158 67.5724C77.2158 67.5724 77.7094 68.8062 81.7352 72.7232C85.761 76.6401 89.9969 77.9933 89.9969 77.9933V61.9551L77.7051 63.3975L77.2158 67.5724Z" fill="#DD945E"/>
<path d="M89.998 253.17V61.9551H101.871C101.871 61.9551 102.821 75.9964 107.717 81.6645C112.615 87.3327 122.953 90.6814 123.615 90.6814C124.276 90.6814 127.188 90.0377 129.438 91.5831C131.689 93.1284 141.615 94.4172 145.453 107.557C149.291 120.696 152.599 174.928 153.658 178.406C154.717 181.883 161.6 205.458 166.628 221.301C171.658 237.146 172.981 240.842 172.981 240.842L162.392 242.516C162.392 242.516 156.303 231.478 149.951 221.172C143.599 210.866 139.76 201.721 138.569 196.825C137.377 191.93 135.922 185.876 135.392 183.685C134.863 181.495 126.26 152.682 126.26 152.682C126.26 152.682 121.23 160.626 120.966 164.878C120.701 169.128 120.305 177.566 121.89 184.048C122.389 186.087 128.444 194.285 135.194 216.359C141.944 238.433 144.068 271.089 138.113 293.116C132.157 315.144 123.025 341.24 123.025 344.139C123.025 347.038 123.554 353.543 122.76 357.664C121.966 361.787 121.834 367.325 121.966 370.288C122.099 373.251 125.805 395.526 122.033 416.78C118.261 438.035 111.312 459.967 110.419 464.894C109.525 469.821 111.213 479.192 110.518 481.607C109.823 484.023 108.83 485.278 109.029 487.598C109.227 489.916 111.543 494.168 114.521 497.033C116.7 499.13 118.492 500.028 117.532 503.414C116.965 505.413 110.418 504.955 103.271 504.955C96.1249 504.955 94.1395 504.955 94.1395 504.955C94.1395 504.955 89.9698 504.955 90.8638 501.863C91.7578 498.771 92.8154 498.095 94.7021 492.202C96.5888 486.309 96.0826 482.38 96.1813 480.351C96.28 478.323 93.8081 475.52 95.6948 471.172C97.5815 466.825 98.4741 460.546 98.4741 456.777C98.4741 453.01 98.4741 429.339 97.0175 420.194C95.5609 411.048 98.0765 400.742 98.6053 393.4C99.134 386.057 98.3401 376.085 98.3401 372.993C98.3401 369.901 95.2958 364.491 95.826 355.99C96.3547 347.488 97.1486 340.403 97.4137 335.637C97.6788 330.87 96.3547 309.154 97.7451 290.411C99.1354 271.668 95.9853 262.201 96.2828 258.819C96.5804 255.437 95.0913 252.539 95.0913 252.539L89.998 253.17Z" fill="#EFB686"/>
<path d="M159.863 277.408C159.863 277.408 158.027 275.669 159.02 274.366C160.013 273.062 164.38 277.408 164.38 277.408C164.38 277.408 161.451 273.975 161.352 273.448C161.254 272.921 162.394 271.998 163.834 273.206C165.274 274.414 166.763 275.959 166.763 275.959C166.763 275.959 164.927 273.689 164.728 273.06C164.529 272.432 165.573 271.611 167.309 273.254C169.046 274.897 170.673 272.867 170.673 272.867C170.673 272.867 171.429 275.91 170.336 277.408C169.245 278.906 167.21 280.403 166.763 281.032C166.316 281.659 165.571 282.577 164.182 282.143C162.793 281.708 165.076 281.49 164.48 280.861C163.883 280.234 159.863 277.408 159.863 277.408Z" fill="#DD945E"/>
<g opacity="0.66">
<path d="M110.92 165.967C110.752 165.863 110.615 165.749 110.432 165.65C110.432 165.65 110.632 165.755 110.92 165.967Z" fill="#DD945E"/>
<path d="M89.998 159.602V178.893V180.125C89.998 184.082 89.998 196.475 89.998 200.447C89.998 197.98 91.4307 196.976 93.8208 196.793C96.2095 196.611 98.8548 198.026 100.694 198.3C101.534 198.425 102.166 198.953 102.613 199.487C102.716 199.655 103.328 200.72 103.192 202.227C103.046 203.871 102.421 206.017 102.421 206.839C102.421 207.661 101.98 209.579 98.7829 210.036C95.5862 210.493 93.0861 210.128 91.6901 209.168C90.2941 208.209 89.9994 206.017 89.9994 206.017V212.73C89.9994 212.73 91.3588 210.995 93.3061 210.948C95.2534 210.903 99.1129 210.858 100.509 211.131C101.905 211.405 102.053 212.363 102.641 213.14C103.229 213.917 103.634 212.958 103.486 211.861C103.339 210.766 103.266 210.309 103.449 209.441C103.632 208.574 104 205.378 104.037 203.504C104.074 201.632 104.993 198.207 105.25 196.929C105.728 196.016 106.94 193.185 107.234 190.399C107.524 187.653 107.854 185.147 107.864 185.074C107.957 184.886 108.06 184.714 108.19 184.554C108.631 184.006 112.232 179.576 113.482 175.33C114.673 171.278 114.39 168.113 110.92 165.966C111.783 166.601 113.445 168.21 113.004 170.946C112.416 174.6 110.284 179.44 109.402 180.81C108.52 182.18 104.552 183.916 100.95 181.814C97.3489 179.713 95.5848 178.801 93.5994 178.344C91.6154 177.887 90.586 175.74 90.2913 173.458C89.998 171.174 90.4013 162.772 90.696 160.626C90.9893 158.479 94.1141 157.337 96.5761 157.702C99.0381 158.067 103.852 161.583 103.852 161.583C103.852 161.583 102.456 159.392 100.104 157.839C97.7521 156.287 95.8048 155.419 95.3634 155.145C94.9221 154.872 92.1301 154.049 92.1301 154.049C92.1301 154.049 90.6974 154.963 90.4394 156.195C90.1828 157.429 89.998 159.602 89.998 159.602ZM90.8441 181.861C91.2939 179.24 93.0241 179.182 93.23 179.184C93.4401 179.19 93.6516 179.211 93.8588 179.258C95.6595 179.668 101.54 183.094 103.047 184.235C104.553 185.377 106.392 184.875 106.538 187.067C106.547 187.198 106.548 187.319 106.553 187.446C106.527 188.608 106.273 190.845 105.766 193.277C105.251 195.743 102.972 197.98 102.066 197.387C101.158 196.793 97.5336 196.611 94.0436 195.378C90.5522 194.146 90.9936 191.45 90.8469 190.446C90.6974 189.441 90.366 184.646 90.8441 181.861Z" fill="#DD945E"/>
</g>
<path d="M162.395 242.516C162.395 242.516 161.667 247.126 159.814 250.554C157.961 253.981 157.366 257.267 157.961 260.938C158.556 264.609 158.821 268.087 158.425 270.084C158.028 272.081 158.226 275.173 160.676 272.982C163.124 270.792 162.627 263.876 162.892 262.66C163.158 261.444 164.845 259.778 165.706 260.938C166.566 262.098 168.286 272.853 168.286 274.657C168.286 276.46 164.249 279.423 162.595 281.935C160.941 284.446 160.808 287.667 164.052 285.027C167.293 282.386 170.074 279.294 171.198 278.392C172.323 277.491 174.375 273.884 174.375 273.884C174.375 273.884 175.235 273.432 175.896 272.595C176.558 271.758 176.889 270.856 177.088 270.663C177.287 270.469 178.609 269.439 178.874 268.795C179.14 268.151 179.602 266.798 179.801 266.477C180 266.154 180 264.265 180 264.265C180 264.265 175.566 245.093 172.986 240.841C170.405 236.59 162.395 242.516 162.395 242.516Z" fill="#EFB686"/>
<path d="M123.616 90.6816C123.616 90.6816 117.33 92.9996 109.123 93.8382C100.918 94.6754 96.5493 94.3528 94.8953 95.1269C93.2412 95.8996 89.998 96.4801 89.998 96.4801V94.8057C89.998 94.8057 92.116 94.9348 92.9762 94.6122C93.8363 94.2897 93.9689 93.1945 95.9543 92.8734C97.9397 92.5508 105.02 92.9379 111.109 92.4218C117.197 91.9072 121.931 90.0283 121.931 90.0283L123.616 90.6816Z" fill="#DD945E"/>
<path d="M136.189 112.967C136.189 112.967 134.501 118.635 132.319 121.05C130.134 123.466 128.448 123.659 128.348 125.592C128.249 127.524 131.167 132.258 130.105 139.504C129.043 146.751 126.264 152.685 126.264 152.685L133.203 176.067C133.203 176.067 130.532 156.894 131.227 151.966C131.922 147.039 133.51 145.686 134.006 138.343C134.503 131.001 131.426 128.875 132.021 125.976C132.616 123.077 136.191 122.692 136.191 122.692C136.191 122.692 134.851 121.871 133.163 122.836C131.475 123.802 130.831 124.431 130.831 124.431C130.831 124.431 136.487 119.52 136.189 112.967Z" fill="#DD945E"/>
<path d="M89.998 123.368C89.998 123.368 90.0643 120.374 90.5607 118.312C91.057 116.251 93.77 113.256 93.77 113.256C93.77 113.256 91.7184 116.703 91.3221 118.699C90.9245 120.696 91.3884 123.37 91.3884 123.37L89.998 123.368Z" fill="#DD945E"/>
<path d="M126.953 328.669C126.953 328.669 121.703 345.363 120.578 348.068C119.453 350.773 118.263 351.869 119.057 352.062C119.851 352.256 122.002 347.053 123.077 343.631C124.151 340.211 126.953 328.669 126.953 328.669Z" fill="#DD945E"/>
<path d="M117.799 348.52C117.565 349.721 114.358 348.842 114.292 347.747C114.226 346.652 113.167 344.784 112.24 344.205C111.314 343.626 110.785 342.015 110.785 342.015C110.785 342.015 112.175 343.303 112.837 343.883C113.498 344.462 115.087 345.299 115.417 346.008C115.747 346.717 117.889 348.052 117.799 348.52Z" fill="#DD945E"/>
<path d="M108.403 342.015C108.403 342.015 107.211 342.529 105.822 344.913C104.432 347.297 105.227 348.07 103.638 349.615C102.05 351.161 101.52 352.449 100.527 351.161C99.5348 349.872 99.3359 346.523 99.3359 346.523C99.3359 346.523 100.594 348.391 101.586 349.164C102.579 349.936 103.506 348.52 103.869 347.167C104.233 345.815 106.219 342.529 108.403 342.015Z" fill="#DD945E"/>
<path d="M101.52 354.059C101.52 354.702 102.049 357.086 102.38 358.438C102.712 359.791 102.314 363.59 103.572 364.492C104.83 365.394 109.462 367.39 111.182 366.295C112.902 365.2 113.035 362.301 112.77 361.722C112.505 361.143 111.976 359.983 112.505 359.211C113.034 358.438 114.822 358.374 115.284 355.733C115.747 353.092 115.483 350.065 115.813 350.581C116.144 351.096 116.277 355.669 115.813 357.28C115.35 358.89 114.303 359.406 114.396 361.08C114.489 362.754 114.489 366.04 113.695 367.65C112.901 369.26 111.181 373.06 109.857 373.64C108.533 374.22 104.827 373.576 103.868 370.356C102.908 367.137 102.644 365.525 102.047 364.238C101.452 362.949 100.128 362.37 100.46 359.859C100.791 357.347 99.9296 353.224 100.526 352.902C101.122 352.576 101.52 354.059 101.52 354.059Z" fill="#DD945E"/>
<path d="M123.196 352.067C123.196 352.067 121.835 363.559 120.346 366.651C118.857 369.743 116.247 375.539 116.113 377.568C115.979 379.597 117.269 374.622 119.353 371.675C121.438 368.729 121.924 368.488 121.924 368.488C121.924 368.488 123.465 355.792 123.196 352.067Z" fill="#DD945E"/>
<path d="M96.084 362.45C96.084 362.45 97.5491 368.871 99.8659 372.157C102.183 375.441 104.564 382.011 104.564 382.011C104.564 382.011 102.446 378.017 101.321 376.601C100.196 375.184 98.5418 377.177 98.5418 377.177L98.1455 371.449C98.1455 371.449 96.3998 366.977 96.084 362.45Z" fill="#DD945E"/>
<path d="M95.0812 473.264C95.0812 473.264 95.4986 476.744 95.9936 477.904C96.4899 479.064 97.5489 480.769 97.9451 483.153C98.3428 485.536 98.1101 487.243 98.1101 487.243C98.1101 487.243 98.0114 484.087 97.4812 482.993C96.951 481.898 96.1416 484.25 96.1416 484.25C96.1416 484.25 96.0246 480.352 95.8596 479.612C95.696 478.87 94.3875 475.535 95.0812 473.264Z" fill="#DD945E"/>
<path d="M95.6952 504.956C95.6952 504.956 97.8795 505.117 97.7793 502.83C97.6806 500.544 96.2579 500.931 95.6952 500.64C95.1326 500.349 95.6953 499.803 97.1505 499.771C98.6071 499.738 100.195 499.9 99.5659 500.383C98.937 500.866 98.2757 501.737 98.3081 503.024C98.3406 504.313 98.9032 504.667 100.492 504.698C102.08 504.73 103.338 504.505 103.173 502.541C103.008 500.577 102.279 500.866 101.75 500.479C101.22 500.092 104.298 499.578 104.728 500.092C105.158 500.607 104.298 500.704 103.967 502.121C103.635 503.538 104.166 504.503 105.852 504.472C107.54 504.44 108.599 503.858 108.599 502.362C108.599 500.865 107.407 500.833 106.945 500.382C106.481 499.93 108.434 499.867 109.427 499.93C110.419 499.995 111.081 500.672 110.287 501.155C109.493 501.638 109.029 502.604 109.26 503.539C109.492 504.472 111.799 504.436 112.669 503.926C113.539 503.415 114.466 502.668 113.881 501.929C113.297 501.189 111.973 500.737 112.205 500.383C112.436 500.029 115.016 499.965 114.719 500.641C114.421 501.318 114.222 500.995 114.355 501.833C114.488 502.67 113.694 503.894 115.016 504.023C116.34 504.152 117.267 503.7 117.498 502.638C117.729 501.576 117.729 501.157 117.729 501.157C117.729 501.157 118.358 502.865 117.432 503.96C116.505 505.055 113.07 504.96 109.163 504.96C105.257 504.959 95.6952 504.956 95.6952 504.956Z" fill="#DD945E"/>
<path d="M137.972 228.566C137.972 228.566 123.583 230.415 111.968 239.013C100.355 247.612 100.212 252.654 99.1633 258.819C98.2538 264.164 98.0987 282.005 98.0987 282.005C98.0987 282.005 96.4235 259.825 96.1189 257.145C95.8157 254.464 95.0938 252.54 95.0938 252.54C95.0938 252.54 99.6596 243.523 115.079 235.343C130.498 227.164 137.837 227.744 137.837 227.744L137.972 228.566Z" fill="#DD945E"/>
<path d="M89.998 193.468C89.998 193.468 91.3221 194.607 91.3221 196.397C91.3221 198.186 89.998 199.773 89.998 199.773V193.468Z" fill="#AF6635"/>
<path d="M124.216 156.235C124.216 156.235 119.911 160.854 118.82 163.173C117.728 165.491 117.232 172.641 116.139 174.476C115.048 176.313 113.757 179.403 113.657 181.625C113.558 183.847 112.863 185.684 112.863 185.684C112.863 185.684 114.021 183.945 114.617 181.69C115.212 179.435 116.173 176.215 117.497 174.412C118.819 172.608 119.35 167.198 119.78 165.878C120.21 164.558 120.994 164.611 120.994 164.611C120.994 164.611 122.403 159.406 124.216 156.235Z" fill="#DD945E"/>
<path d="M123.615 90.6811C123.615 90.6811 125.171 99.8915 125.468 107.911C125.766 115.93 126.262 123.368 126.262 123.368L120.406 122.498C120.406 122.498 120.802 114.962 120.406 104.721C120.008 94.48 118.438 88.0776 118.438 88.0776C118.438 88.0776 121.067 88.1367 123.615 90.6811Z" fill="#1E7B56"/>
<path d="M114.129 216.278C128.447 214.474 131.491 213.702 131.954 214.924C132.416 216.149 132.615 216.084 128.777 218.146C124.939 220.207 127.858 220.271 130.104 220.078C132.35 219.884 136.454 219.37 130.895 221.044C125.336 222.718 127.256 223.685 128.315 223.556C129.373 223.427 131.425 222.525 130.961 222.912C130.499 223.299 121.366 227.083 120.174 227.735C118.983 228.387 122.425 227.485 124.674 226.841C126.924 226.198 130.04 225.746 130.104 226.133C130.167 226.52 114.417 233.605 107.005 239.337C99.5937 245.07 96.947 248.033 93.9688 249.256C90.9907 250.48 89.998 250.222 89.998 250.222V218.146C89.998 218.146 99.8109 218.081 114.129 216.278Z" fill="white"/>
<path d="M93.9688 249.254C96.947 248.03 99.5937 245.069 107.005 239.336C114.417 233.603 130.167 226.519 130.104 226.132C130.042 225.745 126.924 226.196 124.674 226.84C122.423 227.484 118.983 228.385 120.174 227.733C121.366 227.081 130.497 223.296 130.961 222.911C131.424 222.524 129.373 223.425 128.315 223.554C127.256 223.683 125.336 222.717 130.895 221.043C136.454 219.368 132.35 219.883 130.104 220.077C127.858 220.27 124.939 220.206 128.777 218.144C132.615 216.083 132.416 216.147 131.954 214.923C131.491 213.699 128.447 214.473 114.129 216.276C99.8109 218.08 89.998 218.144 89.998 218.144V217.709C89.998 217.709 102.042 217.13 112.713 216.018C123.383 214.907 133.945 212.396 133.945 212.396C136.813 217.662 137.876 225.97 137.837 227.742C130.947 228.114 119.613 232.394 111.622 237.95C103.631 243.505 96.7326 251.21 95.8387 252.466C94.9447 253.722 89.998 253.505 89.998 253.505V250.221C89.998 250.221 90.9907 250.479 93.9688 249.254Z" fill="#EAE4E1"/>
<path d="M110.981 107.931C121.696 108.198 124.674 113.183 125.27 115.943C125.865 118.703 127.39 125.335 124.213 136.107C121.036 146.877 111.703 148.169 110.114 148.88C108.526 149.594 111.107 150.751 113.687 150.84C116.268 150.929 119.179 151.107 115.341 152.708C111.503 154.311 105.679 154.044 100.121 151.819C94.562 149.594 92.1126 145.498 89.9961 145.498V110.78C89.9961 110.78 100.266 107.663 110.981 107.931Z" fill="#1E7B56"/>
<path d="M112.863 107.398C125.27 108.065 129.313 110.679 129.313 110.679C129.313 110.679 132.914 121.152 131.723 134.371C130.531 147.59 123.595 156.568 123.595 156.568C123.595 156.568 119.009 158.458 107.303 157.606C97.645 156.904 89.998 153.734 89.998 153.734V145.5C92.116 145.5 94.5639 149.595 100.123 151.82C105.681 154.045 111.505 154.313 115.343 152.71C119.181 151.107 116.269 150.931 113.689 150.842C111.109 150.753 108.527 149.595 110.116 148.882C111.704 148.171 121.038 146.879 124.215 136.109C127.392 125.336 125.867 118.705 125.272 115.945C124.676 113.185 121.698 108.2 110.983 107.933C100.268 107.665 90.0008 110.782 90.0008 110.782V110.203C89.998 110.201 100.454 106.73 112.863 107.398Z" fill="#145239"/>
<path opacity="0.68" d="M136.201 96.4769C136.201 96.4769 143.336 104.065 145.521 117.339C147.705 130.613 147.902 160.374 149.094 167.135C150.285 173.896 151.278 176.594 147.506 177.371C143.734 178.147 135.991 157.587 137.183 143.23C138.374 128.874 140.931 119.659 139.851 112.673C138.77 105.687 131.631 94.2947 136.201 96.4769Z" fill="#F9C39B"/>
<path opacity="0.68" d="M140.424 193.468C140.424 193.468 144.659 207.904 151.939 219.884C159.218 231.864 161.733 240.454 162.924 240.454C164.114 240.454 163.538 228.643 157.739 210.222C151.939 191.802 138.439 183.024 140.424 193.468Z" fill="#F9C39B"/>
<path opacity="0.68" d="M94.4328 92.0974C94.4328 92.0974 96.1531 87.589 98.0722 78.6366C99.9914 69.6843 99.9251 63.6936 99.5937 66.0775C99.2623 68.46 95.9867 83.9026 94.1507 87.3323C92.3148 90.762 89.998 91.2932 89.998 91.2932V94.0957C89.998 94.0957 92.6786 95.3665 94.4328 92.0974Z" fill="#F9C39B"/>
<path opacity="0.68" d="M119.299 92.7344C119.299 92.7344 114.748 94.7381 107.8 95.1251C100.851 95.5122 93.4397 96.4784 94.2998 97.122C95.16 97.7657 102.308 97.5722 108.594 97.122C114.88 96.6705 119.632 95.1348 119.632 95.1348L119.299 92.7344Z" fill="#F9C39B"/>
<path opacity="0.68" d="M128.646 209.321C128.646 209.321 126.132 202.43 123.153 200.433C120.175 198.436 107.594 210.295 107.338 213.425C107.081 216.552 124.014 213.736 126.463 212.398C128.909 211.06 128.894 209.962 128.646 209.321Z" fill="#F9C39B"/>
<path opacity="0.68" d="M92.9103 162.448C92.9103 162.448 91.2224 171.916 93.5053 175.249C95.7883 178.582 102.489 180.659 103.929 180.321C105.368 179.984 107.155 178.968 106.162 177.664C105.17 176.36 98.3659 173.172 98.1191 168.727C97.8738 164.283 94.4994 157.086 92.9103 162.448Z" fill="#F9C39B"/>
<path opacity="0.68" d="M92.3106 182.881C92.3106 182.881 90.9259 191.625 94.8459 193.943C98.7674 196.261 102.341 196.745 102.39 194.813C102.439 192.88 98.0229 191.77 97.0795 188.412C96.1362 185.055 93.0495 178.437 92.3106 182.881Z" fill="#F9C39B"/>
<path opacity="0.68" d="M91.5702 201.141C91.5518 201.381 90.3786 207.422 95.094 208.29C99.8093 209.159 101.001 208.532 100.702 207.034C100.404 205.537 97.7732 205.392 96.2348 202.928C94.6964 200.465 91.8677 197.084 91.5702 201.141Z" fill="#F9C39B"/>
<path opacity="0.68" d="M131.027 241.923C131.027 241.923 137.519 271.09 130.174 295.049C122.829 319.009 118.861 330.807 114.293 332.546C109.726 334.284 104.366 342.98 102.777 339.309C101.189 335.638 100.197 318.043 102.777 302.198C105.358 286.354 105.352 259.431 112.498 248.353C119.645 237.274 130.466 231.105 131.027 241.923Z" fill="#F9C39B"/>
<path opacity="0.68" d="M112.968 350.194C112.968 350.194 111.711 347.102 110.322 346.458C108.931 345.815 108.336 348.533 106.483 350.522C104.631 352.512 102.513 352.576 103.869 357.664C105.226 362.752 106.946 362.949 107.74 362.175C108.534 361.4 106.548 357.535 108.401 355.925C110.254 354.315 112.571 356.504 113.695 353.67C114.821 350.838 112.968 350.194 112.968 350.194Z" fill="#F9C39B"/>
<path opacity="0.68" d="M111.082 357.666C110.983 357.73 109.262 357.988 109.262 359.694C109.262 361.401 109.427 362.657 107.343 363.076C105.258 363.494 106.348 365.749 108.747 365.845C111.147 365.941 112.57 364.337 112.14 362.45C111.71 360.563 111.346 360.177 111.71 359.34C112.073 358.503 112.835 358.438 112.57 357.666C112.305 356.893 111.082 357.666 111.082 357.666Z" fill="#F9C39B"/>
<path opacity="0.68" d="M120.775 383.558C120.775 383.558 122.628 404.995 118.261 422.9C113.894 440.806 108.07 462.705 107.407 459.227C106.746 455.749 106.777 422.515 108.746 407.701C110.716 392.887 111.244 387.294 115.215 382.013C119.187 376.73 120.548 380.444 120.775 383.558Z" fill="#F9C39B"/>
<path opacity="0.68" d="M112.372 497.227C112.372 497.227 108.865 492.331 107.342 488.983C105.821 485.634 104.496 483.508 101.717 484.989C98.9379 486.47 97.6927 492.718 96.528 495.616C95.3633 498.514 97.8126 498.643 101.056 497.548C104.298 496.453 111.18 498.964 112.372 498.708C113.563 498.451 112.372 497.227 112.372 497.227Z" fill="#F9C39B"/>
<path d="M102.568 67.5572C102.568 67.5572 102.286 68.8062 98.2598 72.7231C94.2339 76.64 89.998 77.9932 89.998 77.9932V61.955L101.727 61.7217L102.568 67.5572Z" fill="#DD945E"/>
<path d="M69.2065 40.3764C69.2065 40.3764 68.029 37.2885 66.0479 37.0771C64.0681 36.8658 62.1701 39.8247 63.4899 42.1496C64.8098 44.4745 66.9094 48.4203 67.7992 50.3224C68.689 52.2246 70.0539 51.7292 70.0539 51.7292L69.2065 40.3764Z" fill="#E5A373"/>
<path d="M68.0718 46.2011C67.9477 44.1933 67.8659 40.5645 66.3811 39.1386C64.8962 37.7113 63.8641 39.7205 64.1531 41.3756C64.4422 43.0322 65.9679 45.7798 65.9679 45.7798C65.1839 44.1589 64.1348 40.3614 64.9371 39.6505C65.5717 39.0878 66.3585 40.1034 66.7632 41.3345C66.6673 41.318 66.5531 41.3413 66.422 41.447C65.927 41.8436 65.896 42.7947 65.896 42.7947C66.2668 41.9232 66.6701 41.5527 66.7322 42.8743C66.7942 44.196 66.2372 44.196 66.3303 45.438C66.3867 46.1984 66.8379 46.4715 67.1792 46.5703C67.2088 46.8009 67.2426 47.0383 67.2892 47.2963C67.7009 49.5855 69.393 49.9739 69.3112 48.9515C69.2266 47.9263 68.1944 48.209 68.0718 46.2011Z" fill="#C17B4C"/>
<path d="M89.9975 13.3929V71.9682C89.9975 71.9682 86.7148 71.9682 80.8051 67.5312C76.7821 64.5105 71.8905 59.5793 70.4578 54.6097C69.0252 49.6402 69.3438 35.0142 68.7065 30.6114C68.0691 26.2087 69.9798 16.9791 74.4371 12.2936C78.8944 7.60814 89.9975 6.75586 89.9975 6.75586V13.3929Z" fill="#EFB686"/>
<path d="M85.4567 34.4159C85.4567 34.4159 84.4668 35.0623 82.676 34.6369C80.8852 34.2114 75.2885 33.4799 74.0011 33.9054C72.7137 34.3308 70.9229 35.5976 71.0343 36.2907C71.1456 36.9851 73.2396 40.1294 74.5073 40.4738C80.5171 42.1084 84.9124 40.0525 85.5286 40.7428C86.1448 41.4332 85.2438 49.2903 85.2438 49.2903C85.2438 49.2903 85.7303 48.9994 86.3803 49.8667C87.0106 47.0711 88.6181 39.3443 88.4165 38.5195C87.5084 34.8153 85.4567 34.4159 85.4567 34.4159Z" fill="#E29B66"/>
<path d="M85.131 49.3356C85.131 49.3356 83.7364 50.2112 83.986 51.5562C84.2355 52.9012 85.6612 52.4771 86.6934 52.9726C87.727 53.468 87.9046 54.1048 88.511 54.3175C89.1173 54.5303 89.9986 54.5303 89.9986 54.5303V52.8669C89.9986 52.8669 88.4757 52.8669 87.6565 52.4428C86.8372 52.0173 85.2691 52.1793 84.6276 51.2309C83.986 50.2826 85.0196 49.5758 85.6245 49.5401C86.2308 49.5044 86.6581 50.1948 86.6581 50.1948C86.6581 50.1948 86.1533 49.5676 85.8121 48.788C85.4694 48.0085 85.9559 46.249 85.9559 46.249L85.1521 49.2368L85.131 49.3356Z" fill="#E29B66"/>
<path d="M83.9431 38.728C83.9431 38.728 83.6413 36.6392 81.5642 36.1561C79.4872 35.673 77.3057 35.8597 76.2538 36.6351C75.2019 37.4105 74.7549 38.1022 74.7549 38.1022C74.7549 38.1022 75.2809 36.6914 76.6867 36.0134C78.0926 35.334 80.972 35.124 82.2467 35.7773C83.5228 36.4292 83.8909 37.265 83.9431 38.728Z" fill="#965427"/>
<path d="M75.1036 38.956C75.1036 38.956 74.3619 39.0466 73.7232 38.4852C73.0844 37.9239 73.1056 37.0538 73.1056 37.0538C73.1056 37.0538 73.4144 37.6851 74.1039 37.9747C74.7934 38.2643 75.2884 38.0543 75.2884 38.0543C75.2884 38.0543 74.7215 38.0378 74.2886 37.7551C73.8557 37.4724 73.8247 37.0112 73.8247 37.0112C73.8247 37.0112 74.6651 37.6247 75.2122 37.4779C75.7607 37.331 76.109 37.0648 76.109 37.0648L76.1612 37.6426C76.1654 37.6439 75.2277 38.5758 75.1036 38.956Z" fill="#30221B"/>
<path d="M81.4323 37.0535C81.4323 37.0535 82.3461 37.7561 82.7395 38.2914C83.1343 38.828 83.2513 39.3427 83.2513 39.3427L83.0962 39.9342L82.5646 40.2773C82.5646 40.2773 81.5239 40.6492 79.0718 40.5381C76.6211 40.4269 75.7271 39.7407 75.4309 39.447C75.1348 39.1533 75.0234 38.8445 75.0234 38.8445C75.0234 38.8445 76.6309 36.6417 78.4161 36.4962C80.2041 36.3535 81.4323 37.0535 81.4323 37.0535Z" fill="white"/>
<path d="M76.9893 37.0957C76.9893 37.0957 76.6734 37.6612 76.9455 38.8538C77.2177 40.0464 78.0934 40.4376 79.2764 40.4733C80.4595 40.5076 81.3873 39.5935 81.5551 38.593C81.7215 37.5925 81.4057 37.0957 81.4057 37.0957C81.4057 37.0957 80.3382 36.3272 78.9436 36.5303C77.5477 36.732 76.9893 37.0957 76.9893 37.0957Z" fill="#61A7BC"/>
<path d="M83.0346 38.854C83.0346 38.854 83.1488 39.0873 82.9894 39.5704C82.8301 40.0535 82.5664 40.1482 82.5664 40.1482C82.5664 40.1482 83.2207 39.9616 83.2531 39.9547C83.2856 39.9478 83.7791 39.9423 83.7791 39.9423C83.7791 39.9423 84.0484 39.7927 83.8905 39.6226C83.7325 39.4524 83.0346 38.854 83.0346 38.854Z" fill="#FFA992"/>
<path d="M81.0699 36.8049C81.0699 36.8049 79.9969 36.0885 78.0411 36.4248C76.0853 36.761 75.1109 37.7272 74.8021 38.0332C74.4932 38.3393 74.4665 38.4354 74.4834 38.5136C74.5003 38.5918 75.0122 38.9939 75.0122 38.9939C75.0122 38.9939 75.5254 37.9399 76.5337 37.3388C77.5405 36.739 79.3242 36.2175 81.0699 36.8049Z" fill="#30221B"/>
<path d="M78.9098 40.6386C75.4861 40.3929 75.0517 39.1371 75.0123 38.9944C74.9671 38.8269 75.2153 38.4811 75.3225 38.3397C76.0275 37.4216 77.4249 36.4362 79.2313 36.4238C79.2411 36.4238 79.2524 36.4238 79.2623 36.4238C82.1234 36.4238 83.3346 38.9573 83.3431 38.982C83.3783 39.0795 83.6491 39.2922 83.7943 39.4061C83.948 39.5269 83.9889 39.5612 84.0072 39.6051C84.0538 39.7177 84.0524 39.8151 84.0016 39.892C83.9057 40.0416 83.6745 40.0512 83.4714 40.0594C83.3995 40.0621 83.3248 40.0663 83.2881 40.0759C83.2669 40.0813 83.2331 40.0978 83.1852 40.1212C82.8693 40.2707 82.0049 40.6797 80.0604 40.6797C79.7149 40.6825 79.3314 40.6688 78.9098 40.6386ZM83.666 39.5722C83.4122 39.3732 83.1993 39.1961 83.1471 39.0548C83.1386 39.0301 81.9429 36.6338 79.2623 36.6338C79.2524 36.6338 79.2426 36.6338 79.2327 36.6338C77.4884 36.6448 76.3363 37.5616 75.8033 38.1064C75.3803 38.5401 75.2139 38.8791 75.2153 38.9395C75.2294 38.9903 75.589 40.1898 78.9239 40.4299C81.6369 40.6248 82.7368 40.1047 83.0977 39.9345C83.1612 39.9043 83.2063 39.8837 83.2359 39.8769C83.2951 39.8604 83.3741 39.8576 83.4658 39.8535C83.5786 39.848 83.7901 39.8398 83.8282 39.7822C83.838 39.7671 83.8352 39.7369 83.8211 39.6984C83.7957 39.6751 83.7238 39.6188 83.666 39.5722Z" fill="#965427"/>
<path d="M78.0078 38.2913C78.0078 37.6532 78.5281 37.1357 79.1711 37.1357C79.8141 37.1357 80.3345 37.6532 80.3345 38.2913C80.3345 38.9295 79.8141 39.4469 79.1711 39.4469C78.5295 39.4469 78.0078 38.9295 78.0078 38.2913Z" fill="#30221B"/>
<path opacity="0.21" d="M77.752 37.7547C77.752 38.0964 78.3879 38.3737 79.1719 38.3737C79.9559 38.3737 80.5919 38.0964 80.5919 37.7547C80.5919 37.413 79.9559 37.1357 79.1719 37.1357C78.3879 37.1357 77.752 37.413 77.752 37.7547Z" fill="white"/>
<path opacity="0.66" d="M80.8948 37.9744C80.8948 37.6999 80.6706 37.4775 80.3957 37.4775C80.1207 37.4775 79.8965 37.6999 79.8965 37.9744C79.8965 38.2488 80.1207 38.4698 80.3957 38.4698C80.6706 38.4698 80.8948 38.2488 80.8948 37.9744Z" fill="white"/>
<path opacity="0.66" d="M78.4477 39.229C78.4477 39.0519 78.3039 38.9092 78.1262 38.9092C77.9485 38.9092 77.8047 39.0519 77.8047 39.229C77.8047 39.406 77.9485 39.5487 78.1262 39.5487C78.3024 39.5487 78.4477 39.406 78.4477 39.229Z" fill="white"/>
<path d="M81.6015 38.1229C81.6015 38.1229 80.9698 37.3845 79.296 37.3241C77.6222 37.2624 76.8523 38.2917 76.8523 38.2917C76.8523 38.2917 76.8156 37.7921 76.8593 37.5657C76.903 37.3392 76.9298 37.2432 76.9298 37.2432C76.9298 37.2432 77.8182 36.5158 79.217 36.5542C80.6144 36.5926 81.4845 37.2734 81.4845 37.2734C81.4845 37.2734 81.6396 37.7029 81.6015 38.1229Z" fill="#387887"/>
<path d="M69.089 36.6333C69.089 36.6333 69.6066 46.0591 71.0293 49.0771C72.4535 52.0937 74.783 57.206 74.5659 57.2774C74.3487 57.3488 71.9755 52.6262 71.0293 51.4555C70.0818 50.2835 69.9548 52.0292 69.9548 52.0292C69.9548 52.0292 69.0256 43.645 69.089 36.6333Z" fill="#E29B66"/>
<path d="M71.209 34.9619C71.2625 34.9413 73.5328 33.3218 75.3998 33.2065C77.2667 33.0912 85.1745 35.9967 85.5919 35.4216C86.0079 34.8466 85.9712 33.7898 85.3479 33.3287C84.7233 32.8689 77.6319 31.2453 75.184 31.7627C72.7347 32.2829 69.4943 35.6055 71.209 34.9619Z" fill="#8E5D3C"/>
<path d="M89.9971 41.0718C89.9971 41.0718 88.8296 49.5548 87.9172 49.8663C87.0049 50.1779 85.1083 49.681 85.5102 50.6747C85.9121 51.6683 89.9971 52.0951 89.9971 52.0951V41.0718Z" fill="#F9C39B"/>
<path d="M89.9978 64.7685C89.861 64.7685 87.7543 64.1824 86.8786 64.5022C86.003 64.822 85.6208 66.7914 86.8786 68.2036C88.1364 69.6145 89.9978 69.9604 89.9978 69.9604V64.7685Z" fill="#F9C39B"/>
<path d="M89.9975 14.757C89.9975 14.757 78.0709 11.9065 73.1102 21.9541C68.1495 32.0016 70.6651 62.4215 71.5365 69.1272C72.5109 76.6275 73.8308 83.406 73.8308 83.406C73.8308 83.406 68.9448 59.9114 67.8181 43.0456C66.6915 26.1798 68.8658 13.8773 78.2979 10.4531C87.7315 7.02889 89.9975 10.1951 89.9975 10.1951V14.757Z" fill="#593014"/>
<path d="M92.2263 16.9676V0.231119C92.2263 0.231119 75.3808 -2.92028 66.1783 14.0508C57.1205 30.754 63.957 53.9555 63.957 53.9555L68.1918 54.7512C68.1918 54.7512 66.8464 32.9455 76.4168 22.4122C85.9887 11.8808 92.2263 16.9676 92.2263 16.9676Z" fill="#593014"/>
<path d="M110.788 40.3764C110.788 40.3764 111.965 37.2885 113.946 37.0771C115.926 36.8658 117.824 39.8247 116.504 42.1496C115.185 44.4745 113.085 48.4203 112.195 50.3224C111.305 52.2246 109.94 51.7292 109.94 51.7292L110.788 40.3764Z" fill="#E5A373"/>
<path d="M111.924 46.2011C112.048 44.1933 112.13 40.5645 113.616 39.1386C115.101 37.7113 116.133 39.7205 115.844 41.3756C115.555 43.0322 114.029 45.7798 114.029 45.7798C114.813 44.1589 115.862 40.3614 115.06 39.6505C114.426 39.0878 113.639 40.1034 113.234 41.3345C113.331 41.318 113.444 41.3413 113.575 41.447C114.07 41.8436 114.101 42.7947 114.101 42.7947C113.73 41.9232 113.327 41.5527 113.266 42.8743C113.204 44.196 113.761 44.196 113.668 45.438C113.612 46.1984 113.161 46.4715 112.819 46.5703C112.79 46.8009 112.756 47.0383 112.709 47.2963C112.296 49.5855 110.606 49.9739 110.687 48.9515C110.769 47.9263 111.8 48.209 111.924 46.2011Z" fill="#C17B4C"/>
<path d="M89.9971 13.3929V71.9682C89.9971 71.9682 93.2797 71.9682 99.1894 67.5312C103.212 64.5105 108.104 59.5793 109.537 54.6097C110.969 49.6402 110.651 35.0142 111.288 30.6114C111.925 26.2087 110.015 16.9791 105.557 12.2936C101.1 7.60814 89.9971 6.75586 89.9971 6.75586V13.3929Z" fill="#EFB686"/>
<path d="M94.5389 34.1497C94.5389 34.1497 95.5289 35.0623 97.3197 34.6369C99.1105 34.2114 104.707 33.4799 105.995 33.9054C107.282 34.3308 109.073 35.5976 108.96 36.2907C108.849 36.9851 106.755 40.1294 105.487 40.4738C99.4771 42.1084 95.0818 40.0525 94.4656 40.7428C93.8494 41.4332 94.7505 49.2903 94.7505 49.2903C94.7505 49.2903 94.264 48.9994 93.614 49.8667C92.9836 47.0711 91.4918 39.3635 91.5778 38.5195C91.912 35.2147 94.5389 34.1497 94.5389 34.1497Z" fill="#E29B66"/>
<path d="M94.8643 49.3356C94.8643 49.3356 96.2589 50.2112 96.0093 51.5562C95.7597 52.9012 94.3341 52.4771 93.3019 52.9726C92.2683 53.468 92.0906 54.1048 91.4843 54.3175C90.8794 54.5303 89.998 54.5303 89.998 54.5303V52.8669C89.998 52.8669 91.521 52.8669 92.3402 52.4428C93.1595 52.0173 94.7275 52.1793 95.3691 51.2309C96.0107 50.2826 94.9771 49.5758 94.3708 49.5401C93.7658 49.5044 93.3372 50.1948 93.3372 50.1948C93.3372 50.1948 93.842 49.5676 94.1832 48.788C94.5259 48.0085 94.0394 46.249 94.0394 46.249L94.8431 49.2368L94.8643 49.3356Z" fill="#E29B66"/>
<path d="M96.0537 38.728C96.0537 38.728 96.3555 36.6392 98.4326 36.1561C100.51 35.673 102.691 35.8597 103.743 36.6351C104.795 37.4105 105.242 38.1022 105.242 38.1022C105.242 38.1022 104.716 36.6914 103.31 36.0134C101.904 35.334 99.0248 35.124 97.7501 35.7773C96.4739 36.4292 96.1059 37.265 96.0537 38.728Z" fill="#965427"/>
<path d="M104.891 38.9555C104.891 38.9555 105.633 39.0461 106.271 38.4847C106.91 37.9234 106.889 37.0533 106.889 37.0533C106.889 37.0533 106.58 37.6846 105.891 37.9742C105.201 38.2638 104.706 38.0538 104.706 38.0538C104.706 38.0538 105.273 38.0373 105.705 37.7546C106.137 37.4719 106.169 37.0107 106.169 37.0107C106.169 37.0107 105.33 37.6242 104.781 37.4774C104.232 37.3305 103.884 37.0643 103.884 37.0643L103.832 37.6421C103.832 37.6421 104.768 38.5753 104.891 38.9555Z" fill="#30221B"/>
<path d="M98.5622 37.0535C98.5622 37.0535 97.6485 37.7561 97.255 38.2914C96.8602 38.828 96.7432 39.3427 96.7432 39.3427L96.8983 39.9342L97.4299 40.2773C97.4299 40.2773 98.4705 40.6492 100.923 40.5381C103.373 40.4269 104.267 39.7407 104.564 39.447C104.86 39.1533 104.971 38.8445 104.971 38.8445C104.971 38.8445 103.364 36.6417 101.578 36.4962C99.7918 36.3535 98.5622 37.0535 98.5622 37.0535Z" fill="white"/>
<path d="M103.007 37.0957C103.007 37.0957 103.323 37.6612 103.051 38.8538C102.778 40.0464 101.903 40.4376 100.72 40.4733C99.5367 40.5076 98.6074 39.5935 98.441 38.593C98.2746 37.5925 98.5905 37.0957 98.5905 37.0957C98.5905 37.0957 99.6579 36.3272 101.053 36.5303C102.447 36.732 103.007 37.0957 103.007 37.0957Z" fill="#61A7BC"/>
<path d="M96.9622 38.854C96.9622 38.854 96.848 39.0873 97.0073 39.5704C97.1667 40.0535 97.4304 40.1482 97.4304 40.1482C97.4304 40.1482 96.7761 39.9616 96.7437 39.9547C96.7112 39.9478 96.2177 39.9423 96.2177 39.9423C96.2177 39.9423 95.9484 39.7927 96.1063 39.6226C96.2642 39.4524 96.9622 38.854 96.9622 38.854Z" fill="#FFA992"/>
<path d="M98.9258 36.8049C98.9258 36.8049 99.9988 36.0885 101.955 36.4248C103.91 36.761 104.885 37.7272 105.194 38.0332C105.504 38.3393 105.529 38.4354 105.512 38.5136C105.495 38.5918 104.984 38.9939 104.984 38.9939C104.984 38.9939 104.47 37.9399 103.462 37.3388C102.454 36.739 100.671 36.2175 98.9258 36.8049Z" fill="#30221B"/>
<path d="M99.9332 40.6822C97.9887 40.6822 97.1257 40.2732 96.8084 40.1236C96.7605 40.1003 96.7266 40.0838 96.7055 40.0783C96.6688 40.0687 96.5941 40.0646 96.5222 40.0618C96.3191 40.0536 96.0879 40.0426 95.992 39.8944C95.9426 39.8175 95.9398 39.7201 95.9863 39.6076C96.0047 39.5636 96.0456 39.5307 96.1993 39.4086C96.3445 39.2946 96.6152 39.0805 96.6505 38.9845C96.6604 38.9584 97.8702 36.4263 100.731 36.4263C100.741 36.4263 100.752 36.4263 100.762 36.4263C102.569 36.4386 103.966 37.424 104.671 38.3422C104.78 38.4835 105.026 38.8294 104.981 38.9968C104.943 39.1396 104.509 40.3953 101.084 40.641C100.665 40.6684 100.281 40.6822 99.9332 40.6822ZM96.1767 39.6981C96.1626 39.7366 96.1598 39.7668 96.1697 39.7819C96.2063 39.8395 96.4179 39.8491 96.5321 39.8532C96.6237 39.8573 96.7013 39.8601 96.7619 39.8766C96.7901 39.8848 96.8352 39.904 96.9001 39.9342C97.2611 40.1058 98.3595 40.6245 101.074 40.4296C104.409 40.1908 104.77 38.99 104.783 38.9392C104.784 38.8774 104.616 38.5384 104.195 38.1061C103.663 37.5613 102.509 36.6445 100.765 36.6335C100.755 36.6335 100.745 36.6335 100.736 36.6335C98.055 36.6335 96.8592 39.0311 96.8507 39.0545C96.7986 39.1958 96.5857 39.3715 96.3318 39.5719C96.2726 39.6185 96.2007 39.6748 96.1767 39.6981Z" fill="#965427"/>
<path d="M101.988 38.2913C101.988 37.6532 101.467 37.1357 100.824 37.1357C100.181 37.1357 99.6611 37.6532 99.6611 38.2913C99.6611 38.9295 100.181 39.4469 100.824 39.4469C101.467 39.4469 101.988 38.9295 101.988 38.2913Z" fill="#30221B"/>
<path opacity="0.21" d="M102.244 37.7547C102.244 38.0964 101.608 38.3737 100.824 38.3737C100.04 38.3737 99.4043 38.0964 99.4043 37.7547C99.4043 37.413 100.04 37.1357 100.824 37.1357C101.608 37.1357 102.244 37.413 102.244 37.7547Z" fill="white"/>
<path opacity="0.66" d="M99.1025 37.9744C99.1025 37.6999 99.3267 37.4775 99.6017 37.4775C99.8781 37.4775 100.101 37.6999 100.101 37.9744C100.101 38.2488 99.8767 38.4698 99.6017 38.4698C99.3253 38.4712 99.1025 38.2488 99.1025 37.9744Z" fill="white"/>
<path opacity="0.66" d="M101.549 39.229C101.549 39.0519 101.693 38.9092 101.87 38.9092C102.048 38.9092 102.192 39.0519 102.192 39.229C102.192 39.406 102.048 39.5487 101.87 39.5487C101.693 39.5487 101.549 39.406 101.549 39.229Z" fill="white"/>
<path d="M98.3951 38.1229C98.3951 38.1229 99.0268 37.3845 100.701 37.3241C102.374 37.2624 103.144 38.2917 103.144 38.2917C103.144 38.2917 103.181 37.7921 103.137 37.5657C103.093 37.3392 103.067 37.2432 103.067 37.2432C103.067 37.2432 102.178 36.5158 100.78 36.5542C99.3821 36.5926 98.5121 37.2734 98.5121 37.2734C98.5121 37.2734 98.3556 37.7029 98.3951 38.1229Z" fill="#387887"/>
<path d="M110.906 36.6333C110.906 36.6333 110.388 46.0591 108.966 49.0771C107.542 52.0937 105.212 57.206 105.429 57.2774C105.646 57.3488 108.02 52.6262 108.966 51.4555C109.913 50.2835 110.04 52.0292 110.04 52.0292C110.04 52.0292 110.969 43.645 110.906 36.6333Z" fill="#E29B66"/>
<path d="M108.785 34.9619C108.731 34.9413 106.462 33.3218 104.594 33.2065C102.727 33.0912 94.8178 35.9967 94.4018 35.4216C93.9859 34.8466 94.0225 33.7898 94.6458 33.3287C95.2691 32.8689 102.362 31.2453 104.81 31.7627C107.26 32.2829 110.501 35.6055 108.785 34.9619Z" fill="#8E5D3C"/>
<path d="M89.9971 41.0718C89.9971 41.0718 91.1646 49.5548 92.0755 49.8663C92.9879 50.1779 94.8845 49.681 94.4826 50.6747C94.0821 51.6683 89.9971 52.0951 89.9971 52.0951V41.0718Z" fill="#F9C39B"/>
<path d="M89.9971 64.7685C90.1338 64.7685 92.2405 64.1824 93.1148 64.5022C93.9905 64.822 94.3726 66.7914 93.1148 68.2036C91.857 69.6145 89.9971 69.9604 89.9971 69.9604V64.7685Z" fill="#F9C39B"/>
<path d="M89.9971 14.757C89.9971 14.757 101.924 11.9065 106.884 21.9541C111.845 32.0016 109.345 62.4243 108.458 69.1272C107.424 76.9501 106.164 83.406 106.164 83.406C106.164 83.406 111.05 59.9114 112.176 43.0456C113.303 26.1798 111.129 13.8773 101.697 10.4531C92.2645 7.02889 89.9971 10.1951 89.9971 10.1951V14.757Z" fill="#593014"/>
<path d="M89.9766 16.9676V0.231119C89.9766 0.231119 106 -2.92028 114.754 14.0508C123.37 30.754 116.867 53.9555 116.867 53.9555L112.839 54.7512C112.839 54.7512 114.118 32.9455 105.015 22.4122C95.9114 11.8808 89.9766 16.9676 89.9766 16.9676Z" fill="#593014"/>
<path d="M98.8489 58.9278C98.7087 58.7431 96.2703 59.1556 94.7759 58.8804C91.5651 58.2883 91.7938 58.3387 89.9035 58.5439C88.0476 58.3577 88.3798 58.2555 85.0693 58.8804C83.5764 59.1622 81.1365 58.7431 80.9963 58.9278C80.8313 59.1454 81.8473 59.871 82.7644 60.0783C85.8836 60.7843 87.2963 60.1506 89.8015 60.4959H90.1622C92.6673 60.1506 93.9623 60.7843 97.0808 60.0783C97.9979 59.871 99.0146 59.1454 98.8489 58.9278Z" fill="#D98966"/>
<path d="M85.7179 62.4099C86.6605 62.9319 87.8137 63.4458 89.8832 63.4101C89.9005 63.4101 89.962 63.4093 89.98 63.4093C92.0495 63.3736 93.1952 62.818 94.131 62.2632C94.6326 61.9646 94.3972 61.7551 93.6046 61.8529C91.3326 62.134 88.4661 62.207 86.2436 61.9719C85.4472 61.8872 85.2118 62.1311 85.7179 62.4099Z" fill="#D98966"/>
<path d="M145.923 287.721C145.893 287.405 143.027 255.98 141.44 242.797C138.796 220.83 134.306 212.812 134.218 212.435C134.218 212.435 132.718 207.692 132.718 207.69C132.371 206.219 117.7 209.777 115.909 209.918C106.513 210.667 97.0936 210.874 87.6834 210.874C73.4808 210.874 61.6167 211.531 47.6124 207.69L46.4877 210.61C46.3216 211.222 40.1559 225.437 38.2555 244.521C36.3717 263.448 35.3741 288.858 35.3643 289.113L35.2402 292.33L37.4767 292.978C38.233 293.197 56.1691 298.337 71.7914 298.337C77.4135 298.337 85.1929 297.377 85.5221 297.336L87.8056 297.052C90.7275 296.92 87.3533 297.108 89.9777 296.92H93.1042C93.0857 296.481 93.2957 302.565 93.1042 296.92L95.2762 297.319C111.228 300.257 128.508 297.898 144.008 291.795L146.215 290.927L145.923 287.721Z" fill="#145239"/>
</svg>
