<svg width="213" height="656" viewBox="0 0 213 656" fill="none" xmlns="http://www.w3.org/2000/svg">
<path d="M27.7799 368.494C27.7799 368.494 29.8912 366.392 28.751 364.815C27.6092 363.239 22.5862 368.494 22.5862 368.494C22.5862 368.494 25.9536 364.343 26.068 363.705C26.1823 363.068 24.8698 361.953 23.2142 363.413C21.5587 364.873 19.8468 366.742 19.8468 366.742C19.8468 366.742 21.9581 363.997 22.1868 363.238C22.4155 362.478 21.2173 361.486 19.2187 363.472C17.2217 365.457 15.3491 363.004 15.3491 363.004C15.3491 363.004 14.4807 366.682 15.7368 368.494C16.993 370.304 19.333 372.114 19.8468 372.874C20.3605 373.634 21.2173 374.742 22.8148 374.218C24.4124 373.692 25.9536 372.524 26.6397 371.765C27.3242 371.004 27.7799 368.494 27.7799 368.494Z" fill="#DD945E"/>
<path d="M88.2177 87.0483C88.2177 87.0483 85.4402 102.115 77.5634 107.955C69.6866 113.795 64.4266 114.145 63.1704 114.379C61.9143 114.613 59.9737 114.145 57.8043 115.197C55.635 116.249 53.1243 117.649 50.0419 117.883C46.9595 118.117 36.3433 120.103 28.6935 129.212C21.0455 138.322 19.7893 149.884 20.8168 155.374C21.8442 160.864 22.7574 168.923 21.9586 171.843C21.1598 174.763 16.9355 187.025 15.565 198.94C14.1945 210.854 16.7068 225.364 15.565 229.335C14.4232 233.305 9.17144 254.017 7.34518 276.752C5.51892 299.489 8.25831 319.422 7.34518 323.16C6.43205 326.898 22.7176 323.16 22.7176 323.16C22.7176 323.16 21.9569 312.415 27.8931 296.841C33.8293 281.269 35.0473 271.77 35.3506 264.138C35.6555 256.508 36.2637 246.852 37.4818 242.959C38.6999 239.067 42.8098 225.957 45.3967 215.523C47.9836 205.088 51.3329 191.852 51.3329 191.852C51.3329 191.852 52.246 199.092 54.4916 202.402C56.7371 205.712 57.1547 206.256 57.1547 206.412C57.1547 206.568 56.3559 213.809 57.3453 218.403C58.3347 222.997 59.4765 226.189 59.324 227.201C59.1716 228.213 58.3347 231.561 58.4109 233.041C58.4871 234.521 58.9429 237.323 58.9429 238.257C58.9429 239.192 55.7461 248.536 55.0616 254.298C54.3772 260.06 57.0238 266.922 56.5664 267.974C56.1107 269.024 54.0723 274.854 52.7018 281.395C51.3312 287.935 51.028 304.753 51.028 304.753H106.432V87.0483H88.2177Z" fill="#EFB686"/>
<path d="M50.9169 299.848C50.9169 299.848 46.5038 324.374 47.4169 365.72C48.33 407.065 56.2068 438.834 56.8929 441.52C57.5773 444.206 58.4905 447.593 58.4905 449.579C58.4905 451.564 57.0056 456.587 57.3486 462.893C57.6917 469.199 57.9187 472.587 57.8044 474.339C57.69 476.091 51.3362 506.153 51.9444 525.775C52.5526 545.396 62.5059 568.863 65.0928 580.853C67.6798 592.844 69.0288 615.348 68.7255 617.684C68.4206 620.02 67.0517 622.59 67.0517 624.847C67.0517 627.105 68.1173 629.441 68.1173 632.165C68.1173 634.891 65.1492 642.287 63.9311 644.311C62.7131 646.336 59.1368 649.918 59.5925 651.242C60.0499 652.566 63.245 652.721 63.245 652.721C63.245 652.721 64.1582 653.968 65.9082 654.435C67.6582 654.903 69.2574 654.435 69.2574 654.435C69.2574 654.435 71.9968 655.759 73.0624 655.369C74.128 654.98 75.1936 654.902 75.1936 654.902C75.1936 654.902 79.6831 655.512 80.5962 655.441C81.5093 655.369 82.3462 654.669 82.3462 654.669C82.3462 654.669 84.4012 655.681 89.2717 655.447C94.1423 655.214 95.8924 654.903 96.1211 652.489C96.3498 650.075 96.2735 648.285 95.0555 646.649C93.8374 645.013 90.7168 632.712 91.1742 629.831C91.63 626.95 93.6866 622.434 92.4685 618.618C91.2505 614.802 89.7291 614.958 88.7398 609.274C87.7504 603.59 86.8323 583.058 88.7398 567.773C91.4792 545.816 91.3665 533.679 90.9091 523.741C90.1236 506.684 88.5111 499.331 88.9685 493.414C89.4259 487.496 93.2309 480.178 94.4489 470.367C95.667 460.557 95.4134 449.501 96.2255 445.763C97.0375 442.025 100.538 418.044 102.061 397.799C103.582 377.554 101.908 363.072 102.061 357.31C102.213 351.548 102.705 347.499 102.705 347.499H106.323V299.848H50.9169Z" fill="#EFB686"/>
<path d="M22.689 321.912C22.689 321.912 23.9386 326.038 25.3837 329.464C26.8304 332.89 30.5592 337.25 30.4067 343.012C30.2543 348.775 29.4174 350.877 29.6461 355.393C29.8748 359.909 29.5698 363.763 27.4386 363.763C25.3074 363.763 23.4812 357.651 23.4812 354.381C23.4812 351.111 23.3287 346.205 22.3394 345.894C21.35 345.582 18.6106 354.927 17.8499 357.341C17.0893 359.755 16.3269 362.247 17.1655 364.505C18.0024 366.763 20.6656 373.225 22.4172 372.603C24.1673 371.981 27.7452 367.231 29.2666 367.231C30.7879 367.231 31.8535 369.411 28.4297 373.383C25.0042 377.353 22.7984 378.677 20.591 378.055C18.3836 377.431 13.6654 372.527 12.1441 370.969C10.6228 369.411 6.51286 363.65 6.05547 363.338C5.59807 363.026 3.84805 362.87 3.01115 361.624C2.17425 360.378 1.10865 359.21 0.879954 358.666C0.651257 358.12 -0.338105 355.786 0.119289 353.838C0.575025 351.892 7.58177 325.779 7.52211 321.48C7.46245 317.18 22.689 321.912 22.689 321.912Z" fill="#EFB686"/>
<path d="M63.1694 114.377C63.1694 114.377 70.2093 116.791 79.8743 117.803C89.5392 118.816 98.5959 118.582 99.6615 118.894C100.727 119.205 102.782 121.308 104.303 121.386C105.825 121.463 106.435 121.386 106.435 121.386V118.894C106.435 118.894 103.848 119.049 102.325 118.426C100.802 117.803 100.878 116.79 98.8246 116.402C96.7697 116.012 87.9416 117.258 80.4062 116.246C72.8725 115.233 66.4507 113.319 66.4507 113.319L63.1694 114.377Z" fill="#DD945E"/>
<path d="M86.9282 92.107C86.9282 92.107 87.4867 97.675 93.993 100.595C100.499 103.515 106.435 103.631 106.435 103.631V87.0483H88.2175L86.9282 92.107Z" fill="#DD945E"/>
<path d="M50.2103 154.905C50.2103 154.905 44.7945 169.037 49.1514 179.666C53.5065 190.294 58.334 195.784 65.6325 197.184C72.9309 198.586 92.2375 198.118 97.2987 197.184C102.36 196.25 103.42 190.76 103.538 186.906C103.656 183.052 103.656 170.905 104.126 168.453C104.597 166.001 105.891 169.971 105.421 175.461C104.95 180.951 105.656 195.2 104.95 197.418C104.244 199.638 92.2359 201.622 84.2315 202.324C76.2271 203.024 62.8069 200.806 60.3343 200.806C57.8617 200.806 57.5485 206.412 57.5485 206.412C57.5485 206.412 53.4933 203.812 51.087 193.609C48.6807 183.404 43.7356 180.951 44.7945 171.257C45.8535 161.563 50.2103 154.905 50.2103 154.905Z" fill="#DD945E"/>
<path d="M62.6564 192.572C62.6564 192.572 60.2584 192.104 60.4307 189.418C60.6014 186.732 67.2801 187.842 69.3914 188.542C71.5027 189.242 73.0439 192.98 68.7633 192.98C64.4827 192.98 62.6564 192.572 62.6564 192.572Z" fill="#DD945E"/>
<path d="M33.8311 170.517C33.8311 170.517 40.2495 173.067 43.496 177.835C46.7425 182.603 47.9738 185.28 47.9738 185.28L45.9321 177.369C45.9321 177.369 40.5296 170.205 33.8311 170.517Z" fill="#DD945E"/>
<path d="M22.1846 166.137C22.1846 166.137 23.7093 174.8 24.0888 178.692C24.4699 182.586 24.5445 186.166 24.5445 186.166C24.5445 186.166 23.3264 180.482 22.7945 178.302C22.2625 176.122 19.6143 179.707 19.6143 179.707C19.6143 179.707 22.5393 170.134 22.1846 166.137Z" fill="#DD945E"/>
<path d="M15.7359 222.5C15.7359 222.5 17.3169 231.592 17.3169 233.382C17.3169 235.172 16.2115 237.664 15.7359 238.91C15.2619 240.156 15.1857 237.274 15.3382 235.484C15.4906 233.694 14.2726 235.952 13.8152 237.82C13.3594 239.688 12.7827 240.83 12.7827 240.83C12.7827 240.83 13.8152 233.304 14.5758 231.124C15.3382 228.944 15.8867 224.849 15.7359 222.5Z" fill="#DD945E"/>
<path d="M74.6992 214.903C74.6992 214.903 69.7905 217.382 70.7037 222.889C71.6168 228.395 74.9279 235.692 76.2968 237.758C77.6673 239.823 83.8305 242.438 89.4253 239.272C95.0185 236.107 97.7595 234.73 100.84 234.041C103.923 233.353 105.52 230.117 105.978 226.675C106.433 223.232 105.807 210.566 105.35 207.331C104.892 204.096 100.042 202.375 96.2166 202.926C92.3918 203.477 84.9144 208.778 84.9144 208.778C84.9144 208.778 87.0837 205.473 90.7362 203.133C94.3887 200.792 97.4148 199.485 98.0992 199.072C98.7837 198.659 103.122 197.419 103.122 197.419C103.122 197.419 105.348 198.797 105.747 200.655C106.147 202.513 106.432 205.786 106.432 205.786V236.726C106.432 236.726 103.235 234.798 100.439 235.418C97.6419 236.037 88.5089 241.2 86.1689 242.923C83.8289 244.643 80.9751 243.886 80.7464 247.19C80.5178 250.495 81.1458 252.834 81.1458 252.834C81.1458 252.834 79.9477 249.391 79.5483 247.258C79.1489 245.124 78.8638 244.23 78.1777 243.404C77.4933 242.577 71.8985 235.899 69.9579 229.499C68.0206 223.096 68.5344 218.139 74.6992 214.903Z" fill="#DD945E"/>
<path d="M103.468 234.179L101.356 235.306C101.356 235.306 104.381 235.143 105.123 239.342C105.866 243.542 105.352 250.77 105.123 252.284C104.895 253.798 105.581 257.86 100.158 259.718C94.7358 261.576 89.1078 261.852 87.6975 262.748C86.2872 263.644 82.7491 260.269 81.9503 256.552C81.1515 252.834 80.7571 249.412 80.7256 247.681C80.6941 245.951 80.2947 245.332 80.2947 245.332L78.6855 244.169C78.6855 244.169 79.2092 248.016 79.6666 252.215C80.1224 256.415 82.0066 260.682 82.7491 262.059C83.4915 263.436 84.0052 263.849 84.461 265.777C84.9184 267.705 85.6028 267.843 85.6028 267.843C85.6028 267.843 86.9733 264.538 89.8271 264.125C92.6808 263.712 96.7907 261.578 100.501 261.853C104.212 262.129 106.437 263.644 106.437 267.36C106.437 260.201 106.437 234.868 106.437 234.868L103.468 234.179Z" fill="#DD945E"/>
<path d="M86.401 264.262L86.8782 265.864C86.8782 265.864 85.7165 267.567 85.9452 270.045C86.1739 272.523 87.1434 275.759 87.1434 276.998C87.1434 278.237 87.8278 281.129 92.7945 281.818C97.7596 282.506 101.642 281.955 103.81 280.51C105.979 279.065 106.435 275.76 106.435 275.76V285.879C106.435 285.879 104.324 283.263 101.298 283.195C98.2717 283.127 92.2791 283.057 90.1098 283.47C87.9405 283.883 87.7118 285.328 86.7987 286.5C85.8856 287.669 85.2575 286.224 85.4862 284.572C85.7149 282.919 85.8292 282.231 85.5425 280.923C85.2558 279.616 84.6857 274.796 84.6294 271.974C84.5714 269.152 83.1445 263.989 82.7451 262.061C82.3457 260.133 85.0288 263.781 85.0288 263.781L86.401 264.262Z" fill="#DD945E"/>
<path d="M57.1577 206.413C57.1577 206.413 57.234 214.705 61.5709 220.311C65.9095 225.917 69.1047 232.341 70.2465 234.91C71.3883 237.48 75.1121 246.122 74.1625 246.706C73.2146 247.29 70.7022 236.078 65.3378 228.953C59.9717 221.829 58.2598 220.991 57.3467 218.403C56.4352 215.815 56.2827 209.215 57.1577 206.413Z" fill="#DD945E"/>
<path d="M58.9014 237.554C58.9014 237.554 59.2129 242.273 59.8974 246.727C60.5818 251.182 62.2573 255.31 62.0286 255.464C61.7999 255.62 59.4267 249.473 58.9014 246.727C58.376 243.98 55.9316 249.613 55.9316 249.613C55.9316 249.613 57.9816 240.861 58.9014 237.554Z" fill="#DD945E"/>
<path d="M55.3618 260.865C55.3618 260.865 57.4632 269.013 63.1707 276.021C68.8781 283.029 74.5873 289.685 80.8648 297.161C87.1441 304.636 91.7097 316.2 91.7097 316.2C91.7097 316.2 83.1468 303.001 75.8418 296.227C68.5351 289.453 61.4007 282.621 58.7177 277.131C56.0347 271.641 55.864 269.89 55.864 269.89L56.2633 267.437L55.3618 260.865Z" fill="#DD945E"/>
<path d="M58.3259 447.797C58.374 448.162 64.9962 453.316 70.248 447.476C75.4997 441.636 77.4403 426.104 77.4403 426.104C77.4403 426.104 72.1886 441.754 68.4217 445.608C64.6549 449.462 57.31 444.13 55.8003 436.889C58.1502 446.798 58.3259 447.797 58.3259 447.797Z" fill="#DD945E"/>
<path d="M94.7908 443.856C94.8886 443.501 94.2207 453.2 88.6259 454.134C83.0328 455.068 78.5798 440.702 78.0097 435.33C77.4396 429.957 78.5798 421.081 78.5798 421.081C78.5798 421.081 78.5798 434.629 82.1196 443.272C85.6578 451.914 92.0514 453.782 94.7908 443.856Z" fill="#DD945E"/>
<path d="M61.5715 454.834C61.6858 455.524 62.2559 457.754 62.3703 460.908C62.4846 464.062 64.7683 471.536 67.8507 473.755C70.9331 475.975 76.2992 476.791 79.153 475.741C82.0067 474.689 84.6334 472.353 85.7736 469.316C86.9154 466.28 86.458 462.658 87.0297 460.44C87.6015 458.222 88.9704 454.95 88.9704 456.352C88.9704 457.754 87.2584 464.294 87.3728 467.564C87.4871 470.835 85.6609 475.273 83.6059 478.193C81.551 481.113 80.1804 481.931 79.8391 483.683C79.496 485.435 76.3009 493.727 74.2459 490.807C72.191 487.887 71.2778 483.099 69.6803 480.413C68.0827 477.727 63.401 473.171 62.1465 467.566C60.887 461.958 61.0445 451.657 61.5715 454.834Z" fill="#DD945E"/>
<path d="M91.2531 483.909C91.2531 483.909 88.3231 489.6 85.2788 497.542C82.2344 505.484 81.0164 520.901 81.6262 519.033C82.2344 517.165 82.7681 506.878 84.9755 501.549C87.1829 496.22 89.0572 499.575 89.0572 499.575C89.0572 499.575 88.7805 490.909 91.2531 483.909Z" fill="#DD945E"/>
<path d="M83.6036 648.791C83.6036 648.791 87.4848 649.063 86.6479 649.919C85.811 650.775 83.8323 650.541 83.9085 653.033C83.9848 655.525 86.9529 655.465 86.9529 655.465C86.9529 655.465 84.8614 655.477 83.7196 655.48C82.5778 655.485 82.3491 654.667 82.3491 654.667C82.3491 654.667 81.3978 655.397 80.3323 655.48C79.2667 655.563 79.0811 655.359 79.0811 655.359C79.0811 655.359 80.9421 654.705 81.6647 652.603C82.3872 650.501 79.8765 650.889 80.3704 649.683C80.8642 648.479 83.6036 648.791 83.6036 648.791Z" fill="#DD945E"/>
<path d="M74.1669 649.297C74.1669 649.297 77.7432 649.181 77.6305 649.919C77.5162 650.659 76.033 649.685 75.4993 651.555C74.9674 653.423 75.9153 655.001 76.5997 655.084C77.2842 655.167 77.8526 655.233 77.8526 655.233H75.0817L72.8047 655.421C72.8047 655.421 74.0924 655.253 74.4735 653.305C74.8547 651.359 74.7784 650.853 74.2829 650.229C73.7858 649.609 73.2173 649.298 74.1669 649.297Z" fill="#DD945E"/>
<path d="M71.3143 649.958C71.3143 649.958 70.3249 649.414 69.6024 651.282C68.8798 653.151 70.0863 654.795 70.0863 654.795L69.2593 654.435L67.7363 654.64C67.7363 654.64 68.6511 653.463 68.7638 651.866C68.8781 650.27 67.2044 650.036 67.965 649.57C68.7257 649.102 72.9499 649.53 71.3143 649.958Z" fill="#DD945E"/>
<path d="M65.7577 649.29C65.7577 649.29 64.9208 648.674 64.0458 649.84C63.1708 651.008 63.4989 653.008 63.4989 653.008L62.8244 652.684L61.7124 652.503C61.7124 652.503 63.0945 650.929 63.474 650.035C63.8552 649.139 62.0273 648.205 62.8658 647.816C63.7027 647.426 66.9376 648.893 66.3675 649.29C65.7958 649.686 65.7577 649.29 65.7577 649.29Z" fill="#DD945E"/>
<path d="M86.192 650.931C86.192 650.931 88.0945 650.153 90.7196 650.191C93.3446 650.231 94.6008 650.619 93.6114 650.931C92.6221 651.243 91.404 650.659 89.122 650.931C86.8383 651.205 84.3641 651.432 86.192 650.931Z" fill="#DD945E"/>
<path d="M92.4705 618.618C92.4705 618.618 92.5849 621.966 91.6718 624.614C90.7586 627.262 89.2373 630.843 89.2373 634.269C89.2373 637.695 90.4554 641.199 90.4554 640.731C90.4554 640.263 89.229 635.251 89.8273 632.829C90.4272 630.405 92.3396 627.018 92.7954 624.448C93.2511 621.88 92.7838 619.501 92.4705 618.618Z" fill="#DD945E"/>
<path d="M62.0566 312.899C62.0566 312.899 76.2541 318.524 88.1712 332.628C100.088 346.732 99.5878 358.362 100.387 366.187C101.185 374.013 102.574 391.611 102.06 397.8C102.06 397.8 103.431 383.073 102.783 369.107C102.135 355.14 102.957 347.5 102.957 347.5C102.957 347.5 93.8787 326.36 84.4043 317.601C74.9283 308.839 62.0566 312.899 62.0566 312.899Z" fill="#DD945E"/>
<path d="M81.6246 290.738C69.8285 287.935 58.3356 282.483 57.4225 283.807C56.5094 285.131 54.9864 289.024 56.052 290.816C57.1176 292.607 60.3906 293.93 59.6283 295.098C58.8676 296.266 54.9102 296.266 54.6815 297.356C54.4528 298.446 55.3493 300.16 55.3576 300.86C55.3659 301.56 53.9954 302.34 53.8446 302.574C53.6921 302.808 51.3919 302.964 55.3576 304.754C59.3233 306.544 61.6832 307.09 59.4758 306.934C57.2684 306.778 55.578 306.312 55.3576 306.622C55.1372 306.934 75.4581 314.227 83.6017 321.987C91.7453 329.747 96.9954 338.079 100.192 340.025C103.097 341.795 106.05 342.145 106.533 342.195L106.432 293.573L106.319 293.852C106.322 293.852 93.4224 293.541 81.6246 290.738Z" fill="white"/>
<path d="M80.5211 289.569C66.4795 286.299 52.8902 280.537 52.8902 280.537C49.1184 289.959 49.662 308.953 49.662 308.953C49.662 308.953 57.3465 310.476 71.5025 316.842C85.6585 323.208 94.3341 339.207 98.3297 344.697C102.325 350.187 106.55 349.369 106.55 349.369L106.535 342.195C106.054 342.145 103.099 341.795 100.194 340.025C96.9973 338.079 91.7455 329.747 83.6036 321.987C75.46 314.227 55.1408 306.934 55.3595 306.622C55.5799 306.31 57.2703 306.778 59.4777 306.934C61.6851 307.09 59.3252 306.544 55.3595 304.754C51.3938 302.963 53.694 302.808 53.8465 302.574C53.9989 302.34 55.3678 301.562 55.3595 300.86C55.3512 300.16 54.4547 298.446 54.6834 297.356C54.9121 296.266 58.8695 296.266 59.6302 295.098C60.3908 293.93 57.1195 292.606 56.0539 290.815C54.9883 289.025 56.5113 285.131 57.4244 283.807C58.3375 282.483 69.8304 287.933 81.6265 290.737C93.4226 293.54 106.322 293.852 106.322 293.852L106.435 293.573L106.437 292.909C106.437 292.909 94.5628 292.84 80.5211 289.569Z" fill="#EAE4E1"/>
<path d="M35.8144 255.489C35.8144 255.489 36.6562 243.464 35.8144 236.34C34.9725 229.215 33.7163 220.339 33.7163 220.689C33.7163 221.039 36.1143 236.106 37.5975 235.406C39.0824 234.706 42.42 226.569 42.42 226.569C42.42 226.569 40.68 235.464 39.2531 239.084C37.8262 242.704 37.2561 245.332 37.1418 246.5C37.0274 247.67 35.8144 255.489 35.8144 255.489Z" fill="#DD945E"/>
<path opacity="0.68" d="M60.203 117.37C60.203 117.37 71.8466 120.171 80.7509 121.42C89.6552 122.671 95.7057 121.736 98.2181 123.371C100.729 125.007 104.154 125.824 101.642 126.408C99.1312 126.992 91.9388 125.824 88.172 125.824C84.4051 125.824 47.1639 123.44 47.976 121.42C48.7864 119.4 59.0843 117.107 60.203 117.37Z" fill="#F9C39B"/>
<path opacity="0.54" d="M57.8799 143.576C57.8799 143.576 89.3158 149.572 95.3646 154.905C101.414 160.239 100.348 184.633 96.3905 190.343C92.433 196.054 82.082 195.588 80.4082 194.808C78.7344 194.03 84.069 192.94 84.2944 188.89C84.5181 184.842 79.3426 173.309 67.167 169.42C54.9897 165.531 51.3372 158.055 52.7077 152.139C54.0749 146.224 56.0056 143.204 57.8799 143.576Z" fill="#F9C39B"/>
<path opacity="0.68" d="M40.9013 122.554C40.9013 122.554 28.5815 127.224 24.5445 139.372C20.5075 151.52 25.3052 166.157 26.9806 168.181C28.6544 170.205 37.1659 169.427 40.9013 165.533C44.6367 161.639 37.3184 150.739 40.9013 140.928C44.4859 131.118 49.6481 121.308 40.9013 122.554Z" fill="#F9C39B"/>
<path opacity="0.68" d="M29.3973 186.519C29.3973 186.519 32.5162 197.555 31.2169 206.664C29.9176 215.773 31.7207 229.639 31.5334 233.097C31.3462 236.555 19.9097 226.807 19.9097 213.113C19.9097 199.417 22.1187 197.423 24.0676 193.832C26.0182 190.242 28.3367 181.792 29.3973 186.519Z" fill="#F9C39B"/>
<path opacity="0.68" d="M29.7106 270.552C30.2425 272.113 30.5524 273.764 30.5922 275.417C30.6502 277.826 30.4165 281.766 29.041 287.163C26.6049 296.73 23.0618 309.473 22.3923 312.918C21.7227 316.362 18.5773 313.007 19.3844 304.682C20.1898 296.358 22.0094 286.543 21.6266 276.105C21.2653 266.273 26.2503 260.393 29.7106 270.552Z" fill="#F9C39B"/>
<path opacity="0.68" d="M101.412 208.036C101.412 208.036 104.304 222.167 101.944 227.125C99.5842 232.082 90.3004 237.454 85.6568 237.041C81.015 236.628 78.4264 233.24 80.5576 229.522C82.6888 225.804 86.265 222.086 87.0274 216.053C87.7897 210.021 98.7489 202.832 101.412 208.036Z" fill="#F9C39B"/>
<path opacity="0.68" d="M103.391 240.512C103.391 240.512 103.696 254.064 99.8152 257.122C95.934 260.18 91.6716 261.006 88.7797 260.014C85.8879 259.022 87.4092 256.379 90.2248 254.643C93.0405 252.908 95.2479 249.437 95.629 246.049C96.0102 242.661 102.478 233.571 103.391 240.512Z" fill="#F9C39B"/>
<path opacity="0.68" d="M104.457 266.79C104.457 266.79 106.369 276.127 100.957 279.102C95.5425 282.077 89.0081 280.176 89.2368 277.946C89.4655 275.714 94.3361 275.55 96.2386 272.079C98.1411 268.608 102.478 261.749 104.457 266.79Z" fill="#F9C39B"/>
<path opacity="0.68" d="M68.0026 237.554C68.0026 237.554 70.4387 245.656 71.8838 250.794C73.3306 255.932 78.8093 269.949 80.8643 274.153C82.9193 278.357 79.038 277.423 76.6019 272.907C74.1658 268.391 72.1191 263.252 68.9572 256.244C65.7952 249.236 62.1426 243.552 64.2738 238.882C66.405 234.209 67.2121 234.906 68.0026 237.554Z" fill="#F9C39B"/>
<path opacity="0.68" d="M55.3618 330.214C55.3618 330.214 55.5226 359.647 58.7194 391.18C61.9161 422.715 64.6555 432.526 70.5917 427.854C76.5279 423.181 78.5828 412.671 81.5509 418.043C84.519 423.415 86.3453 433.46 88.9703 432.526C91.5954 431.592 95.2496 400.291 88.9703 366.42C82.6911 332.55 57.0273 316.9 55.3618 330.214Z" fill="#F9C39B"/>
<path opacity="0.68" d="M75.0739 446.23C75.0739 446.23 72.6444 449.89 70.5132 452.226C68.382 454.562 66.4033 458.376 69.7526 460.168C73.1018 461.958 78.8093 460.48 79.4175 464.996C80.0257 469.512 78.3519 471.147 79.9511 471.381C81.5487 471.615 87.0291 463.75 84.6693 457.21C82.3094 450.67 78.5657 448.49 77.8498 446.544C77.1355 444.594 76.2539 444.528 75.0739 446.23Z" fill="#F9C39B"/>
<path opacity="0.68" d="M64.9587 463.282C64.9587 464.06 66.253 471.48 70.7424 472.831C75.2319 474.183 77.9779 470.991 76.6057 468.499C75.2335 466.007 73.7868 467.33 72.2654 465.384C70.7441 463.438 67.0137 460.478 65.7973 461.18C64.5776 461.88 64.9587 463.282 64.9587 463.282Z" fill="#F9C39B"/>
<path opacity="0.68" d="M58.9461 501.549C58.9461 501.549 54.1517 522.459 57.5756 538.577C61.001 554.695 68.6027 570.112 69.7114 579.688C70.8184 589.265 78.1881 583.426 75.0742 555.629C71.9603 527.832 75.3858 510.08 72.8734 500.502C70.3627 490.925 65.3397 482.749 62.5986 487.655C59.8592 492.558 58.9461 501.549 58.9461 501.549Z" fill="#F9C39B"/>
<path opacity="0.68" d="M79.0799 619.942C78.8098 619.708 75.3843 619.552 74.2425 624.068C73.1006 628.584 68.5333 641.12 67.7346 643.611C66.9358 646.103 69.3719 646.647 70.6662 646.415C71.9605 646.181 74.1662 646.103 76.0704 646.805C77.9729 647.505 80.4504 646.961 83.0175 646.883C85.5845 646.805 87.8682 647.764 88.7051 647.752C89.542 647.739 90.6838 646.727 88.4002 641.12C86.1165 635.514 84.6714 630.764 84.5189 628.118C84.3665 625.472 84.4079 620.454 83.0175 619.849C81.6254 619.242 79.0799 619.942 79.0799 619.942Z" fill="#F9C39B"/>
<path d="M185.09 368.494C185.09 368.494 182.979 366.392 184.121 364.815C185.263 363.239 190.286 368.494 190.286 368.494C190.286 368.494 186.918 364.343 186.804 363.705C186.69 363.068 188.002 361.953 189.658 363.413C191.313 364.873 193.025 366.742 193.025 366.742C193.025 366.742 190.914 363.997 190.685 363.238C190.456 362.478 191.656 361.486 193.653 363.472C195.65 365.457 197.523 363.004 197.523 363.004C197.523 363.004 198.391 366.682 197.135 368.494C195.879 370.304 193.539 372.114 193.025 372.874C192.511 373.634 191.655 374.742 190.057 374.218C188.46 373.692 186.918 372.524 186.232 371.765C185.548 371.004 185.09 368.494 185.09 368.494Z" fill="#DD945E"/>
<path d="M124.541 87.0483C124.541 87.0483 127.318 102.115 135.195 107.955C143.072 113.795 148.446 114.145 149.702 114.379C150.958 114.613 152.899 114.145 155.068 115.197C157.238 116.249 159.748 117.649 162.831 117.883C165.913 118.117 176.529 120.103 184.179 129.212C191.827 138.322 193.083 149.884 192.056 155.374C191.028 160.864 190.115 168.923 190.914 171.843C191.713 174.763 195.937 187.025 197.308 198.94C198.678 210.852 196.166 225.364 197.308 229.335C198.449 233.305 203.701 254.017 205.527 276.752C207.354 299.489 204.614 319.422 205.527 323.16C206.441 326.898 190.155 323.16 190.155 323.16C190.155 323.16 190.916 312.415 184.98 296.841C179.043 281.267 177.825 271.77 177.52 264.138C177.215 256.508 176.607 246.852 175.389 242.959C174.171 239.067 170.061 225.957 167.474 215.523C164.887 205.088 161.538 191.852 161.538 191.852C161.538 191.852 160.625 199.092 158.379 202.402C156.134 205.712 155.716 206.256 155.716 206.412C155.716 206.568 156.515 213.809 155.526 218.403C154.536 222.997 153.394 226.189 153.547 227.201C153.699 228.213 154.536 231.561 154.46 233.041C154.384 234.521 153.926 237.323 153.926 238.257C153.926 239.192 157.123 248.536 157.808 254.298C158.492 260.06 155.845 266.922 156.303 267.974C156.759 269.024 158.797 274.854 160.168 281.395C161.538 287.935 161.841 304.753 161.841 304.753H106.437V87.0483H124.541Z" fill="#EFB686"/>
<path d="M161.956 299.848C161.956 299.848 166.371 324.374 165.458 365.72C164.544 407.065 156.668 438.834 155.983 441.52C155.299 444.206 154.386 447.593 154.386 449.579C154.386 451.564 155.871 456.587 155.528 462.893C155.184 469.199 154.957 472.587 155.072 474.339C155.186 476.091 161.54 506.153 160.932 525.775C160.324 545.396 150.37 568.863 147.783 580.853C145.196 592.844 143.846 615.348 144.151 617.684C144.456 620.02 145.824 622.59 145.824 624.847C145.824 627.105 144.759 629.441 144.759 632.165C144.759 634.891 147.727 642.287 148.945 644.311C150.163 646.336 153.739 649.918 153.284 651.242C152.828 652.566 149.631 652.721 149.631 652.721C149.631 652.721 148.718 653.968 146.968 654.435C145.218 654.903 143.619 654.435 143.619 654.435C143.619 654.435 140.879 655.759 139.814 655.369C138.748 654.98 137.683 654.902 137.683 654.902C137.683 654.902 133.193 655.512 132.278 655.441C131.365 655.369 130.528 654.669 130.528 654.669C130.528 654.669 128.473 655.681 123.603 655.447C118.732 655.214 116.982 654.903 116.753 652.489C116.525 650.075 116.601 648.285 117.819 646.649C119.037 645.013 122.158 632.712 121.7 629.831C121.245 626.95 119.19 622.434 120.406 618.618C121.624 614.802 123.145 614.958 124.135 609.274C125.124 603.59 126.042 583.058 124.135 567.773C121.395 545.816 121.508 533.679 121.965 523.741C122.751 506.684 124.363 499.331 123.906 493.414C123.449 487.496 119.644 480.178 118.427 470.367C117.209 460.557 117.463 449.501 116.651 445.763C115.839 442.025 112.339 418.044 110.816 397.799C109.294 377.554 110.968 363.072 110.816 357.31C110.663 351.548 110.171 347.499 110.171 347.499H106.553V299.848H161.956Z" fill="#EFB686"/>
<path d="M190.183 321.912C190.183 321.912 188.934 326.038 187.489 329.464C186.042 332.89 182.313 337.25 182.466 343.012C182.618 348.775 183.455 350.877 183.226 355.393C182.998 359.909 183.302 363.763 185.434 363.763C187.565 363.763 189.391 357.651 189.391 354.381C189.391 351.111 189.544 346.205 190.533 345.894C191.522 345.582 194.262 354.927 195.024 357.341C195.785 359.755 196.545 362.247 195.708 364.505C194.872 366.763 192.207 373.225 190.457 372.603C188.707 371.981 185.129 367.231 183.607 367.231C182.086 367.231 181.02 369.411 184.444 373.383C187.868 377.353 190.076 378.677 192.283 378.055C194.49 377.431 199.208 372.527 200.731 370.969C202.253 369.411 206.363 363.65 206.82 363.338C207.276 363.026 209.028 362.87 209.864 361.624C210.701 360.378 211.767 359.21 211.996 358.666C212.224 358.12 213.214 355.786 212.756 353.838C212.299 351.892 205.294 325.779 205.352 321.48C205.41 317.18 190.183 321.912 190.183 321.912Z" fill="#EFB686"/>
<path d="M149.702 114.377C149.702 114.377 142.662 116.791 132.997 117.803C123.332 118.816 114.276 118.582 113.21 118.894C112.144 119.205 110.09 121.308 108.568 121.386C107.045 121.463 106.437 121.386 106.437 121.386V118.894C106.437 118.894 109.026 119.049 110.547 118.426C112.068 117.803 111.992 116.79 114.047 116.402C116.102 116.012 124.93 117.258 132.465 116.246C139.999 115.233 146.421 113.319 146.421 113.319L149.702 114.377Z" fill="#DD945E"/>
<path d="M125.83 92.107C125.83 92.107 125.387 97.675 118.879 100.595C112.371 103.515 106.435 103.631 106.435 103.631V87.0483H124.539L125.83 92.107Z" fill="#DD945E"/>
<path d="M162.747 154.905C162.747 154.905 168.08 169.037 163.791 179.666C159.502 190.294 154.749 195.784 147.561 197.184C140.374 198.586 121.364 198.118 116.379 197.184C111.394 196.25 110.352 190.76 110.236 186.906C110.12 183.052 110.12 170.905 109.656 168.453C109.192 166.001 107.917 169.971 108.381 175.461C108.845 180.951 108.149 195.2 108.845 197.418C109.541 199.638 121.364 201.622 129.247 202.324C137.129 203.024 150.346 200.806 152.78 200.806C155.214 200.806 155.524 206.412 155.524 206.412C155.524 206.412 159.517 203.812 161.886 193.609C164.256 183.404 169.125 180.951 168.083 171.257C167.037 161.563 162.747 154.905 162.747 154.905Z" fill="#DD945E"/>
<path d="M150.216 192.572C150.216 192.572 152.614 192.104 152.441 189.418C152.271 186.732 145.592 187.842 143.479 188.542C141.368 189.242 139.827 192.98 144.107 192.98C148.388 192.98 150.216 192.572 150.216 192.572Z" fill="#DD945E"/>
<path d="M179.042 170.517C179.042 170.517 172.622 173.067 169.377 177.835C166.131 182.603 164.899 185.28 164.899 185.28L166.941 177.369C166.941 177.369 172.344 170.205 179.042 170.517Z" fill="#DD945E"/>
<path d="M190.687 166.137C190.687 166.137 189.162 174.8 188.783 178.692C188.402 182.586 188.327 186.166 188.327 186.166C188.327 186.166 189.545 180.482 190.077 178.302C190.611 176.122 193.257 179.707 193.257 179.707C193.257 179.707 190.332 170.134 190.687 166.137Z" fill="#DD945E"/>
<path d="M197.137 222.5C197.137 222.5 195.556 231.592 195.556 233.382C195.556 235.172 196.661 237.664 197.137 238.91C197.611 240.156 197.687 237.274 197.534 235.484C197.382 233.694 198.6 235.952 199.056 237.82C199.513 239.688 200.088 240.83 200.088 240.83C200.088 240.83 199.056 233.304 198.295 231.124C197.534 228.944 196.986 224.849 197.137 222.5Z" fill="#DD945E"/>
<path d="M138.173 214.903C138.173 214.903 143.081 217.382 142.168 222.889C141.255 228.395 137.944 235.692 136.575 237.758C135.205 239.823 129.041 242.438 123.447 239.272C117.853 236.107 115.112 234.73 112.03 234.041C108.948 233.353 107.35 230.117 106.893 226.675C106.435 223.232 107.063 210.566 107.521 207.331C107.978 204.096 112.829 202.375 116.654 202.926C120.478 203.477 127.956 208.778 127.956 208.778C127.956 208.778 125.787 205.473 122.134 203.133C118.482 200.792 115.455 199.485 114.771 199.072C114.087 198.659 109.748 197.419 109.748 197.419C109.748 197.419 107.522 198.797 107.123 200.655C106.724 202.513 106.438 205.786 106.438 205.786V236.726C106.438 236.726 109.635 234.798 112.433 235.418C115.23 236.037 124.363 241.2 126.703 242.923C129.043 244.643 131.897 243.886 132.125 247.19C132.354 250.495 131.726 252.834 131.726 252.834C131.726 252.834 132.924 249.391 133.324 247.258C133.723 245.124 134.008 244.23 134.694 243.404C135.379 242.577 140.973 235.899 142.914 229.499C144.85 223.096 144.336 218.139 138.173 214.903Z" fill="#DD945E"/>
<path d="M109.403 234.179L111.514 235.306C111.514 235.306 108.49 235.143 107.747 239.342C107.005 243.542 107.519 250.77 107.747 252.284C107.976 253.798 107.29 257.86 112.712 259.718C118.135 261.576 123.763 261.852 125.173 262.748C126.583 263.642 130.121 260.269 130.92 256.552C131.719 252.834 132.115 249.412 132.145 247.681C132.176 245.951 132.576 245.332 132.576 245.332L134.185 244.169C134.185 244.169 133.66 248.016 133.204 252.215C132.748 256.415 130.864 260.682 130.121 262.059C129.379 263.436 128.865 263.849 128.41 265.777C127.952 267.705 127.268 267.843 127.268 267.843C127.268 267.843 125.897 264.538 123.043 264.125C120.19 263.712 116.08 261.578 112.369 261.853C108.659 262.129 106.433 263.644 106.433 267.36C106.433 260.201 106.433 234.868 106.433 234.868L109.403 234.179Z" fill="#DD945E"/>
<path d="M126.471 264.262L125.994 265.864C125.994 265.864 127.156 267.567 126.927 270.045C126.698 272.523 125.729 275.759 125.729 276.998C125.729 278.237 125.044 281.129 120.078 281.818C115.111 282.506 111.23 281.955 109.062 280.51C106.893 279.065 106.437 275.76 106.437 275.76V285.879C106.437 285.879 108.55 283.263 111.574 283.195C114.599 283.127 120.593 283.057 122.762 283.47C124.932 283.883 125.16 285.328 126.073 286.5C126.987 287.669 127.615 286.224 127.386 284.572C127.157 282.919 127.043 282.231 127.328 280.923C127.613 279.616 128.185 274.796 128.241 271.974C128.297 269.152 129.724 263.989 130.125 262.061C130.525 260.133 127.842 263.781 127.842 263.781L126.471 264.262Z" fill="#DD945E"/>
<path d="M155.715 206.413C155.715 206.413 155.638 214.705 151.3 220.311C146.961 225.917 143.766 232.341 142.624 234.91C141.482 237.48 137.758 246.122 138.708 246.706C139.656 247.29 142.168 236.078 147.533 228.953C152.899 221.829 154.611 220.991 155.524 218.403C156.437 215.815 156.59 209.215 155.715 206.413Z" fill="#DD945E"/>
<path d="M153.971 237.554C153.971 237.554 153.659 242.273 152.975 246.727C152.29 251.182 150.615 255.31 150.844 255.464C151.072 255.62 153.445 249.473 153.971 246.727C154.496 243.98 156.939 249.613 156.939 249.613C156.939 249.613 154.89 240.861 153.971 237.554Z" fill="#DD945E"/>
<path d="M157.511 260.865C157.511 260.865 155.41 269.013 149.703 276.021C143.995 283.029 138.286 289.685 132.008 297.161C125.729 304.636 121.164 316.2 121.164 316.2C121.164 316.2 129.725 303.001 137.031 296.227C144.338 289.453 151.473 282.621 154.156 277.131C156.839 271.641 157.009 269.89 157.009 269.89L156.61 267.437L157.511 260.865Z" fill="#DD945E"/>
<path d="M154.546 447.797C154.496 448.162 147.876 453.316 142.624 447.476C137.372 441.636 135.432 426.104 135.432 426.104C135.432 426.104 140.683 441.754 144.45 445.608C148.217 449.462 155.562 444.13 157.07 436.889C154.72 446.798 154.546 447.797 154.546 447.797Z" fill="#DD945E"/>
<path d="M118.08 443.856C117.982 443.501 118.65 453.2 124.245 454.134C129.838 455.068 134.291 440.702 134.861 435.33C135.431 429.957 134.291 421.081 134.291 421.081C134.291 421.081 134.291 434.629 130.753 443.272C127.213 451.914 120.82 453.782 118.08 443.856Z" fill="#DD945E"/>
<path d="M151.3 454.834C151.186 455.524 150.616 457.754 150.501 460.908C150.387 464.062 148.103 471.536 145.023 473.755C141.94 475.975 136.576 476.791 133.72 475.741C130.866 474.689 128.241 472.353 127.1 469.316C125.958 466.28 126.415 462.658 125.843 460.44C125.273 458.222 123.903 454.95 123.903 456.352C123.903 457.754 125.615 464.294 125.5 467.564C125.386 470.835 127.212 475.273 129.267 478.193C131.322 481.113 132.693 481.931 133.034 483.683C133.377 485.435 136.572 493.727 138.627 490.807C140.682 487.887 141.595 483.099 143.193 480.413C144.792 477.727 149.472 473.171 150.727 467.566C151.986 461.958 151.829 451.657 151.3 454.834Z" fill="#DD945E"/>
<path d="M121.619 483.909C121.619 483.909 124.55 489.6 127.593 497.542C130.637 505.484 131.855 520.901 131.245 519.033C130.637 517.165 130.104 506.878 127.896 501.549C125.689 496.22 123.814 499.575 123.814 499.575C123.814 499.575 124.091 490.909 121.619 483.909Z" fill="#DD945E"/>
<path d="M129.267 648.791C129.267 648.791 125.386 649.063 126.222 649.919C127.059 650.775 129.038 650.541 128.962 653.033C128.886 655.525 125.917 655.465 125.917 655.465C125.917 655.465 128.009 655.477 129.151 655.48C130.293 655.485 130.521 654.667 130.521 654.667C130.521 654.667 131.472 655.397 132.538 655.48C133.604 655.563 133.789 655.359 133.789 655.359C133.789 655.359 131.928 654.705 131.206 652.603C130.483 650.501 132.994 650.889 132.5 649.683C132.008 648.479 129.267 648.791 129.267 648.791Z" fill="#DD945E"/>
<path d="M138.705 649.297C138.705 649.297 135.129 649.181 135.244 649.919C135.358 650.659 136.841 649.685 137.375 651.555C137.907 653.423 136.959 655.001 136.274 655.084C135.59 655.167 135.021 655.233 135.021 655.233H137.794L140.071 655.421C140.071 655.421 138.783 655.253 138.402 653.305C138.023 651.359 138.097 650.853 138.593 650.229C139.087 649.609 139.655 649.298 138.705 649.297Z" fill="#DD945E"/>
<path d="M141.559 649.958C141.559 649.958 142.548 649.414 143.271 651.282C143.993 653.151 142.787 654.795 142.787 654.795L143.614 654.435L145.137 654.64C145.137 654.64 144.222 653.463 144.108 651.866C143.993 650.27 145.669 650.036 144.906 649.57C144.147 649.102 139.923 649.53 141.559 649.958Z" fill="#DD945E"/>
<path d="M147.115 649.29C147.115 649.29 147.952 648.674 148.827 649.84C149.702 651.008 149.374 653.008 149.374 653.008L150.049 652.684L151.161 652.503C151.161 652.503 149.779 650.929 149.399 650.035C149.02 649.14 150.844 648.205 150.007 647.816C149.17 647.426 145.936 648.893 146.507 649.29C147.077 649.686 147.115 649.29 147.115 649.29Z" fill="#DD945E"/>
<path d="M126.68 650.931C126.68 650.931 124.778 650.153 122.151 650.191C119.526 650.231 118.27 650.619 119.259 650.931C120.249 651.243 121.467 650.659 123.749 650.931C126.034 651.205 128.508 651.432 126.68 650.931Z" fill="#DD945E"/>
<path d="M120.401 618.618C120.401 618.618 120.286 621.966 121.2 624.614C122.113 627.262 123.634 630.843 123.634 634.269C123.634 637.695 122.416 641.199 122.416 640.731C122.416 640.263 123.644 635.251 123.044 632.829C122.444 630.405 120.532 627.018 120.076 624.448C119.622 621.88 120.088 619.501 120.401 618.618Z" fill="#DD945E"/>
<path d="M150.816 312.899C150.816 312.899 136.618 318.524 124.701 332.628C112.784 346.732 113.285 358.362 112.486 366.187C111.687 374.013 110.298 391.611 110.812 397.8C110.812 397.8 109.442 383.073 110.09 369.107C110.738 355.14 109.916 347.5 109.916 347.5C109.916 347.5 118.994 326.36 128.468 317.601C137.944 308.839 150.816 312.899 150.816 312.899Z" fill="#DD945E"/>
<path d="M131.246 290.738C143.042 287.935 154.535 282.483 155.448 283.807C156.361 285.131 157.884 289.024 156.819 290.816C155.753 292.607 152.48 293.93 153.242 295.098C154.003 296.266 157.96 296.266 158.189 297.356C158.418 298.446 157.521 300.16 157.513 300.86C157.505 301.56 158.874 302.34 159.026 302.574C159.179 302.808 161.479 302.964 157.513 304.754C153.547 306.544 151.187 307.09 153.395 306.934C155.602 306.778 157.293 306.312 157.513 306.622C157.733 306.934 137.413 314.227 129.269 321.987C121.125 329.747 115.875 338.079 112.678 340.025C109.773 341.795 107.019 342.145 106.537 342.195L105.824 293.837L106.552 293.853C106.552 293.853 119.45 293.541 131.246 290.738Z" fill="white"/>
<path d="M132.35 289.569C146.391 286.299 159.981 280.537 159.981 280.537C163.752 289.959 163.209 308.953 163.209 308.953C163.209 308.953 155.524 310.476 141.37 316.842C127.214 323.208 118.538 339.207 114.543 344.697C110.547 350.187 106.552 349.369 106.552 349.369L106.537 342.195C107.019 342.145 109.772 341.795 112.678 340.025C115.875 338.079 121.127 329.747 129.269 321.987C137.412 314.227 157.732 306.934 157.513 306.622C157.293 306.31 155.602 306.778 153.395 306.934C151.187 307.09 153.547 306.544 157.513 304.754C161.479 302.963 159.178 302.808 159.026 302.574C158.874 302.34 157.503 301.562 157.513 300.86C157.521 300.16 158.418 298.446 158.189 297.356C157.96 296.266 154.003 296.266 153.242 295.098C152.482 293.93 155.755 292.606 156.819 290.815C157.884 289.025 156.361 285.131 155.448 283.807C154.535 282.483 143.044 287.933 131.246 290.737C119.45 293.54 106.55 293.852 106.55 293.852H106.321L106.436 292.908C106.436 292.908 118.308 292.84 132.35 289.569Z" fill="#EAE4E1"/>
<path d="M177.058 255.489C177.058 255.489 176.216 243.464 177.058 236.34C177.899 229.215 179.156 220.339 179.156 220.689C179.156 221.039 176.758 236.106 175.274 235.406C173.79 234.706 170.773 227.692 170.773 227.692C170.773 227.692 172.192 235.465 173.619 239.086C175.046 242.706 175.618 245.334 175.73 246.502C175.845 247.67 177.058 255.489 177.058 255.489Z" fill="#DD945E"/>
<path opacity="0.68" d="M152.67 117.37C152.67 117.37 141.027 120.171 132.122 121.42C123.218 122.671 117.168 121.736 114.655 123.371C112.145 125.007 108.719 125.824 111.23 126.408C113.742 126.992 120.933 125.824 124.701 125.824C128.47 125.824 165.709 123.44 164.897 121.42C164.087 119.4 153.789 117.107 152.67 117.37Z" fill="#F9C39B"/>
<path opacity="0.54" d="M154.992 143.576C154.992 143.576 123.556 149.572 117.507 154.905C111.459 160.239 112.524 184.633 116.482 190.343C120.439 196.054 130.79 195.588 132.464 194.808C134.138 194.03 128.803 192.94 128.578 188.89C128.354 184.842 133.53 173.309 145.705 169.42C157.882 165.531 161.535 158.055 160.164 152.139C158.797 146.224 156.867 143.204 154.992 143.576Z" fill="#F9C39B"/>
<path opacity="0.68" d="M171.968 122.554C171.968 122.554 184.288 127.224 188.325 139.372C192.362 151.52 187.565 166.157 185.889 168.181C184.215 170.205 175.704 169.427 171.968 165.533C168.233 161.639 175.551 150.739 171.968 140.928C168.386 131.118 163.223 121.308 171.968 122.554Z" fill="#F9C39B"/>
<path opacity="0.68" d="M183.475 186.519C183.475 186.519 180.356 197.555 181.655 206.664C182.954 215.773 181.151 229.639 181.339 233.097C181.526 236.555 192.962 226.807 192.962 213.113C192.962 199.417 190.753 197.423 188.803 193.832C186.854 190.242 184.535 181.792 183.475 186.519Z" fill="#F9C39B"/>
<path opacity="0.68" d="M183.16 270.552C182.628 272.113 182.318 273.764 182.278 275.417C182.22 277.826 182.454 281.766 183.829 287.163C186.265 296.73 189.808 309.473 190.478 312.918C191.147 316.362 194.293 313.007 193.487 304.682C192.682 296.358 190.862 286.543 191.245 276.105C191.606 266.273 186.622 260.393 183.16 270.552Z" fill="#F9C39B"/>
<path opacity="0.68" d="M111.458 208.036C111.458 208.036 108.566 222.167 110.924 227.125C113.284 232.082 122.568 237.454 127.211 237.041C131.853 236.628 134.442 233.24 132.311 229.522C130.179 225.804 126.603 222.086 125.841 216.053C125.082 210.021 114.123 202.832 111.458 208.036Z" fill="#F9C39B"/>
<path opacity="0.68" d="M109.479 240.512C109.479 240.512 109.174 254.064 113.056 257.122C116.937 260.18 121.199 261.006 124.091 260.014C126.983 259.022 125.462 256.379 122.644 254.643C119.829 252.908 117.621 249.437 117.24 246.049C116.862 242.661 110.392 233.571 109.479 240.512Z" fill="#F9C39B"/>
<path opacity="0.68" d="M108.415 266.79C108.415 266.79 106.502 276.127 111.916 279.102C117.331 282.077 123.865 280.176 123.636 277.946C123.408 275.714 118.537 275.55 116.635 272.079C114.732 268.608 110.393 261.749 108.415 266.79Z" fill="#F9C39B"/>
<path opacity="0.68" d="M144.87 237.554C144.87 237.554 142.434 245.656 140.989 250.794C139.543 255.932 134.063 269.949 132.008 274.153C129.953 278.357 133.834 277.423 136.27 272.907C138.707 268.391 140.753 263.252 143.915 256.244C147.077 249.236 150.73 243.552 148.598 238.882C146.467 234.209 145.66 234.906 144.87 237.554Z" fill="#F9C39B"/>
<path opacity="0.68" d="M157.51 330.214C157.51 330.214 157.35 359.647 154.153 391.18C150.956 422.715 148.217 432.526 142.281 427.854C136.344 423.181 134.289 412.671 131.321 418.043C128.353 423.415 126.527 433.46 123.9 432.526C121.275 431.592 117.621 400.291 123.9 366.42C130.181 332.55 155.845 316.9 157.51 330.214Z" fill="#F9C39B"/>
<path opacity="0.68" d="M137.798 446.23C137.798 446.23 140.227 449.89 142.358 452.226C144.49 454.562 146.468 458.376 143.119 460.168C139.77 461.958 134.062 460.48 133.454 464.996C132.846 469.512 134.52 471.147 132.922 471.381C131.325 471.615 125.844 463.75 128.204 457.21C130.564 450.67 134.308 448.49 135.024 446.544C135.736 444.594 136.618 444.528 137.798 446.23Z" fill="#F9C39B"/>
<path opacity="0.68" d="M147.914 463.282C147.914 464.06 146.62 471.48 142.13 472.831C137.641 474.183 134.895 470.991 136.267 468.499C137.639 466.007 139.086 467.33 140.607 465.384C142.128 463.438 145.859 460.478 147.075 461.18C148.293 461.88 147.914 463.282 147.914 463.282Z" fill="#F9C39B"/>
<path opacity="0.68" d="M153.927 501.549C153.927 501.549 158.721 522.459 155.298 538.577C151.872 554.695 144.27 570.112 143.163 579.689C142.056 589.265 134.687 583.426 137.801 555.63C140.915 527.833 137.491 510.08 140.001 500.502C142.512 490.924 147.535 482.749 150.276 487.655C153.014 492.558 153.927 501.549 153.927 501.549Z" fill="#F9C39B"/>
<path opacity="0.68" d="M133.791 619.942C134.061 619.708 137.486 619.552 138.628 624.068C139.77 628.584 144.337 641.12 145.136 643.611C145.935 646.103 143.499 646.647 142.204 646.415C140.91 646.181 138.704 646.103 136.802 646.805C134.899 647.505 132.422 646.961 129.855 646.883C127.288 646.805 125.006 647.764 124.167 647.752C123.33 647.739 122.188 646.727 124.472 641.12C126.756 635.514 128.201 630.764 128.353 628.118C128.506 625.472 128.464 620.454 129.855 619.849C131.245 619.242 133.791 619.942 133.791 619.942Z" fill="#F9C39B"/>
<path d="M104.18 175.461C104.18 175.461 104.225 197.418 106.436 197.418C108.646 197.418 108.641 174.477 108.641 174.477L110 198.47L106.436 206.412L102.873 197.419L103.955 175.345L104.18 175.461Z" fill="#DD945E"/>
<path d="M107.812 260.008C107.812 261.414 107.196 262.552 106.435 262.552C105.675 262.552 105.058 261.414 105.058 260.008C105.058 258.605 105.675 257.465 106.435 257.465C107.196 257.465 107.812 258.603 107.812 260.008Z" fill="#AF6635"/>
<path d="M88.9849 96.7373C88.9849 96.7373 102.94 117.521 103.21 116.897C103.481 116.275 95.5475 97.1985 95.5475 97.1985L88.9849 96.7373Z" fill="#DD945E"/>
<path d="M123.804 96.7373C123.804 96.7373 109.848 117.521 109.578 116.897C109.308 116.275 117.239 97.1985 117.239 97.1985L123.804 96.7373Z" fill="#DD945E"/>
<path d="M106.435 21.3516V97.6066C106.435 97.6066 101.861 97.5618 98.6047 95.9425C95.3499 94.3248 82.6804 83.6019 81.7126 80.8146C80.7448 78.0273 80.13 58.5259 79.5135 52.2329C78.897 45.9398 76.9249 35.1439 79.5135 24.9901C82.7683 12.2231 106.433 12.2231 106.433 12.2231L106.435 21.3516Z" fill="#EFB686"/>
<path d="M79.7142 54.6468C79.7142 54.6468 78.4597 50.7064 76.3467 50.4359C74.2354 50.1672 72.212 53.9417 73.6189 56.9098C75.0259 59.8764 77.2648 64.9118 78.2128 67.3391C79.1607 69.7664 80.6157 69.1343 80.6157 69.1343L79.7142 54.6468Z" fill="#E5A373"/>
<path d="M78.5023 62.0799C78.3697 59.5182 78.2818 54.8876 76.6992 53.0658C75.1149 51.2458 74.0161 53.8075 74.3244 55.9212C74.6326 58.0349 76.26 61.5406 76.26 61.5406C75.4248 59.4734 74.3062 54.6254 75.1613 53.7179C75.8374 52.9995 76.676 54.2953 77.1085 55.8681C77.0058 55.8465 76.8848 55.8764 76.7456 56.0108C76.2169 56.5168 76.1855 57.7296 76.1855 57.7296C76.5815 56.6164 77.0108 56.1452 77.0754 57.8308C77.1417 59.5165 76.5467 59.5165 76.6462 61.101C76.7075 62.0716 77.1881 62.42 77.551 62.5461C77.5825 62.8397 77.6189 63.1434 77.6687 63.4719C78.1078 66.3936 79.9126 66.888 79.8247 65.5856C79.7352 64.2815 78.6348 64.6415 78.5023 62.0799Z" fill="#C17B4C"/>
<path d="M103.075 50.4232C103.075 50.4232 99.6077 48.6745 97.3953 48.1352C95.1846 47.596 88.274 46.6669 86.6847 47.2061C85.0954 47.7453 82.8847 49.3547 83.0222 50.2357C83.1598 51.1167 85.745 55.1102 87.3111 55.5482C94.7305 57.6238 100.158 55.014 100.919 55.89C101.679 56.766 100.567 66.744 100.567 66.744C100.567 66.744 101.169 66.3756 101.971 67.4756C102.75 63.9251 104.646 54.1313 104.485 53.0661C104.21 51.2461 103.075 50.4232 103.075 50.4232Z" fill="#DD945E"/>
<path d="M100.428 66.8019C100.428 66.8019 98.7062 67.9151 99.0145 69.6224C99.3227 71.3296 101.083 70.7904 102.357 71.4209C103.633 72.0497 103.852 72.8593 104.601 73.1297C105.348 73.4002 106.437 73.4002 106.437 73.4002V71.2865C106.437 71.2865 104.558 71.2865 103.545 70.7473C102.534 70.208 100.599 70.4121 99.8066 69.2092C99.0145 68.0047 100.291 67.1071 101.038 67.0607C101.785 67.0159 102.314 67.8919 102.314 67.8919C102.314 67.8919 101.693 67.0955 101.27 66.105C100.847 65.1145 101.447 62.8813 101.447 62.8813L100.456 66.6758L100.428 66.8019Z" fill="#DD945E"/>
<path d="M79.1953 49.3574C79.1953 49.3574 81.2436 61.849 83.6184 68.1404C85.9932 74.4334 88.7658 79.5584 87.9736 79.5584C87.1815 79.5584 84.399 72.6349 83.0185 73.3998C81.6397 74.1646 81.1624 77.2506 81.1624 77.2506L79.1953 49.3574Z" fill="#DD945E"/>
<path d="M83.0163 49.2232C83.0842 49.1999 85.9645 47.3019 88.3343 47.1675C90.7042 47.0331 100.739 50.4377 101.267 49.764C101.794 49.0904 102.157 46.4607 101.367 45.9199C100.575 45.3806 91.2179 43.7613 88.1106 44.3686C85.0033 44.9758 80.8404 49.9764 83.0163 49.2232Z" fill="#8E5D3C"/>
<path d="M106.436 52.4453C106.436 52.4453 105.458 54.9456 104.995 58.9906C104.533 63.0372 103.786 66.6773 103.048 67.2845C102.311 67.8917 101.333 67.4106 101.134 68.139C100.937 68.869 103.189 70.0818 106.434 70.0818C106.436 67.0838 106.436 52.4453 106.436 52.4453Z" fill="#F9C39B"/>
<path d="M104.676 73.7085C104.676 73.7085 104.179 75.3842 104.378 76.0694C104.576 76.7547 106.436 77.0085 106.436 77.0085V76.1706C106.436 76.1706 105.446 76.0943 105.024 75.6629C104.603 75.2316 104.676 73.7085 104.676 73.7085Z" fill="#F9C39B"/>
<path d="M106.435 80.5874C106.435 80.5874 103.036 80.156 101.297 80.4613C99.559 80.7666 99.5889 81.0702 101.127 81.5779C102.665 82.0856 106.435 82.3146 106.435 82.3146V80.5874Z" fill="#F9C39B"/>
<path d="M95.0605 51.2053C95.0605 51.2053 96.1891 52.0962 96.6747 52.7764C97.1619 53.4567 97.3061 54.112 97.3061 54.112L97.1155 54.862L96.4576 55.2967C96.4576 55.2967 95.1732 55.7695 92.1455 55.6285C89.1194 55.4875 88.0157 54.6164 87.6511 54.2431C87.2865 53.8698 87.1489 53.4783 87.1489 53.4783C87.1489 53.4783 89.1343 50.681 91.3384 50.4968C93.5442 50.3143 95.0605 51.2053 95.0605 51.2053Z" fill="white"/>
<path d="M89.5758 51.2567C89.5758 51.2567 89.1863 51.9751 89.5211 53.4899C89.8558 55.0047 90.938 55.5024 92.3997 55.5455C93.8597 55.5903 95.0065 54.4289 95.212 53.158C95.4175 51.8872 95.028 51.2567 95.028 51.2567C95.028 51.2567 93.7105 50.2811 91.9887 50.5383C90.2668 50.7955 89.5758 51.2567 89.5758 51.2567Z" fill="#5B4537"/>
<path d="M97.0378 53.4917C97.0378 53.4917 97.1787 53.7887 96.9831 54.4009C96.7859 55.0131 96.4595 55.1359 96.4595 55.1359C96.4595 55.1359 97.2665 54.8986 97.3063 54.8903C97.3461 54.882 97.9559 54.8737 97.9559 54.8737C97.9559 54.8737 98.289 54.683 98.0935 54.4673C97.8996 54.2516 97.0378 53.4917 97.0378 53.4917Z" fill="#FFA992"/>
<path d="M94.6132 50.8881C94.6132 50.8881 93.2891 49.9789 90.8728 50.4053C88.4583 50.8334 87.2551 52.0594 86.874 52.4493C86.4911 52.8376 86.4596 52.9603 86.4812 53.0599C86.5027 53.1594 87.1341 53.6688 87.1341 53.6688C87.1341 53.6688 87.7689 52.3299 89.0118 51.5667C90.2563 50.8035 92.4572 50.1432 94.6132 50.8881Z" fill="#30221B"/>
<path d="M91.9458 55.7557C87.7183 55.4438 87.1813 53.8478 87.1349 53.6686C87.0802 53.4562 87.3851 53.0165 87.5194 52.839C88.3894 51.6726 90.1146 50.4217 92.3452 50.4067C92.3585 50.4067 92.3717 50.4067 92.3833 50.4067C95.9165 50.4067 97.4113 53.6238 97.4213 53.657C97.4644 53.7797 97.7991 54.0502 97.9781 54.1962C98.1687 54.3505 98.2184 54.392 98.2416 54.4484C98.2996 54.591 98.2963 54.7138 98.235 54.8134C98.1157 55.0025 97.8323 55.0158 97.5804 55.0274C97.4926 55.0307 97.3998 55.0357 97.355 55.049C97.3285 55.0556 97.2871 55.0772 97.2291 55.107C96.838 55.2978 95.7707 55.8171 93.371 55.8171C92.9402 55.8122 92.4662 55.7939 91.9458 55.7557ZM97.819 54.4019C97.5058 54.1481 97.2423 53.9241 97.1793 53.7449C97.1677 53.7134 95.6928 50.6705 92.3833 50.6705C92.3717 50.6705 92.3601 50.6705 92.3469 50.6705C90.1941 50.6855 88.7706 51.8485 88.1143 52.5404C87.5923 53.0912 87.3868 53.5209 87.3868 53.5989C87.4034 53.6636 87.8475 55.1867 91.9657 55.4903C95.315 55.7375 96.6722 55.0772 97.118 54.8615C97.1959 54.8233 97.2523 54.7968 97.2871 54.7868C97.3616 54.7669 97.4578 54.7619 97.5704 54.757C97.7097 54.7503 97.9715 54.7387 98.0179 54.6657C98.0295 54.6475 98.0262 54.6093 98.008 54.5595C97.9798 54.5313 97.8903 54.46 97.819 54.4019Z" fill="#965427"/>
<path d="M98.1594 53.3307C98.1594 53.3307 97.7865 50.6778 95.2228 50.0639C92.6591 49.45 89.9644 49.6873 88.6668 50.6712C87.3676 51.655 86.8174 52.5344 86.8174 52.5344C86.8174 52.5344 87.467 50.7425 89.2021 49.8814C90.9389 49.0187 94.492 48.7516 96.0664 49.5811C97.6407 50.4123 98.0948 51.4725 98.1594 53.3307Z" fill="#965427"/>
<path d="M90.8335 52.7764C90.8335 51.9651 91.4765 51.3081 92.2703 51.3081C93.0641 51.3081 93.7071 51.9651 93.7071 52.7764C93.7071 53.5877 93.0641 54.2448 92.2703 54.2448C91.4765 54.2448 90.8335 53.5877 90.8335 52.7764Z" fill="#30221B"/>
<path opacity="0.21" d="M90.5166 52.0945C90.5166 52.5292 91.3005 52.881 92.2699 52.881C93.2394 52.881 94.0233 52.5292 94.0233 52.0945C94.0233 51.6598 93.2378 51.3081 92.2699 51.3081C91.3021 51.3081 90.5166 51.6598 90.5166 52.0945Z" fill="white"/>
<path opacity="0.66" d="M94.3956 52.3731C94.3956 52.0247 94.1188 51.7427 93.7791 51.7427C93.4393 51.7427 93.1626 52.0247 93.1626 52.3731C93.1626 52.7216 93.4393 53.0036 93.7791 53.0036C94.1188 53.0036 94.3956 52.7216 94.3956 52.3731Z" fill="white"/>
<path opacity="0.66" d="M91.3746 53.965C91.3746 53.7413 91.1973 53.5591 90.9768 53.5591C90.7564 53.5591 90.5791 53.7413 90.5791 53.965C90.5791 54.1886 90.7564 54.3709 90.9768 54.3709C91.1956 54.3709 91.3746 54.1886 91.3746 53.965Z" fill="white"/>
<path d="M95.2697 52.5628C95.2697 52.5628 94.4891 51.6254 92.4225 51.5491C90.356 51.4711 89.4064 52.7785 89.4064 52.7785C89.4064 52.7785 89.3617 52.1447 89.4163 51.856C89.4694 51.569 89.5042 51.4462 89.5042 51.4462C89.5042 51.4462 90.6013 50.5221 92.3281 50.5702C94.0533 50.6183 95.1271 51.4844 95.1271 51.4844C95.1271 51.4844 95.3177 52.0285 95.2697 52.5628Z" fill="#30221B"/>
<path d="M106.435 21.3516V97.6066C106.435 97.6066 111.011 97.5618 114.265 95.9425C117.52 94.3248 130.19 83.6019 131.158 80.8146C132.125 78.0273 132.742 58.5259 133.357 52.2329C133.972 45.9398 135.945 35.1439 133.357 24.9901C130.102 12.2231 106.435 12.2231 106.435 12.2231V21.3516Z" fill="#EFB686"/>
<path d="M133.156 54.6468C133.156 54.6468 134.413 50.7064 136.524 50.4359C138.635 50.1672 140.659 53.9417 139.252 56.9098C137.845 59.8764 135.606 64.9118 134.658 67.3391C133.71 69.7664 132.255 69.1343 132.255 69.1343L133.156 54.6468Z" fill="#E5A373"/>
<path d="M134.37 62.0799C134.502 59.5182 134.589 54.8876 136.173 53.0658C137.757 51.2458 138.856 53.8075 138.548 55.9212C138.239 58.0349 136.612 61.5406 136.612 61.5406C137.447 59.4734 138.566 54.6254 137.712 53.7179C137.036 52.9995 136.198 54.2953 135.765 55.8681C135.868 55.8465 135.989 55.8764 136.128 56.0108C136.657 56.5168 136.69 57.7296 136.69 57.7296C136.294 56.6164 135.865 56.1452 135.798 57.8308C135.732 59.5165 136.325 59.5165 136.228 61.101C136.168 62.0716 135.687 62.42 135.323 62.5461C135.291 62.8397 135.255 63.1434 135.205 63.4719C134.764 66.3936 132.961 66.888 133.049 65.5856C133.137 64.2815 134.237 64.6415 134.37 62.0799Z" fill="#C17B4C"/>
<path d="M109.798 50.4232C109.798 50.4232 113.264 48.6745 115.475 48.1352C117.686 47.596 124.597 46.6669 126.186 47.2061C127.775 47.7453 129.986 49.3547 129.848 50.2357C129.711 51.1167 127.125 55.1102 125.559 55.5482C118.14 57.6238 112.713 55.014 111.952 55.89C111.193 56.766 112.303 66.744 112.303 66.744C112.303 66.744 111.703 66.3756 110.9 67.4756C110.121 63.9251 108.225 54.1313 108.386 53.0661C108.662 51.2461 109.798 50.4232 109.798 50.4232Z" fill="#DD945E"/>
<path d="M112.444 66.8019C112.444 66.8019 114.166 67.9151 113.858 69.6224C113.55 71.3296 111.79 70.7904 110.515 71.4209C109.239 72.0497 109.019 72.8593 108.271 73.1297C107.524 73.4002 106.435 73.4002 106.435 73.4002V71.2865C106.435 71.2865 108.314 71.2865 109.327 70.7473C110.338 70.208 112.273 70.4121 113.066 69.2092C113.858 68.0047 112.582 67.1071 111.834 67.0607C111.087 67.0159 110.558 67.8919 110.558 67.8919C110.558 67.8919 111.181 67.0955 111.602 66.105C112.025 65.1145 111.425 62.8813 111.425 62.8813L112.416 66.6758L112.444 66.8019Z" fill="#DD945E"/>
<path d="M133.677 49.3574C133.677 49.3574 131.63 61.849 129.253 68.1404C126.879 74.4334 124.106 79.5584 124.898 79.5584C125.69 79.5584 128.473 72.6349 129.853 73.3998C131.234 74.1646 131.711 77.2506 131.711 77.2506L133.677 49.3574Z" fill="#DD945E"/>
<path d="M129.854 49.2232C129.786 49.1999 126.906 47.3019 124.536 47.1675C122.166 47.0331 112.131 50.4377 111.603 49.764C111.076 49.0904 110.713 46.4607 111.503 45.9199C112.296 45.3806 121.652 43.7613 124.76 44.3686C127.868 44.9758 132.031 49.9764 129.854 49.2232Z" fill="#8E5D3C"/>
<path d="M106.435 52.4453C106.435 52.4453 107.413 54.9456 107.875 58.9906C108.338 63.0372 109.085 66.6773 109.821 67.2845C110.558 67.8917 111.536 67.4106 111.735 68.139C111.934 68.869 109.68 70.0818 106.435 70.0818C106.435 67.0838 106.435 52.4453 106.435 52.4453Z" fill="#F9C39B"/>
<path d="M108.195 73.7085C108.195 73.7085 108.692 75.3842 108.493 76.0694C108.294 76.7547 106.435 77.0085 106.435 77.0085V76.1706C106.435 76.1706 107.424 76.0943 107.847 75.6629C108.27 75.2316 108.195 73.7085 108.195 73.7085Z" fill="#F9C39B"/>
<path d="M106.435 80.5874C106.435 80.5874 109.834 80.156 111.574 80.4613C113.314 80.7666 113.283 81.0702 111.745 81.5779C110.209 82.0856 106.435 82.3146 106.435 82.3146V80.5874Z" fill="#F9C39B"/>
<path d="M117.811 51.2053C117.811 51.2053 116.683 52.0962 116.197 52.7764C115.71 53.4567 115.566 54.112 115.566 54.112L115.756 54.862L116.414 55.2967C116.414 55.2967 117.699 55.7695 120.727 55.6285C123.753 55.4875 124.856 54.6164 125.223 54.2431C125.587 53.8698 125.725 53.4783 125.725 53.4783C125.725 53.4783 123.739 50.681 121.535 50.4968C119.329 50.3143 117.811 51.2053 117.811 51.2053Z" fill="white"/>
<path d="M123.298 51.2567C123.298 51.2567 123.688 51.9751 123.353 53.4899C123.018 55.0047 121.936 55.5024 120.476 55.5455C119.016 55.5903 117.869 54.4289 117.664 53.158C117.458 51.8872 117.848 51.2567 117.848 51.2567C117.848 51.2567 119.165 50.2811 120.887 50.5383C122.607 50.7955 123.298 51.2567 123.298 51.2567Z" fill="#5B4537"/>
<path d="M115.835 53.4917C115.835 53.4917 115.695 53.7887 115.89 54.4009C116.087 55.0131 116.414 55.1359 116.414 55.1359C116.414 55.1359 115.607 54.8986 115.567 54.8903C115.526 54.882 114.917 54.8737 114.917 54.8737C114.917 54.8737 114.584 54.683 114.78 54.4673C114.974 54.2516 115.835 53.4917 115.835 53.4917Z" fill="#FFA992"/>
<path d="M118.26 50.8881C118.26 50.8881 119.584 49.9789 122 50.4053C124.416 50.8334 125.618 52.0594 125.999 52.4493C126.382 52.8376 126.413 52.9603 126.392 53.0599C126.37 53.1594 125.739 53.6688 125.739 53.6688C125.739 53.6688 125.104 52.3299 123.861 51.5667C122.617 50.8035 120.416 50.1432 118.26 50.8881Z" fill="#30221B"/>
<path d="M119.504 55.8127C117.104 55.8127 116.037 55.2934 115.646 55.1026C115.586 55.0744 115.546 55.0529 115.52 55.0446C115.473 55.0313 115.382 55.028 115.294 55.023C115.042 55.0114 114.759 54.9998 114.64 54.809C114.578 54.7111 114.577 54.5883 114.633 54.444C114.655 54.3876 114.706 54.3461 114.897 54.1918C115.076 54.0458 115.41 53.7753 115.455 53.6526C115.467 53.6194 116.962 50.4023 120.493 50.4023C120.506 50.4023 120.52 50.4023 120.531 50.4023C122.762 50.4173 124.485 51.6683 125.357 52.8346C125.491 53.0138 125.796 53.4535 125.742 53.6642C125.693 53.845 125.157 55.4411 120.929 55.7514C120.407 55.7945 119.933 55.8127 119.504 55.8127ZM114.867 54.5618C114.85 54.6115 114.845 54.6497 114.857 54.6679C114.903 54.7409 115.163 54.7526 115.304 54.7592C115.417 54.7642 115.513 54.7692 115.588 54.7891C115.623 54.799 115.679 54.8239 115.757 54.8637C116.203 55.0811 117.56 55.7414 120.909 55.4925C125.027 55.1889 125.471 53.6658 125.488 53.6011C125.488 53.5231 125.282 53.0934 124.76 52.5426C124.104 51.8508 122.681 50.6861 120.528 50.6728C120.516 50.6728 120.503 50.6728 120.491 50.6728C117.182 50.6728 115.707 53.7173 115.695 53.7471C115.632 53.9263 115.367 54.1503 115.056 54.4041C114.983 54.4606 114.895 54.5319 114.867 54.5618Z" fill="#965427"/>
<path d="M114.714 53.3307C114.714 53.3307 115.087 50.6778 117.65 50.0639C120.214 49.45 122.909 49.6873 124.206 50.6712C125.504 51.655 126.056 52.5344 126.056 52.5344C126.056 52.5344 125.406 50.7425 123.671 49.8814C121.934 49.0187 118.381 48.7516 116.807 49.5811C115.233 50.4107 114.778 51.4725 114.714 53.3307Z" fill="#965427"/>
<path d="M122.041 52.7764C122.041 51.9651 121.398 51.3081 120.604 51.3081C119.81 51.3081 119.167 51.9651 119.167 52.7764C119.167 53.5877 119.81 54.2448 120.604 54.2448C121.398 54.2448 122.041 53.5877 122.041 52.7764Z" fill="#30221B"/>
<path opacity="0.21" d="M122.357 52.0945C122.357 52.5292 121.572 52.881 120.604 52.881C119.636 52.881 118.852 52.5292 118.852 52.0945C118.852 51.6598 119.636 51.3081 120.604 51.3081C121.573 51.3081 122.357 51.6598 122.357 52.0945Z" fill="white"/>
<path opacity="0.66" d="M122.888 52.3731C122.888 52.0247 122.611 51.7427 122.271 51.7427C121.932 51.7427 121.655 52.0247 121.655 52.3731C121.655 52.7216 121.932 53.0036 122.271 53.0036C122.611 53.0036 122.888 52.7216 122.888 52.3731Z" fill="white"/>
<path opacity="0.66" d="M119.865 53.965C119.865 53.7413 119.688 53.5591 119.468 53.5591C119.249 53.5591 119.07 53.7413 119.07 53.965C119.07 54.1886 119.247 54.3709 119.468 54.3709C119.686 54.3709 119.865 54.1886 119.865 53.965Z" fill="white"/>
<path d="M117.603 52.5628C117.603 52.5628 118.384 51.6254 120.449 51.5491C122.515 51.4711 123.465 52.7785 123.465 52.7785C123.465 52.7785 123.51 52.1447 123.455 51.856C123.4 51.569 123.367 51.4462 123.367 51.4462C123.367 51.4462 122.27 50.5221 120.545 50.5702C118.82 50.6183 117.746 51.4844 117.746 51.4844C117.746 51.4844 117.555 52.0285 117.603 52.5628Z" fill="#30221B"/>
<path d="M116.605 79.8484C116.441 79.6251 113.575 80.1237 111.818 79.791C108.045 79.0753 108.314 79.1362 106.092 79.3842C103.911 79.1591 104.301 79.0356 100.411 79.791C98.6562 80.1317 95.7887 79.6251 95.6239 79.8484C95.43 80.1114 96.6241 80.9886 97.7019 81.2392C101.368 82.0926 103.028 81.3266 105.972 81.744H106.396C109.34 81.3266 110.862 82.0926 114.527 81.2392C115.605 80.9886 116.8 80.1114 116.605 79.8484Z" fill="#CC8660"/>
<path d="M101.173 84.9405C102.281 85.5715 103.636 86.1928 106.069 86.1496C106.089 86.1496 106.161 86.1487 106.182 86.1487C108.615 86.1055 109.961 85.4339 111.061 84.7632C111.65 84.4022 111.374 84.1489 110.442 84.2672C107.772 84.607 104.403 84.6952 101.791 84.411C100.855 84.3087 100.579 84.6034 101.173 84.9405Z" fill="#E0A473"/>
<path d="M135.028 54.9978C137.052 53.9877 136.338 46.8054 136.451 43.7938C137.023 28.5914 136.973 16.8339 125.874 6.54583C117.919 -0.828419 99.4005 -3.34392 86.5711 6.30271C81.5889 10.049 79.3034 10.6806 75.5218 10.9237C75.3733 12.8696 76.6436 14.6135 78.6748 15.9475C76.5583 16.5621 74.9293 17.0851 73.0007 15.63C70.1851 25.4515 76.8636 32.004 76.8636 32.004C77.182 37.5715 76.537 55.4222 80.0321 56.4808C81.1441 54.5448 80.9833 39.7838 81.2968 33.2438C97.4727 38.8086 112.234 20.9812 127.881 30.5588C135.277 35.0892 130.815 57.098 135.028 54.9978Z" fill="#593014"/>
<path d="M174.175 364.28C174.139 363.915 170.633 327.575 168.693 312.331C165.299 285.666 161.863 274.748 161.754 274.311C161.754 274.311 159.992 271.315 159.992 271.312C159.567 269.611 139.661 274.147 137.471 274.311C125.98 275.177 114.462 275.416 102.954 275.416C85.5853 275.416 70.0466 275.754 52.9207 271.312L51.1582 274.311C50.9551 275.019 44.8322 292.256 42.5081 314.324C40.2044 336.211 38.9845 365.594 38.9725 365.889L38.8208 369.609L41.5558 370.358C42.4807 370.612 64.4147 376.555 83.5194 376.555C90.3946 376.555 99.9081 375.446 100.311 375.398L103.103 375.07L103.261 371.337C103.282 370.832 103.686 361.229 103.91 354.729L108.744 354.698C108.978 361.226 109.403 370.843 109.425 371.35L109.583 374.917L112.239 375.379C131.746 378.775 152.879 376.048 171.833 368.991L174.532 367.987L174.175 364.28Z" fill="#145239"/>
</svg>
