<svg width="93" height="93" viewBox="0 0 93 93" fill="none" xmlns="http://www.w3.org/2000/svg">
<g clip-path="url(#clip0_3050_11879)">
<path d="M93 0H0V93H93V0Z" fill="black"/>
<path fill-rule="evenodd" clip-rule="evenodd" d="M28.1836 0V5.63673H31.002V0H28.1836ZM33.8204 0V2.81836H36.6387V5.63673H33.8204V11.2735H39.4571V14.0918H31.002V16.9102H28.1836V11.2735H31.002V8.45509H22.5469V11.2735H25.3653V14.0918H22.5469V19.7286H25.3653V22.5469H16.9102V25.3653H14.0918V22.5469H0V25.3653H8.45509V28.1836H5.63673V31.002H8.45509V28.1836H11.2735V33.8204H14.0918V36.6387H2.81836V31.002H0V42.2755H2.81836V53.5489H0V70.4591H2.81836V59.1857H8.45509V62.004H11.2735V59.1857H14.0918V53.5489H19.7286V56.3673H16.9102V59.1857H19.7286V62.004H16.9102V64.8224H14.0918V67.6408H11.2735V64.8224H5.63673V67.6408H11.2735V70.4591H19.7286V67.6408H16.9102V64.8224H22.5469V76.0958H25.3653V73.2775H28.1836V78.9142H22.5469V93.006H25.3653V84.5509H28.1836V81.7326H31.002V70.4591H33.8204V73.2775H39.4571V78.9142H36.6387V76.0958H33.8204V81.7326H36.6387V84.5509H31.002V87.3693H28.1836V90.1877H31.002V93.006H36.6387V90.1877H33.8204V87.3693H36.6387V84.5509H39.4571V90.1877H42.2755V87.3693H50.7306V90.1877H53.5489V93.006H56.3673V90.1877H62.004V93.006H64.8224V87.3693H67.6408V81.7326H70.4591V84.5509H73.2775V87.3693H76.0958V90.1877H78.9142V93.006H81.7326V87.3693H76.0958V84.5509H81.7326V81.7326H84.5509V84.5509H87.3693V87.3693H84.5509V90.1877H87.3693V93.006H90.1877V90.1877H87.3693V87.3693H90.1877V84.5509H87.3693V81.7326H84.5509V78.9142H93.006V76.0958H90.1877V73.2775H93.006V67.6408H90.1877V73.2775H87.3693V70.4591H84.5509V67.6408H87.3693V64.8224H90.1877V62.004H93.006V59.1857H90.1877V56.3673H87.3693V53.5489H90.1877V50.7306H93.006V47.9122H90.1877V45.0938H87.3693V42.2755H90.1877V39.4571H93.006V36.6387H87.3693V42.2755H84.5509V45.0938H87.3693V53.5489H84.5509V47.9122H81.7326V39.4571H76.0958V36.6387H84.5509V33.8204H87.3693V31.002H90.1877V28.1836H93.006V25.3653H90.1877V22.5469H87.3693V25.3653H84.5509V22.5469H81.7326V25.3653H84.5509V28.1836H78.9142V31.002H84.5509V33.8204H76.0958V25.3653H78.9142V22.5469H76.0958V25.3653H73.2775V22.5469H67.6408V19.7286H70.4591V16.9102H67.6408V19.7286H64.8224V14.0918H67.6408V11.2735H64.8224V8.45509H70.4591V2.81836H67.6408V0H64.8224V2.81836H62.004V0H50.7306V2.81836H47.9122V0H45.0938V2.81836H36.6387V0H33.8204ZM22.5469 2.81836V5.63673H25.3653V2.81836H22.5469ZM50.7306 2.81836V5.63673H47.9122V8.45509H50.7306V11.2735H53.5489V8.45509H56.3673V2.81836H50.7306ZM64.8224 2.81836V5.63673H67.6408V2.81836H64.8224ZM36.6387 5.63673V8.45509H39.4571V11.2735H42.2755V8.45509H45.0938V5.63673H36.6387ZM50.7306 5.63673V8.45509H53.5489V5.63673H50.7306ZM59.1857 8.45509V11.2735H56.3673V14.0918H53.5489V22.5469H50.7306V14.0918H45.0938V16.9102H42.2755V19.7286H45.0938V22.5469H42.2755V28.1836H39.4571V31.002H36.6387V28.1836H33.8204V25.3653H36.6387V22.5469H39.4571V16.9102H36.6387V19.7286H33.8204V16.9102H31.002V19.7286H33.8204V25.3653H31.002V22.5469H28.1836V25.3653H16.9102V28.1836H22.5469V31.002H14.0918V33.8204H22.5469V31.002H25.3653V33.8204H31.002V36.6387H22.5469V39.4571H19.7286V36.6387H16.9102V39.4571H2.81836V42.2755H5.63673V56.3673H8.45509V59.1857H11.2735V53.5489H14.0918V47.9122H16.9102V50.7306H25.3653V47.9122H28.1836V45.0938H31.002V42.2755H28.1836V45.0938H25.3653V39.4571H36.6387V36.6387H39.4571V42.2755H33.8204V47.9122H31.002V56.3673H28.1836V53.5489H25.3653V56.3673H19.7286V59.1857H25.3653V67.6408H28.1836V70.4591H31.002V67.6408H28.1836V62.004H45.0938V64.8224H42.2755V67.6408H39.4571V64.8224H33.8204V70.4591H36.6387V67.6408H39.4571V70.4591H42.2755V73.2775H45.0938V78.9142H47.9122V81.7326H42.2755V78.9142H39.4571V81.7326H42.2755V84.5509H50.7306V81.7326H62.004V87.3693H64.8224V81.7326H67.6408V78.9142H64.8224V76.0958H62.004V78.9142H53.5489V76.0958H56.3673V73.2775H67.6408V70.4591H62.004V67.6408H59.1857V70.4591H56.3673V73.2775H53.5489V76.0958H47.9122V70.4591H42.2755V67.6408H45.0938V64.8224H47.9122V67.6408H56.3673V62.004H50.7306V64.8224H47.9122V62.004H45.0938V59.1857H59.1857V64.8224H62.004V59.1857H64.8224V56.3673H59.1857V53.5489H62.004V50.7306H59.1857V53.5489H56.3673V50.7306H53.5489V47.9122H56.3673V45.0938H59.1857V47.9122H62.004V45.0938H59.1857V36.6387H62.004V39.4571H64.8224V42.2755H67.6408V45.0938H64.8224V47.9122H67.6408V50.7306H64.8224V53.5489H67.6408V56.3673H73.2775V59.1857H76.0958V62.004H70.4591V59.1857H67.6408V62.004H64.8224V67.6408H67.6408V64.8224H76.0958V67.6408H78.9142V64.8224H81.7326V59.1857H84.5509V64.8224H87.3693V56.3673H84.5509V53.5489H78.9142V50.7306H81.7326V47.9122H78.9142V50.7306H76.0958V53.5489H78.9142V56.3673H81.7326V59.1857H76.0958V56.3673H73.2775V53.5489H67.6408V50.7306H73.2775V47.9122H76.0958V45.0938H78.9142V42.2755H76.0958V39.4571H73.2775V42.2755H67.6408V39.4571H70.4591V36.6387H67.6408V39.4571H64.8224V36.6387H62.004V33.8204H50.7306V31.002H47.9122V28.1836H45.0938V22.5469H50.7306V25.3653H56.3673V22.5469H59.1857V28.1836H53.5489V31.002H59.1857V28.1836H62.004V31.002H67.6408V33.8204H70.4591V28.1836H73.2775V25.3653H70.4591V28.1836H64.8224V25.3653H62.004V22.5469H64.8224V19.7286H62.004V14.0918H59.1857V11.2735H62.004V8.45509H59.1857ZM56.3673 14.0918V19.7286H59.1857V22.5469H62.004V19.7286H59.1857V14.0918H56.3673ZM25.3653 16.9102V19.7286H28.1836V16.9102H25.3653ZM45.0938 16.9102V19.7286H47.9122V16.9102H45.0938ZM28.1836 25.3653V31.002H31.002V25.3653H28.1836ZM42.2755 28.1836V33.8204H39.4571V36.6387H45.0938V39.4571H42.2755V42.2755H39.4571V47.9122H33.8204V50.7306H42.2755V56.3673H36.6387V53.5489H33.8204V59.1857H42.2755V56.3673H47.9122V50.7306H42.2755V42.2755H47.9122V39.4571H50.7306V42.2755H53.5489V45.0938H56.3673V42.2755H53.5489V39.4571H56.3673V36.6387H53.5489V39.4571H50.7306V36.6387H47.9122V31.002H45.0938V28.1836H42.2755ZM84.5509 28.1836V31.002H87.3693V28.1836H84.5509ZM33.8204 31.002V36.6387H36.6387V31.002H33.8204ZM73.2775 33.8204V36.6387H76.0958V33.8204H73.2775ZM16.9102 39.4571V42.2755H8.45509V53.5489H11.2735V45.0938H16.9102V47.9122H19.7286V45.0938H22.5469V42.2755H19.7286V39.4571H16.9102ZM16.9102 42.2755V45.0938H19.7286V42.2755H16.9102ZM73.2775 42.2755V45.0938H76.0958V42.2755H73.2775ZM67.6408 45.0938V47.9122H70.4591V45.0938H67.6408ZM50.7306 53.5489V56.3673H53.5489V53.5489H50.7306ZM70.4591 70.4591V78.9142H78.9142V70.4591H70.4591ZM81.7326 70.4591V73.2775H84.5509V70.4591H81.7326ZM73.2775 73.2775V76.0958H76.0958V73.2775H73.2775ZM62.004 78.9142V81.7326H64.8224V78.9142H62.004ZM73.2775 81.7326V84.5509H76.0958V81.7326H73.2775ZM53.5489 84.5509V87.3693H59.1857V84.5509H53.5489ZM67.6408 90.1877V93.006H73.2775V90.1877H67.6408ZM0 0V19.7286H19.7286V0H0ZM2.81836 2.81836V16.9102H16.9102V2.81836H2.81836ZM5.63673 5.63673V14.0918H14.0918V5.63673H5.63673ZM73.2775 0V19.7286H93.006V0H73.2775ZM76.0958 2.81836V16.9102H90.1877V2.81836H76.0958ZM78.9142 5.63673V14.0918H87.3693V5.63673H78.9142ZM0 73.2775V93.006H19.7286V73.2775H0ZM2.81836 76.0958V90.1877H16.9102V76.0958H2.81836ZM5.63673 78.9142V87.3693H14.0918V78.9142H5.63673Z" fill="white"/>
</g>
<defs>
<clipPath id="clip0_3050_11879">
<rect width="93" height="93" fill="white"/>
</clipPath>
</defs>
</svg>
