<svg width="153" height="38" viewBox="0 0 153 38" fill="none" xmlns="http://www.w3.org/2000/svg">
<path d="M24.6091 19.0251C25.8577 17.9795 26.6517 16.409 26.6517 14.653C26.6517 12.8971 25.8577 11.3266 24.6091 10.281C24.7522 10.2117 24.8899 10.1365 25.0211 10.055C25.8493 9.54008 26.8268 9.24268 27.8738 9.24268C30.8619 9.24268 33.2842 11.665 33.2842 14.653C33.2842 17.6411 30.8619 20.0634 27.8738 20.0634C26.8268 20.0634 25.8493 19.766 25.0211 19.2511C24.8899 19.1696 24.7522 19.0944 24.6091 19.0251Z" fill="#828282"/>
<path d="M23.1065 15.505C23.665 13.9752 23.5674 12.2181 22.6894 10.6974C21.8114 9.17669 20.3385 8.2136 18.7344 7.93239C18.8237 7.80086 18.9053 7.66687 18.9781 7.53069C19.4379 6.67064 20.1358 5.92431 21.0425 5.40081C23.6303 3.90677 26.9393 4.7934 28.4333 7.38115C29.9273 9.96891 29.0407 13.2779 26.4529 14.7719C25.5462 15.2954 24.5509 15.5266 23.5762 15.4948C23.4219 15.4897 23.265 15.4935 23.1065 15.505Z" fill="#828282"/>
<path d="M20.0446 13.2076C19.7634 11.6035 18.8003 10.1306 17.2796 9.25261C15.7589 8.37463 14.0018 8.27703 12.472 8.83554C12.4836 8.677 12.4873 8.52013 12.4822 8.36581C12.4504 7.39108 12.6816 6.3958 13.2051 5.48906C14.6992 2.90131 18.0081 2.01468 20.5959 3.50872C23.1836 5.00276 24.0703 8.31171 22.5762 10.8995C22.0527 11.8062 21.3064 12.5041 20.4463 12.9639C20.3102 13.0367 20.1762 13.1183 20.0446 13.2076Z" fill="#828282"/>
<path d="M16.2442 12.7489C15.1986 11.5003 13.6281 10.7063 11.8721 10.7063C10.1161 10.7063 8.54561 11.5003 7.50002 12.7489C7.43076 12.6058 7.35554 12.4681 7.27401 12.3369C6.75907 11.5087 6.46167 10.5312 6.46167 9.48414C6.46167 6.49605 8.88399 4.07373 11.8721 4.07373C14.8602 4.07373 17.2825 6.49605 17.2825 9.48414C17.2825 10.5312 16.9851 11.5087 16.4702 12.3369C16.3886 12.4681 16.3134 12.6058 16.2442 12.7489Z" fill="#828282"/>
<path d="M12.7231 14.2518C11.1933 13.6933 9.43613 13.7909 7.91542 14.6688C6.39471 15.5468 5.43162 17.0197 5.15042 18.6238C5.01889 18.5345 4.88489 18.4529 4.74871 18.3801C3.88866 17.9203 3.14233 17.2224 2.61883 16.3157C1.12478 13.7279 2.01141 10.419 4.59917 8.92498C7.18693 7.43093 10.4959 8.31756 11.99 10.9053C12.5135 11.812 12.7447 12.8073 12.7128 13.782C12.7078 13.9363 12.7115 14.0932 12.7231 14.2518Z" fill="#828282"/>
<path d="M10.4247 17.3135C8.82056 17.5947 7.34767 18.5578 6.46969 20.0785C5.59171 21.5992 5.49411 23.3563 6.05263 24.8861C5.89407 24.8745 5.73718 24.8708 5.58284 24.8758C4.60812 24.9077 3.61284 24.6765 2.70611 24.153C0.118349 22.6589 -0.768282 19.35 0.72576 16.7622C2.2198 14.1745 5.52875 13.2878 8.11651 14.7819C9.02324 15.3054 9.72111 16.0517 10.1809 16.9117C10.2537 17.0479 10.3354 17.1819 10.4247 17.3135Z" fill="#828282"/>
<path d="M9.96515 21.1143C8.71655 22.1599 7.92252 23.7304 7.92252 25.4863C7.92252 27.2423 8.71655 28.8128 9.96515 29.8584C9.82206 29.9276 9.68434 30.0029 9.5532 30.0844C8.72499 30.5993 7.74745 30.8967 6.70044 30.8967C3.71236 30.8967 1.29004 28.4744 1.29004 25.4863C1.29004 22.4982 3.71236 20.0759 6.70044 20.0759C7.74745 20.0759 8.72499 20.3733 9.5532 20.8883C9.68434 20.9698 9.82206 21.045 9.96515 21.1143Z" fill="#828282"/>
<path d="M11.4674 24.6355C10.9088 26.1653 11.0064 27.9224 11.8844 29.4431C12.7624 30.9639 14.2353 31.9269 15.8394 32.2081C15.7501 32.3397 15.6685 32.4737 15.5957 32.6099C15.1359 33.4699 14.438 34.2162 13.5313 34.7397C10.9435 36.2338 7.6346 35.3471 6.14056 32.7594C4.64651 30.1716 5.53315 26.8627 8.1209 25.3686C9.02764 24.8451 10.0229 24.6139 10.9976 24.6458C11.1519 24.6508 11.3088 24.6471 11.4674 24.6355Z" fill="#828282"/>
<path d="M14.5293 26.9341C14.8105 28.5382 15.7736 30.0111 17.2943 30.889C18.815 31.767 20.5722 31.8646 22.102 31.3061C22.0904 31.4647 22.0867 31.6215 22.0917 31.7759C22.1236 32.7506 21.8924 33.7459 21.3689 34.6526C19.8748 37.2404 16.5659 38.127 13.9781 36.6329C11.3903 35.1389 10.5037 31.83 11.9978 29.2422C12.5213 28.3355 13.2676 27.6376 14.1276 27.1778C14.2638 27.105 14.3978 27.0233 14.5293 26.9341Z" fill="#828282"/>
<path d="M18.33 27.3936C19.3756 28.6422 20.9461 29.4362 22.7021 29.4362C24.4581 29.4362 26.0286 28.6422 27.0742 27.3936C27.1434 27.5367 27.2186 27.6744 27.3002 27.8055C27.8151 28.6337 28.1125 29.6113 28.1125 30.6583C28.1125 33.6464 25.6902 36.0687 22.7021 36.0687C19.714 36.0687 17.2917 33.6464 17.2917 30.6583C17.2917 29.6113 17.5891 28.6337 18.104 27.8055C18.1856 27.6744 18.2608 27.5367 18.33 27.3936Z" fill="#828282"/>
<path d="M21.8514 25.8913C23.3812 26.4498 25.1383 26.3522 26.659 25.4743C28.1797 24.5963 29.1428 23.1234 29.424 21.5193C29.5555 21.6085 29.6895 21.6902 29.8257 21.763C30.6858 22.2228 31.4321 22.9207 31.9556 23.8274C33.4497 26.4152 32.563 29.7241 29.9753 31.2182C27.3875 32.7122 24.0786 31.8256 22.5845 29.2378C22.061 28.3311 21.8298 27.3358 21.8616 26.3611C21.8667 26.2068 21.863 26.0499 21.8514 25.8913Z" fill="#828282"/>
<path d="M28.108 20.0587C28.1069 20.0606 28.1058 20.0625 28.1047 20.0644C27.2268 21.5851 25.7539 22.5482 24.1498 22.8294C24.239 22.961 24.3207 23.095 24.3935 23.2311C24.8533 24.0912 25.5512 24.8375 26.4579 25.361C29.0457 26.8551 32.3546 25.9684 33.8487 23.3807C35.1295 21.1621 34.6606 18.4135 32.8701 16.7329C32.0835 18.6206 30.2582 19.9671 28.108 20.0587Z" fill="#828282"/>
<path d="M47.2605 9.84101V26H43.6793V9.84101H47.2605ZM44.247 26L44.3125 22.8337H53.593V26H44.247ZM54.1535 20.519C54.1535 19.369 54.3937 18.3645 54.8741 17.5056C55.3545 16.6321 56.0314 15.9552 56.9049 15.4748C57.7783 14.9944 58.7973 14.7542 59.962 14.7542C61.1266 14.7542 62.1383 14.9944 62.9972 15.4748C63.8707 15.9552 64.5476 16.6321 65.028 17.5056C65.5084 18.3645 65.7486 19.369 65.7486 20.519C65.7486 21.6691 65.5084 22.6736 65.028 23.5325C64.5476 24.3914 63.8707 25.061 62.9972 25.5414C62.1383 26.0218 61.1266 26.262 59.962 26.262C58.7973 26.262 57.7783 26.0218 56.9049 25.5414C56.0314 25.061 55.3545 24.3914 54.8741 23.5325C54.3937 22.6736 54.1535 21.6691 54.1535 20.519ZM57.5381 20.4972C57.5381 21.0504 57.64 21.5381 57.8438 21.9603C58.0476 22.3679 58.3315 22.6881 58.6954 22.9211C59.0594 23.1394 59.4816 23.2486 59.962 23.2486C60.4424 23.2486 60.8645 23.1394 61.2285 22.9211C61.5924 22.6881 61.869 22.3679 62.0583 21.9603C62.2621 21.5381 62.364 21.0504 62.364 20.4972C62.364 19.944 62.2621 19.4636 62.0583 19.056C61.869 18.6484 61.5924 18.3354 61.2285 18.117C60.8645 17.8841 60.4424 17.7676 59.962 17.7676C59.4816 17.7676 59.0594 17.8841 58.6954 18.117C58.3315 18.3354 58.0476 18.6484 57.8438 19.056C57.64 19.4636 57.5381 19.944 57.5381 20.4972ZM66.508 20.3444C66.508 19.2234 66.7336 18.2408 67.1849 17.3964C67.6362 16.5521 68.2549 15.897 69.041 15.4311C69.8271 14.9507 70.7297 14.7105 71.7487 14.7105C72.6076 14.7105 73.3646 14.8852 74.0197 15.2346C74.6894 15.584 75.1406 16.0426 75.3736 16.6103L75.046 16.8287L75.3081 15.0818H78.3433V25.3012C78.3433 26.5823 78.0958 27.6887 77.6009 28.6204C77.1059 29.5666 76.3999 30.2945 75.4827 30.804C74.5802 31.3135 73.5029 31.5683 72.2509 31.5683C71.2028 31.5683 70.2566 31.3572 69.4122 30.935C68.5824 30.5274 67.9055 29.9451 67.3814 29.1881C66.8719 28.4311 66.5662 27.5577 66.4643 26.5677H69.8708C69.8999 27.1937 70.1474 27.6741 70.6132 28.009C71.0936 28.3438 71.705 28.5112 72.4475 28.5112C73.2773 28.5112 73.9178 28.2783 74.3691 27.8124C74.8204 27.3611 75.046 26.757 75.046 26V23.6853L75.3517 23.9692C75.1188 24.537 74.6675 24.9955 73.9979 25.3449C73.3282 25.6943 72.5567 25.869 71.6832 25.869C70.6787 25.869 69.7834 25.6361 68.9973 25.1702C68.2258 24.7044 67.6143 24.0566 67.163 23.2268C66.7263 22.397 66.508 21.4362 66.508 20.3444ZM69.9144 20.257C69.9144 20.7811 70.0236 21.2469 70.242 21.6545C70.4604 22.0622 70.7515 22.3824 71.1155 22.6153C71.4794 22.8337 71.8797 22.9429 72.3165 22.9429C72.8405 22.9429 73.2991 22.8337 73.6922 22.6153C74.0998 22.3824 74.4128 22.0622 74.6311 21.6545C74.864 21.2469 74.9805 20.7811 74.9805 20.257C74.9805 19.7184 74.864 19.2598 74.6311 18.8813C74.3982 18.4883 74.0779 18.1825 73.6703 17.9642C73.2773 17.7458 72.8187 17.6366 72.2946 17.6366C71.8579 17.6366 71.4576 17.7458 71.0936 17.9642C70.7297 18.1825 70.4385 18.4883 70.2202 18.8813C70.0163 19.2744 69.9144 19.7329 69.9144 20.257ZM79.5418 20.519C79.5418 19.369 79.782 18.3645 80.2624 17.5056C80.7428 16.6321 81.4197 15.9552 82.2932 15.4748C83.1666 14.9944 84.1857 14.7542 85.3503 14.7542C86.5149 14.7542 87.5266 14.9944 88.3856 15.4748C89.259 15.9552 89.9359 16.6321 90.4163 17.5056C90.8967 18.3645 91.1369 19.369 91.1369 20.519C91.1369 21.6691 90.8967 22.6736 90.4163 23.5325C89.9359 24.3914 89.259 25.061 88.3856 25.5414C87.5266 26.0218 86.5149 26.262 85.3503 26.262C84.1857 26.262 83.1666 26.0218 82.2932 25.5414C81.4197 25.061 80.7428 24.3914 80.2624 23.5325C79.782 22.6736 79.5418 21.6691 79.5418 20.519ZM82.9264 20.4972C82.9264 21.0504 83.0283 21.5381 83.2321 21.9603C83.4359 22.3679 83.7198 22.6881 84.0838 22.9211C84.4477 23.1394 84.8699 23.2486 85.3503 23.2486C85.8307 23.2486 86.2529 23.1394 86.6168 22.9211C86.9807 22.6881 87.2573 22.3679 87.4466 21.9603C87.6504 21.5381 87.7523 21.0504 87.7523 20.4972C87.7523 19.944 87.6504 19.4636 87.4466 19.056C87.2573 18.6484 86.9807 18.3354 86.6168 18.117C86.2529 17.8841 85.8307 17.7676 85.3503 17.7676C84.8699 17.7676 84.4477 17.8841 84.0838 18.117C83.7198 18.3354 83.4359 18.6484 83.2321 19.056C83.0283 19.4636 82.9264 19.944 82.9264 20.4972ZM92.5514 26V15.0818H95.936V26H92.5514ZM94.2546 13.3785C93.716 13.3785 93.2574 13.1965 92.8789 12.8326C92.515 12.4541 92.333 11.9955 92.333 11.4569C92.333 10.9183 92.515 10.467 92.8789 10.103C93.2574 9.7391 93.716 9.55713 94.2546 9.55713C94.7787 9.55713 95.2227 9.7391 95.5866 10.103C95.9651 10.467 96.1544 10.9183 96.1544 11.4569C96.1544 11.9955 95.9651 12.4541 95.5866 12.8326C95.2227 13.1965 94.7787 13.3785 94.2546 13.3785ZM98.1246 31.2408V15.0818H101.204L101.378 16.4138C101.684 15.9043 102.172 15.4967 102.841 15.1909C103.511 14.8852 104.232 14.7324 105.003 14.7324C106.022 14.7324 106.91 14.958 107.667 15.4093C108.424 15.8606 109.021 16.5084 109.458 17.3528C109.894 18.1825 110.127 19.187 110.157 20.3662C110.186 21.5162 109.996 22.5426 109.589 23.4451C109.181 24.3331 108.592 25.0319 107.82 25.5414C107.048 26.051 106.117 26.3057 105.025 26.3057C104.268 26.3057 103.562 26.1747 102.907 25.9127C102.252 25.6506 101.764 25.3158 101.444 24.9082V31.2408H98.1246ZM101.509 20.5409C101.509 21.0795 101.618 21.5599 101.837 21.9821C102.07 22.3897 102.383 22.71 102.776 22.9429C103.183 23.1613 103.649 23.2704 104.173 23.2704C104.712 23.2704 105.171 23.154 105.549 22.9211C105.942 22.6881 106.241 22.3679 106.444 21.9603C106.663 21.5526 106.772 21.0795 106.772 20.5409C106.772 20.0022 106.663 19.5291 106.444 19.1215C106.241 18.7139 105.942 18.3936 105.549 18.1607C105.171 17.9278 104.712 17.8113 104.173 17.8113C103.649 17.8113 103.183 17.9278 102.776 18.1607C102.383 18.3791 102.07 18.6921 101.837 19.0997C101.618 19.5073 101.509 19.9877 101.509 20.5409ZM110.733 22.5498H113.769C113.769 22.9283 113.892 23.2268 114.14 23.4451C114.402 23.6635 114.78 23.7727 115.275 23.7727C115.566 23.7727 115.807 23.7363 115.996 23.6635C116.2 23.5907 116.353 23.4888 116.454 23.3578C116.571 23.2122 116.629 23.0521 116.629 22.8774C116.629 22.6881 116.564 22.528 116.433 22.397C116.316 22.266 116.112 22.1641 115.821 22.0913L113.9 21.589C112.822 21.2979 112.058 20.8684 111.607 20.3007C111.155 19.7329 110.93 19.0851 110.93 18.3572C110.93 17.6293 111.112 16.9961 111.476 16.4575C111.854 15.9043 112.364 15.4821 113.004 15.1909C113.645 14.8852 114.365 14.7324 115.166 14.7324C116.374 14.7324 117.364 15.0672 118.136 15.7369C118.922 16.3919 119.337 17.2872 119.381 18.4227H116.345C116.36 18.0442 116.251 17.7458 116.018 17.5274C115.785 17.2945 115.479 17.1781 115.101 17.1781C114.766 17.1781 114.489 17.2654 114.271 17.4401C114.067 17.6002 113.965 17.8259 113.965 18.117C113.965 18.3936 114.067 18.5974 114.271 18.7285C114.475 18.8449 114.751 18.9468 115.101 19.0342L117.044 19.5146C117.947 19.7329 118.631 20.1042 119.097 20.6282C119.563 21.1523 119.795 21.822 119.795 22.6372C119.795 23.7581 119.381 24.6461 118.551 25.3012C117.721 25.9563 116.644 26.2839 115.319 26.2839C113.951 26.2839 112.851 25.9418 112.022 25.2576C111.206 24.5588 110.777 23.6562 110.733 22.5498ZM125.161 26.2839C123.88 26.2839 122.89 25.8835 122.191 25.0829C121.493 24.2822 121.143 23.234 121.143 21.9384V15.0818H124.506V20.7156C124.506 21.7346 124.688 22.4188 125.052 22.7682C125.416 23.1176 125.896 23.2923 126.493 23.2923C127.265 23.2923 127.796 23.0739 128.087 22.6372C128.378 22.2005 128.524 21.5745 128.524 20.7592V15.0818H131.887V26H128.721L128.502 24.7772C128.167 25.2284 127.694 25.5924 127.083 25.869C126.471 26.1456 125.831 26.2839 125.161 26.2839ZM137.438 26H134.053V15.0818H137.198L137.438 16.9597L137.067 16.5666C137.358 16.0134 137.795 15.5694 138.377 15.2346C138.974 14.8852 139.614 14.7105 140.299 14.7105C141.376 14.7105 142.22 14.9507 142.832 15.4311C143.458 15.9115 143.909 16.5448 144.185 17.3309H143.661C143.836 16.5448 144.258 15.9115 144.928 15.4311C145.598 14.9507 146.398 14.7105 147.33 14.7105C148.742 14.7105 149.783 15.089 150.453 15.846C151.122 16.603 151.457 17.6075 151.457 18.8595V26H148.182V19.6893C148.182 19.005 148.014 18.4955 147.679 18.1607C147.359 17.8259 146.93 17.6585 146.391 17.6585C146.071 17.6585 145.765 17.7313 145.474 17.8768C145.183 18.0078 144.942 18.248 144.753 18.5974C144.564 18.9323 144.469 19.4127 144.469 20.0386V26H141.15V19.6893C141.15 19.005 140.99 18.5028 140.67 18.1825C140.349 17.8477 139.92 17.6803 139.381 17.6803C139.061 17.6803 138.748 17.7531 138.442 17.8987C138.151 18.0297 137.911 18.2699 137.722 18.6193C137.533 18.9541 137.438 19.4272 137.438 20.0386V26Z" fill="#828282"/>
</svg>
