<svg width="122" height="367" viewBox="0 0 122 367" fill="none" xmlns="http://www.w3.org/2000/svg">
<path d="M-184.34 142.046C-186.4 142.064 -188.429 141.537 -190.22 140.518C-191.534 139.78 -192.687 138.787 -193.612 137.598C-194.537 136.408 -195.216 135.046 -195.609 133.591C-196.001 132.136 -196.1 130.618 -195.898 129.124C-195.697 127.631 -195.2 126.192 -194.436 124.893C-179.712 100.318 -134.914 42.958 -37.163 42.958C5.19844 42.958 42.3515 54.0849 73.2119 76.0178C98.612 94.0178 112.847 114.393 119.628 124.206C120.489 125.443 121.092 126.84 121.405 128.313C121.717 129.787 121.731 131.309 121.447 132.788C121.162 134.268 120.584 135.675 119.747 136.928C118.91 138.181 117.831 139.254 116.574 140.083C114.003 141.782 110.872 142.414 107.844 141.843C104.816 141.273 102.129 139.546 100.353 137.028C88.0808 119.38 50.6604 65.6775 -37.163 65.6775C-122.886 65.6775 -161.643 115.095 -174.267 136.288C-175.281 138.057 -176.749 139.524 -178.52 140.536C-180.291 141.549 -182.3 142.07 -184.34 142.046Z" fill="#EAEAEA" fill-opacity="0.3"/>
<path d="M12.0869 366.568C11.1122 366.58 10.1399 366.469 9.19257 366.24C-61.7153 348.675 -88.1921 277.79 -89.2689 274.842L-89.4369 274.193C-90.0173 272.146 -104.245 223.538 -82.4034 195.068C-72.3916 182.085 -57.1637 175.426 -37.056 175.426C-18.3611 175.426 -4.87445 181.238 4.39664 193.266C12.0335 203.087 15.0882 215.199 18.0436 226.868C24.2524 251.168 28.7352 263.929 54.54 265.243C65.873 265.816 73.3189 259.187 77.5421 253.543C88.9591 238.155 90.9447 213.068 82.338 190.921C71.2799 162.337 32.0343 108.444 -37.1629 108.444C-66.7021 108.444 -93.8434 117.936 -115.608 135.776C-133.624 150.553 -147.897 171.417 -154.77 192.861C-167.516 232.786 -150.799 295.546 -150.638 296.118C-150.248 297.579 -150.154 299.103 -150.362 300.601C-150.57 302.098 -151.076 303.539 -151.85 304.838C-152.623 306.137 -153.649 307.268 -154.867 308.164C-156.085 309.06 -157.469 309.703 -158.94 310.056C-161.91 310.845 -165.071 310.44 -167.746 308.927C-170.422 307.414 -172.398 304.913 -173.251 301.961C-174.015 299.097 -191.87 232.16 -177.146 186.018C-161.108 136.02 -111.614 85.6172 -37.14 85.6172C-2.72089 85.6172 29.7967 97.3168 56.9379 119.41C77.9545 136.593 95.122 159.671 104.103 182.742C115.52 212.197 112.458 245.257 96.321 266.854C85.5684 281.257 70.2566 288.787 53.2952 287.97C9.10857 285.755 1.16624 254.91 -4.62247 232.412C-10.5792 209.334 -14.3899 198.207 -37.14 198.207C-49.6339 198.207 -58.4085 201.643 -63.8689 208.761C-71.3148 218.498 -71.8952 233.718 -71.0704 244.761C-70.5289 252.454 -69.2243 260.075 -67.1756 267.511C-65.3581 272.093 -41.6915 330.133 14.9889 344.177C16.4539 344.524 17.8353 345.159 19.0529 346.044C20.2705 346.93 21.3 348.048 22.0816 349.335C22.8632 350.622 23.3813 352.051 23.6058 353.54C23.8303 355.029 23.7568 356.547 23.3894 358.007C22.6977 360.472 21.2187 362.643 19.178 364.189C17.1373 365.734 14.6469 366.57 12.0869 366.568Z" fill="#EAEAEA" fill-opacity="0.3"/>
<path d="M-78.929 361.328C-80.5183 361.332 -82.092 361.015 -83.5563 360.397C-85.0205 359.779 -86.3453 358.872 -87.4517 357.731C-115.83 327.948 -131.883 294.644 -137.923 253V252.779C-141.314 225.21 -136.35 186.178 -112.027 159.342C-94.0728 139.54 -68.8331 129.475 -37.1403 129.475C0.341156 129.475 29.7964 146.902 48.1629 179.794C61.4892 203.689 64.1315 227.501 64.2002 228.478C64.3399 229.985 64.181 231.505 63.7325 232.951C63.2839 234.397 62.5546 235.74 61.5863 236.903C60.618 238.066 59.4297 239.027 58.0895 239.731C56.7493 240.434 55.2834 240.866 53.776 241.003C50.7343 241.333 47.6848 240.453 45.2858 238.555C42.8869 236.656 41.3309 233.89 40.9538 230.853C38.9422 216.566 34.3187 202.771 27.3144 190.157C13.0794 165.039 -8.57864 152.27 -37.2243 152.27C-61.9676 152.27 -81.327 159.716 -94.6456 174.417C-113.845 195.609 -117.556 228.257 -114.921 249.854C-109.629 286.678 -95.478 315.973 -70.4903 342.152C-69.4474 343.237 -68.6333 344.521 -68.0964 345.927C-67.5594 347.332 -67.3106 348.832 -67.3648 350.336C-67.4189 351.84 -67.7749 353.317 -68.4115 354.681C-69.0482 356.045 -69.9525 357.266 -71.0707 358.274C-73.2241 360.226 -76.0226 361.313 -78.929 361.328Z" fill="#EAEAEA" fill-opacity="0.3"/>
<path d="M51.8058 328.521C26.9862 328.521 5.88564 321.647 -10.9994 307.985C-44.9221 280.653 -48.7252 236.138 -48.8932 234.259C-49.1322 231.176 -48.1365 228.123 -46.125 225.774C-44.1135 223.424 -41.251 221.97 -38.1673 221.731C-35.0837 221.492 -32.0313 222.488 -29.6818 224.499C-27.3323 226.511 -25.8781 229.373 -25.6391 232.457C-25.5551 233.114 -22.1644 269.526 3.98407 290.497C19.4563 302.853 40.1367 307.756 65.6208 304.892C68.6666 304.523 71.7347 305.374 74.1546 307.26C76.5745 309.146 78.1493 311.914 78.5347 314.958C78.7014 316.461 78.5671 317.983 78.1395 319.434C77.712 320.885 76.9997 322.237 76.0443 323.41C75.0889 324.583 73.9094 325.554 72.5748 326.266C71.2402 326.978 69.777 327.418 68.2708 327.558C62.8056 328.196 57.3081 328.517 51.8058 328.521ZM71.4171 25.0411C61.7337 18.7407 27.3985 0 -37.1631 0C-104.932 0 -139.351 20.7034 -146.965 25.9652C-147.468 26.2738 -147.939 26.632 -148.37 27.0343C-148.416 27.0784 -148.475 27.1054 -148.538 27.1107C-149.754 28.1723 -150.73 29.4808 -151.4 30.9491C-152.07 32.4174 -152.42 34.0117 -152.426 35.6258C-152.405 37.1387 -152.085 38.6327 -151.486 40.0221C-150.887 41.4115 -150.019 42.669 -148.933 43.7225C-147.847 44.776 -146.564 45.6049 -145.157 46.1615C-143.75 46.7182 -142.247 46.9917 -140.734 46.9664C-138.309 46.9648 -135.942 46.2213 -133.952 44.8358C-133.624 44.5914 -104.001 22.8264 -37.1402 22.8264C29.7201 22.8264 59.5037 44.515 59.8245 44.6754C61.8577 46.1831 64.3268 46.9874 66.858 46.9664C68.3722 46.9896 69.8761 46.7136 71.2833 46.1541C72.6905 45.5947 73.9734 44.7628 75.0583 43.7063C76.1432 42.6497 77.0088 41.3893 77.6054 39.9974C78.2019 38.6055 78.5177 37.1095 78.5347 35.5952C78.5353 33.327 77.8581 31.1103 76.5899 29.2297C75.3216 27.3492 73.5203 25.8906 71.4171 25.0411Z" fill="#EAEAEA" fill-opacity="0.3"/>
</svg>
