<svg xmlns="http://www.w3.org/2000/svg" width="19.432" height="19.444" viewBox="0 0 19.432 19.444">
  <g id="Group_183422" data-name="Group 183422" transform="translate(-1.25 -1.247)">
    <path id="Path_69674" data-name="Path 69674" d="M19.96,2.615l-.642-.642a2.494,2.494,0,0,0-3.518,0L6.477,11.314a1.6,1.6,0,0,0-.461.977l-.244,2.65a1.162,1.162,0,0,0,.326.9,1.116,1.116,0,0,0,.8.335h.1l2.65-.244a1.6,1.6,0,0,0,.977-.461l9.332-9.332a2.47,2.47,0,0,0,0-3.509ZM9.669,14.507a.378.378,0,0,1-.136.063l-2.378.217.217-2.378a.233.233,0,0,1,.063-.145l7.578-7.578L17.247,6.92,9.669,14.5ZM19,5.174l-.8.8L15.972,3.737l.8-.8a1.132,1.132,0,0,1,.8-.335,1.1,1.1,0,0,1,.8.335L19,3.583a1.116,1.116,0,0,1,0,1.592Zm-.118,6.873V17.3a3.392,3.392,0,0,1-3.391,3.391H4.641A3.392,3.392,0,0,1,1.25,17.3V6.449A3.392,3.392,0,0,1,4.641,3.058H9.895a.678.678,0,0,1,0,1.356H4.641A2.038,2.038,0,0,0,2.606,6.449V17.3a2.038,2.038,0,0,0,2.035,2.035H15.492A2.038,2.038,0,0,0,17.527,17.3V12.047a.678.678,0,1,1,1.356,0Z" fill="#006838"/>
  </g>
</svg>
