<svg width="334" height="66" viewBox="0 0 334 66" fill="none" xmlns="http://www.w3.org/2000/svg">
<path opacity="0.5" d="M229.888 93.6661C231.965 95.3772 238.847 97.7705 243.106 98.2672C245.098 98.5148 248.06 98.6027 249.688 98.4828C252.451 98.2588 252.707 98.3149 253.542 99.4529C255.795 102.445 263.058 109.302 267.995 113.113C273.57 117.383 282.102 122.656 283.273 122.534C284.28 122.447 284.231 121.24 283.173 120.668C277.208 117.547 267.074 110.694 264.709 108.213C264.182 107.607 264.369 106.694 266.094 101.966C268.226 96.1243 268.701 92.4691 267.784 89.4105C267.135 87.3591 265.48 85.6684 263.799 85.3125C262.228 84.9938 259.607 86.1512 258.484 87.6635C256.716 90.087 256.234 95.1138 257.365 99.4353C258.046 102.109 257.9 101.998 253.465 96.5265C250.03 92.2483 245.673 85.826 244.116 82.6727L243.102 80.6195L245.71 78.3282C251.147 73.5455 253.97 68.5487 253.865 63.9945C253.746 58.4893 249.611 55.1952 246.123 57.8296C244.03 59.4102 241.576 67.6458 241.288 74.0817L241.147 76.6596L240.205 74.753C237.779 69.8398 234.831 59.5291 233.734 52.044C233.097 47.798 233.135 47.5971 234.564 43.3797C236.902 36.4785 236.675 30.6619 233.815 24.8687C232.529 22.2655 231.948 21.4579 230.618 20.5186C228.923 19.3032 226.456 18.9252 224.953 19.6675C222.093 21.0798 221.262 26.2328 222.799 33.5007C223.567 37.2718 226.919 43.4149 229.523 45.8235C231.325 47.4418 231.397 47.5884 231.553 49.3814C231.676 50.3696 232.102 53.0783 232.511 55.3846C233.169 59.0271 233.149 59.4476 232.458 58.6029C227.533 52.4155 218.181 46.4072 213.646 46.4578C209.713 46.5297 208.03 50.3252 210.112 54.6332C211.614 57.7679 214.786 59.9416 220.883 62.0384C223.622 62.9664 227.512 63.9184 229.596 64.1665C231.625 64.396 233.599 64.607 234.001 64.6821C234.64 64.7768 234.894 65.2901 236.029 68.6973C237.345 72.5625 243.154 84.9722 245.005 87.7063C245.514 88.4586 246.348 89.7795 246.875 90.5685L247.873 92.0365L244.792 90.1375C241.146 87.8334 235.891 85.4116 233.352 84.7955C227.269 83.3754 224.843 89.5446 229.888 93.6661ZM229 88.4497C229.397 85.7451 233.035 86.0923 239.931 89.5281C243.488 91.2832 248.246 94.3609 247.769 94.5962C247.439 94.7592 242.109 92.8308 239.828 91.7222C238.789 91.1866 238.112 91.1101 237.781 91.456C237.524 91.7656 237.394 92.149 237.484 92.3323C237.684 92.7356 241.788 94.7677 244.654 95.8609L246.68 96.639L244.797 96.52C239.66 96.1835 233.872 94.3443 231.011 92.1538C229.262 90.8284 228.773 89.9299 229 88.4497ZM211.194 50.4507C211.936 48.2598 213.4 47.9928 217.033 49.3458C220.72 50.7174 224.658 53.2424 227.988 56.4776C231.392 59.6766 231.571 60.5005 228.58 58.8763C224.86 56.7913 220.789 55.2897 220.457 55.8184C219.96 56.5657 220.686 57.5752 221.91 57.9287C223.553 58.3941 230.814 61.9231 230.74 62.2337C230.591 62.6718 223.887 61.1938 220.236 59.8955C213.81 57.5959 210.08 53.7369 211.194 50.4507ZM244.25 66.7813C245.222 62.4702 246.443 59.6783 247.653 59.0808C248.68 58.5738 250.924 59.5177 251.522 60.7276C252.282 62.2676 252.116 66.2718 251.247 68.2974C250.396 70.1768 246.806 75.0052 245.963 75.4217C245.669 75.5665 245.745 75.0731 246.133 74.2887C246.502 73.559 247.353 71.5881 247.965 69.9636C248.929 67.3898 248.986 66.8597 248.348 66.3993C247.71 65.939 247.545 66.1576 246.249 69.2601C244.843 72.5998 243.513 75.2632 243.109 75.4623C242.706 75.6615 243.333 71.0195 244.25 66.7813ZM224.056 30.8735C223.297 25.3651 224.413 21.5302 226.828 21.2496C230.762 20.812 234.079 26.7903 234.206 34.5266C234.265 37.3249 233.083 43.3357 232.535 43.1501C232.426 43.113 231.98 40.7334 231.556 37.8418C231.094 34.9684 230.613 32.5154 230.412 32.3864C229.282 31.6676 229.129 33.1115 229.835 38.2356C230.277 41.2553 230.502 43.835 230.355 43.9074C229.805 44.179 227.736 41.0964 226.126 37.5588C224.95 34.9012 224.32 32.9779 224.056 30.8735ZM258.503 94.8142C258.556 91.5958 259.869 88.6214 261.592 87.7704C264.379 86.3944 266.453 88.5627 266.468 92.9335C266.476 94.9818 263.315 105.482 262.73 105.314C262.164 105.092 262.097 100.154 262.657 98.0534C263.383 95.4602 263.132 94.3068 262.032 94.85C261.592 95.0672 261.111 96.3084 260.791 98.1539C260.508 99.7984 260.19 101.187 260.08 101.241C259.64 101.55 258.511 96.8624 258.503 94.8142Z" fill="white" fill-opacity="0.5"/>
<path opacity="0.5" d="M271.753 85.2184C273.276 86.4736 278.325 88.2292 281.449 88.5935C282.91 88.7752 285.083 88.8396 286.278 88.7517C288.304 88.5873 288.492 88.6285 289.105 89.4633C290.757 91.6581 296.085 96.6884 299.706 99.4833C303.796 102.616 310.055 106.484 310.914 106.394C311.652 106.331 311.616 105.445 310.84 105.025C306.465 102.737 299.031 97.7092 297.296 95.8896C296.909 95.4449 297.047 94.7749 298.312 91.3067C299.876 87.0216 300.224 84.3403 299.551 82.0967C299.076 80.5918 297.861 79.3516 296.628 79.0906C295.476 78.8568 293.553 79.7058 292.729 80.8152C291.433 82.5929 291.079 86.2803 291.908 89.4504C292.408 91.4115 292.301 91.3304 289.048 87.3166C286.528 84.1784 283.332 79.4672 282.19 77.1542L281.446 75.648L283.359 73.9672C287.348 70.4589 289.418 66.7934 289.341 63.4527C289.254 59.4143 286.221 56.998 283.662 58.9304C282.127 60.0899 280.326 66.1312 280.115 70.8522L280.012 72.7432L279.321 71.3446C277.541 67.7405 275.379 60.1771 274.574 54.6864C274.107 51.5718 274.135 51.4243 275.183 48.3307C276.898 43.2683 276.732 39.0015 274.633 34.7519C273.69 32.8423 273.264 32.2499 272.288 31.5609C271.045 30.6693 269.235 30.392 268.133 30.9366C266.035 31.9725 265.426 35.7525 266.553 41.0839C267.116 43.8502 269.575 48.3565 271.485 50.1233C272.807 51.3104 272.86 51.418 272.974 52.7332C273.065 53.4581 273.377 55.4451 273.677 57.1369C274.16 59.8089 274.145 60.1173 273.638 59.4977C270.025 54.9589 263.165 50.5515 259.838 50.5886C256.954 50.6414 255.719 53.4256 257.246 56.5857C258.348 58.8851 260.675 60.4797 265.148 62.0178C267.156 62.6985 270.01 63.3969 271.539 63.5789C273.027 63.7472 274.475 63.902 274.77 63.9571C275.239 64.0265 275.425 64.4031 276.258 66.9024C277.223 69.7378 281.484 78.8409 282.842 80.8465C283.215 81.3984 283.827 82.3673 284.214 82.9461L284.946 84.0229L282.686 82.63C280.011 80.9398 276.157 79.1633 274.294 78.7113C269.832 77.6696 268.052 82.195 271.753 85.2184ZM271.101 81.3919C271.393 79.4079 274.061 79.6626 279.12 82.183C281.729 83.4704 285.219 85.728 284.87 85.9007C284.628 86.0202 280.717 84.6056 279.045 83.7924C278.282 83.3996 277.786 83.3434 277.543 83.5971C277.354 83.8242 277.259 84.1055 277.325 84.24C277.471 84.5358 280.482 86.0264 282.585 86.8284L284.071 87.3992L282.689 87.3118C278.921 87.065 274.675 85.7159 272.577 84.109C271.294 83.1368 270.935 82.4777 271.101 81.3919ZM258.04 53.5176C258.584 51.9105 259.658 51.7146 262.323 52.7071C265.028 53.7133 267.916 55.5655 270.359 57.9387C272.856 60.2853 272.988 60.8896 270.793 59.6982C268.064 58.1688 265.078 57.0673 264.835 57.4551C264.47 58.0033 265.003 58.7438 265.9 59.0032C267.106 59.3445 272.432 61.9333 272.378 62.161C272.269 62.4825 267.351 61.3982 264.672 60.4459C259.959 58.759 257.223 55.9282 258.04 53.5176ZM282.288 65.497C283.001 62.3346 283.897 60.2865 284.785 59.8482C285.538 59.4764 287.184 60.1687 287.623 61.0563C288.18 62.1859 288.058 65.1232 287.421 66.6091C286.797 67.9878 284.163 71.5296 283.544 71.8351C283.329 71.9414 283.385 71.5794 283.669 71.004C283.94 70.4688 284.565 69.023 285.013 67.8313C285.72 65.9433 285.762 65.5545 285.294 65.2168C284.827 64.8791 284.705 65.0395 283.755 67.3153C282.723 69.7651 281.747 71.7189 281.452 71.865C281.156 72.0111 281.615 68.6059 282.288 65.497ZM267.475 39.1567C266.918 35.116 267.737 32.3029 269.509 32.0971C272.394 31.7761 274.828 36.1615 274.92 41.8365C274.964 43.8892 274.096 48.2984 273.695 48.1623C273.614 48.1351 273.288 46.3895 272.976 44.2684C272.638 42.1605 272.285 40.3611 272.138 40.2665C271.308 39.7392 271.196 40.7984 271.714 44.5572C272.038 46.7723 272.203 48.6646 272.096 48.7178C271.692 48.917 270.174 46.6557 268.993 44.0608C268.131 42.1113 267.668 40.7004 267.475 39.1567ZM292.744 86.0605C292.782 83.6997 293.745 81.5178 295.01 80.8936C297.054 79.8842 298.575 81.4747 298.586 84.681C298.592 86.1835 296.273 93.8856 295.844 93.7628C295.429 93.5997 295.38 89.9774 295.79 88.4367C296.323 86.5344 296.139 85.6884 295.333 86.0868C295.01 86.2462 294.656 87.1567 294.422 88.5104C294.214 89.7167 293.981 90.7351 293.901 90.775C293.578 91.0014 292.749 87.563 292.744 86.0605Z" fill="white" fill-opacity="0.5"/>
<path opacity="0.5" d="M20.6661 92.6938C22.329 94.8089 28.5416 98.6172 32.5958 100.012C34.489 100.679 37.3641 101.398 38.9803 101.629C41.727 102 41.9648 102.109 42.538 103.4C44.0997 106.804 49.7301 115.054 53.7393 119.831C58.2733 125.194 65.4826 132.167 66.6527 132.298C67.6542 132.429 67.8643 131.239 66.9531 130.454C61.7927 126.132 53.3565 117.272 51.5759 114.343C51.1902 113.638 51.5684 112.786 54.2628 108.536C57.5935 103.284 58.8387 99.815 58.5957 96.631C58.4007 94.4885 57.1443 92.4831 55.5783 91.7765C54.1115 91.1295 51.3039 91.7004 49.8837 92.9379C47.6391 94.9279 46.0944 99.7356 46.2758 104.199C46.3707 106.956 46.2519 106.817 43.088 100.524C40.646 95.6112 37.7613 88.4063 36.9137 84.9933L36.3618 82.7708L39.3992 81.0895C45.7323 77.5786 49.5574 73.3001 50.4272 68.8285C51.487 63.4249 48.1511 59.3236 44.1811 61.1522C41.7991 62.2494 37.6417 69.7705 35.9856 75.9963L35.2973 78.4846L34.7848 76.4209C33.4642 71.1029 32.7867 60.4005 33.3142 52.8539C33.5986 48.5698 33.6782 48.3815 35.9752 44.5667C39.7339 38.3244 40.7545 32.5934 39.1973 26.3229C38.4975 23.5052 38.1023 22.5921 37.0033 21.3903C35.6073 19.841 33.278 18.9447 31.6508 19.3488C28.5553 20.1176 26.6434 24.9743 26.5921 32.4027C26.5365 36.2507 28.4997 42.9682 30.5283 45.8773C31.9435 47.8432 31.9829 48.0019 31.752 49.7868C31.6612 50.7784 31.4982 53.5155 31.4053 55.856C31.2706 59.5551 31.1608 59.9616 30.6665 58.9888C27.1766 51.8921 19.324 44.0249 14.8823 43.1055C11.0254 42.3358 8.5705 45.6842 9.68394 50.3374C10.482 53.7207 13.1158 56.5216 18.6248 59.8725C21.102 61.3641 24.6994 63.1252 26.6819 63.8126C28.6148 64.4702 30.4982 65.098 30.8748 65.2572C31.4795 65.4863 31.6175 66.0419 31.9987 69.6129C32.4585 73.67 35.4823 87.0341 36.7073 90.1006C37.0432 90.9442 37.5765 92.4128 37.9222 93.2961L38.5841 94.9434L35.9797 92.4302C32.9099 89.4004 28.2936 85.912 25.9449 84.7678C20.3059 82.0812 16.6177 87.5897 20.6661 92.6938ZM20.9124 87.408C21.8785 84.8507 25.3579 85.967 31.3605 90.7964C34.4609 93.2708 38.4515 97.2938 37.9356 97.4219C37.5784 97.5106 32.7829 94.4881 30.7919 92.9179C29.8905 92.1727 29.2462 91.9535 28.8491 92.2207C28.5313 92.4681 28.3225 92.8149 28.3718 93.0133C28.4802 93.4499 32.0561 96.3118 34.6222 97.9919L36.4353 99.1849L34.6211 98.6664C29.6743 97.2404 24.4127 94.2072 22.0863 91.4563C20.6608 89.7879 20.3747 88.8056 20.9124 87.408ZM11.6339 46.4824C12.8271 44.5007 14.3147 44.5527 17.5744 46.6504C20.8836 48.778 24.191 52.0858 26.7537 55.9578C29.3957 59.81 29.3944 60.653 26.8192 58.4274C23.6301 55.5959 19.9741 53.2594 19.537 53.7051C18.8914 54.3289 19.3855 55.4702 20.5052 56.0769C22.0115 56.8826 28.3511 61.8812 28.2118 62.1686C27.9731 62.565 21.7393 59.689 18.4498 57.6407C12.6634 54.0216 9.844 49.455 11.6339 46.4824ZM40.4389 69.4972C42.3097 65.4933 44.0988 63.0266 45.4085 62.7013C46.5197 62.4254 48.511 63.8269 48.8362 65.1366C49.2502 66.8034 48.2325 70.6797 46.9503 72.4728C45.7179 74.1272 41.1792 78.0773 40.2665 78.304C39.949 78.3828 40.1282 77.9169 40.6748 77.2335C41.1915 76.5995 42.4439 74.856 43.3883 73.3995C44.8796 71.091 45.049 70.5854 44.5243 69.9995C43.9995 69.4135 43.791 69.5917 41.8626 72.3458C39.7752 75.308 37.9071 77.6259 37.4705 77.7343C37.034 77.8427 38.6376 73.4417 40.4389 69.4972ZM28.381 30.1045C28.8161 24.5612 30.7258 21.0532 33.1454 21.295C37.0821 21.7078 39.0455 28.2567 37.5162 35.8414C36.9764 38.5878 34.5377 44.2074 34.0423 43.9091C33.9432 43.8494 34.0164 41.4296 34.2193 38.5141C34.3825 35.6084 34.436 33.1092 34.2677 32.9403C33.3171 31.9967 32.8587 33.3745 32.4539 38.5312C32.2409 41.5756 31.9096 44.1438 31.7508 44.1832C31.1555 44.3311 29.7923 40.8775 28.975 37.0777C28.3943 34.2304 28.1892 32.2167 28.381 30.1045ZM48.3752 99.9276C49.114 96.7947 51.0322 94.1695 52.8975 93.7063C55.9137 92.9572 57.4767 95.5185 56.5576 99.7916C56.128 101.794 50.797 111.377 50.2619 111.088C49.7566 110.75 50.7461 105.912 51.7409 103.979C53.0042 101.601 53.006 100.421 51.8154 100.716C51.3392 100.835 50.6035 101.944 49.8966 103.679C49.2694 105.225 48.6624 106.513 48.5433 106.543C48.0471 106.751 47.9456 101.93 48.3752 99.9276Z" fill="white" fill-opacity="0.5"/>
<path opacity="0.5" d="M63.3687 93.3828C64.5885 94.9344 69.1457 97.7279 72.1197 98.7511C73.5085 99.2407 75.6175 99.7678 76.8031 99.937C78.8179 100.209 78.9924 100.29 79.4129 101.236C80.5585 103.733 84.6886 109.785 87.6296 113.289C90.9555 117.223 96.2439 122.339 97.1022 122.435C97.8369 122.53 97.991 121.658 97.3226 121.082C93.5372 117.911 87.3488 111.412 86.0426 109.264C85.7597 108.747 86.0371 108.122 88.0136 105.004C90.4568 101.152 91.3702 98.6066 91.192 96.271C91.049 94.6993 90.1273 93.2283 88.9786 92.7099C87.9026 92.2353 85.8431 92.6541 84.8013 93.5619C83.1548 95.0216 82.0216 98.5483 82.1547 101.822C82.2243 103.845 82.1372 103.743 79.8163 99.1269C78.025 95.5229 75.9089 90.2377 75.2871 87.7341L74.8823 86.1038L77.1104 84.8705C81.7561 82.295 84.5619 79.1565 85.2 75.8764C85.9774 71.9126 83.5303 68.9041 80.6181 70.2454C78.8708 71.0502 75.8211 76.5674 74.6063 81.1343L74.1014 82.9596L73.7255 81.4458C72.7567 77.5447 72.2597 69.694 72.6467 64.1581C72.8553 61.0155 72.9138 60.8774 74.5987 58.0791C77.3559 53.5 78.1046 49.2961 76.9623 44.6963C76.449 42.6293 76.159 41.9596 75.3528 41.078C74.3288 39.9415 72.6201 39.284 71.4265 39.5804C69.1558 40.1443 67.7534 43.707 67.7157 49.1561C67.6749 51.9789 69.115 56.9065 70.6031 59.0404C71.6412 60.4826 71.6701 60.599 71.5007 61.9083C71.4341 62.6357 71.3146 64.6435 71.2464 66.3603C71.1476 69.0738 71.0671 69.372 70.7045 68.6585C68.1444 63.4527 62.3842 57.6816 59.1259 57.0072C56.2968 56.4426 54.4959 58.8988 55.3127 62.3122C55.8981 64.794 57.8301 66.8486 61.8713 69.3067C63.6884 70.4008 66.3273 71.6927 67.7815 72.1969C69.1995 72.6793 70.581 73.1398 70.8573 73.2567C71.3008 73.4247 71.4021 73.8323 71.6817 76.4518C72.019 79.4279 74.2371 89.2311 75.1358 91.4806C75.3821 92.0994 75.7733 93.1767 76.0269 93.8246L76.5125 95.033L74.602 93.1894C72.3501 90.9669 68.9639 88.408 67.241 87.5687C63.1044 85.5979 60.399 89.6387 63.3687 93.3828ZM63.5494 89.5054C64.258 87.6295 66.8103 88.4483 71.2136 91.991C73.4879 93.8061 76.4152 96.7571 76.0368 96.8511C75.7747 96.9162 72.257 94.699 70.7965 93.5472C70.1353 93.0005 69.6626 92.8398 69.3713 93.0357C69.1382 93.2172 68.9851 93.4716 69.0212 93.6172C69.1007 93.9374 71.7238 96.0368 73.6062 97.2693L74.9362 98.1444L73.6054 97.764C69.9767 96.718 66.117 94.493 64.4105 92.4751C63.3648 91.2512 63.1549 90.5306 63.5494 89.5054ZM56.7431 59.4844C57.6184 58.0307 58.7096 58.0688 61.1007 59.6076C63.5282 61.1683 65.9544 63.5947 67.8342 66.435C69.7723 69.2608 69.7713 69.8792 67.8823 68.2466C65.5429 66.1695 62.861 64.4557 62.5404 64.7825C62.0668 65.2401 62.4293 66.0774 63.2507 66.5224C64.3556 67.1135 69.006 70.7802 68.9038 70.991C68.7288 71.2817 64.1559 69.172 61.7429 67.6696C57.4983 65.0147 55.4301 61.6649 56.7431 59.4844ZM77.8731 76.3669C79.2454 73.4298 80.5578 71.6204 81.5185 71.3818C82.3336 71.1793 83.7944 72.2074 84.0329 73.1681C84.3366 74.3909 83.5901 77.2343 82.6495 78.5497C81.7455 79.7632 78.4161 82.6608 77.7466 82.8271C77.5137 82.8849 77.6451 82.5432 78.0461 82.0419C78.4251 81.5768 79.3438 80.2978 80.0366 79.2294C81.1305 77.536 81.2548 77.1652 80.8699 76.7353C80.485 76.3055 80.332 76.4362 78.9174 78.4565C77.3862 80.6294 76.0158 82.3297 75.6956 82.4092C75.3754 82.4887 76.5517 79.2604 77.8731 76.3669ZM69.0279 47.4703C69.3471 43.404 70.748 40.8307 72.5229 41.0081C75.4107 41.3109 76.8509 46.1148 75.7291 51.6786C75.3331 53.6932 73.5442 57.8155 73.1808 57.5967C73.1081 57.5529 73.1618 55.7778 73.3107 53.6392C73.4304 51.5077 73.4696 49.6744 73.3462 49.5505C72.6488 48.8583 72.3126 49.869 72.0157 53.6517C71.8594 55.8849 71.6163 57.7688 71.4999 57.7978C71.0632 57.9062 70.0632 55.3729 69.4637 52.5855C69.0377 50.4968 68.8873 49.0197 69.0279 47.4703ZM83.6947 98.6892C84.2367 96.391 85.6438 94.4653 87.0121 94.1255C89.2246 93.5761 90.3712 95.4549 89.697 98.5894C89.3818 100.059 85.4713 107.088 85.0788 106.876C84.7081 106.628 85.4339 103.079 86.1637 101.661C87.0903 99.9167 87.0917 99.051 86.2183 99.2679C85.869 99.3546 85.3293 100.169 84.8108 101.441C84.3507 102.575 83.9054 103.52 83.8181 103.542C83.4541 103.694 83.3796 100.158 83.6947 98.6892Z" fill="white" fill-opacity="0.5"/>
</svg>
