<svg width="210" height="208" viewBox="0 0 210 208" fill="none" xmlns="http://www.w3.org/2000/svg">
<path d="M5.43929 184.811C6.51412 185.695 10.2529 187.96 13.7706 189.828C19.862 193.064 20.186 193.384 25.2572 199.317C30.8081 205.774 32.6463 207.131 36.5447 207.587C39.2295 207.827 42.192 206.731 45.5354 204.224C50.3189 200.637 52.0596 200.378 60.4141 201.917C64.6755 202.744 69.2065 203.289 70.5092 203.197C76.4416 202.61 82.0342 198.175 85.0628 191.64C87.3116 186.735 88.1806 176.187 86.9214 168.683C84.3376 153.484 79.0588 144.408 67.3526 134.843C66.5363 134.087 67.3161 132.456 73.218 122.157C89.2458 94.0466 114.146 65.0752 139.846 44.5962L148.871 37.3457L143.884 44.3845C134.96 56.8695 129.329 67.2067 125.928 77.0785C121.711 89.1712 123.741 95.7756 130.891 93.3907C133.068 92.6431 134.045 91.9102 137.294 88.4281C150.635 73.9988 158.801 53.7142 158.987 34.5071L159.03 29.8882L162.929 27.3673C176.437 18.6856 190.556 10.9139 202.595 5.5062C208.042 3.11119 208.955 2.50673 209.157 1.39018C209.269 0.581708 209.061 0.0944875 208.428 0.00567154C206.35 -0.286138 184.13 10.7444 170.374 18.8876C155.112 27.9185 132.535 45.493 119.201 58.5495L113.754 63.9211L107.894 63.3273C100.885 62.7097 94.0229 63.0285 86.1846 64.4008C70.0186 67.3516 51.9584 76.6307 50.9401 82.624C50.5011 85.4473 51.387 87.3576 53.8967 88.8548C56.5357 90.4159 60.302 90.1662 68.175 87.8828C79.8878 84.49 98.6642 76.6853 103.191 73.291C105.454 71.5938 105.653 72.8124 103.405 75.0612C93.2974 85.4568 75.7203 110.465 66.8274 127.03C64.1406 132.102 63.743 132.642 62.6572 132.169C55.9875 129.446 47.7277 128.882 39.6586 130.588C33.059 131.997 29.0663 133.543 19.7463 138.279C5.94712 145.409 2.17445 150.008 4.68207 156.817C6.53597 161.702 6.13594 164.577 3.46127 166.583C1.35238 168.164 -0.369614 172.593 0.0687033 175.402C0.522378 178.763 2.70706 182.596 5.43929 184.811ZM17.6471 170.91C18.5365 167.829 23.1129 164.075 27.1599 163.132C36.5302 161.014 51.5337 166.417 61.9747 175.805C66.7677 180.096 68.4476 183.583 67.6014 187.677C65.0755 199.87 37.8612 196.141 28.6779 182.35C26.6643 179.274 26.4807 178.607 26.9475 176.245C27.5658 173.127 29.4675 171.379 32.6776 170.822C36.9708 170.097 48.4998 174.646 51.1084 178.08C53.7171 181.515 50.9246 186.023 46.2406 185.914C43.6213 185.867 40.2343 184.384 39.8671 183.051C39.3692 181.332 41.1223 180.983 43.7209 182.172C47.5097 184.078 50.4834 182.572 48.4198 179.855C47.096 178.112 40.3081 174.916 36.3179 174.126C33.5803 173.605 32.5487 173.735 31.16 174.776C29.9769 175.663 29.4904 176.511 29.6365 177.447C30.2459 181.013 37.151 187.34 43.3813 189.909C47.1687 191.494 55.5079 192.482 58.5747 191.63C61.2941 190.959 63.8409 189.21 64.6846 187.451C67.2406 181.994 53.902 170.917 39.9887 166.948C30.6872 164.269 23.2772 166.205 20.5418 171.957C19.5188 174.012 17.7686 175.002 17.2985 173.746C17.1678 173.361 17.3038 172.052 17.6471 170.91ZM74.1862 168.498C74.1843 165.201 72.9116 160.443 71.2345 157.597C70.6755 156.649 70.724 155.969 71.4442 155.429C72.3186 154.773 72.7065 154.965 73.9274 156.785C76.1606 159.937 77.6838 165.875 77.341 169.994C77.1231 173.215 76.9188 173.69 75.68 173.654C74.2216 173.541 74.1952 173.399 74.1862 168.498ZM64.0661 147.203C64.5512 146.035 65.9986 146.559 67.9814 148.531C69.9253 150.453 69.9699 151.787 68.2433 152.277C67.0838 152.664 63.62 148.423 64.0661 147.203ZM53.8445 82.9402C54.816 80.9243 60.8355 76.7322 67.3375 73.7068C74.0453 70.5272 83.0388 67.8058 90.0917 66.7811C94.8881 66.0807 104.795 65.7315 104.772 66.2319C104.708 66.3603 99.0384 68.0372 92.0413 69.9856C85.0956 71.8954 79.0911 73.6626 78.7311 73.9326C78.4225 74.164 78.4253 74.8055 78.8536 75.3694C79.4376 76.1383 81.7066 75.7241 90.2371 73.3499C96.1262 71.7497 100.895 70.5874 100.909 70.8184C100.821 71.4472 93.8438 74.9095 85.3189 78.5667C75.725 82.6234 62.5955 86.5958 58.3899 86.6922C54.7904 86.7364 52.8479 85.1357 53.8445 82.9402ZM126.316 88.856C125.853 86.2266 129.712 75.0454 133.856 66.789C137.539 59.5213 149.443 41.181 150.437 41.3206C150.657 41.3972 149.612 44.2728 148.195 47.829C145.605 54.1969 140.754 62.9034 138.058 66.0511C137.288 66.9504 136.803 68.1187 136.96 68.6445C137.55 70.6964 138.965 69.7961 142.157 65.0695C147.592 57.1319 152.37 46.6292 154.677 37.3365C155.172 35.4369 155.721 34.1402 155.954 34.4477C156.616 35.3191 154.448 49.5769 152.796 55.1606C149.567 66.1099 142.052 79.0674 134.359 87.0086C131.25 90.1441 130.633 90.607 128.866 90.7252C126.686 90.8313 126.596 90.8186 126.316 88.856Z" fill="#007AB1" fill-opacity="0.15"/>
</svg>
