<svg width="131" height="66" viewBox="0 0 131 66" fill="none" xmlns="http://www.w3.org/2000/svg">
<path opacity="0.5" d="M20.6661 92.6939C22.329 94.809 28.5416 98.6172 32.5958 100.012C34.489 100.68 37.3641 101.398 38.9803 101.629C41.727 102 41.9648 102.109 42.538 103.4C44.0997 106.804 49.7301 115.054 53.7393 119.831C58.2733 125.194 65.4826 132.168 66.6527 132.298C67.6542 132.429 67.8643 131.239 66.9531 130.454C61.7927 126.132 53.3565 117.272 51.5759 114.343C51.1902 113.638 51.5684 112.786 54.2628 108.536C57.5935 103.284 58.8387 99.8151 58.5957 96.6311C58.4007 94.4885 57.1443 92.4832 55.5783 91.7765C54.1115 91.1296 51.3039 91.7004 49.8837 92.9379C47.6391 94.9279 46.0944 99.7356 46.2758 104.199C46.3707 106.956 46.2519 106.817 43.088 100.524C40.646 95.6112 37.7613 88.4064 36.9137 84.9933L36.3618 82.7708L39.3992 81.0896C45.7323 77.5786 49.5574 73.3001 50.4272 68.8285C51.487 63.425 48.1511 59.3237 44.1811 61.1523C41.7991 62.2494 37.6417 69.7706 35.9856 75.9964L35.2973 78.4847L34.7848 76.421C33.4642 71.1029 32.7867 60.4005 33.3142 52.8539C33.5986 48.5698 33.6782 48.3815 35.9752 44.5667C39.7339 38.3244 40.7545 32.5935 39.1973 26.323C38.4975 23.5052 38.1023 22.5922 37.0033 21.3904C35.6073 19.841 33.278 18.9448 31.6508 19.3489C28.5553 20.1176 26.6434 24.9744 26.5921 32.4027C26.5365 36.2508 28.4997 42.9682 30.5283 45.8773C31.9435 47.8432 31.9829 48.002 31.752 49.7868C31.6612 50.7785 31.4982 53.5155 31.4053 55.856C31.2706 59.5552 31.1608 59.9616 30.6665 58.9889C27.1766 51.8922 19.324 44.025 14.8823 43.1056C11.0254 42.3359 8.5705 45.6843 9.68394 50.3375C10.482 53.7207 13.1158 56.5216 18.6248 59.8726C21.102 61.3641 24.6994 63.1252 26.6819 63.8126C28.6148 64.4702 30.4982 65.098 30.8748 65.2573C31.4795 65.4863 31.6175 66.0419 31.9987 69.613C32.4585 73.6701 35.4823 87.0341 36.7073 90.1007C37.0432 90.9442 37.5765 92.4129 37.9222 93.2961L38.5841 94.9435L35.9797 92.4302C32.9099 89.4005 28.2936 85.9121 25.9449 84.7679C20.3059 82.0812 16.6177 87.5898 20.6661 92.6939ZM20.9124 87.4081C21.8785 84.8508 25.3579 85.967 31.3605 90.7965C34.4609 93.2708 38.4515 97.2938 37.9356 97.4219C37.5784 97.5106 32.7829 94.4881 30.7919 92.918C29.8905 92.1727 29.2462 91.9535 28.8491 92.2207C28.5313 92.4681 28.3225 92.8149 28.3718 93.0134C28.4802 93.4499 32.0561 96.3119 34.6222 97.992L36.4353 99.185L34.6211 98.6664C29.6743 97.2404 24.4127 94.2072 22.0863 91.4564C20.6608 89.7879 20.3747 88.8056 20.9124 87.4081ZM11.6339 46.4825C12.8271 44.5008 14.3147 44.5527 17.5744 46.6505C20.8836 48.778 24.191 52.0859 26.7537 55.9578C29.3957 59.8101 29.3944 60.6531 26.8192 58.4275C23.6301 55.5959 19.9741 53.2595 19.537 53.7051C18.8914 54.3289 19.3855 55.4702 20.5052 56.077C22.0115 56.8827 28.3511 61.8813 28.2118 62.1687C27.9731 62.565 21.7393 59.689 18.4498 57.6408C12.6634 54.0216 9.844 49.455 11.6339 46.4825ZM40.4389 69.4972C42.3097 65.4934 44.0988 63.0266 45.4085 62.7014C46.5197 62.4254 48.511 63.8269 48.8362 65.1366C49.2502 66.8035 48.2325 70.6797 46.9503 72.4729C45.7179 74.1272 41.1792 78.0773 40.2665 78.304C39.949 78.3828 40.1282 77.917 40.6748 77.2335C41.1915 76.5996 42.4439 74.856 43.3883 73.3996C44.8796 71.091 45.049 70.5855 44.5243 69.9995C43.9995 69.4135 43.791 69.5917 41.8626 72.3459C39.7752 75.308 37.9071 77.6259 37.4705 77.7343C37.034 77.8427 38.6376 73.4417 40.4389 69.4972ZM28.381 30.1046C28.8161 24.5612 30.7258 21.0533 33.1454 21.2951C37.0821 21.7079 39.0455 28.2567 37.5162 35.8415C36.9764 38.5879 34.5377 44.2075 34.0423 43.9091C33.9432 43.8495 34.0164 41.4297 34.2193 38.5141C34.3825 35.6085 34.436 33.1092 34.2677 32.9404C33.3171 31.9967 32.8587 33.3746 32.4539 38.5312C32.2409 41.5756 31.9096 44.1438 31.7508 44.1833C31.1555 44.3311 29.7923 40.8776 28.975 37.0778C28.3943 34.2304 28.1892 32.2168 28.381 30.1046ZM48.3752 99.9276C49.114 96.7948 51.0322 94.1695 52.8975 93.7063C55.9137 92.9573 57.4767 95.5185 56.5576 99.7917C56.128 101.794 50.797 111.377 50.2619 111.088C49.7566 110.75 50.7461 105.912 51.7409 103.979C53.0042 101.601 53.006 100.421 51.8154 100.717C51.3392 100.835 50.6035 101.944 49.8966 103.679C49.2694 105.225 48.6624 106.514 48.5433 106.543C48.0471 106.751 47.9456 101.93 48.3752 99.9276Z" fill="white" fill-opacity="0.5"/>
<path opacity="0.5" d="M63.3687 93.3829C64.5885 94.9344 69.1457 97.728 72.1197 98.7511C73.5085 99.2408 75.6175 99.7679 76.8031 99.9371C78.8179 100.209 78.9924 100.29 79.4129 101.236C80.5585 103.733 84.6886 109.786 87.6296 113.29C90.9555 117.223 96.2439 122.339 97.1022 122.435C97.8369 122.531 97.991 121.658 97.3226 121.082C93.5372 117.911 87.3488 111.412 86.0426 109.264C85.7597 108.747 86.0371 108.122 88.0136 105.004C90.4568 101.152 91.3702 98.6067 91.192 96.271C91.049 94.6993 90.1273 93.2283 88.9786 92.71C87.9026 92.2354 85.8431 92.6541 84.8013 93.5619C83.1548 95.0217 82.0216 98.5484 82.1547 101.822C82.2243 103.845 82.1372 103.743 79.8163 99.1269C78.025 95.5229 75.9089 90.2378 75.2871 87.7341L74.8823 86.1038L77.1104 84.8705C81.7561 82.2951 84.5619 79.1565 85.2 75.8764C85.9774 71.9126 83.5303 68.9041 80.6181 70.2455C78.8708 71.0503 75.8211 76.5674 74.6063 81.1344L74.1014 82.9597L73.7255 81.4458C72.7567 77.5448 72.2597 69.694 72.6467 64.1582C72.8553 61.0156 72.9138 60.8774 74.5987 58.0791C77.3559 53.5 78.1046 49.2961 76.9623 44.6964C76.449 42.6294 76.159 41.9596 75.3528 41.078C74.3288 39.9415 72.6201 39.2841 71.4265 39.5805C69.1558 40.1444 67.7534 43.7071 67.7157 49.1562C67.6749 51.9789 69.115 56.9065 70.6031 59.0405C71.6412 60.4826 71.6701 60.599 71.5007 61.9083C71.4341 62.6357 71.3146 64.6435 71.2464 66.3604C71.1476 69.0739 71.0671 69.372 70.7045 68.6585C68.1444 63.4527 62.3842 57.6817 59.1259 57.0073C56.2968 56.4427 54.4959 58.8989 55.3127 62.3122C55.8981 64.794 57.8301 66.8487 61.8713 69.3067C63.6884 70.4009 66.3273 71.6927 67.7815 72.197C69.1995 72.6794 70.581 73.1399 70.8573 73.2567C71.3008 73.4247 71.4021 73.8323 71.6817 76.4518C72.019 79.4279 74.2371 89.2312 75.1358 91.4806C75.3821 92.0994 75.7733 93.1767 76.0269 93.8246L76.5125 95.0331L74.602 93.1895C72.3501 90.967 68.9639 88.4081 67.241 87.5687C63.1044 85.5979 60.399 89.6387 63.3687 93.3829ZM63.5494 89.5054C64.258 87.6295 66.8103 88.4484 71.2136 91.991C73.4879 93.8061 76.4152 96.7572 76.0368 96.8512C75.7747 96.9162 72.257 94.699 70.7965 93.5473C70.1353 93.0006 69.6626 92.8398 69.3713 93.0358C69.1382 93.2173 68.9851 93.4717 69.0212 93.6172C69.1007 93.9375 71.7238 96.0369 73.6062 97.2693L74.9362 98.1444L73.6054 97.764C69.9767 96.718 66.117 94.493 64.4105 92.4751C63.3648 91.2512 63.1549 90.5306 63.5494 89.5054ZM56.7431 59.4844C57.6184 58.0307 58.7096 58.0688 61.1007 59.6076C63.5282 61.1683 65.9544 63.5948 67.8342 66.4351C69.7723 69.2609 69.7713 69.8793 67.8823 68.2467C65.5429 66.1696 62.861 64.4557 62.5404 64.7826C62.0668 65.2402 62.4293 66.0774 63.2507 66.5225C64.3556 67.1135 69.006 70.7802 68.9038 70.991C68.7288 71.2818 64.1559 69.1721 61.7429 67.6696C57.4983 65.0148 55.4301 61.6649 56.7431 59.4844ZM77.8731 76.3669C79.2454 73.4299 80.5578 71.6204 81.5185 71.3818C82.3336 71.1794 83.7944 72.2075 84.0329 73.1682C84.3366 74.3909 83.5901 77.2344 82.6495 78.5497C81.7455 79.7633 78.4161 82.6609 77.7466 82.8272C77.5137 82.885 77.6451 82.5433 78.0461 82.0419C78.4251 81.5769 79.3438 80.2979 80.0366 79.2295C81.1305 77.5361 81.2548 77.1652 80.8699 76.7354C80.485 76.3055 80.332 76.4363 78.9174 78.4566C77.3862 80.6295 76.0158 82.3297 75.6956 82.4093C75.3754 82.4888 76.5517 79.2604 77.8731 76.3669ZM69.0279 47.4704C69.3471 43.404 70.748 40.8308 72.5229 41.0081C75.4107 41.3109 76.8509 46.1149 75.7291 51.6787C75.3331 53.6933 73.5442 57.8156 73.1808 57.5967C73.1081 57.553 73.1618 55.7779 73.3107 53.6392C73.4304 51.5077 73.4696 49.6744 73.3462 49.5506C72.6488 48.8583 72.3126 49.8691 72.0157 53.6517C71.8594 55.885 71.6163 57.7689 71.4999 57.7978C71.0632 57.9063 70.0632 55.3729 69.4637 52.5855C69.0377 50.4969 68.8873 49.0198 69.0279 47.4704ZM83.6947 98.6892C84.2367 96.3911 85.6438 94.4654 87.0121 94.1256C89.2246 93.5761 90.3712 95.4549 89.697 98.5895C89.3818 100.059 85.4713 107.088 85.0788 106.876C84.7081 106.628 85.4339 103.079 86.1637 101.661C87.0903 99.9168 87.0917 99.051 86.2183 99.2679C85.869 99.3547 85.3293 100.169 84.8108 101.441C84.3507 102.575 83.9054 103.52 83.8181 103.542C83.4541 103.694 83.3796 100.158 83.6947 98.6892Z" fill="white" fill-opacity="0.5"/>
</svg>
