<svg width="1420" height="47" viewBox="0 0 1420 47" fill="none" xmlns="http://www.w3.org/2000/svg">
<path opacity="0.5" d="M229.888 74.4142C231.965 76.1253 238.847 78.5186 243.106 79.0152C245.098 79.2629 248.06 79.3507 249.688 79.2308C252.451 79.0068 252.707 79.0629 253.542 80.2009C255.795 83.193 263.058 90.0505 267.995 93.8606C273.57 98.131 282.102 103.404 283.273 103.282C284.28 103.195 284.231 101.988 283.173 101.416C277.208 98.2954 267.074 91.442 264.709 88.9614C264.182 88.3553 264.369 87.4418 266.094 82.7139C268.226 76.8724 268.701 73.2172 267.784 70.1586C267.135 68.1071 265.48 66.4164 263.799 66.0606C262.228 65.7419 259.607 66.8993 258.484 68.4116C256.716 70.8351 256.234 75.8618 257.365 80.1834C258.046 82.8568 257.9 82.7463 253.465 77.2745C250.03 72.9964 245.673 66.574 244.116 63.4208L243.102 61.3675L245.71 59.0762C251.147 54.2935 253.97 49.2967 253.865 44.7425C253.746 39.2373 249.611 35.9433 246.123 38.5777C244.03 40.1583 241.576 48.3939 241.288 54.8298L241.147 57.4076L240.205 55.501C237.779 50.5878 234.831 40.2772 233.734 32.792C233.097 28.5461 233.135 28.3451 234.564 24.1277C236.902 17.2266 236.675 11.4099 233.815 5.61677C232.529 3.01353 231.948 2.20597 230.618 1.26669C228.923 0.0512714 226.456 -0.326744 224.953 0.415585C222.093 1.82782 221.262 6.98085 222.799 14.2487C223.567 18.0198 226.919 24.1629 229.523 26.5715C231.325 28.1898 231.397 28.3365 231.553 30.1295C231.676 31.1176 232.102 33.8263 232.511 36.1326C233.169 39.7751 233.149 40.1957 232.458 39.351C227.533 33.1635 218.181 27.1552 213.646 27.2059C209.713 27.2778 208.03 31.0733 210.112 35.3812C211.614 38.5159 214.786 40.6896 220.883 42.7864C223.622 43.7144 227.512 44.6664 229.596 44.9145C231.625 45.1441 233.599 45.355 234.001 45.4302C234.64 45.5248 234.894 46.0381 236.029 49.4453C237.345 53.3106 243.154 65.7202 245.005 68.4543C245.514 69.2067 246.348 70.5275 246.875 71.3165L247.873 72.7845L244.792 70.8855C241.146 68.5815 235.891 66.1596 233.352 65.5435C227.269 64.1234 224.843 70.2926 229.888 74.4142ZM229 69.1977C229.397 66.4931 233.035 66.8404 239.931 70.2762C243.488 72.0312 248.246 75.1089 247.769 75.3443C247.439 75.5072 242.109 73.5788 239.828 72.4702C238.789 71.9347 238.112 71.8582 237.781 72.204C237.524 72.5136 237.394 72.897 237.484 73.0803C237.684 73.4837 241.788 75.5157 244.654 76.6089L246.68 77.3871L244.797 77.268C239.66 76.9316 233.872 75.0923 231.011 72.9019C229.262 71.5765 228.773 70.6779 229 69.1977ZM211.194 31.1987C211.936 29.0079 213.4 28.7408 217.033 30.0939C220.72 31.4655 224.658 33.9905 227.988 37.2257C231.392 40.4247 231.571 41.2485 228.58 39.6243C224.86 37.5393 220.789 36.0378 220.457 36.5665C219.96 37.3138 220.686 38.3232 221.91 38.6768C223.553 39.1421 230.814 42.6712 230.74 42.9817C230.591 43.4199 223.887 41.9418 220.236 40.6435C213.81 38.3439 210.08 34.485 211.194 31.1987ZM244.25 47.5294C245.222 43.2183 246.443 40.4263 247.653 39.8288C248.68 39.3219 250.924 40.2657 251.522 41.4757C252.282 43.0156 252.116 47.0198 251.247 49.0454C250.396 50.9249 246.806 55.7533 245.963 56.1697C245.669 56.3145 245.745 55.8212 246.133 55.0367C246.502 54.307 247.353 52.3362 247.965 50.7116C248.929 48.1378 248.986 47.6078 248.348 47.1474C247.71 46.687 247.545 46.9057 246.249 50.0081C244.843 53.3478 243.513 56.0112 243.109 56.2104C242.706 56.4095 243.333 51.7676 244.25 47.5294ZM224.056 11.6215C223.297 6.11314 224.413 2.27826 226.828 1.99765C230.762 1.56001 234.079 7.53831 234.206 15.2747C234.265 18.073 233.083 24.0838 232.535 23.8982C232.426 23.8611 231.98 21.4815 231.556 18.5899C231.094 15.7164 230.613 13.2634 230.412 13.1344C229.282 12.4156 229.129 13.8596 229.835 18.9837C230.277 22.0033 230.502 24.583 230.355 24.6554C229.805 24.927 227.736 21.8444 226.126 18.3069C224.95 15.6493 224.32 13.7259 224.056 11.6215ZM258.503 75.5622C258.556 72.3438 259.869 69.3694 261.592 68.5185C264.379 67.1424 266.453 69.3107 266.468 73.6816C266.476 75.7298 263.315 86.2296 262.73 86.0621C262.164 85.8398 262.097 80.9018 262.657 78.8015C263.383 76.2082 263.132 75.0549 262.032 75.598C261.592 75.8153 261.111 77.0565 260.791 78.9019C260.508 80.5464 260.19 81.9347 260.08 81.9891C259.64 82.2978 258.511 77.6105 258.503 75.5622Z" fill="white" fill-opacity="0.5"/>
<path opacity="0.5" d="M271.753 65.9664C273.276 67.2216 278.325 68.9772 281.449 69.3416C282.91 69.5232 285.083 69.5877 286.278 69.4997C288.304 69.3354 288.492 69.3766 289.105 70.2113C290.757 72.4062 296.085 77.4365 299.706 80.2314C303.796 83.364 310.055 87.2318 310.914 87.1422C311.652 87.0788 311.616 86.1932 310.84 85.7735C306.465 83.4846 299.031 78.4572 297.296 76.6376C296.909 76.193 297.047 75.5229 298.312 72.0547C299.876 67.7697 300.224 65.0884 299.551 62.8447C299.076 61.3399 297.861 60.0997 296.628 59.8386C295.476 59.6049 293.553 60.4539 292.729 61.5632C291.433 63.341 291.079 67.0284 291.908 70.1984C292.408 72.1595 292.301 72.0785 289.048 68.0646C286.528 64.9264 283.332 60.2153 282.19 57.9022L281.446 56.396L283.359 54.7152C287.348 51.2069 289.418 47.5415 289.341 44.2007C289.254 40.1624 286.221 37.746 283.662 39.6785C282.127 40.838 280.326 46.8792 280.115 51.6002L280.012 53.4913L279.321 52.0927C277.541 48.4886 275.379 40.9252 274.574 35.4344C274.107 32.3198 274.135 32.1724 275.183 29.0787C276.898 24.0164 276.732 19.7495 274.633 15.5C273.69 13.5903 273.264 12.998 272.288 12.3089C271.045 11.4174 269.235 11.1401 268.133 11.6846C266.035 12.7206 265.426 16.5006 266.553 21.832C267.116 24.5982 269.575 29.1045 271.485 30.8714C272.807 32.0585 272.86 32.166 272.974 33.4813C273.065 34.2061 273.377 36.1931 273.677 37.8849C274.16 40.5569 274.145 40.8654 273.638 40.2458C270.025 35.7069 263.165 31.2995 259.838 31.3367C256.954 31.3894 255.719 34.1736 257.246 37.3337C258.348 39.6332 260.675 41.2277 265.148 42.7658C267.156 43.4466 270.01 44.1449 271.539 44.3269C273.027 44.4953 274.475 44.6501 274.77 44.7052C275.239 44.7746 275.425 45.1511 276.258 47.6505C277.223 50.4858 281.484 59.589 282.842 61.5946C283.215 62.1465 283.827 63.1154 284.214 63.6941L284.946 64.771L282.686 63.378C280.011 61.6878 276.157 59.9113 274.294 59.4594C269.832 58.4176 268.052 62.9431 271.753 65.9664ZM271.101 62.1399C271.393 60.1559 274.061 60.4107 279.12 62.931C281.729 64.2184 285.219 66.4761 284.87 66.6487C284.628 66.7683 280.717 65.3537 279.045 64.5404C278.282 64.1476 277.786 64.0915 277.543 64.3452C277.354 64.5723 277.259 64.8535 277.325 64.988C277.471 65.2839 280.482 66.7745 282.585 67.5764L284.071 68.1472L282.689 68.0599C278.921 67.8131 274.675 66.4639 272.577 64.8571C271.294 63.8848 270.935 63.2257 271.101 62.1399ZM258.04 34.2656C258.584 32.6585 259.658 32.4626 262.323 33.4552C265.028 34.4613 267.916 36.3136 270.359 38.6867C272.856 41.0334 272.988 41.6377 270.793 40.4463C268.064 38.9168 265.078 37.8154 264.835 38.2032C264.47 38.7514 265.003 39.4919 265.9 39.7512C267.106 40.0926 272.432 42.6813 272.378 42.9091C272.269 43.2305 267.351 42.1463 264.672 41.1939C259.959 39.507 257.223 36.6763 258.04 34.2656ZM282.288 46.245C283.001 43.0826 283.897 41.0346 284.785 40.5963C285.538 40.2244 287.184 40.9168 287.623 41.8043C288.18 42.934 288.058 45.8712 287.421 47.3571C286.797 48.7358 284.163 52.2777 283.544 52.5832C283.329 52.6894 283.385 52.3275 283.669 51.7521C283.94 51.2168 284.565 49.7711 285.013 48.5794C285.72 46.6914 285.762 46.3025 285.294 45.9648C284.827 45.6271 284.705 45.7875 283.755 48.0633C282.723 50.5132 281.747 52.4669 281.452 52.613C281.156 52.7591 281.615 49.354 282.288 46.245ZM267.475 19.9048C266.918 15.8641 267.737 13.051 269.509 12.8451C272.394 12.5241 274.828 16.9095 274.92 22.5845C274.964 24.6372 274.096 29.0465 273.695 28.9103C273.614 28.8831 273.288 27.1375 272.976 25.0164C272.638 22.9086 272.285 21.1092 272.138 21.0146C271.308 20.4872 271.196 21.5465 271.714 25.3053C272.038 27.5204 272.203 29.4127 272.096 29.4658C271.692 29.665 270.174 27.4038 268.993 24.8088C268.131 22.8593 267.668 21.4485 267.475 19.9048ZM292.744 66.8086C292.782 64.4477 293.745 62.2659 295.01 61.6416C297.054 60.6323 298.575 62.2228 298.586 65.429C298.592 66.9315 296.273 74.6337 295.844 74.5108C295.429 74.3478 295.38 70.7255 295.79 69.1848C296.323 67.2825 296.139 66.4364 295.333 66.8349C295.01 66.9942 294.656 67.9047 294.422 69.2585C294.214 70.4648 293.981 71.4832 293.901 71.523C293.578 71.7495 292.749 68.3111 292.744 66.8086Z" fill="white" fill-opacity="0.5"/>
<path opacity="0.5" d="M20.6661 73.4419C22.329 75.557 28.5416 79.3652 32.5958 80.7601C34.489 81.4275 37.3641 82.1461 38.9803 82.3767C41.727 82.748 41.9648 82.8575 42.538 84.1477C44.0997 87.5519 49.7301 95.8025 53.7393 100.579C58.2733 105.942 65.4826 112.916 66.6527 113.046C67.6542 113.177 67.8643 111.987 66.9531 111.202C61.7927 106.88 53.3565 98.0198 51.5759 95.0913C51.1902 94.3865 51.5684 93.5342 54.2628 89.2836C57.5935 84.0324 58.8387 80.5631 58.5957 77.3791C58.4007 75.2365 57.1443 73.2312 55.5783 72.5245C54.1115 71.8776 51.3039 72.4484 49.8837 73.6859C47.6391 75.6759 46.0944 80.4836 46.2758 84.947C46.3707 87.7043 46.2519 87.5652 43.088 81.2724C40.646 76.3592 37.7613 69.1544 36.9137 65.7413L36.3618 63.5188L39.3992 61.8376C45.7323 58.3266 49.5574 54.0481 50.4272 49.5765C51.487 44.173 48.1511 40.0717 44.1811 41.9003C41.7991 42.9974 37.6417 50.5186 35.9856 56.7444L35.2973 59.2327L34.7848 57.169C33.4642 51.8509 32.7867 41.1485 33.3142 33.6019C33.5986 29.3178 33.6782 29.1295 35.9752 25.3147C39.7339 19.0724 40.7545 13.3415 39.1973 7.07098C38.4975 4.25323 38.1023 3.34017 37.0033 2.13839C35.6073 0.589024 33.278 -0.307226 31.6508 0.0968596C28.5553 0.865608 26.6434 5.72236 26.5921 13.1507C26.5365 16.9988 28.4997 23.7162 30.5283 26.6253C31.9435 28.5912 31.9829 28.75 31.752 30.5348C31.6612 31.5265 31.4982 34.2636 31.4053 36.604C31.2706 40.3032 31.1608 40.7096 30.6665 39.7369C27.1766 32.6402 19.324 24.773 14.8823 23.8536C11.0254 23.0839 8.5705 26.4323 9.68394 31.0855C10.482 34.4687 13.1158 37.2696 18.6248 40.6206C21.102 42.1121 24.6994 43.8732 26.6819 44.5606C28.6148 45.2182 30.4982 45.846 30.8748 46.0053C31.4795 46.2343 31.6175 46.79 31.9987 50.361C32.4585 54.4181 35.4823 67.7821 36.7073 70.8487C37.0432 71.6922 37.5765 73.1609 37.9222 74.0441L38.5841 75.6915L35.9797 73.1782C32.9099 70.1485 28.2936 66.6601 25.9449 65.5159C20.3059 62.8292 16.6177 68.3378 20.6661 73.4419ZM20.9124 68.1561C21.8785 65.5988 25.3579 66.715 31.3605 71.5445C34.4609 74.0189 38.4515 78.0418 37.9356 78.1699C37.5784 78.2586 32.7829 75.2361 30.7919 73.666C29.8905 72.9207 29.2462 72.7015 28.8491 72.9687C28.5313 73.2161 28.3225 73.5629 28.3718 73.7614C28.4802 74.1979 32.0561 77.0599 34.6222 78.74L36.4353 79.933L34.6211 79.4144C29.6743 77.9884 24.4127 74.9552 22.0863 72.2044C20.6608 70.5359 20.3747 69.5536 20.9124 68.1561ZM11.6339 27.2305C12.8271 25.2488 14.3147 25.3007 17.5744 27.3985C20.8836 29.5261 24.191 32.8339 26.7537 36.7058C29.3957 40.5581 29.3944 41.4011 26.8192 39.1755C23.6301 36.3439 19.9741 34.0075 19.537 34.4531C18.8914 35.0769 19.3855 36.2182 20.5052 36.825C22.0115 37.6307 28.3511 42.6293 28.2118 42.9167C27.9731 43.313 21.7393 40.437 18.4498 38.3888C12.6634 34.7696 9.844 30.203 11.6339 27.2305ZM40.4389 50.2452C42.3097 46.2414 44.0988 43.7746 45.4085 43.4494C46.5197 43.1734 48.511 44.575 48.8362 45.8846C49.2502 47.5515 48.2325 51.4277 46.9503 53.2209C45.7179 54.8752 41.1792 58.8253 40.2665 59.052C39.949 59.1309 40.1282 58.665 40.6748 57.9815C41.1915 57.3476 42.4439 55.604 43.3883 54.1476C44.8796 51.839 45.049 51.3335 44.5243 50.7475C43.9995 50.1615 43.791 50.3397 41.8626 53.0939C39.7752 56.0561 37.9071 58.3739 37.4705 58.4823C37.034 58.5907 38.6376 54.1897 40.4389 50.2452ZM28.381 10.8526C28.8161 5.3092 30.7258 1.80128 33.1454 2.04309C37.0821 2.45589 39.0455 9.00472 37.5162 16.5895C36.9764 19.3359 34.5377 24.9555 34.0423 24.6571C33.9432 24.5975 34.0164 22.1777 34.2193 19.2621C34.3825 16.3565 34.436 13.8573 34.2677 13.6884C33.3171 12.7447 32.8587 14.1226 32.4539 19.2792C32.2409 22.3236 31.9096 24.8918 31.7508 24.9313C31.1555 25.0791 29.7923 21.6256 28.975 17.8258C28.3943 14.9784 28.1892 12.9648 28.381 10.8526ZM48.3752 80.6756C49.114 77.5428 51.0322 74.9175 52.8975 74.4543C55.9137 73.7053 57.4767 76.2665 56.5576 80.5397C56.128 82.5424 50.797 92.1246 50.2619 91.8362C49.7566 91.4982 50.7461 86.6598 51.7409 84.7274C53.0042 82.3491 53.006 81.1689 51.8154 81.4645C51.3392 81.5828 50.6035 82.6925 49.8966 84.427C49.2694 85.9732 48.6624 87.2615 48.5433 87.2911C48.0471 87.4986 47.9456 82.6784 48.3752 80.6756Z" fill="white" fill-opacity="0.5"/>
<path opacity="0.5" d="M63.3687 74.1309C64.5885 75.6824 69.1457 78.476 72.1197 79.4991C73.5085 79.9888 75.6175 80.5159 76.8031 80.6851C78.8179 80.9574 78.9924 81.0377 79.4129 81.9841C80.5585 84.4813 84.6886 90.5335 87.6296 94.0375C90.9555 97.9714 96.2439 103.087 97.1022 103.183C97.8369 103.279 97.991 102.406 97.3226 101.83C93.5372 98.6593 87.3488 92.1601 86.0426 90.0118C85.7597 89.4948 86.0371 88.8696 88.0136 85.7516C90.4568 81.8996 91.3702 79.3547 91.192 77.019C91.049 75.4473 90.1273 73.9763 88.9786 73.458C87.9026 72.9834 85.8431 73.4021 84.8013 74.3099C83.1548 75.7697 82.0216 79.2964 82.1547 82.5704C82.2243 84.5931 82.1372 84.4911 79.8163 79.8749C78.025 76.2709 75.9089 70.9858 75.2871 68.4821L74.8823 66.8518L77.1104 65.6185C81.7561 63.0431 84.5619 59.9045 85.2 56.6244C85.9774 52.6606 83.5303 49.6521 80.6181 50.9935C78.8708 51.7983 75.8211 57.3154 74.6063 61.8824L74.1014 63.7077L73.7255 62.1938C72.7567 58.2928 72.2597 50.442 72.6467 44.9062C72.8553 41.7636 72.9138 41.6255 74.5987 38.8271C77.3559 34.248 78.1046 30.0441 76.9623 25.4444C76.449 23.3774 76.159 22.7076 75.3528 21.826C74.3288 20.6895 72.6201 20.0321 71.4265 20.3285C69.1558 20.8924 67.7534 24.4551 67.7157 29.9042C67.6749 32.7269 69.115 37.6545 70.6031 39.7885C71.6412 41.2306 71.6701 41.347 71.5007 42.6563C71.4341 43.3837 71.3146 45.3915 71.2464 47.1084C71.1476 49.8219 71.0671 50.1201 70.7045 49.4065C68.1444 44.2007 62.3842 38.4297 59.1259 37.7553C56.2968 37.1907 54.4959 39.6469 55.3127 43.0602C55.8981 45.542 57.8301 47.5967 61.8713 50.0547C63.6884 51.1489 66.3273 52.4407 67.7815 52.945C69.1995 53.4274 70.581 53.8879 70.8573 54.0047C71.3008 54.1727 71.4021 54.5803 71.6817 57.1998C72.019 60.1759 74.2371 69.9792 75.1358 72.2286C75.3821 72.8474 75.7733 73.9247 76.0269 74.5726L76.5125 75.7811L74.602 73.9375C72.3501 71.715 68.9639 69.1561 67.241 68.3167C63.1044 66.3459 60.399 70.3867 63.3687 74.1309ZM63.5494 70.2534C64.258 68.3775 66.8103 69.1964 71.2136 72.739C73.4879 74.5541 76.4152 77.5052 76.0368 77.5992C75.7747 77.6642 72.257 75.447 70.7965 74.2953C70.1353 73.7486 69.6626 73.5878 69.3713 73.7838C69.1382 73.9653 68.9851 74.2197 69.0212 74.3652C69.1007 74.6855 71.7238 76.7849 73.6062 78.0173L74.9362 78.8924L73.6054 78.512C69.9767 77.466 66.117 75.241 64.4105 73.2231C63.3648 71.9992 63.1549 71.2786 63.5494 70.2534ZM56.7431 40.2324C57.6184 38.7787 58.7096 38.8168 61.1007 40.3556C63.5282 41.9163 65.9544 44.3428 67.8342 47.1831C69.7723 50.0089 69.7713 50.6273 67.8823 48.9947C65.5429 46.9176 62.861 45.2037 62.5404 45.5306C62.0668 45.9882 62.4293 46.8254 63.2507 47.2705C64.3556 47.8615 69.006 51.5282 68.9038 51.739C68.7288 52.0298 64.1559 49.9201 61.7429 48.4176C57.4983 45.7628 55.4301 42.4129 56.7431 40.2324ZM77.8731 57.1149C79.2454 54.1779 80.5578 52.3684 81.5185 52.1298C82.3336 51.9274 83.7944 52.9555 84.0329 53.9162C84.3366 55.1389 83.5901 57.9824 82.6495 59.2977C81.7455 60.5113 78.4161 63.4089 77.7466 63.5752C77.5137 63.633 77.6451 63.2913 78.0461 62.7899C78.4251 62.3249 79.3438 61.0459 80.0366 59.9775C81.1305 58.2841 81.2548 57.9132 80.8699 57.4834C80.485 57.0535 80.332 57.1843 78.9174 59.2046C77.3862 61.3775 76.0158 63.0777 75.6956 63.1573C75.3754 63.2368 76.5517 60.0084 77.8731 57.1149ZM69.0279 28.2184C69.3471 24.152 70.748 21.5788 72.5229 21.7561C75.4107 22.0589 76.8509 26.8629 75.7291 32.4267C75.3331 34.4413 73.5442 38.5636 73.1808 38.3447C73.1081 38.301 73.1618 36.5259 73.3107 34.3872C73.4304 32.2557 73.4696 30.4224 73.3462 30.2986C72.6488 29.6063 72.3126 30.6171 72.0157 34.3997C71.8594 36.633 71.6163 38.5169 71.4999 38.5458C71.0632 38.6543 70.0632 36.1209 69.4637 33.3336C69.0377 31.2449 68.8873 29.7678 69.0279 28.2184ZM83.6947 79.4372C84.2367 77.1391 85.6438 75.2134 87.0121 74.8736C89.2246 74.3241 90.3712 76.2029 89.697 79.3375C89.3818 80.8066 85.4713 87.8356 85.0788 87.624C84.7081 87.3761 85.4339 83.8269 86.1637 82.4094C87.0903 80.6648 87.0917 79.799 86.2183 80.0159C85.869 80.1027 85.3293 80.9167 84.8108 82.189C84.3507 83.3232 83.9054 84.2683 83.8181 84.29C83.4541 84.4422 83.3796 80.9063 83.6947 79.4372Z" fill="white" fill-opacity="0.5"/>
<path opacity="0.5" d="M544.253 74.413C546.329 76.124 553.212 78.5174 557.47 79.014C559.462 79.2616 562.424 79.3495 564.053 79.2296C566.815 79.0056 567.071 79.0617 567.907 80.1997C570.159 83.1918 577.422 90.0492 582.359 93.8594C587.934 98.1298 596.466 103.403 597.638 103.28C598.644 103.194 598.595 101.987 597.537 101.414C591.572 98.2942 581.439 91.4408 579.073 88.9602C578.546 88.3541 578.734 87.4406 580.458 82.7126C582.59 76.8711 583.065 73.216 582.148 70.1573C581.5 68.1059 579.844 66.4152 578.163 66.0594C576.592 65.7407 573.971 66.8981 572.848 68.4104C571.08 70.8338 570.598 75.8606 571.729 80.1821C572.41 82.8555 572.265 82.7451 567.83 77.2733C564.395 72.9952 560.037 66.5728 558.48 63.4196L557.466 61.3663L560.075 59.075C565.512 54.2923 568.334 49.2955 568.229 44.7413C568.11 39.2361 563.975 35.942 560.487 38.5764C558.395 40.1571 555.94 48.3927 555.652 54.8285L555.511 57.4064L554.569 55.4998C552.143 50.5866 549.195 40.276 548.099 32.7908C547.461 28.5449 547.499 28.3439 548.928 24.1265C551.267 17.2254 551.04 11.4087 548.179 5.61555C546.893 3.01231 546.312 2.20475 544.982 1.26546C543.287 0.0500507 540.82 -0.327965 539.317 0.414364C536.457 1.8266 535.627 6.97963 537.163 14.2475C537.931 18.0186 541.284 24.1617 543.887 26.5703C545.689 28.1886 545.762 28.3353 545.917 30.1282C546.041 31.1164 546.466 33.8251 546.875 36.1314C547.534 39.7739 547.513 40.1944 546.823 39.3498C541.897 33.1623 532.546 27.154 528.01 27.2046C524.078 27.2765 522.395 31.072 524.476 35.38C525.979 38.5147 529.15 40.6884 535.248 42.7852C537.986 43.7132 541.877 44.6652 543.96 44.9133C545.989 45.1429 547.963 45.3538 548.365 45.429C549.005 45.5236 549.258 46.0369 550.393 49.4441C551.709 53.3093 557.518 65.719 559.37 68.4531C559.878 69.2054 560.713 70.5263 561.239 71.3153L562.238 72.7833L559.156 70.8843C555.51 68.5802 550.255 66.1584 547.717 65.5423C541.634 64.1222 539.207 70.2914 544.253 74.413ZM543.364 69.1965C543.762 66.4919 547.399 66.8392 554.295 70.275C557.852 72.03 562.61 75.1077 562.133 75.3431C561.803 75.506 556.473 73.5776 554.193 72.469C553.153 71.9335 552.477 71.857 552.146 72.2028C551.888 72.5124 551.758 72.8958 551.849 73.0791C552.048 73.4824 556.153 75.5145 559.018 76.6077L561.044 77.3859L559.161 77.2668C554.024 76.9304 548.236 75.0911 545.376 72.9007C543.627 71.5752 543.137 70.6767 543.364 69.1965ZM525.558 31.1975C526.3 29.0066 527.765 28.7396 531.397 30.0927C535.084 31.4643 539.022 33.9893 542.353 37.2245C545.757 40.4235 545.935 41.2473 542.944 39.6231C539.224 37.5381 535.153 36.0366 534.821 36.5653C534.324 37.3126 535.05 38.322 536.274 38.6756C537.917 39.1409 545.178 42.67 545.104 42.9805C544.955 43.4187 538.251 41.9406 534.6 40.6423C528.174 38.3427 524.444 34.4837 525.558 31.1975ZM558.614 47.5281C559.587 43.2171 560.807 40.4251 562.017 39.8276C563.044 39.3206 565.289 40.2645 565.886 41.4744C566.647 43.0144 566.48 47.0186 565.611 49.0442C564.76 50.9236 561.17 55.752 560.327 56.1685C560.033 56.3133 560.109 55.8199 560.497 55.0355C560.866 54.3058 561.717 52.335 562.329 50.7104C563.293 48.1366 563.35 47.6065 562.712 47.1462C562.075 46.6858 561.909 46.9044 560.613 50.0069C559.207 53.3466 557.877 56.01 557.474 56.2092C557.07 56.4083 557.697 51.7663 558.614 47.5281ZM538.42 11.6203C537.661 6.11192 538.777 2.27704 541.193 1.99643C545.127 1.55879 548.444 7.53709 548.57 15.2734C548.629 18.0718 547.447 24.0826 546.899 23.897C546.79 23.8599 546.344 21.4802 545.92 18.5886C545.459 15.7152 544.977 13.2622 544.777 13.1332C543.646 12.4144 543.493 13.8583 544.199 18.9824C544.641 22.0021 544.866 24.5818 544.719 24.6542C544.169 24.9258 542.1 21.8432 540.49 18.3056C539.314 15.6481 538.684 13.7247 538.42 11.6203ZM572.867 75.561C572.92 72.3426 574.233 69.3682 575.956 68.5172C578.743 67.1412 580.817 69.3095 580.832 73.6803C580.84 75.7286 577.679 86.2284 577.094 86.0609C576.529 85.8386 576.462 80.9006 577.021 78.8003C577.747 76.207 577.497 75.0536 576.397 75.5968C575.957 75.8141 575.475 77.0552 575.155 78.9007C574.872 80.5452 574.555 81.9335 574.445 81.9878C574.004 82.2965 572.875 77.6093 572.867 75.561Z" fill="white" fill-opacity="0.5"/>
<path opacity="0.5" d="M586.117 65.9657C587.641 67.2209 592.689 68.9765 595.813 69.3408C597.274 69.5225 599.447 69.5869 600.642 69.499C602.668 69.3346 602.856 69.3758 603.469 70.2106C605.121 72.4055 610.449 77.4357 614.071 80.2307C618.16 83.3633 624.419 87.2311 625.278 87.1414C626.016 87.078 625.98 86.1925 625.204 85.7727C620.829 83.4839 613.395 78.4565 611.66 76.6369C611.273 76.1922 611.411 75.5222 612.676 72.054C614.24 67.7689 614.589 65.0877 613.916 62.844C613.44 61.3391 612.225 60.0989 610.993 59.8379C609.84 59.6041 607.917 60.4531 607.094 61.5625C605.797 63.3403 605.443 67.0276 606.273 70.1977C606.773 72.1588 606.666 72.0778 603.412 68.0639C600.893 64.9257 597.696 60.2145 596.554 57.9015L595.81 56.3953L597.724 54.7145C601.712 51.2062 603.783 47.5407 603.705 44.2C603.618 40.1616 600.585 37.7453 598.026 39.6778C596.491 40.8372 594.691 46.8785 594.479 51.5995L594.376 53.4905L593.685 52.0919C591.906 48.4878 589.743 40.9244 588.939 35.4337C588.471 32.3191 588.499 32.1716 589.547 29.078C591.263 24.0156 591.096 19.7488 588.998 15.4992C588.055 13.5896 587.628 12.9972 586.652 12.3082C585.409 11.4166 583.6 11.1393 582.497 11.6839C580.399 12.7198 579.79 16.4998 580.917 21.8312C581.48 24.5975 583.94 29.1038 585.849 30.8706C587.171 32.0577 587.224 32.1653 587.339 33.4806C587.429 34.2054 587.741 36.1924 588.041 37.8842C588.524 40.5562 588.509 40.8646 588.003 40.245C584.39 35.7062 577.53 31.2988 574.203 31.3359C571.318 31.3887 570.083 34.1729 571.611 37.333C572.713 39.6325 575.039 41.227 579.512 42.7651C581.521 43.4458 584.375 44.1442 585.903 44.3262C587.391 44.4946 588.839 44.6493 589.134 44.7044C589.603 44.7739 589.789 45.1504 590.622 47.6497C591.587 50.4851 595.848 59.5883 597.207 61.5939C597.579 62.1457 598.192 63.1146 598.578 63.6934L599.31 64.7703L597.05 63.3773C594.376 61.6871 590.521 59.9106 588.658 59.4586C584.196 58.4169 582.416 62.9424 586.117 65.9657ZM585.466 62.1392C585.757 60.1552 588.426 60.4099 593.484 62.9303C596.094 64.2177 599.584 66.4753 599.234 66.648C598.992 66.7675 595.082 65.3529 593.409 64.5397C592.646 64.1469 592.15 64.0908 591.907 64.3444C591.718 64.5716 591.623 64.8528 591.69 64.9873C591.836 65.2831 594.847 66.7737 596.949 67.5757L598.435 68.1465L597.054 68.0591C593.285 67.8124 589.039 66.4632 586.941 64.8564C585.658 63.8841 585.299 63.225 585.466 62.1392ZM572.404 34.2649C572.948 32.6578 574.023 32.4619 576.687 33.4544C579.392 34.4606 582.281 36.3128 584.724 38.686C587.221 41.0326 587.352 41.637 585.158 40.4455C582.429 38.9161 579.442 37.8146 579.199 38.2024C578.834 38.7507 579.367 39.4911 580.265 39.7505C581.47 40.0918 586.797 42.6806 586.742 42.9084C586.633 43.2298 581.715 42.1456 579.037 41.1932C574.323 39.5063 571.587 36.6755 572.404 34.2649ZM596.652 46.2443C597.366 43.0819 598.261 41.0338 599.149 40.5956C599.902 40.2237 601.548 40.916 601.987 41.8036C602.545 42.9332 602.423 45.8705 601.785 47.3564C601.161 48.7351 598.527 52.277 597.909 52.5824C597.694 52.6887 597.749 52.3268 598.034 51.7513C598.305 51.2161 598.929 49.7703 599.377 48.5786C600.084 46.6906 600.127 46.3018 599.659 45.9641C599.191 45.6264 599.069 45.7868 598.119 48.0626C597.087 50.5124 596.112 52.4662 595.816 52.6123C595.52 52.7584 595.98 49.3532 596.652 46.2443ZM581.839 19.904C581.282 15.8633 582.101 13.0503 583.873 12.8444C586.759 12.5234 589.192 16.9088 589.284 22.5838C589.328 24.6365 588.461 29.0457 588.059 28.9096C587.979 28.8824 587.652 27.1368 587.34 25.0157C587.002 22.9078 586.649 21.1085 586.502 21.0138C585.673 20.4865 585.56 21.5457 586.078 25.3045C586.402 27.5196 586.567 29.412 586.46 29.4651C586.056 29.6643 584.538 27.403 583.357 24.8081C582.495 22.8586 582.032 21.4477 581.839 19.904ZM607.108 66.8078C607.146 64.447 608.11 62.2651 609.374 61.6409C611.418 60.6315 612.939 62.2221 612.95 65.4283C612.956 66.9308 610.637 74.6329 610.209 74.5101C609.794 74.347 609.745 70.7247 610.155 69.184C610.687 67.2817 610.504 66.4357 609.697 66.8341C609.374 66.9935 609.021 67.904 608.786 69.2577C608.579 70.464 608.346 71.4824 608.265 71.5223C607.942 71.7487 607.114 68.3104 607.108 66.8078Z" fill="white" fill-opacity="0.5"/>
<path opacity="0.5" d="M335.03 73.4419C336.693 75.557 342.906 79.3652 346.96 80.7601C348.853 81.4275 351.728 82.1461 353.345 82.3767C356.091 82.748 356.329 82.8575 356.902 84.1477C358.464 87.5519 364.094 95.8025 368.104 100.579C372.638 105.942 379.847 112.916 381.017 113.046C382.018 113.177 382.229 111.987 381.317 111.202C376.157 106.88 367.721 98.0198 365.94 95.0913C365.554 94.3865 365.933 93.5342 368.627 89.2836C371.958 84.0324 373.203 80.5631 372.96 77.3791C372.765 75.2365 371.509 73.2312 369.943 72.5245C368.476 71.8776 365.668 72.4484 364.248 73.6859C362.003 75.6759 360.459 80.4836 360.64 84.947C360.735 87.7043 360.616 87.5652 357.452 81.2724C355.01 76.3592 352.126 69.1544 351.278 65.7413L350.726 63.5188L353.764 61.8376C360.097 58.3266 363.922 54.0481 364.791 49.5765C365.851 44.173 362.515 40.0717 358.545 41.9003C356.163 42.9974 352.006 50.5186 350.35 56.7444L349.662 59.2327L349.149 57.169C347.828 51.8509 347.151 41.1485 347.678 33.6019C347.963 29.3178 348.042 29.1295 350.339 25.3147C354.098 19.0724 355.119 13.3415 353.562 7.07098C352.862 4.25323 352.467 3.34017 351.368 2.13839C349.972 0.589024 347.642 -0.307226 346.015 0.0968596C342.92 0.865608 341.008 5.72236 340.956 13.1507C340.901 16.9988 342.864 23.7162 344.893 26.6253C346.308 28.5912 346.347 28.75 346.116 30.5348C346.025 31.5265 345.862 34.2636 345.77 36.604C345.635 40.3032 345.525 40.7096 345.031 39.7369C341.541 32.6402 333.688 24.773 329.247 23.8536C325.39 23.0839 322.935 26.4323 324.048 31.0855C324.846 34.4687 327.48 37.2696 332.989 40.6206C335.466 42.1121 339.064 43.8732 341.046 44.5606C342.979 45.2182 344.862 45.846 345.239 46.0053C345.844 46.2343 345.982 46.79 346.363 50.361C346.823 54.4181 349.847 67.7821 351.072 70.8487C351.407 71.6922 351.941 73.1609 352.286 74.0441L352.948 75.6915L350.344 73.1782C347.274 70.1485 342.658 66.6601 340.309 65.5159C334.67 62.8292 330.982 68.3378 335.03 73.4419ZM335.277 68.1561C336.243 65.5988 339.722 66.715 345.725 71.5445C348.825 74.0189 352.816 78.0418 352.3 78.1699C351.943 78.2586 347.147 75.2361 345.156 73.666C344.255 72.9207 343.61 72.7015 343.213 72.9687C342.896 73.2161 342.687 73.5629 342.736 73.7614C342.844 74.1979 346.42 77.0599 348.986 78.74L350.8 79.933L348.985 79.4144C344.039 77.9884 338.777 74.9552 336.451 72.2044C335.025 70.5359 334.739 69.5536 335.277 68.1561ZM325.998 27.2305C327.191 25.2488 328.679 25.3007 331.939 27.3985C335.248 29.5261 338.555 32.8339 341.118 36.7058C343.76 40.5581 343.759 41.4011 341.183 39.1755C337.994 36.3439 334.338 34.0075 333.901 34.4531C333.256 35.0769 333.75 36.2182 334.869 36.825C336.376 37.6307 342.715 42.6293 342.576 42.9167C342.337 43.313 336.104 40.437 332.814 38.3888C327.028 34.7696 324.208 30.203 325.998 27.2305ZM354.803 50.2452C356.674 46.2414 358.463 43.7746 359.773 43.4494C360.884 43.1734 362.875 44.575 363.2 45.8846C363.614 47.5515 362.597 51.4277 361.315 53.2209C360.082 54.8752 355.544 58.8253 354.631 59.052C354.313 59.1309 354.492 58.665 355.039 57.9815C355.556 57.3476 356.808 55.604 357.753 54.1476C359.244 51.839 359.413 51.3335 358.889 50.7475C358.364 50.1615 358.155 50.3397 356.227 53.0939C354.14 56.0561 352.271 58.3739 351.835 58.4823C351.398 58.5907 353.002 54.1897 354.803 50.2452ZM342.745 10.8526C343.18 5.3092 345.09 1.80128 347.51 2.04309C351.446 2.45589 353.41 9.00472 351.88 16.5895C351.341 19.3359 348.902 24.9555 348.407 24.6571C348.307 24.5975 348.381 22.1777 348.584 19.2621C348.747 16.3565 348.8 13.8573 348.632 13.6884C347.681 12.7447 347.223 14.1226 346.818 19.2792C346.605 22.3236 346.274 24.8918 346.115 24.9313C345.52 25.0791 344.157 21.6256 343.339 17.8258C342.759 14.9784 342.553 12.9648 342.745 10.8526ZM362.739 80.6756C363.478 77.5428 365.396 74.9175 367.262 74.4543C370.278 73.7053 371.841 76.2665 370.922 80.5397C370.492 82.5424 365.161 92.1246 364.626 91.8362C364.121 91.4982 365.11 86.6598 366.105 84.7274C367.368 82.3491 367.37 81.1689 366.18 81.4645C365.703 81.5828 364.968 82.6925 364.261 84.427C363.634 85.9732 363.027 87.2615 362.908 87.2911C362.411 87.4986 362.31 82.6784 362.739 80.6756Z" fill="white" fill-opacity="0.5"/>
<path opacity="0.5" d="M377.733 74.1316C378.953 75.6831 383.51 78.4767 386.484 79.4999C387.873 79.9895 389.982 80.5166 391.167 80.6858C393.182 80.9581 393.357 81.0384 393.777 81.9849C394.923 84.4821 399.053 90.5343 401.994 94.0383C405.32 97.9721 410.608 103.088 411.466 103.184C412.201 103.279 412.355 102.406 411.687 101.831C407.901 98.66 401.713 92.1608 400.407 90.0126C400.124 89.4956 400.401 88.8703 402.378 85.7524C404.821 81.9003 405.734 79.3554 405.556 77.0198C405.413 75.4481 404.492 73.977 403.343 73.4587C402.267 72.9841 400.207 73.4029 399.166 74.3106C397.519 75.7704 396.386 79.2971 396.519 82.5712C396.589 84.5938 396.501 84.4918 394.181 79.8757C392.389 76.2716 390.273 70.9865 389.651 68.4828L389.247 66.8525L391.475 65.6192C396.12 63.0438 398.926 59.9053 399.564 56.6251C400.342 52.6613 397.895 49.6528 394.982 50.9942C393.235 51.799 390.185 57.3162 388.971 61.8831L388.466 63.7084L388.09 62.1946C387.121 58.2935 386.624 50.4428 387.011 44.9069C387.22 41.7643 387.278 41.6262 388.963 38.8278C391.72 34.2488 392.469 30.0448 391.327 25.4451C390.813 23.3781 390.523 22.7083 389.717 21.8268C388.693 20.6902 386.984 20.0328 385.791 20.3292C383.52 20.8931 382.118 24.4558 382.08 29.9049C382.039 32.7276 383.479 37.6552 384.967 39.7892C386.005 41.2313 386.034 41.3478 385.865 42.6571C385.798 43.3845 385.679 45.3923 385.611 47.1091C385.512 49.8226 385.431 50.1208 385.069 49.4072C382.509 44.2014 376.748 38.4304 373.49 37.756C370.661 37.1914 368.86 39.6476 369.677 43.061C370.262 45.5427 372.194 47.5974 376.236 50.0555C378.053 51.1496 380.692 52.4414 382.146 52.9457C383.564 53.4281 384.945 53.8886 385.222 54.0054C385.665 54.1735 385.766 54.581 386.046 57.2006C386.383 60.1767 388.601 69.9799 389.5 72.2293C389.746 72.8481 390.138 73.9255 390.391 74.5734L390.877 75.7818L388.966 73.9382C386.714 71.7157 383.328 69.1568 381.605 68.3175C377.469 66.3467 374.763 70.3875 377.733 74.1316ZM377.914 70.2542C378.622 68.3783 381.175 69.1971 385.578 72.7398C387.852 74.5549 390.779 77.5059 390.401 77.5999C390.139 77.665 386.621 75.4478 385.161 74.296C384.5 73.7493 384.027 73.5885 383.736 73.7845C383.502 73.966 383.349 74.2204 383.385 74.366C383.465 74.6862 386.088 76.7856 387.97 78.0181L389.3 78.8932L387.97 78.5128C384.341 77.4667 380.481 75.2417 378.775 73.2238C377.729 71.9999 377.519 71.2794 377.914 70.2542ZM371.107 40.2331C371.983 38.7795 373.074 38.8175 375.465 40.3564C377.892 41.9171 380.319 44.3435 382.198 47.1838C384.137 50.0096 384.136 50.628 382.247 48.9954C379.907 46.9183 377.225 45.2044 376.905 45.5313C376.431 45.9889 376.794 46.8261 377.615 47.2712C378.72 47.8622 383.37 51.529 383.268 51.7398C383.093 52.0305 378.52 49.9208 376.107 48.4183C371.863 45.7635 369.794 42.4137 371.107 40.2331ZM392.237 57.1157C393.61 54.1786 394.922 52.3691 395.883 52.1306C396.698 51.9281 398.159 52.9562 398.397 53.9169C398.701 55.1396 397.954 57.9831 397.014 59.2984C396.11 60.512 392.78 63.4096 392.111 63.5759C391.878 63.6337 392.009 63.292 392.41 62.7906C392.789 62.3256 393.708 61.0466 394.401 59.9782C395.495 58.2848 395.619 57.914 395.234 57.4841C394.849 57.0543 394.696 57.185 393.282 59.2053C391.75 61.3782 390.38 63.0785 390.06 63.158C389.74 63.2375 390.916 60.0092 392.237 57.1157ZM383.392 28.2191C383.711 24.1527 385.112 21.5795 386.887 21.7569C389.775 22.0597 391.215 26.8636 390.093 32.4274C389.697 34.442 387.908 38.5643 387.545 38.3455C387.472 38.3017 387.526 36.5266 387.675 34.3879C387.795 32.2565 387.834 30.4232 387.71 30.2993C387.013 29.6071 386.677 30.6178 386.38 34.4005C386.224 36.6337 385.981 38.5176 385.864 38.5465C385.427 38.655 384.427 36.1216 383.828 33.3343C383.402 31.2456 383.252 29.7685 383.392 28.2191ZM398.059 79.438C398.601 77.1398 400.008 75.2141 401.376 74.8743C403.589 74.3248 404.735 76.2036 404.061 79.3382C403.746 80.8073 399.836 87.8364 399.443 87.6248C399.072 87.3768 399.798 83.8277 400.528 82.4101C401.455 80.6655 401.456 79.7998 400.583 80.0167C400.233 80.1034 399.694 80.9174 399.175 82.1897C398.715 83.324 398.27 84.2691 398.182 84.2907C397.818 84.443 397.744 80.9071 398.059 79.438Z" fill="white" fill-opacity="0.5"/>
<path opacity="0.5" d="M858.617 74.4142C860.693 76.1253 867.576 78.5186 871.834 79.0152C873.827 79.2629 876.789 79.3507 878.417 79.2308C881.179 79.0068 881.435 79.0629 882.271 80.2009C884.524 83.193 891.786 90.0505 896.723 93.8606C902.298 98.131 910.831 103.404 912.002 103.282C913.008 103.195 912.959 101.988 911.901 101.416C905.937 98.2954 895.803 91.442 893.438 88.9614C892.91 88.3553 893.098 87.4418 894.822 82.7139C896.954 76.8724 897.43 73.2172 896.512 70.1586C895.864 68.1071 894.208 66.4164 892.527 66.0606C890.956 65.7419 888.335 66.8993 887.212 68.4116C885.445 70.8351 884.962 75.8618 886.093 80.1834C886.775 82.8568 886.629 82.7463 882.194 77.2745C878.759 72.9964 874.402 66.574 872.845 63.4208L871.831 61.3675L874.439 59.0762C879.876 54.2935 882.699 49.2967 882.593 44.7425C882.474 39.2373 878.339 35.9433 874.852 38.5777C872.759 40.1583 870.304 48.3939 870.016 54.8298L869.875 57.4076L868.934 55.501C866.508 50.5878 863.56 40.2772 862.463 32.792C861.826 28.5461 861.863 28.3451 863.292 24.1277C865.631 17.2266 865.404 11.4099 862.543 5.61677C861.258 3.01353 860.676 2.20597 859.346 1.26669C857.651 0.0512714 855.184 -0.326744 853.681 0.415585C850.821 1.82782 849.991 6.98085 851.528 14.2487C852.295 18.0198 855.648 24.1629 858.251 26.5715C860.054 28.1898 860.126 28.3365 860.282 30.1295C860.405 31.1176 860.83 33.8263 861.239 36.1326C861.898 39.7751 861.878 40.1957 861.187 39.351C856.262 33.1635 846.91 27.1552 842.374 27.2059C838.442 27.2778 836.759 31.0733 838.841 35.3812C840.343 38.5159 843.514 40.6896 849.612 42.7864C852.35 43.7144 856.241 44.6664 858.325 44.9145C860.353 45.1441 862.327 45.355 862.729 45.4302C863.369 45.5248 863.622 46.0381 864.758 49.4453C866.073 53.3106 871.882 65.7202 873.734 68.4543C874.242 69.2067 875.077 70.5275 875.603 71.3165L876.602 72.7845L873.521 70.8855C869.875 68.5815 864.62 66.1596 862.081 65.5435C855.998 64.1234 853.572 70.2926 858.617 74.4142ZM857.728 69.1977C858.126 66.4931 861.763 66.8404 868.659 70.2762C872.217 72.0312 876.974 75.1089 876.498 75.3443C876.168 75.5072 870.837 73.5788 868.557 72.4702C867.517 71.9347 866.841 71.8582 866.51 72.204C866.252 72.5136 866.122 72.897 866.213 73.0803C866.412 73.4837 870.517 75.5157 873.383 76.6089L875.409 77.3871L873.526 77.268C868.388 76.9316 862.6 75.0923 859.74 72.9019C857.991 71.5765 857.502 70.6779 857.728 69.1977ZM839.922 31.1987C840.664 29.0079 842.129 28.7408 845.761 30.0939C849.449 31.4655 853.386 33.9905 856.717 37.2257C860.121 40.4247 860.3 41.2485 857.308 39.6243C853.588 37.5393 849.517 36.0378 849.186 36.5665C848.688 37.3138 849.415 38.3232 850.638 38.6768C852.282 39.1421 859.543 42.6712 859.468 42.9817C859.32 43.4199 852.615 41.9418 848.964 40.6435C842.538 38.3439 838.808 34.485 839.922 31.1987ZM872.978 47.5294C873.951 43.2183 875.172 40.4263 876.382 39.8288C877.408 39.3219 879.653 40.2657 880.25 41.4757C881.011 43.0156 880.845 47.0198 879.975 49.0454C879.124 50.9249 875.534 55.7533 874.691 56.1697C874.398 56.3145 874.473 55.8212 874.861 55.0367C875.231 54.307 876.082 52.3362 876.693 50.7116C877.657 48.1378 877.715 47.6078 877.077 47.1474C876.439 46.687 876.273 46.9057 874.978 50.0081C873.571 53.3478 872.241 56.0112 871.838 56.2104C871.435 56.4095 872.061 51.7676 872.978 47.5294ZM852.784 11.6215C852.025 6.11314 853.142 2.27826 855.557 1.99765C859.491 1.56001 862.808 7.53831 862.934 15.2747C862.993 18.073 861.811 24.0838 861.264 23.8982C861.154 23.8611 860.709 21.4815 860.284 18.5899C859.823 15.7164 859.341 13.2634 859.141 13.1344C858.011 12.4156 857.857 13.8596 858.563 18.9837C859.005 22.0033 859.23 24.583 859.084 24.6554C858.534 24.927 856.464 21.8444 854.854 18.3069C853.679 15.6493 853.048 13.7259 852.784 11.6215ZM887.232 75.5622C887.284 72.3438 888.597 69.3694 890.321 68.5185C893.107 67.1424 895.181 69.3107 895.196 73.6816C895.204 75.7298 892.043 86.2296 891.459 86.0621C890.893 85.8398 890.826 80.9018 891.385 78.8015C892.111 76.2082 891.861 75.0549 890.761 75.598C890.321 75.8153 889.839 77.0565 889.519 78.9019C889.237 80.5464 888.919 81.9347 888.809 81.9891C888.369 82.2978 887.24 77.6105 887.232 75.5622Z" fill="white" fill-opacity="0.5"/>
<path opacity="0.5" d="M900.482 65.9664C902.005 67.2216 907.054 68.9772 910.177 69.3416C911.639 69.5232 913.812 69.5877 915.006 69.4997C917.033 69.3354 917.22 69.3766 917.833 70.2113C919.486 72.4062 924.813 77.4365 928.435 80.2314C932.524 83.364 938.783 87.2318 939.642 87.1422C940.38 87.0788 940.345 86.1932 939.569 85.7735C935.193 83.4846 927.759 78.4572 926.025 76.6376C925.638 76.193 925.775 75.5229 927.04 72.0547C928.604 67.7697 928.953 65.0884 928.28 62.8447C927.804 61.3399 926.59 60.0997 925.357 59.8386C924.204 59.6049 922.282 60.4539 921.458 61.5632C920.161 63.341 919.807 67.0284 920.637 70.1984C921.137 72.1595 921.03 72.0785 917.777 68.0646C915.257 64.9264 912.061 60.2153 910.918 57.9022L910.175 56.396L912.088 54.7152C916.076 51.2069 918.147 47.5415 918.07 44.2007C917.982 40.1624 914.949 37.746 912.391 39.6785C910.856 40.838 909.055 46.8792 908.844 51.6002L908.74 53.4913L908.05 52.0927C906.27 48.4886 904.107 40.9252 903.303 35.4344C902.836 32.3198 902.863 32.1724 903.911 29.0787C905.627 24.0164 905.46 19.7495 903.362 15.5C902.419 13.5903 901.993 12.998 901.017 12.3089C899.773 11.4174 897.964 11.1401 896.861 11.6846C894.763 12.7206 894.154 16.5006 895.281 21.832C895.844 24.5982 898.304 29.1045 900.213 30.8714C901.536 32.0585 901.589 32.166 901.703 33.4813C901.793 34.2061 902.105 36.1931 902.405 37.8849C902.889 40.5569 902.874 40.8654 902.367 40.2458C898.754 35.7069 891.894 31.2995 888.567 31.3367C885.682 31.3894 884.448 34.1736 885.975 37.3337C887.077 39.6332 889.403 41.2277 893.876 42.7658C895.885 43.4466 898.739 44.1449 900.267 44.3269C901.756 44.4953 903.204 44.6501 903.498 44.7052C903.968 44.7746 904.154 45.1511 904.986 47.6505C905.951 50.4858 910.212 59.589 911.571 61.5946C911.944 62.1465 912.556 63.1154 912.942 63.6941L913.675 64.771L911.414 63.378C908.74 61.6878 904.885 59.9113 903.023 59.4594C898.561 58.4176 896.781 62.9431 900.482 65.9664ZM899.83 62.1399C900.122 60.1559 902.79 60.4107 907.848 62.931C910.458 64.2184 913.948 66.4761 913.598 66.6487C913.356 66.7683 909.446 65.3537 907.773 64.5404C907.01 64.1476 906.514 64.0915 906.272 64.3452C906.083 64.5723 905.987 64.8535 906.054 64.988C906.2 65.2839 909.211 66.7745 911.313 67.5764L912.799 68.1472L911.418 68.0599C907.65 67.8131 903.404 66.4639 901.306 64.8571C900.023 63.8848 899.664 63.2257 899.83 62.1399ZM886.768 34.2656C887.313 32.6585 888.387 32.4626 891.052 33.4552C893.756 34.4613 896.645 36.3136 899.088 38.6867C901.585 41.0334 901.716 41.6377 899.522 40.4463C896.793 38.9168 893.807 37.8154 893.563 38.2032C893.198 38.7514 893.731 39.4919 894.629 39.7512C895.835 40.0926 901.161 42.6813 901.106 42.9091C900.997 43.2305 896.079 42.1463 893.401 41.1939C888.687 39.507 885.951 36.6763 886.768 34.2656ZM911.017 46.245C911.73 43.0826 912.625 41.0346 913.513 40.5963C914.266 40.2244 915.913 40.9168 916.351 41.8043C916.909 42.934 916.787 45.8712 916.149 47.3571C915.525 48.7358 912.892 52.2777 912.273 52.5832C912.058 52.6894 912.113 52.3275 912.398 51.7521C912.669 51.2168 913.293 49.7711 913.742 48.5794C914.449 46.6914 914.491 46.3025 914.023 45.9648C913.555 45.6271 913.434 45.7875 912.483 48.0633C911.452 50.5132 910.476 52.4669 910.18 52.613C909.884 52.7591 910.344 49.354 911.017 46.245ZM896.203 19.9048C895.646 15.8641 896.465 13.051 898.237 12.8451C901.123 12.5241 903.556 16.9095 903.649 22.5845C903.692 24.6372 902.825 29.0465 902.423 28.9103C902.343 28.8831 902.016 27.1375 901.705 25.0164C901.366 22.9086 901.013 21.1092 900.866 21.0146C900.037 20.4872 899.924 21.5465 900.442 25.3053C900.767 27.5204 900.932 29.4127 900.824 29.4658C900.421 29.665 898.903 27.4038 897.721 24.8088C896.859 22.8593 896.397 21.4485 896.203 19.9048ZM921.472 66.8086C921.511 64.4477 922.474 62.2659 923.738 61.6416C925.782 60.6323 927.304 62.2228 927.314 65.429C927.32 66.9315 925.002 74.6337 924.573 74.5108C924.158 74.3478 924.109 70.7255 924.519 69.1848C925.052 67.2825 924.868 66.4364 924.061 66.8349C923.738 66.9942 923.385 67.9047 923.15 69.2585C922.943 70.4648 922.71 71.4832 922.629 71.523C922.306 71.7495 921.478 68.3111 921.472 66.8086Z" fill="white" fill-opacity="0.5"/>
<path opacity="0.5" d="M649.395 73.4419C651.058 75.557 657.27 79.3652 661.324 80.7601C663.218 81.4275 666.093 82.1461 667.709 82.3767C670.455 82.748 670.693 82.8575 671.267 84.1477C672.828 87.5519 678.459 95.8025 682.468 100.579C687.002 105.942 694.211 112.916 695.381 113.046C696.383 113.177 696.593 111.987 695.682 111.202C690.521 106.88 682.085 98.0198 680.304 95.0913C679.919 94.3865 680.297 93.5342 682.991 89.2836C686.322 84.0324 687.567 80.5631 687.324 77.3791C687.129 75.2365 685.873 73.2312 684.307 72.5245C682.84 71.8776 680.032 72.4484 678.612 73.6859C676.368 75.6759 674.823 80.4836 675.004 84.947C675.099 87.7043 674.98 87.5652 671.817 81.2724C669.375 76.3592 666.49 69.1544 665.642 65.7413L665.09 63.5188L668.128 61.8376C674.461 58.3266 678.286 54.0481 679.156 49.5765C680.215 44.173 676.88 40.0717 672.91 41.9003C670.528 42.9974 666.37 50.5186 664.714 56.7444L664.026 59.2327L663.513 57.169C662.193 51.8509 661.515 41.1485 662.043 33.6019C662.327 29.3178 662.407 29.1295 664.704 25.3147C668.462 19.0724 669.483 13.3415 667.926 7.07098C667.226 4.25323 666.831 3.34017 665.732 2.13839C664.336 0.589024 662.006 -0.307226 660.379 0.0968596C657.284 0.865608 655.372 5.72236 655.321 13.1507C655.265 16.9988 657.228 23.7162 659.257 26.6253C660.672 28.5912 660.711 28.75 660.48 30.5348C660.39 31.5265 660.227 34.2636 660.134 36.604C659.999 40.3032 659.889 40.7096 659.395 39.7369C655.905 32.6402 648.053 24.773 643.611 23.8536C639.754 23.0839 637.299 26.4323 638.412 31.0855C639.211 34.4687 641.844 37.2696 647.353 40.6206C649.83 42.1121 653.428 43.8732 655.41 44.5606C657.343 45.2182 659.227 45.846 659.603 46.0053C660.208 46.2343 660.346 46.79 660.727 50.361C661.187 54.4181 664.211 67.7821 665.436 70.8487C665.772 71.6922 666.305 73.1609 666.651 74.0441L667.313 75.6915L664.708 73.1782C661.638 70.1485 657.022 66.6601 654.673 65.5159C649.034 62.8292 645.346 68.3378 649.395 73.4419ZM649.641 68.1561C650.607 65.5988 654.086 66.715 660.089 71.5445C663.189 74.0189 667.18 78.0418 666.664 78.1699C666.307 78.2586 661.511 75.2361 659.52 73.666C658.619 72.9207 657.975 72.7015 657.578 72.9687C657.26 73.2161 657.051 73.5629 657.1 73.7614C657.209 74.1979 660.785 77.0599 663.351 78.74L665.164 79.933L663.35 79.4144C658.403 77.9884 653.141 74.9552 650.815 72.2044C649.389 70.5359 649.103 69.5536 649.641 68.1561ZM640.362 27.2305C641.556 25.2488 643.043 25.3007 646.303 27.3985C649.612 29.5261 652.92 32.8339 655.482 36.7058C658.124 40.5581 658.123 41.4011 655.548 39.1755C652.359 36.3439 648.703 34.0075 648.266 34.4531C647.62 35.0769 648.114 36.2182 649.234 36.825C650.74 37.6307 657.08 42.6293 656.94 42.9167C656.702 43.313 650.468 40.437 647.178 38.3888C641.392 34.7696 638.573 30.203 640.362 27.2305ZM669.167 50.2452C671.038 46.2414 672.827 43.7746 674.137 43.4494C675.248 43.1734 677.24 44.575 677.565 45.8846C677.979 47.5515 676.961 51.4277 675.679 53.2209C674.446 54.8752 669.908 58.8253 668.995 59.052C668.677 59.1309 668.857 58.665 669.403 57.9815C669.92 57.3476 671.172 55.604 672.117 54.1476C673.608 51.839 673.778 51.3335 673.253 50.7475C672.728 50.1615 672.52 50.3397 670.591 53.0939C668.504 56.0561 666.636 58.3739 666.199 58.4823C665.762 58.5907 667.366 54.1897 669.167 50.2452ZM657.109 10.8526C657.545 5.3092 659.454 1.80128 661.874 2.04309C665.811 2.45589 667.774 9.00472 666.245 16.5895C665.705 19.3359 663.266 24.9555 662.771 24.6571C662.672 24.5975 662.745 22.1777 662.948 19.2621C663.111 16.3565 663.165 13.8573 662.996 13.6884C662.046 12.7447 661.587 14.1226 661.182 19.2792C660.969 22.3236 660.638 24.8918 660.479 24.9313C659.884 25.0791 658.521 21.6256 657.704 17.8258C657.123 14.9784 656.918 12.9648 657.109 10.8526ZM677.104 80.6756C677.843 77.5428 679.761 74.9175 681.626 74.4543C684.642 73.7053 686.205 76.2665 685.286 80.5397C684.857 82.5424 679.526 92.1246 678.99 91.8362C678.485 91.4982 679.475 86.6598 680.469 84.7274C681.733 82.3491 681.735 81.1689 680.544 81.4645C680.068 81.5828 679.332 82.6925 678.625 84.427C677.998 85.9732 677.391 87.2615 677.272 87.2911C676.776 87.4986 676.674 82.6784 677.104 80.6756Z" fill="white" fill-opacity="0.5"/>
<path opacity="0.5" d="M692.097 74.1309C693.317 75.6824 697.874 78.476 700.848 79.4991C702.237 79.9888 704.346 80.5159 705.532 80.6851C707.546 80.9574 707.721 81.0377 708.141 81.9841C709.287 84.4813 713.417 90.5335 716.358 94.0375C719.684 97.9714 724.972 103.087 725.831 103.183C726.565 103.279 726.72 102.406 726.051 101.83C722.266 98.6593 716.077 92.1601 714.771 90.0118C714.488 89.4948 714.766 88.8696 716.742 85.7516C719.185 81.8996 720.099 79.3547 719.921 77.019C719.777 75.4473 718.856 73.9763 717.707 73.458C716.631 72.9834 714.572 73.4021 713.53 74.3099C711.883 75.7697 710.75 79.2964 710.883 82.5704C710.953 84.5931 710.866 84.4911 708.545 79.8749C706.753 76.2709 704.637 70.9858 704.016 68.4821L703.611 66.8518L705.839 65.6185C710.485 63.0431 713.29 59.9045 713.929 56.6244C714.706 52.6606 712.259 49.6521 709.347 50.9935C707.599 51.7983 704.55 57.3154 703.335 61.8824L702.83 63.7077L702.454 62.1938C701.485 58.2928 700.988 50.442 701.375 44.9062C701.584 41.7636 701.642 41.6255 703.327 38.8271C706.084 34.248 706.833 30.0441 705.691 25.4444C705.177 23.3774 704.888 22.7076 704.081 21.826C703.057 20.6895 701.349 20.0321 700.155 20.3285C697.884 20.8924 696.482 24.4551 696.444 29.9042C696.403 32.7269 697.844 37.6545 699.332 39.7885C700.37 41.2306 700.399 41.347 700.229 42.6563C700.163 43.3837 700.043 45.3915 699.975 47.1084C699.876 49.8219 699.796 50.1201 699.433 49.4065C696.873 44.2007 691.113 38.4297 687.854 37.7553C685.025 37.1907 683.224 39.6469 684.041 43.0602C684.627 45.542 686.559 47.5967 690.6 50.0547C692.417 51.1489 695.056 52.4407 696.51 52.945C697.928 53.4274 699.31 53.8879 699.586 54.0047C700.029 54.1727 700.131 54.5803 700.41 57.1998C700.747 60.1759 702.966 69.9792 703.864 72.2286C704.111 72.8474 704.502 73.9247 704.755 74.5726L705.241 75.7811L703.331 73.9375C701.079 71.715 697.692 69.1561 695.969 68.3167C691.833 66.3459 689.128 70.3867 692.097 74.1309ZM692.278 70.2534C692.987 68.3775 695.539 69.1964 699.942 72.739C702.216 74.5541 705.144 77.5052 704.765 77.5992C704.503 77.6642 700.986 75.447 699.525 74.2953C698.864 73.7486 698.391 73.5878 698.1 73.7838C697.867 73.9653 697.714 74.2197 697.75 74.3652C697.829 74.6855 700.452 76.7849 702.335 78.0173L703.665 78.8924L702.334 78.512C698.705 77.466 694.846 75.241 693.139 73.2231C692.093 71.9992 691.883 71.2786 692.278 70.2534ZM685.472 40.2324C686.347 38.7787 687.438 38.8168 689.829 40.3556C692.257 41.9163 694.683 44.3428 696.563 47.1831C698.501 50.0089 698.5 50.6273 696.611 48.9947C694.271 46.9176 691.59 45.2037 691.269 45.5306C690.795 45.9882 691.158 46.8254 691.979 47.2705C693.084 47.8615 697.735 51.5282 697.632 51.739C697.457 52.0298 692.884 49.9201 690.471 48.4176C686.227 45.7628 684.159 42.4129 685.472 40.2324ZM706.602 57.1149C707.974 54.1779 709.286 52.3684 710.247 52.1298C711.062 51.9274 712.523 52.9555 712.761 53.9162C713.065 55.1389 712.319 57.9824 711.378 59.2977C710.474 60.5113 707.145 63.4089 706.475 63.5752C706.242 63.633 706.374 63.2913 706.775 62.7899C707.154 62.3249 708.072 61.0459 708.765 59.9775C709.859 58.2841 709.983 57.9132 709.598 57.4834C709.213 57.0535 709.061 57.1843 707.646 59.2046C706.115 61.3775 704.744 63.0777 704.424 63.1573C704.104 63.2368 705.28 60.0084 706.602 57.1149ZM697.756 28.2184C698.076 24.152 699.477 21.5788 701.251 21.7561C704.139 22.0589 705.579 26.8629 704.458 32.4267C704.062 34.4413 702.273 38.5636 701.909 38.3447C701.837 38.301 701.89 36.5259 702.039 34.3872C702.159 32.2557 702.198 30.4224 702.075 30.2986C701.377 29.6063 701.041 30.6171 700.744 34.3997C700.588 36.633 700.345 38.5169 700.228 38.5458C699.792 38.6543 698.792 36.1209 698.192 33.3336C697.766 31.2449 697.616 29.7678 697.756 28.2184ZM712.423 79.4372C712.965 77.1391 714.372 75.2134 715.741 74.8736C717.953 74.3241 719.1 76.2029 718.425 79.3375C718.11 80.8066 714.2 87.8356 713.807 87.624C713.437 87.3761 714.162 83.8269 714.892 82.4094C715.819 80.6648 715.82 79.799 714.947 80.0159C714.597 80.1027 714.058 80.9167 713.539 82.189C713.079 83.3232 712.634 84.2683 712.547 84.29C712.183 84.4422 712.108 80.9063 712.423 79.4372Z" fill="white" fill-opacity="0.5"/>
<path opacity="0.5" d="M1172.98 74.4142C1175.06 76.1253 1181.94 78.5186 1186.2 79.0152C1188.19 79.2629 1191.15 79.3507 1192.78 79.2308C1195.54 79.0068 1195.8 79.0629 1196.64 80.2009C1198.89 83.193 1206.15 90.0505 1211.09 93.8606C1216.66 98.131 1225.2 103.404 1226.37 103.282C1227.37 103.195 1227.32 101.988 1226.27 101.416C1220.3 98.2954 1210.17 91.442 1207.8 88.9614C1207.27 88.3553 1207.46 87.4418 1209.19 82.7139C1211.32 76.8724 1211.79 73.2172 1210.88 70.1586C1210.23 68.1071 1208.57 66.4164 1206.89 66.0606C1205.32 65.7419 1202.7 66.8993 1201.58 68.4116C1199.81 70.8351 1199.33 75.8618 1200.46 80.1834C1201.14 82.8568 1200.99 82.7463 1196.56 77.2745C1193.12 72.9964 1188.77 66.574 1187.21 63.4208L1186.19 61.3675L1188.8 59.0762C1194.24 54.2935 1197.06 49.2967 1196.96 44.7425C1196.84 39.2373 1192.7 35.9433 1189.22 38.5777C1187.12 40.1583 1184.67 48.3939 1184.38 54.8298L1184.24 57.4076L1183.3 55.501C1180.87 50.5878 1177.92 40.2772 1176.83 32.792C1176.19 28.5461 1176.23 28.3451 1177.66 24.1277C1180 17.2266 1179.77 11.4099 1176.91 5.61677C1175.62 3.01353 1175.04 2.20597 1173.71 1.26669C1172.02 0.0512714 1169.55 -0.326744 1168.05 0.415585C1165.19 1.82782 1164.36 6.98085 1165.89 14.2487C1166.66 18.0198 1170.01 24.1629 1172.62 26.5715C1174.42 28.1898 1174.49 28.3365 1174.65 30.1295C1174.77 31.1176 1175.19 33.8263 1175.6 36.1326C1176.26 39.7751 1176.24 40.1957 1175.55 39.351C1170.63 33.1635 1161.27 27.1552 1156.74 27.2059C1152.81 27.2778 1151.12 31.0733 1153.2 35.3812C1154.71 38.5159 1157.88 40.6896 1163.98 42.7864C1166.71 43.7144 1170.61 44.6664 1172.69 44.9145C1174.72 45.1441 1176.69 45.355 1177.09 45.4302C1177.73 45.5248 1177.99 46.0381 1179.12 49.4453C1180.44 53.3106 1186.25 65.7202 1188.1 68.4543C1188.61 69.2067 1189.44 70.5275 1189.97 71.3165L1190.97 72.7845L1187.88 70.8855C1184.24 68.5815 1178.98 66.1596 1176.45 65.5435C1170.36 64.1234 1167.94 70.2926 1172.98 74.4142ZM1172.09 69.1977C1172.49 66.4931 1176.13 66.8404 1183.02 70.2762C1186.58 72.0312 1191.34 75.1089 1190.86 75.3443C1190.53 75.5072 1185.2 73.5788 1182.92 72.4702C1181.88 71.9347 1181.21 71.8582 1180.87 72.204C1180.62 72.5136 1180.49 72.897 1180.58 73.0803C1180.78 73.4837 1184.88 75.5157 1187.75 76.6089L1189.77 77.3871L1187.89 77.268C1182.75 76.9316 1176.96 75.0923 1174.1 72.9019C1172.36 71.5765 1171.87 70.6779 1172.09 69.1977ZM1154.29 31.1987C1155.03 29.0079 1156.49 28.7408 1160.13 30.0939C1163.81 31.4655 1167.75 33.9905 1171.08 37.2257C1174.49 40.4247 1174.66 41.2485 1171.67 39.6243C1167.95 37.5393 1163.88 36.0378 1163.55 36.5665C1163.05 37.3138 1163.78 38.3232 1165 38.6768C1166.65 39.1421 1173.91 42.6712 1173.83 42.9817C1173.68 43.4199 1166.98 41.9418 1163.33 40.6435C1156.9 38.3439 1153.17 34.485 1154.29 31.1987ZM1187.34 47.5294C1188.32 43.2183 1189.54 40.4263 1190.75 39.8288C1191.77 39.3219 1194.02 40.2657 1194.61 41.4757C1195.38 43.0156 1195.21 47.0198 1194.34 49.0454C1193.49 50.9249 1189.9 55.7533 1189.06 56.1697C1188.76 56.3145 1188.84 55.8212 1189.23 55.0367C1189.59 54.307 1190.45 52.3362 1191.06 50.7116C1192.02 48.1378 1192.08 47.6078 1191.44 47.1474C1190.8 46.687 1190.64 46.9057 1189.34 50.0081C1187.94 53.3478 1186.61 56.0112 1186.2 56.2104C1185.8 56.4095 1186.43 51.7676 1187.34 47.5294ZM1167.15 11.6215C1166.39 6.11314 1167.51 2.27826 1169.92 1.99765C1173.86 1.56001 1177.17 7.53831 1177.3 15.2747C1177.36 18.073 1176.18 24.0838 1175.63 23.8982C1175.52 23.8611 1175.07 21.4815 1174.65 18.5899C1174.19 15.7164 1173.71 13.2634 1173.51 13.1344C1172.37 12.4156 1172.22 13.8596 1172.93 18.9837C1173.37 22.0033 1173.59 24.583 1173.45 24.6554C1172.9 24.927 1170.83 21.8444 1169.22 18.3069C1168.04 15.6493 1167.41 13.7259 1167.15 11.6215ZM1201.6 75.5622C1201.65 72.3438 1202.96 69.3694 1204.68 68.5185C1207.47 67.1424 1209.55 69.3107 1209.56 73.6816C1209.57 75.7298 1206.41 86.2296 1205.82 86.0621C1205.26 85.8398 1205.19 80.9018 1205.75 78.8015C1206.48 76.2082 1206.23 75.0549 1205.13 75.598C1204.69 75.8153 1204.2 77.0565 1203.88 78.9019C1203.6 80.5464 1203.28 81.9347 1203.17 81.9891C1202.73 82.2978 1201.6 77.6105 1201.6 75.5622Z" fill="white" fill-opacity="0.5"/>
<path opacity="0.5" d="M1214.85 65.9664C1216.37 67.2216 1221.42 68.9772 1224.54 69.3416C1226 69.5232 1228.18 69.5877 1229.37 69.4997C1231.4 69.3354 1231.58 69.3766 1232.2 70.2113C1233.85 72.4062 1239.18 77.4365 1242.8 80.2314C1246.89 83.364 1253.15 87.2318 1254.01 87.1422C1254.74 87.0788 1254.71 86.1932 1253.93 85.7735C1249.56 83.4846 1242.12 78.4572 1240.39 76.6376C1240 76.193 1240.14 75.5229 1241.4 72.0547C1242.97 67.7697 1243.32 65.0884 1242.64 62.8447C1242.17 61.3399 1240.95 60.0997 1239.72 59.8386C1238.57 59.6049 1236.65 60.4539 1235.82 61.5632C1234.53 63.341 1234.17 67.0284 1235 70.1984C1235.5 72.1595 1235.39 72.0785 1232.14 68.0646C1229.62 64.9264 1226.42 60.2153 1225.28 57.9022L1224.54 56.396L1226.45 54.7152C1230.44 51.2069 1232.51 47.5415 1232.43 44.2007C1232.35 40.1624 1229.31 37.746 1226.75 39.6785C1225.22 40.838 1223.42 46.8792 1223.21 51.6002L1223.1 53.4913L1222.41 52.0927C1220.63 48.4886 1218.47 40.9252 1217.67 35.4344C1217.2 32.3198 1217.23 32.1724 1218.28 29.0787C1219.99 24.0164 1219.82 19.7495 1217.73 15.5C1216.78 13.5903 1216.36 12.998 1215.38 12.3089C1214.14 11.4174 1212.33 11.1401 1211.23 11.6846C1209.13 12.7206 1208.52 16.5006 1209.65 21.832C1210.21 24.5982 1212.67 29.1045 1214.58 30.8714C1215.9 32.0585 1215.95 32.166 1216.07 33.4813C1216.16 34.2061 1216.47 36.1931 1216.77 37.8849C1217.25 40.5569 1217.24 40.8654 1216.73 40.2458C1213.12 35.7069 1206.26 31.2995 1202.93 31.3367C1200.05 31.3894 1198.81 34.1736 1200.34 37.3337C1201.44 39.6332 1203.77 41.2277 1208.24 42.7658C1210.25 43.4466 1213.1 44.1449 1214.63 44.3269C1216.12 44.4953 1217.57 44.6501 1217.86 44.7052C1218.33 44.7746 1218.52 45.1511 1219.35 47.6505C1220.32 50.4858 1224.58 59.589 1225.94 61.5946C1226.31 62.1465 1226.92 63.1154 1227.31 63.6941L1228.04 64.771L1225.78 63.378C1223.1 61.6878 1219.25 59.9113 1217.39 59.4594C1212.92 58.4176 1211.15 62.9431 1214.85 65.9664ZM1214.19 62.1399C1214.49 60.1559 1217.15 60.4107 1222.21 62.931C1224.82 64.2184 1228.31 66.4761 1227.96 66.6487C1227.72 66.7683 1223.81 65.3537 1222.14 64.5404C1221.37 64.1476 1220.88 64.0915 1220.64 64.3452C1220.45 64.5723 1220.35 64.8535 1220.42 64.988C1220.56 65.2839 1223.58 66.7745 1225.68 67.5764L1227.16 68.1472L1225.78 68.0599C1222.01 67.8131 1217.77 66.4639 1215.67 64.8571C1214.39 63.8848 1214.03 63.2257 1214.19 62.1399ZM1201.13 34.2656C1201.68 32.6585 1202.75 32.4626 1205.42 33.4552C1208.12 34.4613 1211.01 36.3136 1213.45 38.6867C1215.95 41.0334 1216.08 41.6377 1213.89 40.4463C1211.16 38.9168 1208.17 37.8154 1207.93 38.2032C1207.56 38.7514 1208.1 39.4919 1208.99 39.7512C1210.2 40.0926 1215.53 42.6813 1215.47 42.9091C1215.36 43.2305 1210.44 42.1463 1207.77 41.1939C1203.05 39.507 1200.32 36.6763 1201.13 34.2656ZM1225.38 46.245C1226.09 43.0826 1226.99 41.0346 1227.88 40.5963C1228.63 40.2244 1230.28 40.9168 1230.72 41.8043C1231.27 42.934 1231.15 45.8712 1230.51 47.3571C1229.89 48.7358 1227.26 52.2777 1226.64 52.5832C1226.42 52.6894 1226.48 52.3275 1226.76 51.7521C1227.03 51.2168 1227.66 49.7711 1228.11 48.5794C1228.81 46.6914 1228.86 46.3025 1228.39 45.9648C1227.92 45.6271 1227.8 45.7875 1226.85 48.0633C1225.82 50.5132 1224.84 52.4669 1224.54 52.613C1224.25 52.7591 1224.71 49.354 1225.38 46.245ZM1210.57 19.9048C1210.01 15.8641 1210.83 13.051 1212.6 12.8451C1215.49 12.5241 1217.92 16.9095 1218.01 22.5845C1218.06 24.6372 1217.19 29.0465 1216.79 28.9103C1216.71 28.8831 1216.38 27.1375 1216.07 25.0164C1215.73 22.9086 1215.38 21.1092 1215.23 21.0146C1214.4 20.4872 1214.29 21.5465 1214.81 25.3053C1215.13 27.5204 1215.3 29.4127 1215.19 29.4658C1214.78 29.665 1213.27 27.4038 1212.09 24.8088C1211.22 22.8593 1210.76 21.4485 1210.57 19.9048ZM1235.84 66.8086C1235.87 64.4477 1236.84 62.2659 1238.1 61.6416C1240.15 60.6323 1241.67 62.2228 1241.68 65.429C1241.68 66.9315 1239.37 74.6337 1238.94 74.5108C1238.52 74.3478 1238.47 70.7255 1238.88 69.1848C1239.42 67.2825 1239.23 66.4364 1238.43 66.8349C1238.1 66.9942 1237.75 67.9047 1237.51 69.2585C1237.31 70.4648 1237.07 71.4832 1236.99 71.523C1236.67 71.7495 1235.84 68.3111 1235.84 66.8086Z" fill="white" fill-opacity="0.5"/>
<path opacity="0.5" d="M963.759 73.4419C965.422 75.557 971.634 79.3652 975.689 80.7601C977.582 81.4275 980.457 82.1461 982.073 82.3767C984.82 82.748 985.058 82.8575 985.631 84.1477C987.193 87.5519 992.823 95.8025 996.832 100.579C1001.37 105.942 1008.58 112.916 1009.75 113.046C1010.75 113.177 1010.96 111.987 1010.05 111.202C1004.89 106.88 996.449 98.0198 994.669 95.0913C994.283 94.3865 994.661 93.5342 997.356 89.2836C1000.69 84.0324 1001.93 80.5631 1001.69 77.3791C1001.49 75.2365 1000.24 73.2312 998.671 72.5245C997.204 71.8776 994.397 72.4484 992.976 73.6859C990.732 75.6759 989.187 80.4836 989.369 84.947C989.463 87.7043 989.345 87.5652 986.181 81.2724C983.739 76.3592 980.854 69.1544 980.006 65.7413L979.455 63.5188L982.492 61.8376C988.825 58.3266 992.65 54.0481 993.52 49.5765C994.58 44.173 991.244 40.0717 987.274 41.9003C984.892 42.9974 980.734 50.5186 979.078 56.7444L978.39 59.2327L977.878 57.169C976.557 51.8509 975.879 41.1485 976.407 33.6019C976.691 29.3178 976.771 29.1295 979.068 25.3147C982.827 19.0724 983.847 13.3415 982.29 7.07098C981.59 4.25323 981.195 3.34017 980.096 2.13839C978.7 0.589024 976.371 -0.307226 974.744 0.0968596C971.648 0.865608 969.736 5.72236 969.685 13.1507C969.629 16.9988 971.592 23.7162 973.621 26.6253C975.036 28.5912 975.076 28.75 974.845 30.5348C974.754 31.5265 974.591 34.2636 974.498 36.604C974.363 40.3032 974.254 40.7096 973.759 39.7369C970.269 32.6402 962.417 24.773 957.975 23.8536C954.118 23.0839 951.663 26.4323 952.777 31.0855C953.575 34.4687 956.209 37.2696 961.718 40.6206C964.195 42.1121 967.792 43.8732 969.775 44.5606C971.708 45.2182 973.591 45.846 973.968 46.0053C974.572 46.2343 974.71 46.79 975.091 50.361C975.551 54.4181 978.575 67.7821 979.8 70.8487C980.136 71.6922 980.669 73.1609 981.015 74.0441L981.677 75.6915L979.072 73.1782C976.003 70.1485 971.386 66.6601 969.038 65.5159C963.399 62.8292 959.711 68.3378 963.759 73.4419ZM964.005 68.1561C964.971 65.5988 968.451 66.715 974.453 71.5445C977.554 74.0189 981.544 78.0418 981.028 78.1699C980.671 78.2586 975.876 75.2361 973.885 73.666C972.983 72.9207 972.339 72.7015 971.942 72.9687C971.624 73.2161 971.415 73.5629 971.465 73.7614C971.573 74.1979 975.149 77.0599 977.715 78.74L979.528 79.933L977.714 79.4144C972.767 77.9884 967.505 74.9552 965.179 72.2044C963.754 70.5359 963.467 69.5536 964.005 68.1561ZM954.727 27.2305C955.92 25.2488 957.407 25.3007 960.667 27.3985C963.976 29.5261 967.284 32.8339 969.846 36.7058C972.488 40.5581 972.487 41.4011 969.912 39.1755C966.723 36.3439 963.067 34.0075 962.63 34.4531C961.984 35.0769 962.478 36.2182 963.598 36.825C965.104 37.6307 971.444 42.6293 971.305 42.9167C971.066 43.313 964.832 40.437 961.543 38.3888C955.756 34.7696 952.937 30.203 954.727 27.2305ZM983.532 50.2452C985.403 46.2414 987.192 43.7746 988.501 43.4494C989.612 43.1734 991.604 44.575 991.929 45.8846C992.343 47.5515 991.325 51.4277 990.043 53.2209C988.811 54.8752 984.272 58.8253 983.359 59.052C983.042 59.1309 983.221 58.665 983.768 57.9815C984.284 57.3476 985.537 55.604 986.481 54.1476C987.972 51.839 988.142 51.3335 987.617 50.7475C987.092 50.1615 986.884 50.3397 984.955 53.0939C982.868 56.0561 981 58.3739 980.563 58.4823C980.127 58.5907 981.73 54.1897 983.532 50.2452ZM971.474 10.8526C971.909 5.3092 973.819 1.80128 976.238 2.04309C980.175 2.45589 982.138 9.00472 980.609 16.5895C980.069 19.3359 977.63 24.9555 977.135 24.6571C977.036 24.5975 977.109 22.1777 977.312 19.2621C977.475 16.3565 977.529 13.8573 977.36 13.6884C976.41 12.7447 975.951 14.1226 975.547 19.2792C975.334 22.3236 975.002 24.8918 974.844 24.9313C974.248 25.0791 972.885 21.6256 972.068 17.8258C971.487 14.9784 971.282 12.9648 971.474 10.8526ZM991.468 80.6756C992.207 77.5428 994.125 74.9175 995.99 74.4543C999.006 73.7053 1000.57 76.2665 999.65 80.5397C999.221 82.5424 993.89 92.1246 993.355 91.8362C992.849 91.4982 993.839 86.6598 994.834 84.7274C996.097 82.3491 996.099 81.1689 994.908 81.4645C994.432 81.5828 993.696 82.6925 992.989 84.427C992.362 85.9732 991.755 87.2615 991.636 87.2911C991.14 87.4986 991.038 82.6784 991.468 80.6756Z" fill="white" fill-opacity="0.5"/>
<path opacity="0.5" d="M1006.46 74.1309C1007.68 75.6824 1012.24 78.476 1015.21 79.4991C1016.6 79.9888 1018.71 80.5159 1019.9 80.6851C1021.91 80.9574 1022.09 81.0377 1022.51 81.9841C1023.65 84.4813 1027.78 90.5335 1030.72 94.0375C1034.05 97.9714 1039.34 103.087 1040.2 103.183C1040.93 103.279 1041.08 102.406 1040.42 101.83C1036.63 98.6593 1030.44 92.1601 1029.14 90.0118C1028.85 89.4948 1029.13 88.8696 1031.11 85.7516C1033.55 81.8996 1034.46 79.3547 1034.28 77.019C1034.14 75.4473 1033.22 73.9763 1032.07 73.458C1031 72.9834 1028.94 73.4021 1027.89 74.3099C1026.25 75.7697 1025.11 79.2964 1025.25 82.5704C1025.32 84.5931 1025.23 84.4911 1022.91 79.8749C1021.12 76.2709 1019 70.9858 1018.38 68.4821L1017.98 66.8518L1020.2 65.6185C1024.85 63.0431 1027.65 59.9045 1028.29 56.6244C1029.07 52.6606 1026.62 49.6521 1023.71 50.9935C1021.96 51.7983 1018.91 57.3154 1017.7 61.8824L1017.19 63.7077L1016.82 62.1938C1015.85 58.2928 1015.35 50.442 1015.74 44.9062C1015.95 41.7636 1016.01 41.6255 1017.69 38.8271C1020.45 34.248 1021.2 30.0441 1020.06 25.4444C1019.54 23.3774 1019.25 22.7076 1018.45 21.826C1017.42 20.6895 1015.71 20.0321 1014.52 20.3285C1012.25 20.8924 1010.85 24.4551 1010.81 29.9042C1010.77 32.7269 1012.21 37.6545 1013.7 39.7885C1014.73 41.2306 1014.76 41.347 1014.59 42.6563C1014.53 43.3837 1014.41 45.3915 1014.34 47.1084C1014.24 49.8219 1014.16 50.1201 1013.8 49.4065C1011.24 44.2007 1005.48 38.4297 1002.22 37.7553C999.39 37.1907 997.589 39.6469 998.405 43.0602C998.991 45.542 1000.92 47.5967 1004.96 50.0547C1006.78 51.1489 1009.42 52.4407 1010.87 52.945C1012.29 53.4274 1013.67 53.8879 1013.95 54.0047C1014.39 54.1727 1014.49 54.5803 1014.77 57.1998C1015.11 60.1759 1017.33 69.9792 1018.23 72.2286C1018.47 72.8474 1018.87 73.9247 1019.12 74.5726L1019.61 75.7811L1017.69 73.9375C1015.44 71.715 1012.06 69.1561 1010.33 68.3167C1006.2 66.3459 1003.49 70.3867 1006.46 74.1309ZM1006.64 70.2534C1007.35 68.3775 1009.9 69.1964 1014.31 72.739C1016.58 74.5541 1019.51 77.5052 1019.13 77.5992C1018.87 77.6642 1015.35 75.447 1013.89 74.2953C1013.23 73.7486 1012.76 73.5878 1012.46 73.7838C1012.23 73.9653 1012.08 74.2197 1012.11 74.3652C1012.19 74.6855 1014.82 76.7849 1016.7 78.0173L1018.03 78.8924L1016.7 78.512C1013.07 77.466 1009.21 75.241 1007.5 73.2231C1006.46 71.9992 1006.25 71.2786 1006.64 70.2534ZM999.836 40.2324C1000.71 38.7787 1001.8 38.8168 1004.19 40.3556C1006.62 41.9163 1009.05 44.3428 1010.93 47.1831C1012.87 50.0089 1012.86 50.6273 1010.98 48.9947C1008.64 46.9176 1005.95 45.2037 1005.63 45.5306C1005.16 45.9882 1005.52 46.8254 1006.34 47.2705C1007.45 47.8615 1012.1 51.5282 1012 51.739C1011.82 52.0298 1007.25 49.9201 1004.84 48.4176C1000.59 45.7628 998.523 42.4129 999.836 40.2324ZM1020.97 57.1149C1022.34 54.1779 1023.65 52.3684 1024.61 52.1298C1025.43 51.9274 1026.89 52.9555 1027.13 53.9162C1027.43 55.1389 1026.68 57.9824 1025.74 59.2977C1024.84 60.5113 1021.51 63.4089 1020.84 63.5752C1020.61 63.633 1020.74 63.2913 1021.14 62.7899C1021.52 62.3249 1022.44 61.0459 1023.13 59.9775C1024.22 58.2841 1024.35 57.9132 1023.96 57.4834C1023.58 57.0535 1023.42 57.1843 1022.01 59.2046C1020.48 61.3775 1019.11 63.0777 1018.79 63.1573C1018.47 63.2368 1019.64 60.0084 1020.97 57.1149ZM1012.12 28.2184C1012.44 24.152 1013.84 21.5788 1015.62 21.7561C1018.5 22.0589 1019.94 26.8629 1018.82 32.4267C1018.43 34.4413 1016.64 38.5636 1016.27 38.3447C1016.2 38.301 1016.25 36.5259 1016.4 34.3872C1016.52 32.2557 1016.56 30.4224 1016.44 30.2986C1015.74 29.6063 1015.41 30.6171 1015.11 34.3997C1014.95 36.633 1014.71 38.5169 1014.59 38.5458C1014.16 38.6543 1013.16 36.1209 1012.56 33.3336C1012.13 31.2449 1011.98 29.7678 1012.12 28.2184ZM1026.79 79.4372C1027.33 77.1391 1028.74 75.2134 1030.1 74.8736C1032.32 74.3241 1033.46 76.2029 1032.79 79.3375C1032.47 80.8066 1028.56 87.8356 1028.17 87.624C1027.8 87.3761 1028.53 83.8269 1029.26 82.4094C1030.18 80.6648 1030.18 79.799 1029.31 80.0159C1028.96 80.1027 1028.42 80.9167 1027.9 82.189C1027.44 83.3232 1027 84.2683 1026.91 84.29C1026.55 84.4422 1026.47 80.9063 1026.79 79.4372Z" fill="white" fill-opacity="0.5"/>
<path opacity="0.5" d="M1278.12 73.4419C1279.79 75.557 1286 79.3652 1290.05 80.7601C1291.95 81.4275 1294.82 82.1461 1296.44 82.3767C1299.18 82.748 1299.42 82.8575 1300 84.1477C1301.56 87.5519 1307.19 95.8025 1311.2 100.579C1315.73 105.942 1322.94 112.916 1324.11 113.046C1325.11 113.177 1325.32 111.987 1324.41 111.202C1319.25 106.88 1310.81 98.0198 1309.03 95.0913C1308.65 94.3865 1309.03 93.5342 1311.72 89.2836C1315.05 84.0324 1316.3 80.5631 1316.05 77.3791C1315.86 75.2365 1314.6 73.2312 1313.04 72.5245C1311.57 71.8776 1308.76 72.4484 1307.34 73.6859C1305.1 75.6759 1303.55 80.4836 1303.73 84.947C1303.83 87.7043 1303.71 87.5652 1300.55 81.2724C1298.1 76.3592 1295.22 69.1544 1294.37 65.7413L1293.82 63.5188L1296.86 61.8376C1303.19 58.3266 1307.01 54.0481 1307.88 49.5765C1308.94 44.173 1305.61 40.0717 1301.64 41.9003C1299.26 42.9974 1295.1 50.5186 1293.44 56.7444L1292.75 59.2327L1292.24 57.169C1290.92 51.8509 1290.24 41.1485 1290.77 33.6019C1291.06 29.3178 1291.14 29.1295 1293.43 25.3147C1297.19 19.0724 1298.21 13.3415 1296.65 7.07098C1295.95 4.25323 1295.56 3.34017 1294.46 2.13839C1293.06 0.589024 1290.74 -0.307226 1289.11 0.0968596C1286.01 0.865608 1284.1 5.72236 1284.05 13.1507C1283.99 16.9988 1285.96 23.7162 1287.99 26.6253C1289.4 28.5912 1289.44 28.75 1289.21 30.5348C1289.12 31.5265 1288.96 34.2636 1288.86 36.604C1288.73 40.3032 1288.62 40.7096 1288.12 39.7369C1284.63 32.6402 1276.78 24.773 1272.34 23.8536C1268.48 23.0839 1266.03 26.4323 1267.14 31.0855C1267.94 34.4687 1270.57 37.2696 1276.08 40.6206C1278.56 42.1121 1282.16 43.8732 1284.14 44.5606C1286.07 45.2182 1287.96 45.846 1288.33 46.0053C1288.94 46.2343 1289.07 46.79 1289.46 50.361C1289.92 54.4181 1292.94 67.7821 1294.16 70.8487C1294.5 71.6922 1295.03 73.1609 1295.38 74.0441L1296.04 75.6915L1293.44 73.1782C1290.37 70.1485 1285.75 66.6601 1283.4 65.5159C1277.76 62.8292 1274.07 68.3378 1278.12 73.4419ZM1278.37 68.1561C1279.34 65.5988 1282.81 66.715 1288.82 71.5445C1291.92 74.0189 1295.91 78.0418 1295.39 78.1699C1295.04 78.2586 1290.24 75.2361 1288.25 73.666C1287.35 72.9207 1286.7 72.7015 1286.31 72.9687C1285.99 73.2161 1285.78 73.5629 1285.83 73.7614C1285.94 74.1979 1289.51 77.0599 1292.08 78.74L1293.89 79.933L1292.08 79.4144C1287.13 77.9884 1281.87 74.9552 1279.54 72.2044C1278.12 70.5359 1277.83 69.5536 1278.37 68.1561ZM1269.09 27.2305C1270.28 25.2488 1271.77 25.3007 1275.03 27.3985C1278.34 29.5261 1281.65 32.8339 1284.21 36.7058C1286.85 40.5581 1286.85 41.4011 1284.28 39.1755C1281.09 36.3439 1277.43 34.0075 1276.99 34.4531C1276.35 35.0769 1276.84 36.2182 1277.96 36.825C1279.47 37.6307 1285.81 42.6293 1285.67 42.9167C1285.43 43.313 1279.2 40.437 1275.91 38.3888C1270.12 34.7696 1267.3 30.203 1269.09 27.2305ZM1297.9 50.2452C1299.77 46.2414 1301.56 43.7746 1302.87 43.4494C1303.98 43.1734 1305.97 44.575 1306.29 45.8846C1306.71 47.5515 1305.69 51.4277 1304.41 53.2209C1303.17 54.8752 1298.64 58.8253 1297.72 59.052C1297.41 59.1309 1297.59 58.665 1298.13 57.9815C1298.65 57.3476 1299.9 55.604 1300.85 54.1476C1302.34 51.839 1302.51 51.3335 1301.98 50.7475C1301.46 50.1615 1301.25 50.3397 1299.32 53.0939C1297.23 56.0561 1295.36 58.3739 1294.93 58.4823C1294.49 58.5907 1296.09 54.1897 1297.9 50.2452ZM1285.84 10.8526C1286.27 5.3092 1288.18 1.80128 1290.6 2.04309C1294.54 2.45589 1296.5 9.00472 1294.97 16.5895C1294.43 19.3359 1291.99 24.9555 1291.5 24.6571C1291.4 24.5975 1291.47 22.1777 1291.68 19.2621C1291.84 16.3565 1291.89 13.8573 1291.72 13.6884C1290.77 12.7447 1290.32 14.1226 1289.91 19.2792C1289.7 22.3236 1289.37 24.8918 1289.21 24.9313C1288.61 25.0791 1287.25 21.6256 1286.43 17.8258C1285.85 14.9784 1285.65 12.9648 1285.84 10.8526ZM1305.83 80.6756C1306.57 77.5428 1308.49 74.9175 1310.35 74.4543C1313.37 73.7053 1314.93 76.2665 1314.01 80.5397C1313.59 82.5424 1308.25 92.1246 1307.72 91.8362C1307.21 91.4982 1308.2 86.6598 1309.2 84.7274C1310.46 82.3491 1310.46 81.1689 1309.27 81.4645C1308.8 81.5828 1308.06 82.6925 1307.35 84.427C1306.73 85.9732 1306.12 87.2615 1306 87.2911C1305.5 87.4986 1305.4 82.6784 1305.83 80.6756Z" fill="white" fill-opacity="0.5"/>
<path opacity="0.5" d="M1320.83 74.1309C1322.05 75.6824 1326.6 78.476 1329.58 79.4991C1330.97 79.9888 1333.07 80.5159 1334.26 80.6851C1336.27 80.9574 1336.45 81.0377 1336.87 81.9841C1338.02 84.4813 1342.15 90.5335 1345.09 94.0375C1348.41 97.9714 1353.7 103.087 1354.56 103.183C1355.29 103.279 1355.45 102.406 1354.78 101.83C1350.99 98.6593 1344.81 92.1601 1343.5 90.0118C1343.22 89.4948 1343.49 88.8696 1345.47 85.7516C1347.91 81.8996 1348.83 79.3547 1348.65 77.019C1348.51 75.4473 1347.58 73.9763 1346.44 73.458C1345.36 72.9834 1343.3 73.4021 1342.26 74.3099C1340.61 75.7697 1339.48 79.2964 1339.61 82.5704C1339.68 84.5931 1339.59 84.4911 1337.27 79.8749C1335.48 76.2709 1333.37 70.9858 1332.74 68.4821L1332.34 66.8518L1334.57 65.6185C1339.21 63.0431 1342.02 59.9045 1342.66 56.6244C1343.43 52.6606 1340.99 49.6521 1338.08 50.9935C1336.33 51.7983 1333.28 57.3154 1332.06 61.8824L1331.56 63.7077L1331.18 62.1938C1330.21 58.2928 1329.72 50.442 1330.1 44.9062C1330.31 41.7636 1330.37 41.6255 1332.06 38.8271C1334.81 34.248 1335.56 30.0441 1334.42 25.4444C1333.91 23.3774 1333.62 22.7076 1332.81 21.826C1331.79 20.6895 1330.08 20.0321 1328.88 20.3285C1326.61 20.8924 1325.21 24.4551 1325.17 29.9042C1325.13 32.7269 1326.57 37.6545 1328.06 39.7885C1329.1 41.2306 1329.13 41.347 1328.96 42.6563C1328.89 43.3837 1328.77 45.3915 1328.7 47.1084C1328.6 49.8219 1328.52 50.1201 1328.16 49.4065C1325.6 44.2007 1319.84 38.4297 1316.58 37.7553C1313.75 37.1907 1311.95 39.6469 1312.77 43.0602C1313.36 45.542 1315.29 47.5967 1319.33 50.0547C1321.15 51.1489 1323.78 52.4407 1325.24 52.945C1326.66 53.4274 1328.04 53.8879 1328.31 54.0047C1328.76 54.1727 1328.86 54.5803 1329.14 57.1998C1329.48 60.1759 1331.69 69.9792 1332.59 72.2286C1332.84 72.8474 1333.23 73.9247 1333.48 74.5726L1333.97 75.7811L1332.06 73.9375C1329.81 71.715 1326.42 69.1561 1324.7 68.3167C1320.56 66.3459 1317.86 70.3867 1320.83 74.1309ZM1321.01 70.2534C1321.72 68.3775 1324.27 69.1964 1328.67 72.739C1330.94 74.5541 1333.87 77.5052 1333.49 77.5992C1333.23 77.6642 1329.71 75.447 1328.25 74.2953C1327.59 73.7486 1327.12 73.5878 1326.83 73.7838C1326.6 73.9653 1326.44 74.2197 1326.48 74.3652C1326.56 74.6855 1329.18 76.7849 1331.06 78.0173L1332.39 78.8924L1331.06 78.512C1327.43 77.466 1323.57 75.241 1321.87 73.2231C1320.82 71.9992 1320.61 71.2786 1321.01 70.2534ZM1314.2 40.2324C1315.08 38.7787 1316.17 38.8168 1318.56 40.3556C1320.99 41.9163 1323.41 44.3428 1325.29 47.1831C1327.23 50.0089 1327.23 50.6273 1325.34 48.9947C1323 46.9176 1320.32 45.2037 1320 45.5306C1319.52 45.9882 1319.89 46.8254 1320.71 47.2705C1321.81 47.8615 1326.46 51.5282 1326.36 51.739C1326.19 52.0298 1321.61 49.9201 1319.2 48.4176C1314.96 45.7628 1312.89 42.4129 1314.2 40.2324ZM1335.33 57.1149C1336.7 54.1779 1338.01 52.3684 1338.98 52.1298C1339.79 51.9274 1341.25 52.9555 1341.49 53.9162C1341.79 55.1389 1341.05 57.9824 1340.11 59.2977C1339.2 60.5113 1335.87 63.4089 1335.2 63.5752C1334.97 63.633 1335.1 63.2913 1335.5 62.7899C1335.88 62.3249 1336.8 61.0459 1337.49 59.9775C1338.59 58.2841 1338.71 57.9132 1338.33 57.4834C1337.94 57.0535 1337.79 57.1843 1336.37 59.2046C1334.84 61.3775 1333.47 63.0777 1333.15 63.1573C1332.83 63.2368 1334.01 60.0084 1335.33 57.1149ZM1326.48 28.2184C1326.8 24.152 1328.21 21.5788 1329.98 21.7561C1332.87 22.0589 1334.31 26.8629 1333.19 32.4267C1332.79 34.4413 1331 38.5636 1330.64 38.3447C1330.57 38.301 1330.62 36.5259 1330.77 34.3872C1330.89 32.2557 1330.93 30.4224 1330.8 30.2986C1330.11 29.6063 1329.77 30.6171 1329.47 34.3997C1329.32 36.633 1329.07 38.5169 1328.96 38.5458C1328.52 38.6543 1327.52 36.1209 1326.92 33.3336C1326.49 31.2449 1326.34 29.7678 1326.48 28.2184ZM1341.15 79.4372C1341.69 77.1391 1343.1 75.2134 1344.47 74.8736C1346.68 74.3241 1347.83 76.2029 1347.15 79.3375C1346.84 80.8066 1342.93 87.8356 1342.54 87.624C1342.17 87.3761 1342.89 83.8269 1343.62 82.4094C1344.55 80.6648 1344.55 79.799 1343.68 80.0159C1343.33 80.1027 1342.79 80.9167 1342.27 82.189C1341.81 83.3232 1341.36 84.2683 1341.28 84.29C1340.91 84.4422 1340.84 80.9063 1341.15 79.4372Z" fill="white" fill-opacity="0.5"/>
</svg>
