<svg width="175" height="164" viewBox="0 0 175 164" fill="none" xmlns="http://www.w3.org/2000/svg">
<path d="M113.847 0.088028C91.3046 0.81041 58.258 3.61963 47.1886 5.78676C36.2809 7.87361 29.7362 12.2881 26.3427 19.6724C23.5955 25.6119 23.5955 38.0528 26.2619 49.0489C26.5851 50.4134 26.1003 50.9752 23.9995 51.8581C19.3132 53.7845 11.7182 62.1319 8.08224 69.5161C1.86077 81.957 -0.0783922 98.9729 0.00240615 139.667C0.00240615 167.919 0.971987 185.738 2.83035 191.276C4.68871 196.895 9.85981 202.513 15.6773 205.403C20.9292 207.891 33.2913 210.861 48.7238 213.268C64.2371 215.676 98.738 216.238 115.382 214.312C144.874 211.021 154.974 206.526 161.518 193.764C164.75 187.504 165.881 181.163 170.083 143.279C174.85 101.22 175.173 87.8163 171.78 73.4491C169.194 62.3727 166.043 55.7108 160.226 48.8884L155.943 43.912L156.832 38.4541C157.236 35.4843 157.478 29.3843 157.317 24.9698C157.074 17.6658 156.751 16.3816 154.57 12.4486C151.58 7.23151 146.813 3.29858 141.319 1.69331C136.713 0.328827 126.129 -0.233017 113.847 0.088028ZM139.703 4.90385C142.612 5.78676 145.197 7.31177 147.702 9.71968C152.146 13.8934 152.388 13.6526 140.43 17.6658C129.441 21.2776 115.706 23.6053 102.212 24.0869C96.3948 24.3277 88.4766 24.6487 84.6791 24.8895L77.7304 25.2908L70.701 16.3816C66.8226 11.4855 63.7523 7.31177 63.9947 7.15125C64.3179 6.74992 89.4462 4.50253 97.2836 4.18149C100.435 4.02095 110.211 3.86043 119.18 3.78017C131.946 3.61963 136.309 3.86043 139.703 4.90385ZM66.9035 15.8197C70.5394 20.3948 73.4481 24.3277 73.4481 24.6487C73.4481 25.05 71.8321 25.2908 69.893 25.2908C66.5803 25.2908 66.0955 24.9698 63.1867 21.4382C58.4196 15.6592 54.0565 9.55916 54.0565 8.51572C54.0565 8.03413 55.4301 7.63283 57.2076 7.63283C60.278 7.63283 60.682 7.87361 66.9035 15.8197ZM55.6725 15.9C58.5812 19.9132 61.086 23.525 61.1668 23.8461C61.3284 24.2474 60.1972 24.4882 58.7428 24.4882C56.2381 24.4882 55.4301 23.7658 50.1782 17.3447C46.9463 13.4118 44.3607 10.0407 44.3607 9.79994C44.3607 9.31836 46.8655 8.75652 49.2086 8.59599C49.855 8.51572 52.7637 11.8065 55.6725 15.9ZM46.6231 17.2645C49.3702 20.5553 51.3902 23.3645 51.2286 23.525C51.067 23.6856 49.451 23.6053 47.5926 23.2842C44.7647 22.8027 43.9567 22.1606 41.048 17.9868C38.3816 14.0539 37.9776 12.9302 38.7856 11.9671C40.3208 10.121 41.3712 10.8434 46.6231 17.2645ZM37.412 17.3447C38.624 19.1105 39.432 20.7961 39.2704 20.9566C38.9472 21.2776 32.4025 19.0303 31.5138 18.3079C31.1906 18.0671 34.6649 14.0539 35.0689 14.0539C35.1497 14.0539 36.2809 15.4987 37.412 17.3447ZM153.196 19.4316C154.085 22.6421 153.681 35.2435 152.469 40.9423L151.419 45.7581L147.136 47.2831C144.793 48.0857 142.692 48.5673 142.369 48.2463C142.046 48.0055 141.804 41.7449 141.804 34.4409L141.723 21.1171L146.167 19.2711C151.984 16.8631 152.469 16.8631 153.196 19.4316ZM34.2609 23.2842L37.4928 24.5685V37.7317C37.4928 45.0357 37.4928 50.9752 37.412 50.9752C37.412 50.9752 35.7153 50.4134 33.6953 49.691L29.9786 48.4871L29.0898 43.4304C27.5546 34.5212 28.1202 22.0803 30.0594 22.0803C30.5442 22.0803 32.4025 22.6421 34.2609 23.2842ZM137.602 36.2067C137.844 43.591 138.006 49.7713 137.764 49.9318C137.036 50.6542 125.967 53.2226 125.644 52.741C125.482 52.42 125.078 46.1594 124.755 38.8554L124.109 25.4514L129.28 24.2474C137.764 22.3211 136.956 21.1171 137.602 36.2067ZM50.9054 27.6185C51.471 28.1803 53.2485 53.5437 52.7637 54.1055C52.2789 54.5871 43.3103 52.6608 42.5023 51.8581C41.5328 50.895 40.7248 31.0698 41.452 28.1001C42.0176 26.0132 42.0984 25.933 46.2191 26.4948C48.5622 26.8159 50.663 27.2974 50.9054 27.6185ZM120.554 35.8857C120.877 41.1831 121.119 47.5239 121.119 49.8515V54.0253L117.079 54.9082C114.817 55.3897 111.908 55.791 110.696 55.791H108.434L107.868 42.066C107.545 34.5212 107.545 28.1001 107.787 27.779C108.111 27.5382 110.211 27.1369 112.474 26.8159C120.877 25.8527 119.988 24.8092 120.554 35.8857ZM66.5803 28.5014H69.085L70.0546 41.7449C70.6202 49.0489 71.105 55.3095 71.2666 55.6305C71.5898 56.674 69.9738 56.7542 63.6715 56.1924L57.45 55.7108L56.9652 52.3397C56.7229 50.4937 56.3189 44.1528 55.9957 38.2133L55.4301 27.458L59.7932 27.9395C62.2171 28.2606 65.2875 28.5014 66.5803 28.5014ZM103.667 37.8922C103.99 43.591 104.313 50.0121 104.394 52.2594L104.636 56.4332L101.808 56.9147C100.192 57.1555 96.9604 57.3963 94.6981 57.3963H90.4158V43.0291C90.4158 26.6553 89.7694 27.9395 98.1724 27.779L103.182 27.6987L103.667 37.8922ZM86.3759 42.9489V57.3963H81.124C76.3569 57.3963 75.8721 57.2358 75.4681 55.5503C74.9025 52.9016 73.4481 36.6883 73.4481 32.2738V28.5014H79.912H86.3759V42.9489ZM157.721 51.7779C167.336 62.9345 172.184 86.2913 169.679 109.568C165.639 148.496 162.973 171.933 161.922 178.273C160.791 185.256 158.69 192.239 157.64 192.239C157.398 192.239 153.358 191.035 148.671 189.51C130.088 183.571 113.766 181.404 92.4357 182.046C77.488 182.447 75.0641 182.849 75.0641 184.614C75.0641 186.22 76.68 186.46 83.1439 185.658C90.335 184.695 116.594 185.337 119.503 186.46C120.877 186.942 123.866 190.714 127.987 196.975C132.108 203.155 134.936 206.687 135.905 206.687C136.632 206.687 137.279 206.526 137.279 206.286C137.279 206.045 134.532 201.791 131.219 196.895C127.906 191.918 125.321 187.825 125.482 187.664C125.644 187.504 127.26 187.584 129.199 187.905C132.431 188.467 132.916 188.868 136.875 194.968C143.016 204.439 143.339 205.162 142.046 205.964C139.784 207.329 130.088 209.175 116.271 210.78C80.5584 215.034 28.1202 209.657 14.4653 200.426C12.0414 198.821 10.0214 197.055 10.0214 196.654C10.0214 194.567 27.1507 187.745 37.0889 185.818C40.4824 185.096 53.2485 184.213 59.066 184.213C60.278 184.213 59.7124 181.966 58.4196 181.484C56.2381 180.681 46.7039 181.002 38.7048 182.126C30.0594 183.491 18.6668 187.183 12.1222 190.795C7.03186 193.604 6.95106 193.524 5.49669 185.899C4.04232 178.514 3.96153 104.19 5.3351 93.9163C8.16304 74.0109 15.2733 60.7674 26.5043 54.7476L30.4634 52.5805L39.5936 54.9884C67.7922 62.3727 101 62.6937 129.603 55.791C134.936 54.5068 142.369 52.42 146.167 51.0555C149.964 49.7713 153.438 48.6476 154.004 48.6476C154.489 48.5673 156.186 50.0121 157.721 51.7779ZM142.288 191.035C143.743 191.437 145.359 193.042 147.459 196.413L150.449 201.309L148.591 202.834C147.621 203.637 146.571 204.279 146.247 204.279C145.843 204.279 138.248 192.48 137.36 190.393C137.198 189.992 137.764 189.831 138.572 190.072C139.46 190.393 141.076 190.795 142.288 191.035ZM152.631 194.326C154.408 195.049 155.862 195.851 155.862 196.253C155.862 196.975 152.711 199.864 152.388 199.383C151.176 197.938 148.591 193.042 148.914 193.042C149.156 193.042 150.853 193.604 152.631 194.326Z" fill="#007AB1" fill-opacity="0.15"/>
<path d="M59.7125 73.1279C58.0157 74.5726 56.8845 76.6595 55.9149 79.9503L54.6222 84.6056L51.875 82.5188C50.0974 81.1543 47.7543 80.2714 45.2495 80.0306C41.856 79.7095 41.2096 79.9503 39.9977 81.5556C37.0081 85.8898 39.7553 94.157 47.3503 103.468C51.2286 108.203 58.0157 113.581 60.278 113.581C65.1259 113.581 69.4083 99.8557 69.4083 84.2043C69.4083 75.9371 69.3275 75.6963 67.0651 73.3687C64.1564 70.4792 62.9444 70.4792 59.7125 73.1279Z" fill="#007AB1" fill-opacity="0.15"/>
<path d="M25.7774 76.178C21.5759 81.7162 19.152 88.4583 18.9904 95.1202C18.9096 99.8558 19.0712 100.337 20.6063 100.578C22.1415 100.819 22.3839 100.337 22.7879 95.361C23.3535 88.1373 25.939 81.6359 29.8981 77.1411C31.6757 75.1345 32.9685 73.1279 32.6453 72.6464C31.4333 70.72 28.9286 72.0042 25.7774 76.178Z" fill="#007AB1" fill-opacity="0.15"/>
<path d="M120.311 73.6902C117.241 75.2152 116.19 79.1481 116.756 87.0942C117.483 98.4916 122.977 111.976 126.856 111.976C129.764 111.976 131.623 110.371 135.178 104.913C139.622 97.9298 141.722 92.9535 143.258 85.1679C144.47 79.4691 144.47 78.6665 143.338 76.981C141.399 74.0112 137.763 74.4125 134.208 77.9441C132.35 79.7902 131.138 80.5126 130.895 79.7902C130.33 78.1047 125.644 73.6099 123.947 73.1283C123.058 72.8875 121.442 73.1283 120.311 73.6902Z" fill="#007AB1" fill-opacity="0.15"/>
<path d="M18.8285 108.283C18.0205 110.37 19.2325 113.581 20.8484 113.581C22.9492 113.581 23.1916 113.019 22.626 110.129C22.0604 107.32 19.6365 106.197 18.8285 108.283Z" fill="#007AB1" fill-opacity="0.15"/>
<path d="M84.9213 109.327C81.7701 110.531 79.9118 119.36 79.9118 132.523C79.831 142.396 80.4773 144.964 83.4669 146.89C86.4564 148.897 89.5268 147.853 96.4754 142.396C108.514 132.924 114.817 121.607 110.938 116.149C109.08 113.501 105.121 113.822 100.273 117.112L96.233 119.922L95.3442 116.31C93.8091 110.37 89.5268 107.481 84.9213 109.327Z" fill="#007AB1" fill-opacity="0.15"/>
<path d="M49.2084 127.065C47.1884 129.072 45.1685 135.011 45.1685 138.944C45.1685 139.827 44.4413 139.586 42.3405 137.981C36.4422 133.566 29.0088 134.77 29.0088 140.308C29.0088 145.927 38.543 158.849 46.542 164.067C51.3899 167.277 55.6722 167.438 57.9346 164.548C59.9546 162.06 61.3281 152.91 61.3281 142.636C61.2473 132.924 60.3585 128.911 57.6922 126.583C54.8643 124.175 51.9555 124.336 49.2084 127.065Z" fill="#007AB1" fill-opacity="0.15"/>
<path d="M127.664 143.118C122.493 143.921 113.767 157.566 112.07 167.518C110.939 174.02 112.07 176.428 116.999 177.872C124.836 180.2 141.965 173.377 147.702 165.672C150.53 161.9 150.772 159.01 148.348 156.602C145.924 154.194 142.45 153.873 137.279 155.719C133.885 156.923 133.885 156.923 134.37 155.077C136.875 146.008 134.693 142.075 127.664 143.118Z" fill="#007AB1" fill-opacity="0.15"/>
</svg>
