<svg xmlns="http://www.w3.org/2000/svg" width="13.42" height="17.881" viewBox="0 0 13.42 17.881">
  <g id="Group_176816" data-name="Group 176816" transform="translate(-831 -236)">
    <path id="Path_71571" data-name="Path 71571" d="M9116.69,173.968a2.574,2.574,0,0,0-3.62,0l-.34.339-.051.05.86.86.39-.388a1.321,1.321,0,0,1,2.261.934,1.312,1.312,0,0,1-.391.935,1.33,1.33,0,0,1-.939.38,1.292,1.292,0,0,1-.931-.38l-.34-.331-.59-.6-.87.86.93.927a2.572,2.572,0,0,0,3.61.008,2.557,2.557,0,0,0,.021-3.6Z" transform="translate(-8273 75)" fill="#57417c"/>
    <path id="Path_71572" data-name="Path 71572" d="M9110.71,161a.935.935,0,1,0,.93.935A.94.94,0,0,0,9110.71,161Z" transform="translate(-8273 75)" fill="#57417c"/>
    <path id="Path_71573" data-name="Path 71573" d="M9112.05,173.894l.47-.472,1.131-1.124a4.148,4.148,0,0,0,0-5.856l-2.931-2.928-2.939,2.928a4.148,4.148,0,0,0,0,5.856l1.13,1.124.39.389.86-.86-1.521-1.513a2.942,2.942,0,0,1,0-4.136l2.08-2.067,2.07,2.067a2.942,2.942,0,0,1,0,4.136l-1.8,1.786-1.67,1.662-.57-.529-.39-.389a2.551,2.551,0,1,0-3.61,3.606,2.56,2.56,0,0,0,3.61,0l1-.992,2.479,2.3.83-.893-2.45-2.266.221-.224Zm-4.22,2.481-.33.331a1.34,1.34,0,0,1-.94.389,1.289,1.289,0,0,1-.93-.381,1.319,1.319,0,0,1,.92-2.258,1.342,1.342,0,0,1,.94.389l.279.281.011.009.1.1.57.529Z" transform="translate(-8273 75)" fill="#57417c"/>
  </g>
</svg>
