<svg id="vuesax_broken_like" data-name="vuesax/broken/like" xmlns="http://www.w3.org/2000/svg" width="19.977" height="19.977" viewBox="0 0 19.977 19.977">
  <g id="like">
    <path id="Vector" d="M11.653,7.743a1.56,1.56,0,0,0-1.581-2.164H6.742a.84.84,0,0,1-.832-1l.416-2.664A1.642,1.642,0,0,0,5.244.085,1.662,1.662,0,0,0,3.413.668L0,5.745" transform="translate(6.226 2.204)" fill="none" stroke="#bbb" stroke-linecap="round" stroke-linejoin="round" stroke-width="1.2"/>
    <path id="Vector-2" data-name="Vector" d="M0,2.389l2.58,2a2.561,2.561,0,0,0,1.581.5H7.325A2.5,2.5,0,0,0,9.655,3.138L10.687,0" transform="translate(6.226 12.885)" fill="none" stroke="#bbb" stroke-linecap="round" stroke-linejoin="round" stroke-width="1.2"/>
    <path id="Vector-3" data-name="Vector" d="M0,9.739V1.581C0,.416.5,0,1.665,0H2.5C3.662,0,4.162.416,4.162,1.581V9.739c0,1.165-.5,1.581-1.665,1.581H1.665C.5,11.32,0,10.9,0,9.739Z" transform="translate(1.981 5.535)" fill="none" stroke="#bbb" stroke-linecap="round" stroke-linejoin="round" stroke-width="1.2"/>
    <path id="Vector-4" data-name="Vector" d="M0,0H19.977V19.977H0Z" fill="none" opacity="0"/>
  </g>
</svg>
