<svg xmlns="http://www.w3.org/2000/svg" xmlns:xlink="http://www.w3.org/1999/xlink" width="253" height="333.798" viewBox="0 0 253 333.798">
  <defs>
    <linearGradient id="linear-gradient" y1="0.5" x2="1" y2="0.5" gradientUnits="objectBoundingBox">
      <stop offset="0" stop-color="#62c483"/>
      <stop offset="0.36" stop-color="#1b7d51"/>
      <stop offset="1" stop-color="#006838"/>
    </linearGradient>
  </defs>
  <g id="Linkora_logo" transform="translate(-486.22 -282.56)">
    <g id="Group_183223" data-name="Group 183223" transform="translate(486.22 503.16)">
      <text id="LINKORA" transform="translate(0 63)" font-size="58" font-family="Segoe UI" font-weight="700"><tspan x="0" y="0">LINKORA</tspan></text>
      <text id="منصة_لينكـــــــــــــــــورا" data-name="منصة لينكـــــــــــــــــورا" transform="translate(0.086 105.198)" font-size="31" font-family="Segoe UI"><tspan x="0" y="0">منصة لينكـــــــــــــــــورا</tspan></text>
    </g>
    <path id="Path_69676" data-name="Path 69676" d="M594.277,387.722l-33.329-33.66a5.635,5.635,0,0,1-2.537.6,5.737,5.737,0,1,1,5.087-3.06l33.3,33.635-2.512,2.486Zm19.2-14.828L578.2,337.207a5.746,5.746,0,1,0-5.2,3.315,5.848,5.848,0,0,0,2.779-.714l35.2,35.6,13.362,13.222,2.486-2.512-13.349-13.209Zm42.152-43.86a5.752,5.752,0,0,0-5.75,5.75,5.655,5.655,0,0,0,.637,2.614l-33.7,33.7,2.5,2.5,33.7-33.7a5.818,5.818,0,0,0,2.614.638,5.75,5.75,0,0,0,0-11.5Zm15.912,13.247a5.738,5.738,0,0,0-4.96,8.645l-49.763,49.763,2.5,2.5,49.9-49.9a5.627,5.627,0,0,0,2.308.484,5.75,5.75,0,1,0,0-11.5Zm-.892,84.405a5.654,5.654,0,0,0-2.614.638l-33.7-33.7-2.5,2.5,33.7,33.7a5.654,5.654,0,0,0-.638,2.614,5.75,5.75,0,1,0,5.75-5.75Zm-14.14,15.02a5.659,5.659,0,0,0-2.614.637l-48.718-48.718-2.5,2.5L651.4,444.843a5.82,5.82,0,0,0-.638,2.614,5.75,5.75,0,1,0,5.75-5.75Zm-45.582-59.721-2.5-2.5L561.918,426a5.755,5.755,0,1,0,2.486,2.5l46.512-46.512Zm1.326,27.833-2.5-2.5-33.724,33.724a5.748,5.748,0,1,0,2.525,2.473l33.686-33.685Zm-20.26-18.488-3.1-1.708H517.956a5.75,5.75,0,1,0,0,3.315H588.9Zm-11.934-14.65-2.652-2.652h-36.3a3.736,3.736,0,1,0,0,2.652Zm-1.313,29.159H530.094a4.6,4.6,0,1,0,0,2.652H574.77l3.978-2.652Zm60.971-12.9H710.66a5.75,5.75,0,1,0,0-3.315H639.719l-3.1,1.708Zm47.8-16.256a3.736,3.736,0,1,0,0-2.652h-36.3l-2.652,2.652h38.951Zm-33.66,31.811h44.676a4.6,4.6,0,1,0,0-2.652H649.88Zm-38.365,4.858-1.709,3.1V487.39a5.75,5.75,0,1,0,3.315,0V416.448l-1.606-3.1Zm-14.65,11.934-2.652,2.652v36.3a3.736,3.736,0,1,0,2.652,0ZM630,426.61v48.654a4.6,4.6,0,1,0,2.652,0V430.588L630,426.61Zm-12.9-61.863V293.806a5.75,5.75,0,1,0-3.315,0v70.941l1.709,3.1,1.606-3.1Zm-16.256-47.8a3.736,3.736,0,1,0-2.652,0v36.3l2.652,2.652Zm31.811,33.66V305.931a4.6,4.6,0,1,0-2.652,0v48.654l2.652-3.978Z" transform="translate(5.635 0)" fill-rule="evenodd" fill="url(#linear-gradient)"/>
  </g>
</svg>
