<svg xmlns="http://www.w3.org/2000/svg" xmlns:xlink="http://www.w3.org/1999/xlink" width="140" height="172.966" viewBox="0 0 140 172.966">
  <defs>
    <linearGradient id="linear-gradient" x1="1" y1="0.5" x2="0" y2="0.5" gradientUnits="objectBoundingBox">
      <stop offset="0" stop-color="#fff"/>
      <stop offset="1" stop-color="#fff"/>
    </linearGradient>
  </defs>
  <g id="Linkora_logo" transform="translate(-486.22 -282.56)">
    <g id="Group_183223" data-name="Group 183223" transform="translate(486.22 395.571)">
      <text id="LINKORA" transform="translate(0 35)" fill="#fff" font-size="32" font-family="Segoe UI" font-weight="700"><tspan x="0" y="0">LINKORA</tspan></text>
      <text id="منصة_لينكــــــــــــــــورا" data-name="منصة لينكــــــــــــــــورا" transform="translate(0 55.955)" fill="#fff" font-size="17" font-family="Segoe UI"><tspan x="0" y="0">منصة لينكــــــــــــــــورا</tspan></text>
    </g>
    <path id="Path_69676" data-name="Path 69676" d="M551.141,335.918,534.23,318.839a2.86,2.86,0,0,1-1.287.3,2.911,2.911,0,1,1,2.581-1.553l16.9,17.066-1.274,1.262Zm9.743-7.524-17.9-18.107a2.915,2.915,0,1,0-2.639,1.682,2.967,2.967,0,0,0,1.41-.362l17.862,18.062,6.78,6.709,1.262-1.274-6.773-6.7Zm21.387-22.254a2.918,2.918,0,0,0-2.918,2.918,2.87,2.87,0,0,0,.323,1.326l-17.1,17.1,1.268,1.268,17.1-17.1a2.952,2.952,0,0,0,1.326.323,2.918,2.918,0,0,0,0-5.835Zm8.074,6.722a2.912,2.912,0,0,0-2.517,4.386L562.578,342.5l1.268,1.268,25.321-25.321a2.856,2.856,0,0,0,1.171.246,2.918,2.918,0,0,0,0-5.835Zm-.453,42.826a2.87,2.87,0,0,0-1.326.323l-17.1-17.1-1.268,1.268,17.1,17.1a2.87,2.87,0,0,0-.323,1.326,2.918,2.918,0,1,0,2.918-2.918Zm-7.174,7.621a2.87,2.87,0,0,0-1.326.323l-24.719-24.719-1.268,1.268L580.123,364.9a2.953,2.953,0,0,0-.323,1.326,2.918,2.918,0,1,0,2.918-2.918Zm-23.127-30.3-1.268-1.268-23.6,23.6a2.92,2.92,0,1,0,1.262,1.268l23.6-23.6Zm.673,14.122-1.268-1.268-17.111,17.111a2.917,2.917,0,1,0,1.281,1.255l17.092-17.092Zm-10.28-9.38-1.572-.867H512.416a2.918,2.918,0,1,0,0,1.682h35.995Zm-6.055-7.433-1.346-1.346H524.164a1.9,1.9,0,1,0,0,1.346h19.763Zm-.666,14.8H518.575a2.335,2.335,0,1,0,0,1.346h22.668l2.018-1.346Zm30.936-6.547h35.995a2.918,2.918,0,1,0,0-1.682H574.2l-1.572.867Zm24.253-8.248a1.9,1.9,0,1,0,0-1.346H580.032l-1.346,1.346H598.45Zm-17.079,16.141h22.668a2.335,2.335,0,1,0,0-1.346H579.353Zm-19.466,2.465-.867,1.572v35.995a2.918,2.918,0,1,0,1.682,0V350.493l-.815-1.572Zm-7.433,6.055-1.346,1.346V374.74a1.9,1.9,0,1,0,1.346,0V354.977Zm14.8.673v24.687a2.335,2.335,0,1,0,1.346,0V357.668l-1.346-2.018Zm-6.547-31.389V288.266a2.918,2.918,0,1,0-1.682,0v35.995l.867,1.572.815-1.572Zm-8.248-24.253a1.9,1.9,0,1,0-1.346,0v18.418l1.346,1.346Zm16.141,17.079V294.418a2.335,2.335,0,1,0-1.346,0V319.1l1.346-2.018Z" transform="translate(-7.235)" fill-rule="evenodd" fill="url(#linear-gradient)"/>
  </g>
</svg>
