<svg xmlns="http://www.w3.org/2000/svg" xmlns:xlink="http://www.w3.org/1999/xlink" width="159.163" height="54.701" viewBox="0 0 159.163 54.701">
  <defs>
    <linearGradient id="linear-gradient" x1="1" y1="0.5" x2="0" y2="0.5" gradientUnits="objectBoundingBox">
      <stop offset="0" stop-color="#fff"/>
      <stop offset="1" stop-color="#d8d8d8"/>
    </linearGradient>
  </defs>
  <g id="Group_183711" data-name="Group 183711" transform="translate(-1037.922 -61.65)">
    <g id="Group_183223" data-name="Group 183223" transform="translate(1037.922 62.928)">
      <text id="LINKORA" transform="translate(0 23)" fill="#fff" font-size="21" font-family="Segoe UI" font-weight="700"><tspan x="0" y="0">LINKORA</tspan></text>
      <text id="منصة_لينكــــــــــــــــورا" data-name="منصة لينكــــــــــــــــورا" transform="translate(3.204 40.84)" fill="#fff" font-size="11" font-family="Segoe UI"><tspan x="0" y="0">منصة لينكــــــــــــــــورا</tspan></text>
    </g>
    <path id="Path_69676" data-name="Path 69676" d="M528.878,309.183l-8.437-8.521a1.427,1.427,0,0,1-.642.152,1.452,1.452,0,1,1,1.288-.775l8.431,8.515-.636.629Zm4.861-3.754-8.931-9.035a1.455,1.455,0,1,0-1.317.839,1.481,1.481,0,0,0,.7-.181l8.912,9.012,3.383,3.347.629-.636-3.379-3.344Zm10.671-11.1a1.456,1.456,0,0,0-1.456,1.456,1.432,1.432,0,0,0,.161.662l-8.531,8.531.633.633,8.531-8.531a1.473,1.473,0,0,0,.662.161,1.456,1.456,0,0,0,0-2.911Zm4.028,3.354a1.453,1.453,0,0,0-1.256,2.188l-12.6,12.6.633.633,12.633-12.633a1.425,1.425,0,0,0,.584.123,1.456,1.456,0,0,0,0-2.911Zm-.226,21.368a1.432,1.432,0,0,0-.662.161l-8.531-8.531-.633.633,8.531,8.531a1.432,1.432,0,0,0-.161.662,1.456,1.456,0,1,0,1.456-1.456Zm-3.58,3.8a1.432,1.432,0,0,0-.662.161l-12.333-12.333-.633.633,12.333,12.333a1.473,1.473,0,0,0-.161.662,1.456,1.456,0,1,0,1.456-1.456ZM533.094,307.73l-.633-.633-11.775,11.775a1.457,1.457,0,1,0,.629.633L533.09,307.73Zm.336,7.046-.633-.633-8.537,8.537a1.455,1.455,0,1,0,.639.626l8.528-8.528ZM528.3,310.1l-.784-.433H509.557a1.456,1.456,0,1,0,0,.839h17.959Zm-3.021-3.709-.671-.671h-9.189a.946.946,0,1,0,0,.671Zm-.332,7.382H512.63a1.165,1.165,0,1,0,0,.671h11.31l1.007-.671Zm15.435-3.267h17.959a1.456,1.456,0,1,0,0-.839H540.382l-.784.433Zm12.1-4.115a.946.946,0,1,0,0-.671h-9.189l-.671.671h9.861Zm-8.521,8.053h11.31a1.165,1.165,0,1,0,0-.671H542.955Zm-9.712,1.23-.432.784v17.959a1.456,1.456,0,1,0,.839,0V316.455Zm-3.709,3.021-.671.671v9.189a.946.946,0,1,0,.671,0Zm7.382.336v12.317a1.165,1.165,0,1,0,.671,0v-11.31Zm-3.267-15.661V285.407a1.456,1.456,0,1,0-.839,0v17.959l.432.784.407-.784Zm-4.115-12.1a.946.946,0,1,0-.671,0v9.189l.671.671Zm8.053,8.521v-11.31a1.165,1.165,0,1,0-.671,0v12.317Z" transform="translate(635.896 -220.91)" fill-rule="evenodd" fill="url(#linear-gradient)"/>
  </g>
</svg>
