<svg width="207" height="186" viewBox="0 0 207 186" fill="none" xmlns="http://www.w3.org/2000/svg">
<path d="M188.602 1.2122C188.302 1.98833 187.34 4.49583 186.438 6.88393C183.914 13.69 178.265 20.914 172.014 25.3917C170.572 26.4066 170.392 26.7648 170.993 27.5409C171.413 28.0186 172.195 28.3768 172.736 28.3171C175.08 27.9589 179.767 29.2126 181.751 30.7052C185.056 33.153 186.138 36.1978 186.138 42.9442C186.138 47.0039 186.378 48.795 186.919 48.9741C188.482 49.5711 189.143 48.7353 189.143 45.8696C189.143 42.168 191.006 36.1978 193.29 32.6754C195.694 28.8544 200.141 24.7946 203.988 22.8842C205.731 21.9886 207.113 20.914 206.993 20.6155C206.872 20.2573 205.009 19.5408 202.846 19.0035C195.333 17.2124 191.307 12.1377 191.186 4.37643C191.126 1.0331 190.946 0.137562 190.165 0.018158C189.564 -0.10125 188.963 0.376369 188.602 1.2122ZM194.251 17.6901C195.814 19.0035 197.857 20.317 198.819 20.4961C200.442 20.8543 201.343 21.9886 200.021 21.9886C198.819 21.9886 192.388 28.5559 190.645 31.4813C189.684 33.153 188.722 34.5261 188.542 34.5261C188.362 34.5261 187.701 33.5709 187.039 32.3768C185.537 29.6305 182.953 27.6604 179.527 26.7051C178.024 26.2872 176.762 25.929 176.642 25.8693C176.582 25.8096 178.085 24.0782 180.068 22.108C182.051 20.0782 184.816 16.5557 186.198 14.1676L188.782 9.92875L190.105 12.6154C190.886 14.0482 192.749 16.3766 194.251 17.6901Z" fill="#007AB1" fill-opacity="0.15"/>
<path d="M132.949 46.2278C127 47.0039 112.395 49.2726 100.495 51.3025C88.5956 53.2727 72.1282 56.019 63.8344 57.3921L48.8094 59.8996L48.6291 61.6907C48.4488 63.243 50.0715 84.0194 56.6825 165.871C57.5239 176.558 58.4855 185.513 58.7259 185.812C59.0264 186.11 64.7359 185.513 71.7676 184.439C78.619 183.484 98.2117 180.618 115.22 178.11C154.165 172.439 154.465 172.439 155.307 171.722C155.788 171.364 157.591 171.424 160.535 171.842C166.666 172.857 170.151 172.021 174.058 168.498C176.582 166.23 177.904 164.021 184.636 150.528C188.843 142.05 192.629 134.11 193.11 132.796C195.213 127.065 193.41 121.154 188.662 117.871C185.898 115.96 177.363 112.557 163.18 107.721L153.203 104.259L152.843 100.855C152.662 99.0047 151.641 86.4672 150.679 73.0342C149.657 59.5414 148.696 47.6606 148.515 46.586C148.215 44.7949 148.035 44.6755 145.991 44.7352C144.789 44.7949 138.899 45.4517 132.949 46.2278ZM147.614 72.7356C148.636 86.3478 149.597 98.7659 149.778 100.318C149.958 101.93 150.018 103.184 149.898 103.184C149.777 103.184 144.429 101.691 137.998 99.9002C124.175 95.9599 116.242 94.2882 113.597 94.6464C112.095 94.8852 111.614 94.7658 111.614 94.0494C111.614 93.5718 111.253 93.0345 110.893 92.915C109.751 92.4971 67.2 99.9002 66.4788 100.617C66.0581 101.035 66.1182 101.393 66.7192 101.87C67.2601 102.348 68.8227 102.288 72.5489 101.632C91.4204 98.348 109.03 95.4226 109.811 95.4226C110.292 95.4226 109.811 95.9599 108.729 96.6166C107.467 97.3927 106.145 99.1241 104.943 101.572L103.08 105.333L85.9512 108.856C76.5756 110.766 68.7025 112.617 68.5222 112.915C68.3419 113.214 68.5222 113.751 68.8828 114.109C69.604 114.826 70.1449 114.766 90.4587 110.527C96.1082 109.333 100.916 108.497 101.096 108.676C101.337 108.915 98.1516 117.632 96.8294 120.378C96.8294 120.438 90.8795 121.572 83.6073 122.945C76.3953 124.259 70.205 125.632 69.9045 125.93C69.5439 126.289 69.5439 126.707 70.0247 127.184C70.5656 127.722 73.4504 127.363 82.826 125.692C89.4971 124.438 95.0264 123.542 95.2066 123.662C95.3269 123.841 94.5456 126.468 93.4638 129.572L91.5406 135.244L81.1432 136.617C71.8878 137.811 70.7459 138.05 70.7459 139.065C70.7459 140.617 72.1282 140.498 88.9562 138.11C90.8794 137.811 91.1799 137.931 91.1799 139.005C91.1799 141.572 93.1632 145.095 95.8077 147.065L98.4521 149.095L95.5673 149.453C82.2851 151.125 73.4504 152.797 72.4287 153.811C72.1282 154.11 72.2484 154.588 72.7292 155.006C73.3302 155.483 74.9529 155.364 79.22 154.528C85.7108 153.214 98.0314 151.543 101.217 151.543C102.659 151.543 106.806 153.035 112.756 155.662C117.924 157.871 122.612 159.901 123.213 160.14C124.235 160.438 124.055 160.797 121.951 163.364C120.629 164.916 117.263 168.498 114.499 171.364L109.51 176.498L85.5906 179.961C72.4888 181.812 61.6107 183.245 61.4304 183.066C61.0698 182.707 59.4471 164.08 55.3603 112.736L52.5356 77.2133L53.9179 74.8252C55.0598 72.8551 62.6925 60.9146 63.2334 60.3176C63.5339 59.9594 116.182 51.1234 126.338 49.7502C142.806 47.4816 144.909 47.2427 145.39 47.601C145.57 47.7801 146.592 59.1235 147.614 72.7356ZM57.0431 66.1087C55.18 69.0341 53.3169 71.9595 52.8962 72.5565C52.2952 73.5118 52.175 73.3327 52.175 71.3028C52.1149 69.6908 52.776 67.9595 54.3386 65.3326C56.8027 61.2131 57.2835 60.7952 59.1466 60.7952C60.3486 60.7952 60.1683 61.2728 57.0431 66.1087ZM53.0164 63.7206C51.8745 66.049 51.5139 66.049 51.5139 63.84C51.5139 62.646 51.8745 61.9892 52.5957 61.8698C54.0982 61.5116 54.0982 61.6907 53.0164 63.7206ZM128.081 99.8405C146.111 104.557 173.217 113.393 182.833 117.751C186.619 119.483 190.345 122.647 190.345 124.08C190.345 125.692 174.178 132.796 164.502 135.423C158.432 137.095 148.816 139.005 146.352 139.005C145.21 139.005 145.21 138.946 146.412 137.453C147.794 135.722 148.095 132.498 146.953 131.363C145.691 130.11 142.265 130.528 140.101 132.14C139.02 132.975 137.998 133.632 137.878 133.632C137.697 133.632 137.277 132.319 136.856 130.647C136.015 127.125 135.173 126.348 132.529 126.587C130.966 126.707 130.305 127.184 129.524 128.736L128.562 130.766L126.639 128.139C120.389 119.662 111.434 100.676 112.455 98.0495C112.996 96.6166 117.504 97.0942 128.081 99.8405ZM111.193 104.915C113.056 110.109 117.203 118.945 119.667 122.766C120.509 124.139 121.23 125.453 121.23 125.751C121.23 125.99 119.126 126.945 116.602 127.901C111.073 129.931 102.419 134.169 97.9112 136.975C94.3051 139.304 94.185 139.304 94.185 138.11C94.185 134.468 107.707 100.199 109.15 100.199C109.33 100.199 110.292 102.348 111.193 104.915ZM190.766 130.169C190.525 131.722 187.4 138.766 182.592 148.259C174.779 163.782 172.075 168.259 171.534 166.468C171.414 165.991 170.572 162.707 169.731 159.185C168.829 155.662 166.906 149.692 165.343 145.871C163.841 142.05 162.639 138.886 162.759 138.766C162.879 138.707 166.545 137.513 170.813 136.08C175.14 134.707 181.21 132.259 184.335 130.707C187.46 129.095 190.285 127.781 190.585 127.722C190.886 127.722 190.946 128.796 190.766 130.169ZM126.098 132.08C128.081 134.766 128.983 136.617 129.223 138.587C129.464 140.14 130.005 142.349 130.545 143.543C131.387 145.632 131.567 145.692 133.671 145.393C134.873 145.155 137.277 144.319 139.02 143.483C141.063 142.468 143.948 141.752 147.193 141.393C149.958 141.095 153.684 140.558 155.427 140.199C157.23 139.901 158.853 139.602 159.093 139.602C160.956 139.602 169.49 165.931 168.469 168.558C167.988 169.871 160.896 169.692 155.487 168.259C144.008 165.095 130.786 160.498 119.247 155.662C103.26 148.856 95.387 144.438 95.387 142.289C95.387 141.513 106.205 135.005 110.712 133.035C114.138 131.483 122.612 128.319 123.033 128.319C123.213 128.319 124.596 130.05 126.098 132.08ZM129.223 162.468L130.966 163.185L127.721 166.827C121.891 173.274 119.727 174.946 116.542 175.304C113.838 175.603 113.778 175.543 114.619 174.468C117.263 171.065 126.278 161.692 126.879 161.692C127.24 161.752 128.322 162.05 129.223 162.468ZM135.714 164.797C137.036 165.155 138.058 165.633 138.058 165.812C138.058 165.991 136.435 167.842 134.452 169.871C131.687 172.857 130.545 173.633 129.163 173.633C128.202 173.633 126.459 173.812 125.377 174.051C123.394 174.409 123.454 174.349 128.141 169.274C130.786 166.409 133.01 164.08 133.13 164.08C133.31 164.08 134.452 164.379 135.714 164.797ZM143.647 167.662C143.948 167.901 143.407 168.976 142.445 169.991C141.183 171.424 140.041 171.961 137.818 172.26L134.813 172.618L137.517 169.513C139.741 166.946 140.402 166.468 141.664 166.767C142.505 167.006 143.407 167.364 143.647 167.662ZM151.28 170.11C151.28 170.409 150.499 170.648 149.537 170.648C148.575 170.648 146.893 170.827 145.811 171.006L143.767 171.424L145.15 169.931C146.412 168.558 146.772 168.439 148.936 168.976C150.198 169.334 151.28 169.812 151.28 170.11Z" fill="#007AB1" fill-opacity="0.15"/>
<path d="M10.165 81.8103C9.7443 82.2282 9.4438 83.2431 9.4438 84.1387C9.4438 88.1984 5.8979 94.0493 2.1717 96.1388C-1.0136 97.9896 -0.713103 99.1837 3.1934 99.6613C4.8161 99.9001 6.7994 100.378 7.4605 100.855C9.1433 101.87 11.0665 105.333 11.5473 108.258C12.2084 112.199 12.4488 112.736 13.6508 112.736C14.8528 112.736 15.0331 112.258 15.7543 107.661C16.5356 102.348 17.978 99.3628 21.2835 96.1388C24.6491 92.9149 24.8895 91.8403 22.3052 91.8403C18.3386 91.8403 14.7927 88.9149 13.17 84.3775C12.0281 81.273 11.3069 80.6759 10.165 81.8103ZM16.3553 92.7955C17.377 93.3925 18.2184 93.9299 18.3386 93.9896C18.4588 94.0493 17.6775 95.3627 16.7159 96.915C15.6942 98.5269 14.5523 100.736 14.1917 101.811L13.5306 103.9L12.4488 102.109C11.367 100.318 8.8428 98.3478 6.7994 97.6314C5.8378 97.2135 5.8979 96.9747 7.761 94.9448C8.8428 93.7507 10.165 91.8403 10.5857 90.7656L11.4271 88.7955L12.9897 90.2283C13.8311 91.0641 15.3937 92.1985 16.3553 92.7955Z" fill="#007AB1" fill-opacity="0.15"/>
</svg>
