<svg xmlns="http://www.w3.org/2000/svg" xmlns:xlink="http://www.w3.org/1999/xlink" width="128" height="128" viewBox="0 0 128 128">
  <defs>
    <filter id="Ellipse_8222" x="0" y="0" width="128" height="128" filterUnits="userSpaceOnUse">
      <feOffset dy="3" input="SourceAlpha"/>
      <feGaussianBlur stdDeviation="10" result="blur"/>
      <feFlood flood-color="#07b547" flood-opacity="0.322"/>
      <feComposite operator="in" in2="blur"/>
      <feComposite in="SourceGraphic"/>
    </filter>
  </defs>
  <g id="Group_176851" data-name="Group 176851" transform="translate(-1208 -612)">
    <g transform="matrix(1, 0, 0, 1, 1208, 612)" filter="url(#Ellipse_8222)">
      <circle id="Ellipse_8222-2" data-name="Ellipse 8222" cx="34" cy="34" r="34" transform="translate(30 27)" fill="#07b547"/>
    </g>
    <g id="vuesax_broken_whatsapp" data-name="vuesax/broken/whatsapp" transform="translate(1254.105 655.105)">
      <g id="whatsapp">
        <path id="BG_151" data-name="BG 151" d="M0,0H35.789V35.789H0Z" fill="none" opacity="0.58"/>
        <path id="Vector" d="M14.912,0A14.912,14.912,0,1,1,7.367,27.781L0,29.824l2-7.456A14.911,14.911,0,0,1,7.456,2" transform="translate(2.982 2.982)" fill="none" stroke="#fff" stroke-linecap="round" stroke-linejoin="round" stroke-width="2.5"/>
        <path id="Vector-2" data-name="Vector" d="M14.912,12.213a1.836,1.836,0,0,1-.194.82,3.558,3.558,0,0,1-.507.761,3.4,3.4,0,0,1-1.223.88,3.649,3.649,0,0,1-1.461.283A6.073,6.073,0,0,1,9.1,14.405a13.658,13.658,0,0,1-2.565-1.476,21.548,21.548,0,0,1-2.446-2.088A21.325,21.325,0,0,1,2,8.4,13.119,13.119,0,0,1,.537,5.846,6.314,6.314,0,0,1,0,3.4,3.9,3.9,0,0,1,.268,1.953,3.33,3.33,0,0,1,1.133.7,2.155,2.155,0,0,1,2.684,0,1.459,1.459,0,0,1,3.3.134,1.235,1.235,0,0,1,3.8.552L5.532,3a2.406,2.406,0,0,1,.3.522,1.089,1.089,0,0,1,.1.462,1.069,1.069,0,0,1-.164.537,2.624,2.624,0,0,1-.417.537l-.567.6a.383.383,0,0,0-.119.3.748.748,0,0,0,.03.179,1.028,1.028,0,0,1,.06.149,5.977,5.977,0,0,0,.7.954c.343.388.7.79,1.089,1.178s.79.761,1.193,1.1a5.726,5.726,0,0,0,.969.686c.045.015.089.045.134.06a.489.489,0,0,0,.507-.1l.567-.567a2.4,2.4,0,0,1,.537-.418,1.027,1.027,0,0,1,.537-.164,1.089,1.089,0,0,1,.462.1,2.715,2.715,0,0,1,.522.3l2.475,1.76a1.259,1.259,0,0,1,.417.477C14.867,11.825,14.912,12,14.912,12.213Z" transform="translate(10.438 10.409)" fill="none" stroke="#fff" stroke-width="2.5"/>
        <path id="Vector-3" data-name="Vector" d="M0,0H35.789V35.789H0Z" fill="none" opacity="0"/>
      </g>
    </g>
  </g>
</svg>
