<svg id="messages" xmlns="http://www.w3.org/2000/svg" width="22" height="22" viewBox="0 0 22 22">
  <path id="Vector" d="M0,4.391C0,1.705,1.238.248,3.7.037A5.56,5.56,0,0,1,4.391,0h5.867q4.386,0,4.391,4.391V8.058a5.56,5.56,0,0,1-.037.688c-.211,2.475-1.668,3.7-4.354,3.7H9.891a.738.738,0,0,0-.587.293L8.2,14.208a1.037,1.037,0,0,1-1.76,0l-1.1-1.467a.847.847,0,0,0-.587-.293H4.391C1.467,12.448,0,11.724,0,8.058" transform="translate(1.833 5.5)" fill="none" stroke="#006838" stroke-linecap="round" stroke-linejoin="round" stroke-width="1.5"/>
  <path id="Vector-2" data-name="Vector" d="M14.612,4.391Q14.612,0,10.221,0H4.354C1.668,0,.211,1.238,0,3.7a5.559,5.559,0,0,1,.688-.037H6.554q4.386,0,4.391,4.391v3.667a5.56,5.56,0,0,1-.037.688q3.7-.316,3.7-4.354" transform="translate(5.537 1.833)" fill="none" stroke="#006838" stroke-linecap="round" stroke-linejoin="round" stroke-width="1.5"/>
  <path id="Vector-3" data-name="Vector" d="M0,0H22V22H0Z" fill="none" opacity="0"/>
  <path id="Vector-4" data-name="Vector" d="M.5.5H.5" transform="translate(11.875 11.646)" fill="none" stroke="#006838" stroke-linecap="round" stroke-linejoin="round" stroke-width="2"/>
  <path id="Vector-5" data-name="Vector" d="M.5.5H.5" transform="translate(8.667 11.646)" fill="none" stroke="#006838" stroke-linecap="round" stroke-linejoin="round" stroke-width="2"/>
  <path id="Vector-6" data-name="Vector" d="M.5.5H.5" transform="translate(5.459 11.646)" fill="none" stroke="#006838" stroke-linecap="round" stroke-linejoin="round" stroke-width="2"/>
</svg>
