<svg width="217" height="217" viewBox="0 0 217 217" fill="none" xmlns="http://www.w3.org/2000/svg">
<path d="M190.661 66.5626C190.779 65.8644 190.742 65.1489 190.553 64.4666C190.364 63.7844 190.027 63.1519 189.567 62.6139C189.107 62.0758 188.534 61.6453 187.889 61.3528C187.244 61.0602 186.543 60.9127 185.835 60.9206C185.569 60.9215 185.303 60.9448 185.041 60.99C184.48 60.0539 183.658 59.3026 182.675 58.8288C181.692 58.3551 180.592 58.1796 179.51 58.3241C178.428 58.4685 177.413 58.9267 176.589 59.6419C175.765 60.3571 175.168 61.298 174.873 62.3484C174.524 62.2417 174.161 62.1876 173.796 62.1879C172.834 62.1879 171.911 62.5701 171.231 63.2505C170.55 63.931 170.168 64.8538 170.168 65.8161C170.169 66.0729 170.197 66.3289 170.25 66.5799L190.661 66.5626Z" fill="#F0F0F0"/>
<path d="M62.9292 47.2452C63.0012 46.8149 63.0389 46.3795 63.042 45.9432C63.042 43.7114 62.1554 41.5709 60.5772 39.9927C58.9991 38.4146 56.8586 37.528 54.6268 37.528C54.1699 37.531 53.7142 37.5717 53.264 37.6495C52.3015 36.0414 50.8891 34.7504 49.2013 33.9358C47.5134 33.1212 45.624 32.8187 43.7662 33.0657C41.9084 33.3126 40.1635 34.0982 38.7471 35.3254C37.3306 36.5526 36.3045 38.1677 35.7955 39.9714C34.7546 39.6452 33.6462 39.5981 32.5814 39.8348C31.5166 40.0715 30.5326 40.5838 29.7279 41.3203C28.9233 42.0569 28.3262 42.9918 27.9965 44.0316C27.6667 45.0714 27.6158 46.1796 27.849 47.2452H62.9292Z" fill="#F0F0F0"/>
<path d="M217 165.962H0V166.07H217V165.962Z" fill="#EBEBEB"/>
<path d="M195.257 172.945H180.883V173.053H195.257V172.945Z" fill="#EBEBEB"/>
<path d="M143.75 174.125H139.979V174.234H143.75V174.125Z" fill="#EBEBEB"/>
<path d="M180.448 168.917H172.119V169.026H180.448V168.917Z" fill="#EBEBEB"/>
<path d="M41.512 169.646H22.7676V169.755H41.512V169.646Z" fill="#EBEBEB"/>
<path d="M48.1261 169.646H45.3789V169.755H48.1261V169.646Z" fill="#EBEBEB"/>
<path d="M97.7157 171.478H57.0586V171.586H97.7157V171.478Z" fill="#EBEBEB"/>
<path d="M102.859 146.605H19.0578C18.4013 146.604 17.7721 146.342 17.3083 145.878C16.8445 145.413 16.584 144.784 16.584 144.127V26.3264C16.5897 25.6737 16.8527 25.0496 17.3159 24.5897C17.7791 24.1297 18.405 23.8711 19.0578 23.87H102.859C103.516 23.87 104.146 24.1311 104.611 24.5958C105.076 25.0606 105.337 25.6909 105.337 26.3481V144.127C105.337 144.784 105.076 145.415 104.611 145.879C104.146 146.344 103.516 146.605 102.859 146.605ZM19.0578 23.9568C18.4301 23.9579 17.8285 24.2081 17.385 24.6524C16.9415 25.0966 16.6925 25.6987 16.6925 26.3264V144.127C16.6925 144.755 16.9415 145.357 17.385 145.801C17.8285 146.245 18.4301 146.496 19.0578 146.497H102.859C103.487 146.496 104.089 146.246 104.533 145.801C104.977 145.357 105.227 144.755 105.228 144.127V26.3264C105.227 25.6983 104.977 25.0963 104.533 24.6521C104.089 24.208 103.487 23.9579 102.859 23.9568H19.0578Z" fill="#EBEBEB"/>
<path d="M196.737 146.605H112.931C112.274 146.604 111.645 146.343 111.18 145.878C110.716 145.414 110.454 144.784 110.453 144.127V26.3264C110.46 25.6733 110.724 25.0492 111.188 24.5894C111.652 24.1296 112.278 23.8711 112.931 23.87H196.737C197.389 23.8723 198.013 24.1314 198.476 24.5912C198.938 25.051 199.2 25.6745 199.206 26.3264V144.127C199.206 144.783 198.946 145.412 198.483 145.876C198.021 146.341 197.392 146.603 196.737 146.605ZM112.931 23.9568C112.303 23.9579 111.701 24.208 111.257 24.6521C110.813 25.0963 110.563 25.6983 110.562 26.3264V144.127C110.563 144.755 110.813 145.357 111.257 145.801C111.701 146.246 112.303 146.496 112.931 146.497H196.737C197.365 146.496 197.967 146.246 198.411 145.801C198.855 145.357 199.105 144.755 199.106 144.127V26.3264C199.105 25.6983 198.855 25.0963 198.411 24.6521C197.967 24.208 197.365 23.9579 196.737 23.9568H112.931Z" fill="#EBEBEB"/>
<path d="M16.4531 153.402V124.549H30.3498V116.659H37.003V93.4706L45.5962 84.8774H63.043V109.724H86.9781V114.632H103.9V108.183H122.08V103.322H136.276V74.5395H161.409V92.8803H167.194V99.5249H180.644V110.423H187.831L193.36 115.952V121.576H198.868V153.402H16.4531Z" fill="#F0F0F0"/>
<path d="M33.3791 124.549H30.5885L30.3498 124.384V124.549H16.4531V153.402H33.3791V124.549Z" fill="#E6E6E6"/>
<path d="M104.143 110.284V114.632H103.458L102.729 119.285L104.79 153.402H127.718V108.183H122.324H104.469L104.143 110.284Z" fill="#E6E6E6"/>
<path d="M157.52 99.5249V153.402H199.105V121.576H193.598V115.952L188.069 110.423H180.882V99.5249H168.673H167.432H157.52Z" fill="#E6E6E6"/>
<path d="M188.095 113.348H185.582V115.861H188.095V113.348Z" fill="white"/>
<path d="M183.655 113.348H181.143V115.861H183.655V113.348Z" fill="white"/>
<path d="M188.095 118.031H185.582V120.544H188.095V118.031Z" fill="white"/>
<path d="M183.655 118.031H181.143V120.544H183.655V118.031Z" fill="white"/>
<path d="M174.372 101.552H171.859V104.065H174.372V101.552Z" fill="white"/>
<path d="M169.933 101.552H167.42V104.065H169.933V101.552Z" fill="white"/>
<path d="M30.4621 128.616H27.9492V131.129H30.4621V128.616Z" fill="white"/>
<path d="M26.0226 128.616H23.5098V131.129H26.0226V128.616Z" fill="white"/>
<path d="M124.822 118.083V115.57H122.309V118.083H124.822Z" fill="white"/>
<path d="M124.822 113.643V111.13H122.309V113.643H124.822Z" fill="white"/>
<path d="M107.658 185.561C154.132 185.561 191.806 183.361 191.806 180.648C191.806 177.935 154.132 175.735 107.658 175.735C61.1842 175.735 23.5098 177.935 23.5098 180.648C23.5098 183.361 61.1842 185.561 107.658 185.561Z" fill="#F5F5F5"/>
<path d="M192.493 159.252H168.783V178.86H192.493V159.252Z" fill="#007AB1"/>
<path opacity="0.3" d="M192.493 159.252H168.783V178.86H192.493V159.252Z" fill="white"/>
<path d="M174.629 159.252H156.254V178.86H174.629V159.252Z" fill="#007AB1"/>
<path opacity="0.1" d="M174.629 159.252H156.254V178.86H174.629V159.252Z" fill="white"/>
<path opacity="0.3" d="M168.041 159.252H162.842V165.354H168.041V159.252Z" fill="white"/>
<path opacity="0.1" d="M187.442 159.252H182.242V165.354H187.442V159.252Z" fill="black"/>
<path d="M182.523 170.792H181.837C181.826 170.593 181.826 170.393 181.837 170.193C181.837 169.881 182.076 169.277 182.51 169.551C182.645 169.633 182.801 169.442 182.666 169.36C182.569 169.301 182.459 169.268 182.345 169.262C182.232 169.257 182.119 169.28 182.017 169.329C181.914 169.378 181.826 169.452 181.759 169.543C181.692 169.635 181.649 169.742 181.633 169.855C181.575 170.161 181.561 170.473 181.59 170.783H181.195C181.039 170.783 180.995 171.022 181.156 171.026H181.59C181.59 171.408 181.59 171.79 181.59 172.172C181.59 172.333 181.837 172.302 181.837 172.146C181.837 171.773 181.837 171.404 181.837 171.031H182.48C182.64 171.039 182.684 170.796 182.523 170.792Z" fill="white"/>
<path d="M183.662 170.254C183.645 170.25 183.627 170.25 183.61 170.254C182.486 170.171 182.664 172.012 183.74 171.99C183.97 171.957 184.179 171.839 184.328 171.661C184.476 171.482 184.553 171.254 184.543 171.022C184.546 170.91 184.525 170.799 184.48 170.697C184.436 170.594 184.369 170.503 184.284 170.429C184.2 170.356 184.1 170.302 183.993 170.272C183.885 170.241 183.772 170.235 183.662 170.254ZM183.831 171.725C183.02 171.938 182.759 170.423 183.592 170.514C183.618 170.521 183.645 170.521 183.671 170.514C184.452 170.397 184.452 171.56 183.831 171.725Z" fill="white"/>
<path d="M186.343 170.71C186.009 169.625 184.325 170.514 184.807 171.504C184.93 171.698 185.119 171.84 185.339 171.905C185.56 171.97 185.796 171.952 186.005 171.855C186.109 171.815 186.203 171.752 186.28 171.671C186.357 171.59 186.415 171.493 186.45 171.386C186.485 171.28 186.496 171.167 186.482 171.056C186.468 170.945 186.429 170.839 186.369 170.744L186.343 170.71ZM185.002 171.33C184.772 170.67 185.87 170.028 186.113 170.809C186.116 170.823 186.121 170.836 186.13 170.847C186.138 170.858 186.149 170.868 186.161 170.874C186.586 171.634 185.236 172.016 185.002 171.33Z" fill="white"/>
<path d="M188.227 171.907C188.153 170.909 188.084 169.911 188.01 168.917C188.01 168.757 187.754 168.787 187.763 168.943L187.854 170.202C187.722 170.159 187.583 170.147 187.446 170.167C187.309 170.186 187.178 170.237 187.064 170.315C186.949 170.393 186.854 170.496 186.786 170.616C186.718 170.737 186.678 170.871 186.669 171.009C186.634 171.682 187.416 171.912 187.971 171.838V171.933C187.993 172.09 188.24 172.064 188.227 171.907ZM186.925 171.118C186.918 171.009 186.937 170.9 186.982 170.801C187.026 170.702 187.094 170.615 187.179 170.548C187.265 170.481 187.365 170.435 187.472 170.416C187.579 170.396 187.689 170.403 187.793 170.436C187.817 170.443 187.843 170.443 187.867 170.436C187.897 170.818 187.923 171.2 187.954 171.586C187.576 171.638 186.982 171.56 186.916 171.118H186.925Z" fill="white"/>
<path d="M108.487 41.4514H49.9182C46.3228 41.4514 43.4082 44.366 43.4082 47.9614V170.15C43.4082 173.745 46.3228 176.66 49.9182 176.66H108.487C112.082 176.66 114.997 173.745 114.997 170.15V47.9614C114.997 44.366 112.082 41.4514 108.487 41.4514Z" fill="#263238"/>
<path d="M110.37 50.4655H48.0391V159.209H110.37V50.4655Z" fill="#007AB1"/>
<path opacity="0.3" d="M110.37 148.428H48.0391V159.204H110.37V148.428Z" fill="white"/>
<path opacity="0.1" d="M110.37 95.2109C94.5248 110.969 65.1821 140.447 48.0391 157.707V159.226H82.8676L110.37 131.728V95.2109Z" fill="white"/>
<path opacity="0.1" d="M48.0391 105.15L102.723 50.4655H77.1518C70.3814 57.1839 58.8153 68.7717 48.0391 79.5869V105.15Z" fill="white"/>
<path opacity="0.1" d="M48.0391 128.008L110.37 65.6772V52.3404L48.0391 114.667V128.008Z" fill="white"/>
<path opacity="0.2" d="M110.37 50.4655H48.0391V55.3697H110.37V50.4655Z" fill="black"/>
<path d="M79.8915 170.862C82.2077 170.486 83.7806 168.303 83.4046 165.987C83.0287 163.671 80.8462 162.098 78.5299 162.474C76.2136 162.85 74.6407 165.032 75.0167 167.349C75.3927 169.665 77.5752 171.238 79.8915 170.862Z" fill="#007AB1"/>
<g opacity="0.6">
<path opacity="0.6" d="M54.7789 54.0417H55.7207V52.7831H54.7789V54.0417Z" fill="white"/>
<path opacity="0.6" d="M53.2438 54.0417H54.1855V52.3665H53.2438V54.0417Z" fill="white"/>
<path opacity="0.6" d="M51.7067 54.0417H52.6484V51.9455H51.7067V54.0417Z" fill="white"/>
<path opacity="0.6" d="M50.1695 54.0417H51.1113V51.5245H50.1695V54.0417Z" fill="white"/>
</g>
<path opacity="0.6" d="M103.755 52.3231H103.195V53.5817H103.755V52.3231Z" fill="white"/>
<path opacity="0.6" d="M104.142 54.0417H108.6V51.8673H104.142V54.0417Z" fill="white"/>
<path opacity="0.4" d="M82.3083 115.444C80.8805 114.142 79.2052 115.878 79.2052 115.878C79.2052 115.878 77.5343 114.142 76.1021 115.422C74.0623 117.249 77.0266 120.517 79.2052 121.173C81.3839 120.535 84.3481 117.267 82.3083 115.444Z" fill="white"/>
<path d="M97.055 124.558H61.3541C60.2744 124.558 59.239 124.987 58.4755 125.75C57.7121 126.514 57.2832 127.549 57.2832 128.629C57.2832 129.709 57.7121 130.744 58.4755 131.508C59.239 132.271 60.2744 132.7 61.3541 132.7H97.055C98.1346 132.7 99.1701 132.271 99.9335 131.508C100.697 130.744 101.126 129.709 101.126 128.629C101.126 127.549 100.697 126.514 99.9335 125.75C99.1701 124.987 98.1346 124.558 97.055 124.558Z" fill="white"/>
<path d="M67.4297 130.795V126.476H69.0051C69.3204 126.471 69.6335 126.53 69.9252 126.65C70.1754 126.754 70.4003 126.911 70.5849 127.11C70.7627 127.309 70.8973 127.542 70.9798 127.796C71.1706 128.359 71.1706 128.969 70.9798 129.532C70.8859 129.787 70.7378 130.02 70.5458 130.213C70.3558 130.401 70.13 130.548 69.8818 130.647C69.605 130.754 69.3104 130.807 69.0138 130.803L67.4297 130.795ZM70.255 128.625C70.2554 128.432 70.2276 128.241 70.1726 128.056C70.1198 127.896 70.0357 127.749 69.9252 127.622C69.8147 127.496 69.6766 127.396 69.5216 127.331C69.3516 127.259 69.1682 127.223 68.9834 127.227H68.2586V130.07H69.0051C69.1931 130.074 69.3796 130.037 69.5519 129.961C69.704 129.892 69.8389 129.789 69.9469 129.662C70.0578 129.527 70.1418 129.373 70.1943 129.206C70.2432 129.018 70.2637 128.823 70.255 128.629V128.625Z" fill="#E0E0E0"/>
<path d="M73.5674 130.825C73.2676 130.83 72.9706 130.766 72.6994 130.638C72.4499 130.519 72.227 130.351 72.044 130.144C71.6748 129.729 71.4696 129.193 71.4668 128.638C71.4656 128.353 71.5201 128.072 71.6274 127.809C71.7277 127.551 71.8748 127.314 72.0614 127.11C72.2497 126.906 72.477 126.742 72.7298 126.628C72.992 126.507 73.2783 126.446 73.5674 126.45C73.8607 126.445 74.1509 126.511 74.4137 126.641C74.6693 126.768 74.8966 126.945 75.082 127.162C75.2687 127.369 75.4158 127.609 75.516 127.869C75.6172 128.123 75.6688 128.395 75.6679 128.668C75.6694 128.95 75.6163 129.23 75.5117 129.493C75.4106 129.749 75.2635 129.984 75.0777 130.187C74.8916 130.39 74.6655 130.553 74.4137 130.664C74.1474 130.781 73.858 130.836 73.5674 130.825ZM72.3261 128.655C72.3265 128.838 72.3558 129.019 72.4129 129.193C72.4666 129.361 72.5488 129.518 72.656 129.658C72.7646 129.788 72.8971 129.897 73.0466 129.979C73.2109 130.061 73.3924 130.102 73.5761 130.1C73.7616 130.103 73.945 130.06 74.1099 129.974C74.2616 129.893 74.3947 129.78 74.5005 129.645C74.6063 129.505 74.687 129.348 74.7392 129.18C74.7944 129.011 74.8222 128.833 74.8216 128.655C74.8217 128.471 74.7924 128.288 74.7348 128.112C74.6815 127.944 74.5976 127.786 74.4875 127.648C74.3819 127.515 74.2486 127.407 74.0969 127.331C73.9314 127.253 73.7506 127.212 73.5674 127.212C73.3842 127.212 73.2033 127.253 73.0379 127.331C72.8864 127.413 72.7535 127.526 72.6473 127.661C72.5424 127.8 72.4617 127.955 72.4086 128.121C72.3564 128.288 72.3287 128.462 72.3261 128.638V128.655Z" fill="#E0E0E0"/>
<path d="M77.1302 128.03V130.795H76.2969V126.476H76.9435L79.17 129.31V126.485H80.0032V130.795H79.3305L77.1302 128.03Z" fill="#E0E0E0"/>
<path d="M82.113 126.476H82.8464L84.4739 130.795H83.6059L83.2066 129.718H81.7137L81.3231 130.795H80.4551L82.113 126.476ZM83.0721 129.128L82.4819 127.431L81.8656 129.128H83.0721Z" fill="#E0E0E0"/>
<path d="M87.7196 127.214H86.3655V130.795H85.5409V127.214H84.1738V126.476H87.7326L87.7196 127.214Z" fill="#E0E0E0"/>
<path d="M91.2229 130.057V130.795H88.25V126.476H91.1665V127.214H89.0833V128.251H90.8844V128.933H89.0833V130.057H91.2229Z" fill="#E0E0E0"/>
<path opacity="0.3" d="M115 80.0253L101.924 81.8871L105.339 106.182L115 105.202V80.0253Z" fill="#263238"/>
<path opacity="0.7" d="M79.8079 110.418C93.1012 110.418 103.878 99.642 103.878 86.3487C103.878 73.0554 93.1012 62.279 79.8079 62.279C66.5146 62.279 55.7383 73.0554 55.7383 86.3487C55.7383 99.642 66.5146 110.418 79.8079 110.418Z" fill="white"/>
<path d="M88.4399 71.6317C88.4399 71.6317 93.3571 78.9056 96.1173 79.2007C98.8776 79.4958 109.675 70.2082 109.675 70.2082L111.507 71.7923C111.507 71.7923 101.234 83.0763 96.9463 83.736C92.6583 84.3956 84.5078 75.8979 84.5078 75.8979L88.4399 71.6317Z" fill="#E4897B"/>
<path d="M87.2685 72.1742C87.2685 72.1742 89.0045 70.4729 91.3915 73.4285C93.7785 76.384 94.7594 76.9873 94.7594 76.9873L88.6834 82.92C88.6834 82.92 85.1115 73.754 87.2685 72.1742Z" fill="#007AB1"/>
<path d="M108.821 69.5355C108.821 69.5355 109.033 66.8056 109.667 66.632C110.301 66.4584 110.075 68.4765 110.075 68.4765C110.075 68.4765 113.417 66.4367 114.089 66.619C114.762 66.8013 114.654 68.1206 114.523 68.4765C113.504 71.5145 109.858 72.7731 109.858 72.7731L108.387 71.3843L108.821 69.5355Z" fill="#E4897B"/>
<path d="M83.7623 64.4099C83.7623 64.4099 87.1171 69.9999 86.0886 73.5239C85.06 77.048 79.7695 73.8798 79.7695 73.8798L79.8346 66.9358L83.7623 64.4099Z" fill="#263238"/>
<path d="M74.7644 54.7751C74.7644 54.7751 69.8038 57.288 71.7524 66.1286C75.0161 80.9497 79.8335 74.8086 79.8335 74.8086C79.8335 74.8086 79.6208 68.9669 77.6635 66.1286C75.7062 63.2902 76.1141 59.241 76.1141 59.241L74.7644 54.7751Z" fill="#263238"/>
<path d="M89.1509 93.9306L74.2777 95.2326C74.1335 91.546 73.6026 87.8846 72.6936 84.3088C72.3377 82.8853 71.895 81.2925 71.3221 79.4567C71.014 78.4715 70.6755 77.4169 70.2979 76.2842C70.0158 75.4162 69.7077 74.5091 69.3691 73.5413C71.3894 72.8954 73.4533 72.3951 75.545 72.044C77.7501 71.6491 79.9809 71.4141 82.2199 71.3409C85.1147 71.3149 88.4391 71.6404 88.4391 71.6404C88.4391 71.6404 88.9122 71.7532 89.2116 74.8216C89.4807 77.686 89.7454 83.4539 89.1509 93.9306Z" fill="#007AB1"/>
<path opacity="0.2" d="M89.1509 93.9306L74.2777 95.2326C74.1335 91.546 73.6026 87.8846 72.6936 84.3088C72.3377 82.8853 71.895 81.2925 71.3221 79.4567C71.014 78.4715 70.6755 77.4169 70.2979 76.2842C70.0158 75.4162 69.7077 74.5091 69.3691 73.5413C71.3894 72.8954 73.4533 72.3951 75.545 72.044C77.7501 71.6491 79.9809 71.4141 82.2199 71.3409C85.1147 71.3149 88.4391 71.6404 88.4391 71.6404C88.4391 71.6404 88.9122 71.7532 89.2116 74.8216C89.4807 77.686 89.7454 83.4539 89.1509 93.9306Z" fill="white"/>
<path opacity="0.2" d="M74.2131 94.0999C76.5958 93.1711 84.4512 89.3259 84.4512 89.3259L74.0352 91.6782C74.0829 92.4681 74.148 93.2666 74.2131 94.0999Z" fill="black"/>
<path d="M80.9967 74.6133C77.3294 74.1446 76.2227 72.5822 76.2227 72.5822C78.5489 70.3861 76.6176 66.5843 76.6176 66.5843L81.027 67.4089C80.9261 68.0232 80.8696 68.644 80.8578 69.2664C80.8231 71.9442 82.0339 71.9702 82.0339 71.9702C82.8108 73.4198 80.9967 74.6133 80.9967 74.6133Z" fill="#E4897B"/>
<path opacity="0.2" d="M81.0325 67.4089C80.9316 68.0232 80.875 68.644 80.8632 69.2664C77.8816 69.2664 76.623 66.5843 76.623 66.5843L81.0325 67.4089Z" fill="black"/>
<path d="M79.0536 55.0573C82.8901 54.8446 83.7581 56.6848 84.2616 60.6211C84.8865 65.5427 84.0012 69.2708 79.149 68.4809C73.8239 67.6129 72.3309 59.1803 75.5338 55.9556C76.2846 55.1918 77.834 55.118 79.0536 55.0573Z" fill="#E4897B"/>
<path d="M81.7832 61.1202C82.1211 61.6759 82.5247 62.1889 82.9854 62.6479C82.8826 62.8128 82.7361 62.9459 82.5622 63.0325C82.3882 63.1191 82.1937 63.1557 82.0002 63.1383L81.7832 61.1202Z" fill="#DE5753"/>
<path d="M79.4608 60.6776C79.6229 60.5955 79.7539 60.463 79.834 60.3L79.17 60.6211C79.0733 60.6775 78.9963 60.7623 78.9497 60.8641C78.903 60.9659 78.8891 61.0796 78.9096 61.1897C78.9313 61.5065 79.1223 61.7452 79.3436 61.7322C79.565 61.7192 79.7038 61.4457 79.6821 61.1333C79.6715 60.9581 79.5919 60.7942 79.4608 60.6776Z" fill="#263238"/>
<path d="M83.1843 60.326C83.3464 60.2439 83.4774 60.1114 83.5575 59.9484L82.8979 60.2696C82.8008 60.3269 82.7235 60.4125 82.6762 60.5148C82.629 60.6171 82.6139 60.7314 82.6331 60.8425C82.6592 61.1593 82.8501 61.398 83.0671 61.3806C83.2841 61.3633 83.4273 61.0985 83.4013 60.7817C83.3985 60.6949 83.3778 60.6096 83.3405 60.5311C83.3031 60.4527 83.25 60.3829 83.1843 60.326Z" fill="#263238"/>
<path d="M79.4561 58.9068C79.1508 58.8874 78.8451 58.9379 78.5623 59.0544C78.2795 59.171 78.0271 59.3506 77.8242 59.5795" stroke="#263238" stroke-width="0.707336" stroke-linecap="round" stroke-linejoin="round"/>
<path d="M81.7871 58.7506C82.0232 58.6174 82.2864 58.5393 82.5569 58.522C82.8274 58.5048 83.0984 58.5488 83.3495 58.6508" stroke="#263238" stroke-width="0.707336" stroke-linecap="round" stroke-linejoin="round"/>
<path d="M72.8281 72.9858C72.8281 72.9858 77.1334 76.4795 81.1392 76.4231C85.145 76.3666 86.5555 71.8617 86.5555 71.8617C86.5555 71.8617 80.3407 70.0216 72.8281 72.9858Z" fill="#E4897B"/>
<path d="M66.4977 81.7092C66.4977 81.7092 65.1437 89.6948 65.3042 91.969C65.4648 94.2431 68.9021 94.3126 70.8377 94.0825C73.0642 93.8178 84.6737 89.2261 84.6737 89.2261L84.1355 86.9302C84.1355 86.9302 75.0475 89.404 71.1763 89.838C70.9954 89.8565 70.8127 89.8335 70.6421 89.7706C70.4714 89.7077 70.3175 89.6067 70.1918 89.4752C70.0662 89.3437 69.9723 89.1853 69.9173 89.012C69.8623 88.8387 69.8475 88.6551 69.8743 88.4753L70.7726 82.5468L66.4977 81.7092Z" fill="#E4897B"/>
<path d="M69.3695 73.524C69.3695 73.524 71.7435 72.9988 72.2036 76.7703C72.482 79.0542 72.1836 81.3715 71.3356 83.5103L65.3203 82.4253C65.3203 82.4253 66.7048 73.7193 69.3695 73.524Z" fill="#007AB1"/>
<path d="M87.0992 84.63C86.951 84.54 86.7759 84.5046 86.6044 84.5302C85.8927 84.7125 83.7313 86.8521 83.6055 87.1342L84.161 89.161C84.161 89.161 85.2981 89.7686 85.8492 89.595C86.4004 89.4214 89.1954 87.3642 89.1997 86.8695C89.203 86.8421 89.203 86.8144 89.1997 86.787C89.2995 86.7132 89.382 86.6525 89.4384 86.6177C89.9115 86.3226 88.1625 85.0163 87.0992 84.63Z" fill="#E4897B"/>
<path d="M78.8267 55.0703C78.8267 55.0703 79.3171 59.879 75.3069 60.0526C71.2968 60.2262 74.6473 55.743 74.6473 55.743L78.8267 55.0703Z" fill="#263238"/>
<path d="M77.9674 53.586C71.375 53.7943 71.9218 63.4378 75.485 66.1286C75.485 66.1286 73.749 63.7937 74.7559 61.7625C74.7559 61.7625 76.0579 58.6204 75.6239 56.203C76.643 55.7607 77.7253 55.481 78.8311 55.3741C79.5733 56.2768 81.4351 59.0197 83.8742 58.9632C84.015 59.3885 84.1238 59.8237 84.1997 60.2652C84.1997 60.2652 84.5686 53.382 77.9674 53.586Z" fill="#263238"/>
<path d="M82.7803 64.9872C82.4074 65.1856 81.9927 65.293 81.5703 65.3005C81.1479 65.3081 80.7297 65.2156 80.3499 65.0306C80.3393 65.0247 80.3299 65.0168 80.3223 65.0072C80.3148 64.9977 80.3093 64.9867 80.306 64.975C80.3028 64.9632 80.3019 64.951 80.3035 64.9389C80.3051 64.9268 80.3091 64.9152 80.3152 64.9047C80.3202 64.8943 80.3273 64.8851 80.3361 64.8776C80.3448 64.8702 80.3551 64.8646 80.3661 64.8614C80.3771 64.8581 80.3887 64.8572 80.4002 64.8587C80.4116 64.8601 80.4226 64.864 80.4324 64.87C80.786 65.0393 81.1745 65.1231 81.5665 65.1148C81.9585 65.1065 82.343 65.0063 82.6892 64.8222C82.71 64.8112 82.7343 64.8086 82.7569 64.8151C82.7796 64.8216 82.7989 64.8366 82.8107 64.857C82.8215 64.8771 82.824 64.9008 82.8175 64.9227C82.811 64.9446 82.7961 64.9631 82.776 64.9741L82.7803 64.9872Z" fill="#263238"/>
<path d="M75.4279 62.5394C75.3665 62.0976 75.1323 61.6982 74.7768 61.4288C74.4212 61.1595 73.9733 61.0423 73.5313 61.1029C72.3509 61.2938 71.9169 63.7676 74.9071 64.1929C75.3325 64.2537 75.5495 63.824 75.4279 62.5394Z" fill="#E4897B"/>
<path d="M74.9824 80.0773L78.9752 79.5132C78.9752 79.5132 80.2772 83.7707 77.9076 84.2264C75.3166 84.7298 74.9824 80.0773 74.9824 80.0773Z" fill="#007AB1"/>
<path d="M90.0238 103.019C89.8241 101.048 89.5117 98.3661 89.1124 96.2569L89.1514 93.9306L74.2783 95.2326L74.1437 97.4026C73.7965 98.045 72.2775 101.226 71.5918 109.008C74.6849 110.13 77.975 110.606 81.2593 110.408C84.5436 110.209 87.7524 109.34 90.6878 107.853L90.0238 103.019Z" fill="#263238"/>
<path d="M127.743 95.8359L120.179 97.7542C119.594 97.3927 118.9 97.2511 118.221 97.3549C117.149 97.5545 114.467 99.7462 114.571 100.067C114.675 100.389 117.909 101.877 118.373 101.756C120.04 101.322 121.758 99.3817 121.758 99.3817L128.52 97.9885L127.743 95.8359Z" fill="#E4897B"/>
<path d="M146.691 68.6328C145.154 70.269 141.083 70.1301 141.083 70.1301C141.083 70.1301 139.742 70.2473 139.408 69.1102C140.879 68.7456 141.105 67.6867 141.335 66.7709C141.448 66.2051 141.448 65.6224 141.335 65.0566C141.288 64.7375 141.221 64.4215 141.136 64.1105L145.862 60.0005C145.423 62.496 144.955 66.9836 146.691 68.6328Z" fill="#E4897B"/>
<path opacity="0.2" d="M144.917 62.4526C144.956 65.4906 142.547 66.5062 141.35 66.7709C141.463 66.2051 141.463 65.6224 141.35 65.0566L144.917 62.4526Z" fill="black"/>
<path d="M145.307 63.121C144.847 63.9341 144.133 64.5738 143.274 64.9416C142.416 65.3093 141.46 65.3848 140.554 65.1564C139.376 64.8861 138.347 64.1748 137.677 63.1687C137.581 63.0298 137.494 62.8849 137.416 62.7347C135.963 59.9658 135.177 54.9878 138.059 52.8699C138.693 52.3944 139.438 52.0899 140.223 51.9854C141.009 51.8809 141.808 51.9801 142.544 52.2734C143.28 52.5666 143.928 53.0441 144.426 53.6601C144.924 54.276 145.256 55.0097 145.389 55.7907C146.014 59.1108 146.544 61.0334 145.307 63.121Z" fill="#E4897B"/>
<path d="M140.456 58.1777C140.501 58.2789 140.507 58.3938 140.47 58.4987C140.434 58.6037 140.359 58.6907 140.26 58.7419C140.087 58.7853 139.891 58.603 139.826 58.3383C139.761 58.0735 139.848 57.8175 140.022 57.7741C140.195 57.7307 140.386 57.9086 140.456 58.1777Z" fill="#263238"/>
<path d="M137.526 58.794C137.612 59.0544 137.504 59.3148 137.335 59.3582C137.165 59.4016 136.961 59.2193 136.901 58.9546C136.84 58.6898 136.922 58.4338 137.096 58.3904C137.27 58.347 137.461 58.5423 137.526 58.794Z" fill="#263238"/>
<path d="M138.581 58.8765C138.497 59.7488 138.291 60.605 137.969 61.4197C138.403 61.5933 139.01 61.3199 139.423 61.0942L138.581 58.8765Z" fill="#DE5753"/>
<path d="M141.324 56.7542C141.296 56.7649 141.266 56.7682 141.238 56.7636C141.209 56.759 141.181 56.7468 141.159 56.7282C141.003 56.5978 140.819 56.5056 140.622 56.4589C140.424 56.4122 140.219 56.4122 140.022 56.4591C140.001 56.468 139.979 56.4725 139.957 56.4724C139.934 56.4723 139.912 56.4675 139.892 56.4583C139.871 56.4492 139.853 56.4359 139.838 56.4193C139.823 56.4027 139.812 56.3832 139.805 56.3619C139.798 56.3407 139.795 56.3183 139.798 56.296C139.8 56.2738 139.807 56.2523 139.818 56.2328C139.829 56.2134 139.844 56.1964 139.861 56.1831C139.879 56.1697 139.9 56.1602 139.922 56.1553C140.17 56.0922 140.429 56.0884 140.678 56.1442C140.928 56.2 141.161 56.3138 141.358 56.4764C141.375 56.4892 141.389 56.5052 141.4 56.5235C141.411 56.5418 141.418 56.562 141.42 56.583C141.423 56.6039 141.422 56.6252 141.416 56.6457C141.411 56.6661 141.401 56.6853 141.389 56.7021C141.37 56.723 141.348 56.7406 141.324 56.7542Z" fill="#263238"/>
<path d="M140.043 62.4092C140.438 62.367 140.818 62.2317 141.151 62.0145C141.483 61.7972 141.76 61.5041 141.957 61.1593C141.962 61.1494 141.965 61.1385 141.966 61.1274C141.967 61.1162 141.965 61.105 141.962 61.0945C141.958 61.0839 141.952 61.0742 141.945 61.066C141.937 61.0577 141.928 61.0511 141.918 61.0464C141.909 61.0412 141.898 61.038 141.888 61.037C141.877 61.0359 141.867 61.0371 141.856 61.0403C141.846 61.0436 141.837 61.0489 141.829 61.0559C141.821 61.0629 141.814 61.0715 141.81 61.0812C141.622 61.3983 141.363 61.6674 141.054 61.8671C140.744 62.0667 140.392 62.1914 140.026 62.2313C140.015 62.2318 140.004 62.2346 139.994 62.2395C139.983 62.2445 139.974 62.2514 139.967 62.26C139.96 62.2685 139.954 62.2784 139.951 62.2892C139.948 62.2999 139.947 62.3112 139.948 62.3224C139.949 62.3332 139.952 62.3438 139.957 62.3534C139.962 62.363 139.969 62.3714 139.978 62.3783C139.986 62.3852 139.996 62.3903 140.007 62.3933C140.017 62.3964 140.028 62.3974 140.039 62.3962L140.043 62.4092Z" fill="#263238"/>
<path d="M136.051 58.0171C136.025 58.0381 135.992 58.0489 135.959 58.0475C135.939 58.0439 135.919 58.0361 135.901 58.0247C135.884 58.0133 135.869 57.9984 135.857 57.981C135.845 57.9635 135.837 57.9439 135.833 57.9233C135.829 57.9027 135.829 57.8814 135.834 57.8609C135.88 57.6085 135.987 57.371 136.144 57.168C136.301 56.9649 136.504 56.8023 136.736 56.6934C136.756 56.6857 136.777 56.6819 136.798 56.6823C136.819 56.6827 136.84 56.6873 136.859 56.6958C136.879 56.7042 136.896 56.7164 136.911 56.7317C136.925 56.7469 136.937 56.7649 136.945 56.7846C136.952 56.8042 136.956 56.8252 136.956 56.8463C136.955 56.8675 136.951 56.8883 136.942 56.9076C136.934 56.927 136.922 56.9445 136.906 56.9591C136.891 56.9737 136.873 56.9852 136.853 56.9929C136.672 57.0839 136.514 57.216 136.393 57.3788C136.272 57.5415 136.19 57.7304 136.155 57.9303C136.144 57.9512 136.13 57.9697 136.112 57.9846C136.094 57.9995 136.073 58.0106 136.051 58.0171Z" fill="#263238"/>
<path d="M147.49 58.1126C147.312 58.9458 146.813 59.6755 146.101 60.1437C145.15 60.7513 144.365 59.9832 144.33 58.9155C144.33 57.9651 144.799 56.4721 145.888 56.3115C146.977 56.1509 147.689 57.0884 147.49 58.1126Z" fill="#E4897B"/>
<path d="M132.543 71.2107C130.917 72.7592 129.721 74.7033 129.071 76.8527C128.255 79.4567 127.491 85.5892 127.118 88.9179C127.04 89.5607 126.757 90.1611 126.31 90.6302C125.864 91.0992 125.278 91.4119 124.64 91.5219L115.5 93.1147L116.229 97.7628L127.808 96.6475C129.047 96.5281 130.215 96.0122 131.138 95.1764C132.06 94.3405 132.689 93.2294 132.929 92.008C133.637 88.4275 134.583 83.2369 135.013 79.1269C135.742 72.1438 134.974 70.4903 132.543 71.2107Z" fill="#007AB1"/>
<path opacity="0.1" d="M132.543 71.2107C130.917 72.7592 129.721 74.7033 129.071 76.8527C128.255 79.4567 127.491 85.5892 127.118 88.9179C127.04 89.5607 126.757 90.1611 126.31 90.6302C125.864 91.0992 125.278 91.4119 124.64 91.5219L115.5 93.1147L116.229 97.7628L127.808 96.6475C129.047 96.5281 130.215 96.0122 131.138 95.1764C132.06 94.3405 132.689 93.2294 132.929 92.008C133.637 88.4275 134.583 83.2369 135.013 79.1269C135.742 72.1438 134.974 70.4903 132.543 71.2107Z" fill="black"/>
<path d="M126.125 174.511L122.688 173.665L124.645 166.3L128.082 167.146L126.125 174.511Z" fill="#E4897B"/>
<path d="M122.722 172.476L126.628 173.882C126.692 173.905 126.746 173.95 126.781 174.009C126.816 174.067 126.829 174.136 126.819 174.203L126.424 177.289C126.406 177.422 126.336 177.542 126.23 177.623C126.123 177.704 125.989 177.74 125.856 177.723C125.819 177.718 125.782 177.707 125.747 177.693C124.493 177.22 123.603 176.825 122.019 176.239C121.043 175.883 118.061 174.937 116.716 174.438C115.37 173.939 115.674 172.558 116.282 172.632C118.951 172.988 121.082 172.914 122.128 172.489C122.317 172.41 122.53 172.406 122.722 172.476Z" fill="#2E353A"/>
<path d="M121.455 172.654C121.23 172.594 121.033 172.458 120.899 172.268C120.859 172.197 120.838 172.117 120.838 172.035C120.838 171.954 120.859 171.874 120.899 171.803C120.914 171.758 120.942 171.719 120.979 171.69C121.016 171.661 121.061 171.643 121.108 171.638C121.542 171.582 122.336 172.593 122.41 172.71C122.42 172.723 122.425 172.738 122.425 172.754C122.425 172.769 122.42 172.785 122.41 172.797C122.403 172.812 122.392 172.824 122.378 172.832C122.364 172.84 122.348 172.843 122.332 172.84C122.034 172.81 121.74 172.748 121.455 172.654ZM121.216 171.816C121.182 171.807 121.146 171.807 121.112 171.816C121.112 171.816 121.056 171.816 121.03 171.886C121.005 171.934 120.992 171.988 120.992 172.042C120.992 172.096 121.005 172.15 121.03 172.198C121.332 172.49 121.733 172.657 122.154 172.667C121.898 172.326 121.58 172.038 121.216 171.816Z" fill="#007AB1"/>
<path d="M122.318 172.836H122.279C122.014 172.537 121.628 171.599 121.815 171.287C121.846 171.234 121.895 171.194 121.953 171.174C122.011 171.153 122.074 171.153 122.132 171.174C122.192 171.187 122.25 171.212 122.3 171.249C122.35 171.285 122.392 171.332 122.422 171.387C122.683 171.821 122.422 172.775 122.422 172.823C122.418 172.837 122.41 172.849 122.4 172.858C122.389 172.867 122.376 172.873 122.362 172.875C122.352 172.872 122.343 172.867 122.336 172.86C122.328 172.854 122.322 172.845 122.318 172.836ZM122.14 171.304H122.106C122.006 171.269 121.98 171.326 121.967 171.343C121.85 171.539 122.067 172.211 122.305 172.589C122.422 172.217 122.422 171.819 122.305 171.447C122.289 171.413 122.266 171.383 122.238 171.359C122.209 171.334 122.176 171.315 122.14 171.304Z" fill="#007AB1"/>
<path opacity="0.2" d="M128.081 167.146L124.644 166.3L123.637 170.102L127.074 170.944L128.081 167.146Z" fill="black"/>
<path d="M148.882 174.477L145.367 174.893L144.607 167.311L148.123 166.895L148.882 174.477Z" fill="#E4897B"/>
<path d="M144.982 173.769L149.127 173.713C149.196 173.713 149.262 173.736 149.315 173.779C149.369 173.821 149.407 173.881 149.422 173.947L150.134 176.985C150.163 177.116 150.138 177.252 150.067 177.365C149.995 177.478 149.882 177.558 149.752 177.588C149.715 177.593 149.677 177.593 149.639 177.588C148.298 177.588 147.322 177.515 145.638 177.536C144.601 177.536 141.476 177.697 140.044 177.719C138.611 177.74 138.403 176.321 138.989 176.187C141.593 175.579 143.581 174.759 144.414 173.991C144.567 173.845 144.771 173.766 144.982 173.769Z" fill="#2E353A"/>
<path d="M143.861 174.381C143.629 174.404 143.396 174.346 143.201 174.216C143.137 174.165 143.088 174.098 143.057 174.022C143.027 173.946 143.017 173.863 143.028 173.782C143.025 173.735 143.037 173.688 143.061 173.647C143.085 173.606 143.12 173.573 143.162 173.552C143.54 173.353 144.651 174.017 144.772 174.09C144.786 174.098 144.798 174.109 144.805 174.123C144.812 174.137 144.814 174.153 144.812 174.169C144.81 174.185 144.803 174.201 144.793 174.213C144.782 174.226 144.767 174.234 144.751 174.238C144.461 174.32 144.162 174.368 143.861 174.381ZM143.345 173.682C143.308 173.678 143.272 173.686 143.24 173.704C143.219 173.704 143.193 173.735 143.188 173.8C143.183 173.854 143.19 173.908 143.209 173.959C143.229 174.009 143.26 174.055 143.301 174.09C143.686 174.258 144.12 174.274 144.516 174.134C144.159 173.909 143.761 173.756 143.345 173.682Z" fill="#007AB1"/>
<path d="M144.729 174.251H144.69C144.338 174.064 143.648 173.322 143.713 172.949C143.724 172.888 143.755 172.833 143.802 172.794C143.849 172.754 143.908 172.732 143.969 172.732C144.03 172.723 144.092 172.728 144.152 172.745C144.211 172.762 144.265 172.792 144.312 172.832C144.711 173.149 144.807 174.134 144.811 174.173C144.812 174.188 144.809 174.202 144.802 174.215C144.795 174.228 144.785 174.239 144.772 174.247L144.729 174.251ZM144.026 172.875H143.987C143.883 172.875 143.874 172.936 143.874 172.958C143.83 173.179 144.273 173.743 144.629 174.004C144.597 173.613 144.445 173.242 144.195 172.94C144.149 172.898 144.088 172.875 144.026 172.875Z" fill="#007AB1"/>
<path opacity="0.2" d="M148.123 166.895L144.607 167.311L145.002 171.222L148.518 170.805L148.123 166.895Z" fill="black"/>
<path d="M132.533 105.184C132.533 105.184 123.689 148.428 123.385 165.033L129.278 167.667C129.278 167.667 134.079 148.905 135.637 138.364C135.637 138.364 139.768 129.992 140.879 123.174C140.879 123.174 140.649 153.12 143.752 168.921L149.282 168.487C149.282 168.487 154.858 112.311 153.852 103.318L132.533 105.184Z" fill="#007AB1"/>
<path opacity="0.6" d="M132.533 105.184C132.533 105.184 123.689 148.428 123.385 165.033L129.278 167.667C129.278 167.667 134.079 148.905 135.637 138.364C135.637 138.364 139.768 129.992 140.879 123.174C140.879 123.174 140.649 153.12 143.752 168.921L149.282 168.487C149.282 168.487 154.858 112.311 153.852 103.318L132.533 105.184Z" fill="white"/>
<path opacity="0.2" d="M139.921 112.258C139.921 112.258 139.266 122.54 140.199 126.316C140.481 125.252 140.715 124.193 140.88 123.169L139.921 112.258Z" fill="black"/>
<path d="M143.049 170.176L150.64 169.047L150.406 166.947L142.516 167.98L143.049 170.176Z" fill="#007AB1"/>
<path d="M122.387 166.652L129.717 168.908L130.416 166.916L122.851 164.438L122.387 166.652Z" fill="#007AB1"/>
<path d="M132.543 71.2107C132.543 71.2107 133.481 69.3575 141.718 68.8801C149.955 68.4027 153.636 69.6223 153.636 69.6223C153.636 69.6223 152.889 87.0604 153.844 103.322C153.844 103.322 140.069 108.231 132.526 105.184C132.535 105.184 126.884 84.1222 132.543 71.2107Z" fill="#007AB1"/>
<path opacity="0.2" d="M144.67 68.776C143.758 68.776 142.777 68.8194 141.718 68.8802C141.08 68.9192 140.495 68.9626 139.943 69.0147C139.943 69.0147 140.646 70.3471 141.718 70.3471C142.302 70.3489 142.876 70.2064 143.391 69.9322C143.906 69.6581 144.345 69.2609 144.67 68.776Z" fill="black"/>
<path opacity="0.3" d="M153.423 91.4351L140.881 97.7759C140.881 97.7759 148.788 98.0189 153.515 95.454C153.477 94.097 153.447 92.7574 153.423 91.4351Z" fill="black"/>
<path opacity="0.1" d="M141.557 73.7627L146.014 93.5921L145.024 96.1571L141.557 73.7627Z" fill="black"/>
<path d="M141.591 74.3174L118.119 77.8738L121.518 100.306L144.99 96.7499L141.591 74.3174Z" fill="#007AB1"/>
<path opacity="0.1" d="M141.591 74.3174L118.119 77.8738L121.518 100.306L144.99 96.7499L141.591 74.3174Z" fill="white"/>
<path d="M123.903 76.4908L105.744 79.302L109.211 101.694L127.37 98.8832L123.903 76.4908Z" fill="#007AB1"/>
<path opacity="0.3" d="M123.903 76.4908L105.744 79.302L109.211 101.694L127.37 98.8832L123.903 76.4908Z" fill="white"/>
<path opacity="0.3" d="M117.396 77.4955L112.258 78.2909L113.191 84.3211L118.329 83.5257L117.396 77.4955Z" fill="white"/>
<path opacity="0.1" d="M136.568 74.5326L131.43 75.328L132.363 81.3582L137.501 80.5628L136.568 74.5326Z" fill="black"/>
<path opacity="0.2" d="M125.515 94.4082L119.9 95.2773L120.43 98.6956L126.044 97.8265L125.515 94.4082Z" fill="white"/>
<path opacity="0.2" d="M134.284 97.5979L133.707 96.8341L131.845 97.2334C131.746 97.5503 131.707 97.8831 131.732 98.2142L134.336 97.8149L134.284 97.5979Z" fill="#2E353A"/>
<path d="M131.067 88.1975C130.633 88.345 130.026 88.3364 129.965 87.7635C129.917 87.2861 130.482 86.8955 130.911 86.9736C130.945 86.9794 130.979 86.9716 131.007 86.9521C131.034 86.9326 131.053 86.9028 131.059 86.8694C131.064 86.8361 131.057 86.8018 131.037 86.7741C131.018 86.7464 130.988 86.7276 130.955 86.7219C130.801 86.7003 130.644 86.7117 130.495 86.7553C130.347 86.7988 130.209 86.8736 130.091 86.9746C129.973 87.0756 129.878 87.2004 129.812 87.341C129.746 87.4815 129.711 87.6344 129.709 87.7895C129.783 88.5447 130.577 88.6575 131.163 88.4405C131.332 88.3841 131.241 88.1411 131.067 88.1975Z" fill="white"/>
<path d="M131.502 85.8105C131.463 85.6499 131.207 85.6759 131.242 85.8365C131.43 86.664 131.613 87.4901 131.793 88.3147C131.827 88.4752 132.083 88.4535 132.049 88.2886L131.502 85.8105Z" fill="white"/>
<path d="M133.042 86.2966C133.024 86.3013 133.009 86.3121 132.998 86.327C131.839 86.5483 132.521 88.3581 133.597 88.0239C133.819 87.9278 133.997 87.7531 134.097 87.5335C134.197 87.3139 134.212 87.0649 134.14 86.8347C134.114 86.7204 134.062 86.6133 133.99 86.5213C133.917 86.4293 133.825 86.3548 133.719 86.3032C133.614 86.2515 133.498 86.2242 133.381 86.223C133.264 86.2219 133.148 86.247 133.042 86.2966ZM133.615 87.7331C132.855 88.1671 132.182 86.7262 133.046 86.5787C133.072 86.5753 133.097 86.5631 133.115 86.544C133.888 86.2228 134.205 87.3946 133.615 87.7331Z" fill="white"/>
<path d="M135.207 85.6109L134.734 85.6933L134.656 85.1812C134.63 85.0163 134.374 85.0423 134.4 85.2072C134.426 85.3722 134.452 85.5588 134.483 85.7367L134.014 85.8148C133.853 85.8452 133.875 86.1013 134.04 86.0752L134.522 85.9928L134.808 87.8546C134.834 88.0152 135.09 87.9892 135.064 87.8243C134.969 87.1993 134.869 86.5743 134.773 85.9494L135.238 85.8669C135.407 85.8409 135.372 85.5805 135.207 85.6109Z" fill="white"/>
<path d="M137.023 85.9537C136.865 85.8604 136.684 85.8144 136.5 85.8214C136.317 85.8283 136.14 85.8878 135.99 85.9928C135.929 85.6542 135.864 85.3157 135.794 84.9772C135.76 84.8166 135.504 84.8427 135.538 85.0076C135.715 85.8756 135.86 86.7436 135.972 87.6116C135.998 87.7765 136.254 87.7505 136.228 87.5855C136.168 87.1515 136.098 86.7175 136.024 86.2835C136.092 86.2168 136.172 86.1647 136.26 86.1305C136.348 86.0963 136.443 86.0807 136.537 86.0848C136.632 86.0889 136.725 86.1125 136.81 86.1542C136.895 86.1958 136.97 86.2547 137.031 86.3269C137.188 86.6579 137.27 87.0196 137.27 87.3859C137.278 87.416 137.296 87.4423 137.322 87.4601C137.347 87.4779 137.378 87.4859 137.409 87.4827C137.44 87.4796 137.469 87.4655 137.49 87.4429C137.512 87.4204 137.525 87.3909 137.526 87.3599C137.5 86.8911 137.483 86.2011 137.023 85.9537Z" fill="white"/>
<path d="M138.116 85.459C138.012 85.5144 137.92 85.5914 137.848 85.6848C137.776 85.7783 137.724 85.886 137.697 86.001C137.669 86.1159 137.666 86.2353 137.689 86.3514C137.711 86.4675 137.757 86.5775 137.825 86.6742C137.882 86.7916 137.961 86.8961 138.06 86.9812C138.158 87.0662 138.274 87.1299 138.398 87.1683C138.522 87.2066 138.653 87.2187 138.783 87.2039C138.912 87.1891 139.037 87.1476 139.149 87.0821C139.297 87.0083 139.206 86.7653 139.058 86.8391C138.938 86.9252 138.791 86.9674 138.644 86.9587C138.496 86.95 138.356 86.8909 138.246 86.7913C138.162 86.7141 138.092 86.6231 138.038 86.5223C138.42 86.5526 139.119 86.4745 139.136 86.0579C139.158 85.5241 138.546 85.2897 138.116 85.459ZM138.845 86.0969C138.806 86.1577 138.628 86.1968 138.559 86.2185C138.363 86.282 138.153 86.2939 137.951 86.2532C137.938 86.1835 137.939 86.1119 137.954 86.0426C137.969 85.9733 137.998 85.9077 138.038 85.8496C138.1 85.772 138.185 85.7155 138.28 85.6875C138.376 85.6596 138.478 85.6616 138.572 85.6933C138.698 85.7237 138.967 85.932 138.845 86.0969Z" fill="white"/>
<path d="M141.049 85.9624C140.977 85.8387 140.865 85.7428 140.732 85.69C140.599 85.6373 140.452 85.6308 140.315 85.6716C140.107 85.715 139.603 85.9233 139.716 85.511C139.786 85.2376 140.15 85.1334 140.406 85.1551C140.571 85.1551 140.615 84.9164 140.445 84.8991C140.011 84.86 139.174 85.2506 139.443 85.8192C139.569 86.0839 139.877 86.0535 140.129 85.9928C140.266 85.9363 140.414 85.9082 140.563 85.9103C140.617 85.9141 140.669 85.9329 140.714 85.9648C140.758 85.9966 140.793 86.0401 140.814 86.0905C140.835 86.1409 140.842 86.1962 140.834 86.2502C140.825 86.3042 140.802 86.3548 140.767 86.3964C140.584 86.6351 140.228 86.5917 139.968 86.5483C139.935 86.5452 139.902 86.5545 139.876 86.5745C139.85 86.5946 139.833 86.6237 139.827 86.6561C139.822 86.6886 139.829 86.7219 139.847 86.7494C139.865 86.7769 139.893 86.7965 139.925 86.8043C140.087 86.8505 140.258 86.8601 140.424 86.8323C140.591 86.8046 140.749 86.7401 140.888 86.6438C140.982 86.561 141.048 86.4509 141.077 86.3287C141.106 86.2066 141.096 86.0786 141.049 85.9624Z" fill="white"/>
<path d="M145.055 93.1277L137.473 94.9766C136.893 94.6044 136.199 94.4506 135.516 94.5426C134.448 94.7335 131.745 96.8992 131.844 97.2203C131.944 97.5415 134.448 99.5032 134.913 99.36C135.377 99.2167 138.298 97.1509 138.298 97.1509L145.52 96.5476L145.055 93.1277Z" fill="#E4897B"/>
<path d="M153.155 69.5962C153.155 69.5962 149.969 70.4425 150.42 76.3536C150.62 78.9229 150.72 81.6658 150.772 83.9486C150.803 85.4758 150.4 86.9805 149.608 88.2869C148.817 89.5933 147.67 90.6476 146.302 91.3266L140.078 93.8699L140.881 97.7759C140.881 97.7759 149.926 96.9469 153.107 94.4037C156.288 91.8605 157.395 86.4311 156.878 81.9305C156.158 75.6809 156.397 69.3445 153.155 69.5962Z" fill="#007AB1"/>
<path opacity="0.1" d="M153.155 69.5962C153.155 69.5962 149.969 70.4425 150.42 76.3536C150.62 78.9229 150.72 81.6658 150.772 83.9486C150.803 85.4758 150.4 86.9805 149.608 88.2869C148.817 89.5933 147.67 90.6476 146.302 91.3266L140.078 93.8699L140.881 97.7759C140.881 97.7759 149.926 96.9469 153.107 94.4037C156.288 91.8605 157.395 86.4311 156.878 81.9305C156.158 75.6809 156.397 69.3445 153.155 69.5962Z" fill="black"/>
<path d="M140.667 92.8803L141.196 98.314L139.734 98.4529L138.957 93.3664L140.667 92.8803Z" fill="#007AB1"/>
<path opacity="0.6" d="M140.667 92.8803L141.196 98.314L139.734 98.4529L138.957 93.3664L140.667 92.8803Z" fill="white"/>
<path opacity="0.4" d="M148.316 77.9574L143.271 78.4085L143.343 79.2125L148.388 78.7614L148.316 77.9574Z" fill="white"/>
<path d="M141.719 68.8801L143.351 71.0501L146.792 68.7803V68.572C146.8 68.3899 146.765 68.2084 146.69 68.0425C146.614 67.8765 146.501 67.7308 146.358 67.6172C146.194 67.5159 146.007 67.4562 145.814 67.4434C145.621 67.4305 145.428 67.4649 145.252 67.5434L141.719 68.8801Z" fill="#007AB1"/>
<path d="M139.422 69.0537L139.825 68.3854C140.333 67.7865 140.737 68.0946 140.737 68.0946L141.718 68.8801L140.286 71.0501L139.422 69.0537Z" fill="#007AB1"/>
<path opacity="0.6" d="M141.719 68.8801L143.351 71.0501L146.792 68.7803V68.572C146.8 68.3899 146.765 68.2084 146.69 68.0425C146.614 67.8765 146.501 67.7308 146.358 67.6172C146.194 67.5159 146.007 67.4562 145.814 67.4434C145.621 67.4305 145.428 67.4649 145.252 67.5434L141.719 68.8801Z" fill="white"/>
<path opacity="0.6" d="M139.422 69.0537L139.825 68.3854C140.333 67.7865 140.737 68.0946 140.737 68.0946L141.718 68.8801L140.286 71.0501L139.422 69.0537Z" fill="white"/>
<path d="M147.402 58.0258C147.632 56.5415 146.604 56.3375 145.927 56.5155C145.25 56.6934 144.516 57.7697 144.516 57.7697C143.856 56.7021 143.483 53.9983 143.483 53.9983C142.645 54.4617 141.71 54.724 140.753 54.7647C139.796 54.8053 138.842 54.6232 137.967 54.2326C137.63 55.1444 136.999 55.9184 136.175 56.433C136.175 56.433 134.951 55.8732 135.632 53.0608C136.405 49.8623 141.209 46.7678 146.048 49.9577C150.887 53.1476 147.958 59.0717 147.958 59.0717C147.958 59.0717 146.86 61.0117 145.888 61.7408C145.97 61.1651 145.97 60.5806 145.888 60.0048C146.282 59.8231 146.626 59.5478 146.89 59.203C147.154 58.8581 147.33 58.454 147.402 58.0258Z" fill="#2E353A"/>
<path d="M137.394 53.4384C137.674 53.7803 137.998 54.0839 138.358 54.3411C138.724 54.6022 139.12 54.8179 139.538 54.9835C139.956 55.1479 140.394 55.2545 140.84 55.3003C141.297 55.3437 141.758 55.3305 142.212 55.2612C141.761 55.3667 141.299 55.4162 140.836 55.4088C140.366 55.4002 139.9 55.3257 139.451 55.1874C138.994 55.0528 138.556 54.8587 138.149 54.6102C137.736 54.3627 137.358 54.0605 137.025 53.7118L137.394 53.4384Z" fill="#2E353A"/>
<path d="M193.203 77.9637C189.687 74.8216 185.582 79.0835 185.582 79.0835C185.582 79.0835 181.472 74.8216 177.961 77.9637C172.952 82.447 180.235 90.476 185.582 92.0818C190.928 90.476 198.211 82.46 193.203 77.9637Z" fill="#007AB1"/>
<path opacity="0.6" d="M193.203 77.9637C189.687 74.8216 185.582 79.0835 185.582 79.0835C185.582 79.0835 181.472 74.8216 177.961 77.9637C172.952 82.447 180.235 90.476 185.582 92.0818C190.928 90.476 198.211 82.46 193.203 77.9637Z" fill="white"/>
<path d="M122.244 36.1695C118.728 33.0274 114.623 37.2893 114.623 37.2893C114.623 37.2893 110.513 33.0274 107.002 36.1695C101.993 40.6484 109.276 48.6774 114.623 50.2876C119.969 48.6774 127.252 40.6484 122.244 36.1695Z" fill="#007AB1"/>
<path opacity="0.6" d="M122.244 36.1695C118.728 33.0274 114.623 37.2893 114.623 37.2893C114.623 37.2893 110.513 33.0274 107.002 36.1695C101.993 40.6484 109.276 48.6774 114.623 50.2876C119.969 48.6774 127.252 40.6484 122.244 36.1695Z" fill="white"/>
<path d="M163.548 49.2156C162.111 47.9136 160.432 49.6756 160.432 49.6756C160.432 49.6756 158.756 47.9396 157.32 49.2156C155.271 51.0471 158.249 54.3281 160.432 54.9878C162.619 54.3281 165.592 51.0471 163.548 49.2156Z" fill="#007AB1"/>
<path opacity="0.6" d="M163.548 49.2156C162.111 47.9136 160.432 49.6756 160.432 49.6756C160.432 49.6756 158.756 47.9396 157.32 49.2156C155.271 51.0471 158.249 54.3281 160.432 54.9878C162.619 54.3281 165.592 51.0471 163.548 49.2156Z" fill="white"/>
<path d="M32.3194 83.7012C30.8828 82.3992 29.2076 84.1613 29.2076 84.1613C29.2076 84.1613 27.528 82.4253 26.0915 83.7012C24.0473 85.5327 27.0202 88.8138 29.2076 89.4691C31.3906 88.8138 34.3679 85.5327 32.3194 83.7012Z" fill="#007AB1"/>
<path opacity="0.6" d="M32.3194 83.7012C30.8828 82.3992 29.2076 84.1613 29.2076 84.1613C29.2076 84.1613 27.528 82.4253 26.0915 83.7012C24.0473 85.5327 27.0202 88.8138 29.2076 89.4691C31.3906 88.8138 34.3679 85.5327 32.3194 83.7012Z" fill="white"/>
</svg>
