<svg width="136" height="127" viewBox="0 0 136 127" fill="none" xmlns="http://www.w3.org/2000/svg">
<path d="M130.789 26.4733C128.235 25.4023 124.695 25.1986 121.324 25.8978C117.27 26.7447 108.659 30.5963 103.771 33.7866C100.902 35.6015 100.072 35.8661 99.249 35.2467C98.0536 34.3662 97.8978 34.5706 102.543 28.7C106.77 23.4037 108.771 18.9297 108.934 14.5677C108.992 11.1677 107.619 6.5964 105.892 4.46425C102.949 0.829903 97.5274 -0.903241 93.4158 0.468332C87.7022 2.24271 84.4339 7.73056 82.9391 17.7886L82.0959 23.493L76.3798 21.1973C73.2673 19.9336 68.0817 18.4912 64.9227 18.063C58.1743 17.0719 54.7942 17.8586 51.8315 20.9462C50.7302 22.0664 44.9203 27.5906 38.9736 33.1443C33.0661 38.7465 28.0852 43.6078 27.9496 44.0356C27.7748 44.4149 27.9627 45.1429 28.3945 45.676C29.2972 46.7905 28.6455 47.8706 25.2808 50.5611C18.7466 55.7862 0.208364 74.363 0.00738494 75.8012C-0.22094 77.9 4.9172 86.3268 11.9738 95.535C17.9801 103.347 19.8439 105.45 24.8821 109.885C31.018 115.278 39.2271 120.85 46.2372 124.346L50.369 126.472L68.3423 111.86L86.3157 97.2478L88.4874 97.7468L90.6199 98.1973L106.594 85.1841C124.957 70.2603 124.548 70.7471 123.064 64.7482C122.174 61.4674 120.69 58.7421 116.448 52.7121C115.369 51.1803 114.446 49.8425 114.406 49.794C114.455 49.755 116.457 48.9528 118.957 48.0715C124.328 46.1718 132.016 40.9823 134.04 37.9264C135.918 34.9875 135.81 31.4811 133.808 29.0098C132.905 27.8952 131.514 26.7724 130.789 26.4733ZM132.664 32.1603C133.927 36.1005 124.096 43.8023 114.513 46.355L111.72 47.072L108.709 44.0498C107.023 42.3644 104.973 40.3303 104.033 39.5656L102.445 38.2004L105.84 36.044C114.398 30.6384 124.633 27.4038 128.714 28.7716C131.082 29.5129 132.052 30.4135 132.664 32.1603ZM105.687 10.8565C106.855 15.6713 104.255 22.3812 98.4972 29.0612L95.7891 32.2647L90.4797 28.6856L85.1216 25.1455L85.7495 19.3737C86.4155 13.2521 88.8405 6.92155 91.2299 5.01088C93.0341 3.56812 96.3845 2.64554 98.5265 3.0086C102.028 3.56209 104.49 6.30414 105.687 10.8565ZM120.247 64.4453C121.03 67.8915 120.267 70.8175 118.255 71.7072C116.898 72.3133 116.517 72.1395 115.064 70.3466C113.259 68.1175 99.1886 54.218 96.4542 51.9333L94.7392 50.5102L99.4716 50.7979C102.033 50.985 105.738 50.8968 107.585 50.6973L111.015 50.2699L115.325 56.086C118.593 60.4188 119.831 62.5426 120.247 64.4453ZM101.183 44.4791C95.8333 43.7269 94.6391 43.2445 96.2507 42.7543C96.8953 42.5582 98.1346 41.8067 99.0124 41.1048C100.524 39.896 100.788 39.9244 102.161 41.2222C106.435 45.3093 106.435 45.3093 101.183 44.4791ZM95.0994 40.2417C91.9785 42.7373 90.9509 42.3613 93.3772 39.7026C94.3322 38.6993 95.267 37.4728 95.5882 36.9764C96.0163 36.3147 96.3684 36.3526 96.9571 37.0794C97.7028 38.0001 97.4888 38.331 95.0994 40.2417ZM91.2982 37.5326C90.1683 38.9151 89.0194 40.4726 88.64 41.0954C88.0953 42.01 87.968 41.9521 87.4364 40.7005C86.58 38.7504 85.0456 29.1187 85.4845 28.7677C85.9721 28.3778 93.4377 33.8255 93.3616 34.5252C93.3724 34.836 92.4185 36.2375 91.2982 37.5326ZM103.237 48.1063C103.188 48.1453 100.939 47.9476 98.2596 47.6152C95.58 47.2828 94.0635 46.8986 94.8842 46.7214C96.6135 46.3765 103.92 47.5604 103.237 48.1063ZM82.8941 32.1166C83.2747 35.1657 83.8219 38.3211 84.1668 39.243C84.8971 41.5334 83.967 41.0794 78.4495 36.549C73.5886 32.5315 73.6183 32.6674 74.9884 26.6215L75.6544 23.7735L78.7574 25.1247C80.4606 25.8387 81.8997 26.5243 82.027 26.5822C82.1055 26.6791 82.5039 29.155 82.8941 32.1166ZM71.8343 31.06C71.4822 31.0221 70.3654 30.2385 69.3556 29.2894C67.6501 27.7788 67.5216 27.3227 67.8653 24.5727C68.0948 22.8721 68.3743 21.5308 68.5896 21.5982C68.7656 21.6171 69.8907 21.9151 71.1039 22.2225L73.4029 22.7794L72.9462 26.977C72.6989 29.2508 72.2743 31.1073 71.8343 31.06ZM111.374 71.9404C108.449 71.4047 100.058 67.0961 94.7881 63.5654C90.5171 60.6731 80.053 52.9122 79.582 52.3307C78.9148 51.507 85.5026 47.8359 87.4091 47.9082C88.5628 47.9438 107.885 65.9471 112.398 71.1215L113.379 72.333L111.374 71.9404ZM101.589 85.3537L89.4472 95.0631L85.0632 93.6184C78.5265 91.4999 69.8917 87.3862 63.9853 83.566C58.4024 80.046 52.2379 74.9151 52.3426 73.9531C52.3319 73.6423 57.7921 68.8768 64.3549 63.3893L76.3006 53.4377L78.3677 54.8986C79.4358 55.7213 82.6887 58.1502 85.5301 60.2695C95.2794 67.6439 105.052 73.1628 110.845 74.7589C112.322 75.0947 113.525 75.4895 113.653 75.5475C113.692 75.5959 108.27 80.0116 101.589 85.3537ZM65.2392 25.7943C65.0929 25.9113 63.9571 25.3026 62.7618 24.422C60.9492 23.0769 60.5662 22.5049 60.6316 21.4944C60.7945 20.406 61.1656 20.269 63.4146 20.4666L66.0158 20.7021L65.7982 23.1117C65.6555 24.4235 65.4343 25.6384 65.2392 25.7943ZM83.6876 45.6943C82.8967 46.0074 80.9545 47.0814 79.3738 48.1058C76.5539 49.8817 76.4659 49.8723 74.5748 48.4302C72.6444 46.9398 72.6147 46.8039 73.1177 41.7707C73.4222 38.9722 73.8455 36.7174 74.1096 36.7458C74.5104 36.7447 83.4663 43.6356 84.6724 44.827C84.9174 45.0303 84.4297 45.4202 83.6876 45.6943ZM71.2052 39.7071C70.4584 44.9352 70.1753 45.0817 67.0972 42.2734C65.3227 40.5785 65.3025 40.3552 66.0802 35.6612L66.877 30.7923L68.6599 32.0015C71.6773 34.1397 71.914 34.8287 71.2052 39.7071ZM64.1986 34.1317C63.8442 36.5709 63.4102 38.5149 63.2341 38.496C63.0581 38.477 61.9508 37.6059 60.7353 36.502C58.6277 34.5943 58.6765 34.5553 59.3282 30.2017L60.0382 25.7216L62.3015 27.4249C63.5848 28.3149 64.6434 29.225 64.7124 29.4094C64.8301 29.5547 64.553 31.6926 64.1986 34.1317ZM57.6226 28.6912L57.1553 32.578L55.8993 31.0274C54.0546 28.7498 53.1542 25.1583 54.0783 23.6209C54.6717 22.6672 55.1011 22.4038 55.8551 22.8387C57.745 23.8825 58.0805 24.8918 57.6226 28.6912ZM61.8953 61.4438C53.0311 68.8514 49.5392 71.484 48.9326 71.3303C47.377 70.8976 35.7936 55.0094 33.2756 49.9168C31.997 47.3463 31.0027 45.0275 31.061 44.901C31.099 44.5512 50.2747 26.6624 50.5388 26.6908C50.6268 26.7002 51.2262 27.7379 51.7484 29.0769C53.1757 32.327 60.7472 40.4846 67.6955 46.1864C70.8022 48.7323 73.4973 50.9686 73.6638 51.075C73.7815 51.2204 68.4676 55.8689 61.8953 61.4438ZM72.1373 92.9362C71.5034 93.4431 64.7372 99.5722 57.0648 106.666C49.3924 113.759 42.9771 119.528 42.801 119.509C42.625 119.49 42.047 119.074 41.5177 118.619C40.6257 117.815 41.1323 117.25 55.3271 104.223C68.9855 91.624 70.1558 90.6882 71.3297 90.9471C73.1494 91.4082 73.3564 91.9613 72.1373 92.9362ZM58.5726 84.6207C58.0849 85.0106 52.3238 90.4958 45.7539 96.8673C30.8301 111.276 30.3912 111.627 29.3707 110.367C28.939 109.834 28.6345 109.359 28.6928 109.233C28.7415 109.194 35.0581 103.105 42.7686 95.6615C53.3644 85.432 56.9134 82.2746 57.5592 82.4768C58.9781 82.9391 59.4503 83.9188 58.5726 84.6207ZM35.2371 61.7621C34.4569 62.386 28.7635 67.6573 22.4659 73.5714C7.84303 87.2608 8.5162 86.8023 7.61227 85.2895C6.85582 84.058 7.09963 83.863 19.4021 72.2687C35.8091 56.9133 34.395 58.0441 35.5724 59.4979C36.3967 60.5155 36.3099 60.9043 35.2371 61.7621ZM46.4683 74.3389C46.0782 74.6508 40.2981 80.3109 33.6021 87.0227C18.8162 101.8 19.4109 101.245 18.507 99.7323C17.7113 98.4523 17.1654 98.9687 42.44 74.1269C45.1398 71.4091 45.2278 71.4185 46.1698 72.5815C46.7585 73.3084 46.8584 74.0269 46.4683 74.3389Z" fill="#007AB1" fill-opacity="0.15"/>
</svg>
