<svg xmlns="http://www.w3.org/2000/svg" width="26" height="26" viewBox="0 0 26 26">
  <g id="Group_183331" data-name="Group 183331" transform="translate(-304 -629)">
    <g id="Ellipse_8294" data-name="Ellipse 8294" transform="translate(304 629)" fill="#ddffde" stroke="#fff" stroke-width="2">
      <circle cx="13" cy="13" r="13" stroke="none"/>
      <circle cx="13" cy="13" r="12" fill="none"/>
    </g>
    <g id="Group_183073" data-name="Group 183073" transform="translate(311.372 635.29)">
      <path id="Path_69637" data-name="Path 69637" d="M5.376.257A3.138,3.138,0,0,0,3.57,5.965,5.1,5.1,0,0,0,.36,10.694a.5.5,0,0,0,.99,0A4.1,4.1,0,0,1,7.612,7.2a.5.5,0,0,0,.524-.846,5.083,5.083,0,0,0-.908-.43A3.135,3.135,0,0,0,5.376.257Zm0,.992A2.151,2.151,0,1,1,3.225,3.4a2.148,2.148,0,0,1,2.15-2.152Zm5.01,5.944a.5.5,0,0,0-.4.226L8.276,9.977l-1.07-.717a.5.5,0,1,0-.552.827l1.488.99a.5.5,0,0,0,.687-.138L10.81,7.967a.5.5,0,0,0-.425-.775Z" transform="translate(0 0)" fill="#62c483"/>
    </g>
  </g>
</svg>
