<svg width="58" height="72" viewBox="0 0 58 72" fill="none" xmlns="http://www.w3.org/2000/svg">
<path d="M10.1753 3.1513C9.95252 3.39919 9.76725 4.35791 9.80585 5.26052C9.97383 9.29974 7.23486 16.7082 4.80368 18.9499C3.18672 20.4594 3.48145 21.0577 6.244 21.9981C11.0506 23.6746 14.1736 26.9734 15.5454 31.8153C16.2203 34.287 16.3901 34.5806 17.196 34.3787C17.9572 34.188 18.0321 33.545 17.7767 29.9118C17.2752 22.307 19.0376 16.6797 23.143 13.1543C24.6934 11.7575 24.8818 11.3742 24.3414 10.9334C23.9363 10.6508 22.8377 10.6379 21.8527 10.8847C17.9126 11.872 14.1785 9.54261 12.3934 4.94829C11.5519 2.75838 10.9552 2.28369 10.1753 3.1513ZM13.4892 10.5796C14.4129 11.4045 16.0655 12.2868 17.2775 12.5593C18.4448 12.843 19.4663 13.1152 19.5673 13.1379C19.6798 13.2058 19.0031 14.4797 18.1369 15.9451C17.1374 17.636 16.3098 20.0041 15.9736 22.0569C15.6364 23.918 15.2752 25.497 15.1409 25.5306C14.9618 25.5755 14.4546 25.0784 13.9464 24.3895C13.4497 23.7457 11.694 22.457 10.0186 21.4844L7.01644 19.7879L8.84882 16.6879C9.83684 14.9519 10.8998 12.5728 11.2069 11.3435C11.5139 10.1142 11.7773 9.08793 11.7773 9.08793C11.8221 9.07671 12.5656 9.75469 13.4892 10.5796Z" fill="white"/>
<path d="M39.8161 41.8825C39.5882 42.5103 39.4399 43.2608 39.5307 43.6185C40.064 45.7201 37.228 51.8998 34.3484 54.8565C33.4378 55.8456 32.732 56.8785 32.8001 57.1468C32.8795 57.4598 33.9143 57.9138 35.1427 58.1767C38.6343 58.9664 40.6925 60.02 42.2271 61.8707C43.4661 63.3199 43.7955 64.0458 44.1466 66.5735C44.5203 69.3809 44.6112 69.5483 45.4758 69.3317C46.477 69.0808 46.5799 68.1515 46.3663 63.8773C46.3327 62.9821 46.6071 60.6306 47.0178 58.6254C47.7479 55.0183 49.0346 52.8412 51.8115 50.4333C52.5171 49.7809 53.0181 49.0847 52.8021 48.8059C52.643 48.5605 51.2781 48.3317 49.7311 48.3389C47.7064 48.3707 46.3188 48.0525 44.6814 47.1312C42.4299 45.8882 42.3731 45.8549 42.0788 43.3605C41.6937 40.5084 40.6477 39.8194 39.8161 41.8825ZM46.3404 50.0445L48.49 50.5046L47.0213 52.7274C45.7917 54.5573 45.2562 56.0707 44.3211 60.0144C44.2983 60.1153 43.3318 59.549 42.172 58.7933C41.0122 58.0376 39.1927 57.1619 38.1919 56.842L36.3041 56.2688L38.1256 53.7199C39.1274 52.3275 40.2319 50.3862 40.5055 49.3665L41.1208 47.5954L42.6786 48.5842C43.4859 49.0953 45.1576 49.7702 46.3404 50.0445Z" fill="#FFE353"/>
</svg>
