<svg width="21" height="21" viewBox="0 0 21 21" fill="none" xmlns="http://www.w3.org/2000/svg">
<path fill-rule="evenodd" clip-rule="evenodd" d="M10.5 1.09375C10.5948 1.09369 10.6884 1.11415 10.7745 1.15372C10.8606 1.1933 10.9371 1.25105 10.9987 1.323L13.6237 4.3855C13.737 4.51778 13.7931 4.68962 13.7796 4.86323C13.7661 5.03685 13.6843 5.198 13.552 5.31125C13.4197 5.4245 13.2479 5.48056 13.0743 5.4671C12.9007 5.45365 12.7395 5.37178 12.6263 5.2395L11.1562 3.5245V13.125C11.1562 13.299 11.0871 13.466 10.964 13.589C10.841 13.7121 10.674 13.7812 10.5 13.7812C10.326 13.7812 10.159 13.7121 10.036 13.589C9.91289 13.466 9.84375 13.299 9.84375 13.125V3.52363L8.37375 5.2395C8.31768 5.305 8.24925 5.35881 8.17238 5.39786C8.09551 5.43691 8.0117 5.46044 7.92573 5.4671C7.83977 5.47377 7.75334 5.46343 7.67137 5.43669C7.5894 5.40995 7.5135 5.36732 7.448 5.31125C7.3825 5.25518 7.32869 5.18675 7.28964 5.10988C7.25059 5.03301 7.22706 4.9492 7.2204 4.86323C7.21373 4.77727 7.22407 4.69084 7.25081 4.60887C7.27755 4.5269 7.32018 4.451 7.37625 4.3855L10.0013 1.323C10.0629 1.25105 10.1394 1.1933 10.2255 1.15372C10.3116 1.11415 10.4052 1.09369 10.5 1.09375ZM6.1215 7.2205C6.29555 7.21957 6.46284 7.28782 6.58656 7.41024C6.71029 7.53265 6.78032 7.6992 6.78125 7.87325C6.78218 8.0473 6.71393 8.21459 6.59151 8.33831C6.4691 8.46204 6.30255 8.53207 6.1285 8.533C5.17213 8.53825 4.494 8.56275 3.97862 8.65725C3.48338 8.74913 3.1955 8.89525 2.98287 9.10788C2.7405 9.35025 2.583 9.69063 2.49637 10.3329C2.408 10.9935 2.40625 11.8694 2.40625 13.125V14C2.40625 15.2565 2.408 16.1324 2.49637 16.793C2.583 17.4352 2.74137 17.7747 2.98287 18.018C3.22525 18.2595 3.56475 18.417 4.20788 18.5036C4.86762 18.5929 5.74438 18.5938 7 18.5938H14C15.2556 18.5938 16.1315 18.5929 16.793 18.5036C17.4352 18.417 17.7747 18.2595 18.0171 18.0171C18.2595 17.7747 18.417 17.4352 18.5036 16.793C18.592 16.1324 18.5938 15.2565 18.5938 14V13.125C18.5938 11.8694 18.592 10.9935 18.5036 10.332C18.417 9.69062 18.2586 9.35025 18.0171 9.10788C17.8036 8.89525 17.5166 8.74913 17.0214 8.65725C16.506 8.56275 15.8279 8.53825 14.8715 8.533C14.7853 8.53254 14.7001 8.51511 14.6206 8.48171C14.5412 8.4483 14.4691 8.39958 14.4085 8.33831C14.3479 8.27705 14.2999 8.20445 14.2674 8.12465C14.2348 8.04486 14.2183 7.95943 14.2188 7.87325C14.2192 7.78707 14.2366 7.70182 14.27 7.62238C14.3034 7.54294 14.3522 7.47085 14.4134 7.41024C14.4747 7.34962 14.5473 7.30167 14.6271 7.26911C14.7069 7.23656 14.7923 7.22004 14.8785 7.2205C15.8252 7.22575 16.6136 7.2485 17.2585 7.36662C17.9218 7.48912 18.4861 7.721 18.9455 8.18038C19.4722 8.70625 19.698 9.37038 19.8048 10.1579C19.9062 10.9156 19.9062 11.8807 19.9062 13.0769V14.0481C19.9062 15.2451 19.9062 16.2094 19.8048 16.968C19.698 17.7555 19.4722 18.4188 18.9455 18.9455C18.4188 19.4722 17.7555 19.698 16.968 19.8048C16.2094 19.9062 15.2443 19.9062 14.0481 19.9062H6.95188C5.75575 19.9062 4.79062 19.9062 4.032 19.8048C3.2445 19.6989 2.58125 19.4722 2.0545 18.9455C1.52775 18.4188 1.302 17.7555 1.19612 16.968C1.09375 16.2094 1.09375 15.2443 1.09375 14.0481V13.0769C1.09375 11.8807 1.09375 10.9156 1.19612 10.157C1.30112 9.3695 1.52863 8.70625 2.0545 8.1795C2.51388 7.721 3.07825 7.48825 3.7415 7.36662C4.38637 7.2485 5.17475 7.22575 6.1215 7.2205Z" fill="#C7C7C7"/>
</svg>
