<svg width="114" height="38" viewBox="0 0 114 38" fill="none" xmlns="http://www.w3.org/2000/svg">
<path d="M34.9942 25.7227L35.2179 26.2938C35.8011 27.7741 36.6629 28.5143 37.8033 28.5143C38.4977 28.5143 39.0151 28.3207 39.3568 27.9322C39.6985 27.5451 39.8687 27.0748 39.8687 26.5255C39.8687 26.0048 39.7232 25.585 39.4323 25.2674C39.1413 24.9498 38.6596 24.5804 37.99 24.1579L37.6551 23.9452C37.6428 23.9452 37.5467 23.8825 37.3669 23.7557C37.1872 23.629 36.995 23.494 36.7905 23.3536C36.5861 23.2132 36.3528 23.0429 36.0934 22.8466C35.8327 22.6489 35.6213 22.4663 35.4608 22.2973C34.6676 21.493 34.2696 20.4571 34.2696 19.1881C34.2696 17.8073 34.7156 16.6868 35.609 15.8254C36.5024 14.9652 37.6181 14.5345 38.9574 14.5345C39.4899 14.5345 40.0608 14.634 40.6687 14.8303C41.0036 14.9434 41.1888 14.9993 41.2273 14.9993C41.2396 14.9993 41.3755 14.9434 41.6362 14.8303C41.7597 14.7608 41.9148 14.724 42.1014 14.724C42.5351 14.724 42.8946 15.0907 43.1801 15.824C43.4655 16.5573 43.6082 17.3261 43.6082 18.129C43.6082 18.9318 43.3159 19.2917 42.7341 19.2917C42.5227 19.2917 42.3347 19.2249 42.1673 19.0913C41.9999 18.9577 41.8887 18.8378 41.8325 18.7314C41.7762 18.6251 41.6801 18.4466 41.5443 18.1917C40.924 16.9935 40.1802 16.3938 39.3115 16.3938C38.7777 16.3938 38.344 16.5805 38.0092 16.954C37.6743 17.3275 37.5069 17.8386 37.5069 18.4874C37.5069 19.0368 37.6524 19.4811 37.9447 19.8192C38.2356 20.1572 38.8092 20.5661 39.6656 21.0459L40.0375 21.2572C41.2026 21.9197 41.9779 22.4908 42.3622 22.9706C42.9454 23.7189 43.2363 24.6268 43.2363 25.6981C43.2363 26.9958 42.7519 28.138 41.7858 29.1236C40.8183 30.1104 39.4666 30.6039 37.7306 30.6039C36.9113 30.6039 36.1373 30.4662 35.4059 30.1908C34.6744 29.9169 34.1351 29.5884 33.7879 29.2081C33.2788 28.6874 33.0249 27.7359 33.0249 26.3538C33.0249 25.7486 33.1278 25.3178 33.3323 25.0629C33.5368 24.8094 33.7824 24.6826 34.0679 24.6826C34.1296 24.6826 34.1886 24.6895 34.2449 24.7031C34.2998 24.7167 34.3533 24.7385 34.4027 24.7672C34.4521 24.7958 34.496 24.823 34.5331 24.8517C34.5701 24.8803 34.6072 24.9225 34.6442 24.9784C34.6813 25.0343 34.7087 25.0779 34.728 25.1052C34.7472 25.1338 34.7746 25.187 34.8117 25.2647C34.8487 25.3424 34.8707 25.3914 34.8762 25.4133C34.8817 25.4337 34.9036 25.4869 34.942 25.5714C34.9791 25.6559 34.9969 25.7063 34.9969 25.7199L34.9942 25.7227Z" fill="#0271F8"/>
<path d="M48.1095 26.1875H47.8488C47.8735 26.7518 47.9792 27.2166 48.1644 27.5833C48.4499 28.1476 48.9274 28.4298 49.5971 28.4298C49.9937 28.4298 50.4905 28.2321 51.0847 27.8368C51.2082 27.7523 51.3551 27.6323 51.5225 27.477C51.6899 27.3216 51.8326 27.1989 51.9506 27.1062C52.0687 27.0149 52.1647 26.9685 52.2388 26.9685C52.3884 26.9685 52.5394 27.0571 52.6944 27.233C52.8495 27.4088 52.9264 27.5955 52.9264 27.7932C52.9264 28.1176 52.7274 28.4625 52.3308 28.8291C51.0161 29.9428 49.6575 30.5003 48.2564 30.5003C47.0899 30.5003 46.1691 30.1268 45.4939 29.3798C44.8173 28.6329 44.4797 27.6105 44.4797 26.3129C44.4797 25.326 44.6664 24.3541 45.0383 23.3945C45.4102 22.4363 45.9124 21.6253 46.5451 20.9628C47.1036 20.3998 47.7568 19.9514 48.5075 19.6202C49.2582 19.2889 50.017 19.124 50.7869 19.124C51.7791 19.124 52.5133 19.3816 52.9909 19.8955C53.4684 20.4108 53.7072 21.0473 53.7072 21.8093C53.7072 22.9379 53.2146 23.9493 52.2279 24.8448C51.2425 25.7404 49.8688 26.1875 48.1068 26.1875H48.1095ZM49.9512 20.7951C49.5052 20.7951 49.0825 21.1059 48.6859 21.7248C48.4869 22.0355 48.3071 22.4404 48.1466 22.9406C47.9846 23.4409 47.905 23.8539 47.905 24.1783C47.905 24.4468 48.078 24.5804 48.4252 24.5804C48.996 24.5804 49.5189 24.2983 49.9965 23.7339C50.474 23.171 50.7128 22.4935 50.7128 21.7043C50.7128 21.0991 50.4589 20.7951 49.9498 20.7951H49.9512Z" fill="#0271F8"/>
<path d="M55.3458 21.7888L55.1043 21.6825C55.0919 21.6825 55.0645 21.6716 55.0206 21.6498C54.9766 21.6293 54.9464 21.6144 54.9272 21.6075C54.908 21.6007 54.8806 21.5898 54.8435 21.5762C54.8065 21.5626 54.7749 21.5435 54.7502 21.523C54.7255 21.5026 54.7008 21.4808 54.6761 21.4603C54.6514 21.4385 54.6322 21.4113 54.6212 21.3758C54.6089 21.3404 54.5965 21.3022 54.5842 21.26C54.5718 21.2177 54.5649 21.1754 54.5649 21.1332C54.5649 20.8933 54.6541 20.6888 54.8353 20.5198C55.0151 20.3508 55.2785 20.1749 55.6257 19.9909C56.5932 19.4839 57.2561 19.2303 57.6156 19.2303C57.8132 19.2303 57.982 19.3789 58.1179 19.6747C58.2537 19.9432 58.3718 20.3808 58.4719 20.986C58.509 21.1836 58.5337 21.2818 58.546 21.2818C58.5584 21.2818 58.6078 21.2259 58.6943 21.1127C58.9303 20.7747 59.1348 20.5075 59.3077 20.3085C59.8154 19.7306 60.4302 19.4416 61.1493 19.4416C61.2605 19.4416 61.373 19.4484 61.4842 19.4634C61.5953 19.477 61.7422 19.5234 61.922 19.6011C62.1017 19.6788 62.2527 19.781 62.3776 19.9078C62.5011 20.0345 62.6136 20.2322 62.7124 20.4994C62.8112 20.7679 62.8606 21.0855 62.8606 21.4508C62.8606 22.1132 62.7275 22.6135 62.4613 22.9529C62.1937 23.2909 61.8382 23.46 61.3922 23.46C61.0327 23.46 60.7596 23.3332 60.573 23.0797C60.4989 22.9815 60.4248 22.8398 60.3493 22.6571C60.2752 22.4745 60.2258 22.3613 60.2011 22.3191C60.1023 22.1364 59.9595 22.0451 59.7729 22.0451C59.4875 22.0451 59.2528 22.2209 59.0662 22.574C58.8919 22.912 58.7491 23.4095 58.638 24.0652C58.5268 24.7208 58.4019 25.8099 58.2661 27.3325L58.192 28.1367C58.192 28.1789 58.1824 28.3125 58.1645 28.5388C58.1453 28.7637 58.133 28.9164 58.1275 28.9927C58.1206 29.0704 58.1028 29.1903 58.0712 29.3526C58.041 29.5148 57.9971 29.6374 57.9408 29.7219C57.8846 29.8065 57.8201 29.8842 57.746 29.955C57.584 30.0968 57.2959 30.2236 56.8814 30.3353C56.4656 30.4471 56.0718 30.5044 55.6999 30.5044C55.4638 30.5044 55.2882 30.4648 55.1701 30.3885C55.0521 30.3122 54.9835 30.229 54.9657 30.1459C54.9478 30.0614 54.9382 29.9482 54.9382 29.8078C54.9382 29.4984 55.0686 28.6233 55.3293 27.1853L55.4034 26.7831C55.7136 25.0207 55.8686 23.7517 55.8686 22.9774C55.8686 22.5835 55.8385 22.3109 55.7753 22.1637C55.7136 22.0151 55.5709 21.8924 55.3472 21.7929L55.3458 21.7888Z" fill="#0271F8"/>
<path d="M67.698 21.5353L67.2328 24.6854C67.1093 25.5318 67.0462 26.1725 67.0462 26.61C67.0462 27.0053 67.1299 27.3475 67.2973 27.6364C67.4647 27.9254 67.7405 28.0699 68.1248 28.0699C68.5708 28.0699 69.0058 27.8763 69.4271 27.4879C69.8484 27.1007 70.1833 26.61 70.4317 26.0185C70.7418 25.2442 70.8969 24.4046 70.8969 23.5022C70.8969 22.6557 70.7542 21.767 70.4687 20.8374C70.3576 20.4571 70.3013 20.2322 70.3013 20.1613C70.3013 19.5684 70.7171 19.2726 71.5474 19.2726C71.7697 19.2726 71.9467 19.293 72.0771 19.3353C72.2074 19.3775 72.3474 19.4702 72.4956 19.6106C72.6438 19.751 72.7523 19.995 72.8209 20.3399C72.8881 20.6847 72.9238 21.125 72.9238 21.6607C72.9238 23.5785 72.626 25.2211 72.0304 26.5882C71.4719 27.8859 70.7281 28.8578 69.7977 29.5066C68.8672 30.1554 67.8627 30.4798 66.784 30.4798C66.6098 30.4798 66.4341 30.4703 66.2543 30.4485C66.0746 30.428 65.833 30.3571 65.5284 30.2372C65.2251 30.1172 64.9616 29.9591 64.7379 29.7615C64.5142 29.5638 64.3194 29.2585 64.1519 28.8414C63.9845 28.4257 63.9008 27.935 63.9008 27.372C63.9008 26.8649 63.9818 26.1234 64.1423 25.1515C64.3029 24.0938 64.3839 23.3605 64.3839 22.9529C64.3839 22.6421 64.366 22.4172 64.329 22.2754C64.2919 22.135 64.2041 22.0219 64.0682 21.9374C63.9818 21.8951 63.8816 21.8529 63.7704 21.8106C63.7581 21.8106 63.7018 21.7929 63.603 21.7575C63.5028 21.722 63.4383 21.6975 63.4081 21.6839C63.3766 21.6702 63.3272 21.6443 63.2599 21.6103C63.1913 21.5748 63.1446 21.5367 63.1199 21.4944C63.0952 21.4521 63.0705 21.399 63.0458 21.3349C63.0211 21.2722 63.0088 21.1972 63.0088 21.1127C63.0088 20.8878 63.1145 20.6766 63.3244 20.4789C63.5358 20.2813 63.7704 20.134 64.0312 20.0345C65.2841 19.4416 66.2447 19.1458 66.9144 19.1458C67.5223 19.1458 67.8256 19.4716 67.8256 20.1191C67.8256 20.6125 67.7817 21.0855 67.6953 21.5353H67.698Z" fill="#0271F8"/>
<path d="M78.1892 21.0705L77.8914 23.2064C77.606 25.2783 77.4633 26.5896 77.4633 27.1389C77.4633 27.3516 77.4976 27.496 77.5662 27.5724C77.6348 27.6501 77.7556 27.6882 77.9285 27.6882C77.9532 27.6882 77.993 27.6855 78.0492 27.6787C78.1055 27.6719 78.1453 27.6678 78.17 27.6678C78.6037 27.6678 78.8205 27.8436 78.8205 28.1967C78.8205 28.6342 78.5172 29.0636 77.9093 29.4875C77.525 29.756 77.057 29.9918 76.5054 30.1949C75.9537 30.3994 75.4542 30.5016 75.0082 30.5016C74.3632 30.5016 74.0407 30.184 74.0407 29.5502C74.0407 29.3948 74.0558 29.2122 74.0873 29.0009C74.1189 28.7896 74.1615 28.532 74.2177 28.2294C74.2726 27.9268 74.3138 27.6978 74.3385 27.5424L74.5608 26.1888C74.8092 24.5954 74.9327 23.4954 74.9327 22.8888C74.9327 22.4949 74.8833 22.2264 74.7845 22.086C74.7104 22.0015 74.5484 21.9101 74.3014 21.8106C74.2891 21.8106 74.2328 21.7929 74.134 21.7575C74.0338 21.722 73.9693 21.6975 73.9391 21.6839C73.9076 21.6702 73.8582 21.6443 73.7909 21.6103C73.7223 21.5748 73.6757 21.5367 73.651 21.4944C73.6263 21.4521 73.6016 21.399 73.5769 21.3349C73.5521 21.2722 73.5398 21.1972 73.5398 21.1127C73.5398 20.6902 73.9734 20.2881 74.8421 19.9078C76.0072 19.3857 76.9445 19.1254 77.6513 19.1254C78.1096 19.1254 78.3402 19.3993 78.3402 19.95C78.3402 20.0495 78.3333 20.1477 78.321 20.2458C78.3086 20.3453 78.2894 20.4707 78.2647 20.6261C78.24 20.7815 78.2153 20.9287 78.1906 21.0705H78.1892ZM78.804 16.0789C78.804 16.5859 78.6119 17.0276 78.2276 17.4011C77.8434 17.7746 77.3274 17.9613 76.6838 17.9613C76.1499 17.9613 75.7451 17.8209 75.4652 17.5387C75.1866 17.2566 75.0466 16.9117 75.0466 16.5028C75.0466 15.9535 75.2634 15.4914 75.6985 15.1179C76.1321 14.7444 76.6536 14.5577 77.2615 14.5577C77.7816 14.5577 78.17 14.7063 78.4239 15.0021C78.6778 15.2978 78.8054 15.6577 78.8054 16.0802L78.804 16.0789Z" fill="#0271F8"/>
<path d="M79.3613 26.2515C79.3613 25.3206 79.5233 24.4155 79.8458 23.5349C80.1683 22.6544 80.6088 21.8883 81.1659 21.2409C81.7739 20.5362 82.471 20.0073 83.2587 19.6556C84.0464 19.3026 84.7998 19.1267 85.5189 19.1267C86.3615 19.1267 87.0477 19.3625 87.5747 19.8355C88.1016 20.3085 88.3651 20.9451 88.3651 21.7493C88.3651 22.3272 88.2279 22.7961 87.9562 23.156C87.6831 23.5158 87.2865 23.6958 86.7664 23.6958C86.3574 23.6958 86.0528 23.569 85.8551 23.3155C85.6562 23.0619 85.5574 22.7443 85.5574 22.364C85.5574 22.2795 85.567 22.1528 85.5848 21.9837C85.604 21.8147 85.6122 21.688 85.6122 21.6034C85.6122 21.0678 85.4078 20.7992 84.9988 20.7992C84.4526 20.7992 83.9353 21.2259 83.4454 22.0792C82.9554 22.9325 82.7098 24.1619 82.7098 25.769C82.7098 27.5451 83.2985 28.4338 84.4773 28.4338C84.911 28.4338 85.4078 28.2362 85.9649 27.8409C86.1763 27.7005 86.2998 27.6092 86.3368 27.5669C86.3753 27.5247 86.4549 27.447 86.5797 27.3338C86.8528 27.0939 87.0381 26.974 87.1369 26.974C87.2741 26.974 87.4182 27.0626 87.5747 27.2384C87.7297 27.4143 87.8066 27.6092 87.8066 27.8205C87.8066 28.1449 87.609 28.4829 87.211 28.8359C85.9347 29.9496 84.5761 30.5071 83.138 30.5071C81.9591 30.5071 81.0356 30.1295 80.3659 29.3757C79.6962 28.6219 79.3613 27.5819 79.3613 26.257V26.2515Z" fill="#0271F8"/>
<path d="M92.6439 26.1875H92.3832C92.4079 26.7518 92.5136 27.2166 92.7002 27.5833C92.9843 28.1476 93.4632 28.4298 94.1315 28.4298C94.5281 28.4298 95.0249 28.2321 95.6205 27.8368C95.744 27.7523 95.8909 27.6323 96.0569 27.477C96.2243 27.3216 96.3671 27.1989 96.4851 27.1062C96.6031 27.0149 96.6991 26.9685 96.7733 26.9685C96.9215 26.9685 97.0738 27.0571 97.2289 27.233C97.3839 27.4088 97.4608 27.5955 97.4608 27.7932C97.4608 28.1176 97.2618 28.4625 96.8652 28.8291C95.5505 29.9428 94.1919 30.5003 92.7908 30.5003C91.6243 30.5003 90.7049 30.1268 90.0283 29.3798C89.3531 28.6329 89.0142 27.6105 89.0142 26.3129C89.0142 25.326 89.2008 24.3541 89.5727 23.3945C89.9446 22.4363 90.4469 21.6253 91.0795 20.9628C91.638 20.3998 92.2913 19.9514 93.0433 19.6202C93.7939 19.2889 94.5528 19.124 95.3213 19.124C96.3135 19.124 97.0491 19.3816 97.5253 19.8955C98.0028 20.4108 98.2416 21.0473 98.2416 21.8093C98.2416 22.9379 97.749 23.9493 96.7636 24.8448C95.7783 25.7404 94.4046 26.1875 92.6426 26.1875H92.6439ZM94.4856 20.7951C94.0396 20.7951 93.6169 21.1059 93.2203 21.7248C93.0213 22.0355 92.8416 22.4404 92.681 22.9406C92.5191 23.4409 92.4395 23.8539 92.4395 24.1783C92.4395 24.4468 92.6124 24.5804 92.961 24.5804C93.5318 24.5804 94.0547 24.2983 94.5336 23.7339C95.0112 23.171 95.25 22.4935 95.25 21.7043C95.25 21.0991 94.9947 20.7951 94.487 20.7951H94.4856Z" fill="#0271F8"/>
<path d="M103.904 16.3011L103.049 23.1955C102.776 25.2851 102.64 26.6059 102.64 27.1553C102.64 27.3529 102.67 27.4906 102.733 27.5683C102.795 27.646 102.914 27.6841 103.09 27.6841C103.116 27.6841 103.153 27.6814 103.2 27.6732C103.247 27.6664 103.284 27.6623 103.31 27.6623C103.776 27.6623 104.01 27.8395 104.01 28.1926C104.01 28.7296 103.575 29.2476 102.707 29.7492C101.84 30.2495 101.003 30.5016 100.196 30.5016C99.6003 30.5016 99.3025 30.184 99.3025 29.5502C99.3025 29.3103 99.3835 28.7337 99.544 27.8164L99.8583 25.3724C99.9461 24.6895 100.097 23.5063 100.314 21.8215C100.531 20.1368 100.639 19.0054 100.639 18.4275C100.639 18.1031 100.623 17.8632 100.592 17.7091C100.562 17.5537 100.479 17.4338 100.341 17.3493C100.218 17.2934 100.1 17.243 99.9887 17.2021C99.964 17.1884 99.9228 17.1693 99.8679 17.1489C99.813 17.1285 99.7691 17.1135 99.7375 17.1066C99.7073 17.0998 99.6703 17.0821 99.6264 17.0535C99.5825 17.0249 99.5454 17.003 99.5152 16.9894C99.485 16.9758 99.4535 16.9513 99.4233 16.9158C99.3917 16.8804 99.367 16.8449 99.3492 16.8095C99.33 16.7741 99.3149 16.7359 99.3025 16.6936C99.2902 16.6514 99.2847 16.6023 99.2847 16.5451C99.2847 16.207 99.5262 15.8894 100.011 15.5936C100.506 15.2978 101.107 15.0443 101.815 14.833C102.522 14.6218 103.054 14.5154 103.414 14.5154C103.849 14.5154 104.066 14.8235 104.066 15.4396C104.066 15.5241 104.012 15.8117 103.905 16.3011H103.904Z" fill="#0271F8"/>
<path d="M110.949 28.6192C111.284 27.9418 111.568 27.1498 111.804 26.2393C112.04 25.3301 112.158 24.5163 112.158 23.7966C112.158 23.1914 111.954 22.4008 111.545 21.429C111.309 20.8647 111.191 20.4912 111.191 20.3072C111.191 19.9827 111.318 19.7224 111.572 19.5247C111.826 19.3271 112.121 19.229 112.456 19.229C113.485 19.229 114 20.2581 114 22.3163C114 24.6854 113.41 27.053 112.232 29.4221C111.773 30.3381 111.277 31.1341 110.745 31.8115C110.211 32.4876 109.724 32.9961 109.285 33.3341C108.844 33.6722 108.384 33.9434 107.908 34.1479C107.431 34.3523 107.059 34.475 106.792 34.5186C106.525 34.5609 106.263 34.5813 106.002 34.5813C105.158 34.5813 104.502 34.3414 104.03 33.863C103.559 33.3832 103.323 32.7848 103.323 32.0664C103.323 31.4885 103.463 31.04 103.742 30.7238C104.02 30.4062 104.335 30.2481 104.68 30.2481C105.026 30.2481 105.304 30.3776 105.546 30.6393C105.788 30.8996 105.909 31.2554 105.909 31.708C105.909 31.7775 105.899 31.8906 105.881 32.046C105.862 32.2014 105.854 32.3145 105.854 32.384C105.854 32.7643 106.034 32.9552 106.393 32.9552C106.939 32.9552 107.42 32.6975 107.834 32.1837C108.25 31.6684 108.457 31.0946 108.457 30.4594C108.457 29.388 107.918 27.4006 106.839 24.4959C106.504 23.6222 106.231 23.0197 106.02 22.6885C105.809 22.3572 105.555 22.1923 105.257 22.1923C105.207 22.1923 105.146 22.1991 105.072 22.2127C104.997 22.2264 104.934 22.2332 104.885 22.2332C104.525 22.2332 104.346 22.071 104.346 21.7466C104.346 21.2395 104.705 20.697 105.424 20.1191C106.131 19.5411 106.794 19.2521 107.416 19.2521C108.037 19.2521 108.655 20.2172 109.313 22.1487C109.86 23.7844 110.404 25.9408 110.951 28.6192H110.949Z" fill="#0271F8"/>
<path d="M25.4663 28.6628L25.3976 28.7337C25.3661 28.7637 25.3359 28.7937 25.3029 28.8223L25.2865 28.8414L17.924 36.1516C17.1939 36.8768 16.2388 37.2393 15.2809 37.238C14.3258 37.2393 13.3706 36.8768 12.6392 36.1516L2.96021 26.5378L3.22918 26.0948C4.35174 24.2533 5.92442 22.6898 7.77979 21.5748L8.23952 21.2981L14.2668 27.2875C14.5577 27.5356 14.9172 27.6582 15.2795 27.6582C15.6418 27.6582 16.0288 27.526 16.3239 27.2602L16.4378 27.1471C16.7081 26.8527 16.8385 26.4833 16.8385 26.1112C16.8385 25.8372 16.7644 25.5591 16.6148 25.3138C16.5558 25.2142 16.483 25.1188 16.3966 25.0316C16.3952 25.0275 16.3884 25.0234 16.387 25.0221L12.6996 21.3595C13.0907 21.4794 13.5037 21.5421 13.9278 21.5421C15.0421 21.5421 16.0919 21.1114 16.8796 20.3262L16.9496 20.2567C18.1024 19.1117 18.4386 17.4529 17.9597 16.0121L25.4663 23.4232C26.9237 24.8707 26.9237 27.2166 25.4663 28.6628Z" fill="#19B792"/>
<path d="M14.1267 10.0854C13.8536 10.3799 13.726 10.7465 13.726 11.1227C13.726 11.4989 13.8715 11.9065 14.1747 12.205C14.1747 12.2091 14.1789 12.2132 14.1802 12.2146C14.1816 12.2159 14.1843 12.22 14.1885 12.22L16.6353 14.7022C18.09 16.1511 18.09 18.4956 16.6353 19.9432L16.5653 20.0127C15.241 21.3281 13.1661 21.4467 11.7018 20.3658C11.7018 20.3658 5.10645 13.8134 5.10234 13.8094C3.69434 12.4108 3.69708 9.96411 5.11606 8.55741C6.12883 7.5501 7.1416 6.54551 8.15438 5.53819C9.54179 4.16285 10.9265 2.7875 12.3111 1.40942C13.129 0.597028 14.1212 0 15.3042 0C15.3632 0 15.4236 0.00136216 15.4839 0.0054514C16.354 0.0368022 17.2927 0.467537 17.9267 1.0782L27.5809 10.6715L27.2928 11.1432C26.1702 12.9847 24.5989 14.5481 22.7449 15.6631L22.3153 15.9221L16.3279 9.97229C16.0315 9.70513 15.6582 9.57563 15.2836 9.57563C14.9089 9.57563 14.5384 9.70513 14.2406 9.97229L14.1295 10.0854H14.1267Z" fill="#0271F8"/>
<path d="M21.9792 17.1203C21.8255 17.0889 21.7541 16.9703 21.7377 16.8708C21.7212 16.77 21.7487 16.6337 21.8831 16.5546L22.5474 16.1566L22.9083 15.9385C24.8076 14.7962 26.4173 13.1973 27.5659 11.3122L27.8116 10.906L28.1903 10.2858C28.2589 10.1754 28.3646 10.1372 28.4552 10.1372C28.4744 10.1372 28.4909 10.1386 28.5087 10.1413C28.6089 10.1577 28.7283 10.2299 28.7598 10.3812L30.5123 18.4629C30.5356 18.5679 30.5041 18.6701 30.4286 18.7464C30.3531 18.8214 30.2488 18.8514 30.1445 18.8296L21.9792 17.1189V17.1203Z" fill="#3E5774"/>
<path d="M0.00689377 18.7751C-0.0164357 18.6715 0.0165 18.5679 0.0919776 18.4915C0.167455 18.4166 0.270379 18.3866 0.376048 18.4084L8.53998 20.1191C8.69368 20.1504 8.76641 20.269 8.78425 20.3685C8.80072 20.4694 8.77053 20.6057 8.63879 20.6861L8.00478 21.065L7.61092 21.2995C5.713 22.4417 4.10327 24.0406 2.95326 25.9271L2.72683 26.3033L2.3316 26.9522C2.25064 27.0844 2.11341 27.1144 2.01323 27.0967C1.91305 27.0803 1.79365 27.0081 1.75935 26.8568L0.00689377 18.7751Z" fill="#E99023"/>
</svg>
