<svg xmlns="http://www.w3.org/2000/svg" xmlns:xlink="http://www.w3.org/1999/xlink" width="1088" height="339.5" viewBox="0 0 1088 339.5">
  <defs>
    <clipPath id="clip-path">
      <rect id="Rectangle_30656" data-name="Rectangle 30656" width="409" height="339.5" rx="27" transform="translate(818 1969.5)" fill="#1a0f33"/>
    </clipPath>
  </defs>
  <g id="Group_183712" data-name="Group 183712" transform="translate(-139 -1969.5)">
    <rect id="Rectangle_30619" data-name="Rectangle 30619" width="1088" height="339.5" rx="27" transform="translate(139 1969.5)" fill="#1a0f33"/>
    <g id="Mask_Group_2269" data-name="Mask Group 2269" clip-path="url(#clip-path)">
      <g id="Mobile_Marketing-rafiki" data-name="Mobile Marketing-rafiki" transform="translate(783 2004.94)">
        <g id="freepik--background-complete--inject-30" transform="translate(0 0)">
          <rect id="Rectangle_30620" data-name="Rectangle 30620" width="500" height="0.25" transform="translate(0 327.4)" fill="#ebebeb"/>
          <rect id="Rectangle_30621" data-name="Rectangle 30621" width="33.12" height="0.25" transform="translate(50.1 343.49)" fill="#ebebeb"/>
          <rect id="Rectangle_30622" data-name="Rectangle 30622" width="8.69" height="0.25" transform="translate(168.78 346.21)" fill="#ebebeb"/>
          <rect id="Rectangle_30623" data-name="Rectangle 30623" width="19.19" height="0.25" transform="translate(84.22 334.21)" fill="#ebebeb"/>
          <rect id="Rectangle_30624" data-name="Rectangle 30624" width="43.19" height="0.25" transform="translate(404.35 335.89)" fill="#ebebeb"/>
          <rect id="Rectangle_30625" data-name="Rectangle 30625" width="6.33" height="0.25" transform="translate(389.11 335.89)" fill="#ebebeb"/>
          <rect id="Rectangle_30626" data-name="Rectangle 30626" width="93.68" height="0.25" transform="translate(274.85 340.11)" fill="#ebebeb"/>
          <path id="Path_69764" data-name="Path 69764" d="M43.92,337.8H237.01a5.71,5.71,0,0,0,5.7-5.71V60.66a5.71,5.71,0,0,0-5.7-5.66H43.92a5.71,5.71,0,0,0-5.71,5.71V332.09A5.71,5.71,0,0,0,43.92,337.8ZM237.01,55.2a5.46,5.46,0,0,1,5.45,5.46V332.09a5.46,5.46,0,0,1-5.45,5.46H43.92a5.47,5.47,0,0,1-5.46-5.46V60.66a5.47,5.47,0,0,1,5.46-5.46Z" transform="translate(219.08 -55)" fill="#ebebeb"/>
          <path id="Path_69765" data-name="Path 69765" d="M260.19,337.8h193.1a5.72,5.72,0,0,0,5.71-5.71V60.66A5.72,5.72,0,0,0,453.29,55H260.19a5.71,5.71,0,0,0-5.69,5.66V332.09A5.71,5.71,0,0,0,260.19,337.8ZM453.29,55.2a5.47,5.47,0,0,1,5.46,5.46V332.09a5.47,5.47,0,0,1-5.46,5.46H260.19a5.47,5.47,0,0,1-5.46-5.46V60.66a5.47,5.47,0,0,1,5.46-5.46Z" transform="translate(-213.5 -55)" fill="#ebebeb"/>
          <rect id="Rectangle_30627" data-name="Rectangle 30627" width="194.79" height="171.1" transform="translate(77.06 24.78)" fill="#e6e6e6"/>
          <rect id="Rectangle_30628" data-name="Rectangle 30628" width="197.5" height="171.1" transform="translate(71.97 24.78)" fill="#f0f0f0"/>
          <rect id="Rectangle_30629" data-name="Rectangle 30629" width="194.79" height="4.72" transform="translate(77.06 195.87)" fill="#e6e6e6"/>
          <rect id="Rectangle_30630" data-name="Rectangle 30630" width="197.5" height="4.72" transform="translate(63.51 195.87)" fill="#f0f0f0"/>
          <rect id="Rectangle_30631" data-name="Rectangle 30631" width="156.88" height="183.27" transform="translate(262.36 31.89) rotate(90)" fill="#fafafa"/>
          <path id="Path_69766" data-name="Path 69766" d="M317.37,243.76,297.16,86.89H262.17l20.22,156.87Z" transform="translate(-79.54 -55)" fill="#fff"/>
          <path id="Path_69767" data-name="Path 69767" d="M338.52,243.76,318.3,86.89H304.66l20.22,156.87Z" transform="translate(-143.18 -55)" fill="#fff"/>
          <rect id="Rectangle_30632" data-name="Rectangle 30632" width="156.88" height="0.9" transform="translate(79.98 31.88) rotate(90)" fill="#e6e6e6"/>
          <path id="Path_69768" data-name="Path 69768" d="M234.26,101.84H429.05l.65-12.19H234.91Z" transform="translate(-163.96 -55)" fill="#e0e0e0" opacity="0.5"/>
          <path id="Path_69769" data-name="Path 69769" d="M234.26,121.87H429.05l.65-12.18H234.91Z" transform="translate(-163.96 -55)" fill="#e0e0e0" opacity="0.5"/>
          <path id="Path_69770" data-name="Path 69770" d="M234.26,141.9H429.05l.65-12.18H234.91Z" transform="translate(-163.96 -55)" fill="#e0e0e0" opacity="0.5"/>
          <path id="Path_69771" data-name="Path 69771" d="M234.26,161.94H429.05l.65-12.19H234.91Z" transform="translate(-163.96 -55)" fill="#e0e0e0" opacity="0.5"/>
          <path id="Path_69772" data-name="Path 69772" d="M234.26,181.97H429.05l.65-12.19H234.91Z" transform="translate(-163.96 -55)" fill="#e0e0e0" opacity="0.5"/>
          <path id="Path_69773" data-name="Path 69773" d="M234.26,202H429.05l.65-12.19H234.91Z" transform="translate(-163.96 -55)" fill="#e0e0e0" opacity="0.5"/>
          <rect id="Rectangle_30633" data-name="Rectangle 30633" width="60.85" height="120.31" transform="translate(380.5 60.72)" fill="#e0e0e0" opacity="0.13"/>
          <rect id="Rectangle_30636" data-name="Rectangle 30636" width="60.85" height="120.31" transform="translate(299.26 42.36)" fill="#e0e0e0" opacity="0.13"/>
          <rect id="Rectangle_30639" data-name="Rectangle 30639" width="25.61" height="110.88" transform="translate(310.07 216.52)" fill="#e6e6e6"/>
          <path id="Path_69774" data-name="Path 69774" d="M184.83,382.4h-4.86V371.11h9.96Z" transform="translate(130.1 -55)" fill="#f0f0f0"/>
          <rect id="Rectangle_30640" data-name="Rectangle 30640" width="25.61" height="110.88" transform="translate(405.8 216.52)" fill="#e6e6e6"/>
          <rect id="Rectangle_30641" data-name="Rectangle 30641" width="99.98" height="103.95" transform="translate(310.07 216.52)" fill="#f0f0f0"/>
          <rect id="Rectangle_30642" data-name="Rectangle 30642" width="82.92" height="44.58" transform="translate(313.85 306.35) rotate(-90)" fill="#e6e6e6"/>
          <rect id="Rectangle_30643" data-name="Rectangle 30643" width="82.92" height="44.58" transform="translate(361.7 306.35) rotate(-90)" fill="#e6e6e6"/>
          <path id="Path_69775" data-name="Path 69775" d="M111.61,281.6h8.82a15.62,15.62,0,0,0,10.13-3.6H101.48A15.62,15.62,0,0,0,111.61,281.6Z" transform="translate(267.96 -55)" fill="#f0f0f0"/>
          <path id="Path_69776" data-name="Path 69776" d="M159.91,281.6h8.82a15.6,15.6,0,0,0,10.13-3.6H149.78A15.62,15.62,0,0,0,159.91,281.6Z" transform="translate(171.36 -55)" fill="#f0f0f0"/>
          <path id="Path_69777" data-name="Path 69777" d="M95.05,382.4h4.87V371.11H89.95Z" transform="translate(310.13 -55)" fill="#f0f0f0"/>
          <path id="Path_69778" data-name="Path 69778" d="M173.24,260.94s-.76,10.58-29.91,10.58-29.91-10.58-29.91-10.58Z" transform="translate(213.34 -55)" fill="#e6e6e6"/>
          <rect id="Rectangle_30644" data-name="Rectangle 30644" width="218.82" height="18.32" transform="translate(52.86 235.05)" fill="#ebebeb"/>
          <rect id="Rectangle_30645" data-name="Rectangle 30645" width="62.11" height="18.32" transform="translate(209.56 235.05)" fill="#e0e0e0"/>
          <rect id="Rectangle_30646" data-name="Rectangle 30646" width="13.1" height="74.03" transform="translate(52.85 253.37)" fill="#ebebeb"/>
          <path id="Path_69779" data-name="Path 69779" d="M447.15,313.5l-13.1-2.56v-2.57h13.1Z" transform="translate(-381.2 -55)" fill="#e0e0e0"/>
          <rect id="Rectangle_30647" data-name="Rectangle 30647" width="13.1" height="74.03" transform="translate(258.58 253.37)" fill="#e0e0e0"/>
          <rect id="Rectangle_30648" data-name="Rectangle 30648" width="13.1" height="74.03" transform="translate(209.56 253.37)" fill="#ebebeb"/>
          <path id="Path_69780" data-name="Path 69780" d="M290.44,313.5l-13.1-2.56v-2.57h13.1Z" transform="translate(-67.78 -55)" fill="#e0e0e0"/>
          <rect id="Rectangle_30649" data-name="Rectangle 30649" width="13.1" height="74.03" transform="translate(93.86 253.37)" fill="#e0e0e0"/>
        </g>
        <g id="freepik--Shadow--inject-30" transform="translate(56.11 349.92)">
          <ellipse id="freepik--path--inject-30" cx="193.89" cy="11.32" rx="193.89" ry="11.32" transform="translate(0)" fill="#f5f5f5"/>
        </g>
        <g id="freepik--Character--inject-30" transform="translate(157.672 36.23)">
          <path id="Path_69791" data-name="Path 69791" d="M325.3,146l-2.63,1.89q-1.37,1-2.76,1.89c-1.85,1.23-3.71,2.46-5.59,3.58s-3.78,2.18-5.66,3.12a40.574,40.574,0,0,1-5.46,2.27,3.27,3.27,0,0,1,1.27-.06,2.411,2.411,0,0,1,.73.21c.29.15.2.16.05.07a7.77,7.77,0,0,1-1.55-1.42,39.052,39.052,0,0,1-3.56-5c-1.17-1.84-2.29-3.79-3.36-5.79s-2.14-4.05-3.13-6l-.07-.13a4.5,4.5,0,0,0-8.34,3.27,97.21,97.21,0,0,0,5.15,13.92,48.059,48.059,0,0,0,3.95,6.95,20.531,20.531,0,0,0,3.29,3.71,11.32,11.32,0,0,0,3.05,1.9,9.83,9.83,0,0,0,2.44.65,8.889,8.889,0,0,0,3-.17,49.811,49.811,0,0,0,7.82-2.51,71.336,71.336,0,0,0,6.94-3.27q3.33-1.77,6.49-3.73c1.05-.66,2.09-1.33,3.12-2s2-1.37,3.13-2.19a7,7,0,0,0-8.19-11.24Z" transform="translate(-278.609 -91.23)" fill="#fff"/>
          <path id="Path_69792" data-name="Path 69792" d="M325.3,146l-2.63,1.89q-1.37,1-2.76,1.89c-1.85,1.23-3.71,2.46-5.59,3.58s-3.78,2.18-5.66,3.12a40.574,40.574,0,0,1-5.46,2.27,3.27,3.27,0,0,1,1.27-.06,2.411,2.411,0,0,1,.73.21c.29.15.2.16.05.07a7.77,7.77,0,0,1-1.55-1.42,39.052,39.052,0,0,1-3.56-5c-1.17-1.84-2.29-3.79-3.36-5.79s-2.14-4.05-3.13-6l-.07-.13a4.5,4.5,0,0,0-8.34,3.27,97.21,97.21,0,0,0,5.15,13.92,48.059,48.059,0,0,0,3.95,6.95,20.531,20.531,0,0,0,3.29,3.71,11.32,11.32,0,0,0,3.05,1.9,9.83,9.83,0,0,0,2.44.65,8.889,8.889,0,0,0,3-.17,49.811,49.811,0,0,0,7.82-2.51,71.336,71.336,0,0,0,6.94-3.27q3.33-1.77,6.49-3.73c1.05-.66,2.09-1.33,3.12-2s2-1.37,3.13-2.19a7,7,0,0,0-8.19-11.24Z" transform="translate(-278.609 -91.23)" opacity="0.2"/>
          <path id="Path_69793" data-name="Path 69793" d="M337.348,138.89l-2.71-4.58-5.2,5.61a6.91,6.91,0,0,0,3.78,3.55,2.58,2.58,0,0,0,2.27-.3l1-.64a2.71,2.71,0,0,0,.86-3.64Z" transform="translate(-324.83 -91.23)" fill="#ffb573"/>
          <path id="Path_69794" data-name="Path 69794" d="M334.958,131.58l-1.15.71a2.72,2.72,0,0,0-.37,4.35l3.69,3.28,5.2-5.61-4.53-2.74a2.71,2.71,0,0,0-2.84.01Z" transform="translate(-332.52 -91.23)" fill="#ffb573"/>
          <path id="Path_69795" data-name="Path 69795" d="M242.92,408.12l-7.92.23-2.98-18.34,7.91-.23Z" transform="translate(-132.612 -91.23)" fill="#ffb573"/>
          <path id="Path_69796" data-name="Path 69796" d="M243.639,406.12l8.85-1.12a.57.57,0,0,1,.65.47l1.31,6.94a1.4,1.4,0,0,1-1.2,1.57c-3.09.34-4.58.34-8.47.83-2.39.31-8.62,1.81-11.93,1.4s-2.81-3.66-1.37-3.78c6.45-.56,8.87-3.63,10.87-5.66A2.25,2.25,0,0,1,243.639,406.12Z" transform="translate(-142.501 -91.23)" fill="#263238"/>
          <path id="Path_69797" data-name="Path 69797" d="M241.38,389.79l-7.92.23,1.54,9.45,7.92-.23Z" transform="translate(-134.052 -91.23)" opacity="0.2"/>
          <path id="Path_69798" data-name="Path 69798" d="M231.12,214s6.91,65.59,11.51,87.87c5,24.4,21.17,95.78,21.17,95.78l14.49-1.07s-7.94-73.84-14.44-97.74c0-24.82-6-94.38-6-94.38Z" transform="translate(-167.082 -91.23)" fill="#263238"/>
          <path id="Path_69799" data-name="Path 69799" d="M246.692,236.17c.13-5.13,2.91-6.78,5.65-6.72,1,12.34,2.07,27.47,2.88,41.12C250.362,262.69,246.332,250.42,246.692,236.17Z" transform="translate(-159.564 -91.23)" opacity="0.3"/>
          <path id="Path_69800" data-name="Path 69800" d="M247.42,396.68l-15.52,1.15-1.78-5.85,17.87-.18Z" transform="translate(-135.782 -91.23)" fill="#fff"/>
          <path id="Path_69801" data-name="Path 69801" d="M171.63,346.65l-4.99,6.17-14.93-10.77,5-6.16Z" transform="translate(18.988 -91.23)" fill="#ffb573"/>
          <path id="Path_69802" data-name="Path 69802" d="M147.974,352.83l4.44-7.73a.57.57,0,0,1,.76-.24L159.5,348a1.4,1.4,0,0,1,.53,1.9c-1.59,2.67-2.49,3.86-4.44,7.26-1.2,2.09-4.36,8.1-6,11s-4.47,1.17-4-.2c2-6.16,2.57-10.87,2.16-13.68a2.24,2.24,0,0,1,.22-1.45Z" transform="translate(36.574 -91.23)" fill="#263238"/>
          <path id="Path_69803" data-name="Path 69803" d="M163.93,335.89l-5,6.17,7.7,5.54,5-6.16Z" transform="translate(11.768 -91.23)" opacity="0.2"/>
          <path id="Path_69804" data-name="Path 69804" d="M158.7,208.36s19.49,55.78,28.35,76.74c9.69,22.95,67.64,63.71,67.64,63.71l9.15-11.29s-39.38-39.47-54-58.19c-8.1-25.49-25.39-80.18-25.39-80.18Z" transform="translate(-80.212 -91.23)" fill="#263238"/>
          <path id="Path_69805" data-name="Path 69805" d="M173.05,337.06l-9.89,12.2-4.83-2.79,11.58-12.92Z" transform="translate(10.948 -91.23)" fill="#fff"/>
          <path id="Path_69806" data-name="Path 69806" d="M257.11,214.38l40.16-15.23c-1-3.67-6.25-14.45-10.92-29.46a202.64,202.64,0,0,1-7.68-34h0a2.49,2.49,0,0,0-2.91-2.15c-.75.13-1.64.3-2.62.49-2.53.51-5.69,1.23-8.7,2.15a157.646,157.646,0,0,0-17,6.06,51.792,51.792,0,0,0-5.41,2.83,14.811,14.811,0,0,0-2.87,2.13,3,3,0,0,0-1.11,2.06C238.05,155,243.8,177.24,257.11,214.38Z" transform="translate(-192.992 -91.23)" fill="#f0f0f0"/>
          <path id="Path_69807" data-name="Path 69807" d="M270.365,141.87c4.52-2.94,4.3-6.3,2.77-9.54a22.734,22.734,0,0,0-1.29-2.33l4.35-7.35,3.2-5.39c.7,5.92,2.84,16.4,7.84,18.72a22,22,0,0,1-11.13,8.2C268.725,146.48,270.365,141.87,270.365,141.87Z" transform="translate(-215.117 -91.23)" fill="#ffb573"/>
          <path id="Path_69808" data-name="Path 69808" d="M275.99,144.06l.07-1.88,5,.98Z" transform="translate(-214.722 -91.23)" fill="#e0e0e0"/>
          <path id="Path_69809" data-name="Path 69809" d="M285.22,144.06l-.93-1.53-3.23,3.93Z" transform="translate(-223.952 -91.23)" fill="#e0e0e0"/>
          <path id="Path_69810" data-name="Path 69810" d="M277.47,135.08a47.22,47.22,0,0,1-10.1,7.1c2,1.23,3.9,4.47,4.62,7.15,1.62-1.13,8.1-11.79,9-14.72Z" transform="translate(-206.032 -91.23)" fill="#fff"/>
          <path id="Path_69811" data-name="Path 69811" d="M285.04,140.73a8,8,0,0,0,4.16,1.8c-1.07,1.57-2,5.64-2,8-1.87-1.22-4.76-5.48-5.22-7.41Z" transform="translate(-228.852 -91.23)" fill="#fff"/>
          <path id="Path_69812" data-name="Path 69812" d="M283.134,140.59s-4.37,2.1-8.23,4.48a8.57,8.57,0,0,0-3.76,9.59c4.77,16.86,11.21,33.23,13.88,42.34,2.83,9.71,6.77,21.89,6.77,21.89l6.81,1.61S281.534,155.21,283.134,140.59Z" transform="translate(-227.106 -91.23)" opacity="0.3"/>
          <path id="Path_69813" data-name="Path 69813" d="M240.9,134.32s5.87-.77,11-1a7.83,7.83,0,0,1,7.94,5.89c2.6,10.28,4.52,29.94,7.15,37.59,3.27,9.56,7.7,28.2,7.7,28.2l-23.26,13.44S227.934,146.25,240.9,134.32Z" transform="translate(-169.366 -91.23)" opacity="0.3"/>
          <path id="Path_69814" data-name="Path 69814" d="M236.944,134.32s5.87-.77,11-1a7.83,7.83,0,0,1,7.94,5.89c2.6,10.28,6.14,29.48,8.78,37.14,3.29,9.56,10.27,25.81,10.27,25.81l-29.34,13.76S223.974,146.25,236.944,134.32Z" transform="translate(-165.406 -91.23)" fill="#fff"/>
          <path id="Path_69815" data-name="Path 69815" d="M236.944,134.32s5.87-.77,11-1a7.83,7.83,0,0,1,7.94,5.89c2.6,10.28,6.14,29.48,8.78,37.14,3.29,9.56,10.27,25.81,10.27,25.81l-29.34,13.76S223.974,146.25,236.944,134.32Z" transform="translate(-165.406 -91.23)" opacity="0.2"/>
          <path id="Path_69816" data-name="Path 69816" d="M285.064,140.59s-4.37,2.1-8.23,4.48a8.57,8.57,0,0,0-3.76,9.59c4.77,16.86,8.54,34.53,10.44,43.83,2,9.9,4.09,18.91,4.09,18.91l11,1.49S283.464,155.21,285.064,140.59Z" transform="translate(-229.036 -91.23)" fill="#fff"/>
          <path id="Path_69817" data-name="Path 69817" d="M285.064,140.59s-4.37,2.1-8.23,4.48a8.57,8.57,0,0,0-3.76,9.59c4.77,16.86,8.54,34.53,10.44,43.83,2,9.9,4.09,18.91,4.09,18.91l11,1.49S283.464,155.21,285.064,140.59Z" transform="translate(-229.036 -91.23)" opacity="0.2"/>
          <path id="Path_69818" data-name="Path 69818" d="M280.413,130a22.744,22.744,0,0,1,1.29,2.36c2.14-1.29,4.34-4.85,3.82-7.32a11.238,11.238,0,0,0-.76-2.39Z" transform="translate(-223.685 -91.23)" opacity="0.2"/>
          <path id="Path_69819" data-name="Path 69819" d="M297.456,99.68c-5.32.69-7.27,7.87-4.33,12.61C297.946,105.3,297.456,99.68,297.456,99.68Z" transform="translate(-246.898 -91.23)" fill="#263238"/>
          <path id="Path_69820" data-name="Path 69820" d="M298.494,112.92c-1.8,7.69-2.45,12.27-7.06,15.72a10.26,10.26,0,0,1-16.49-7.64c-.5-7.19,2.52-18.56,10.67-20.62a10.38,10.38,0,0,1,12.88,12.54Z" transform="translate(-231.376 -91.23)" fill="#ffb573"/>
          <path id="Path_69821" data-name="Path 69821" d="M286.39,119.77c-4.63.13-3.91-7.54-1.89-10.44-6.42,1-17.06-4.67-18.13-10.61-1.55-8.61,11.58-8.61,15.83-5.87-1.83.13-2.76,1.68-2.32,2.48,0,0,6.34-1.92,10.44.31-1.79.66-3.69,3.24,3.12,4.06,6.48.78,4.52,7.3,1.25,7.18,1.74,2.67,3.83,8.74-.09,11.32s-6.6,5.94-5.75,7.32C287.48,125.47,284.57,123.82,286.39,119.77Z" transform="translate(-221.642 -91.23)" fill="#263238"/>
          <path id="Path_69822" data-name="Path 69822" d="M265.21,106.28c3.1.3,4.88,2.72,5,6a24,24,0,0,0-5-6Z" transform="translate(-193.092 -91.23)" fill="#263238"/>
          <path id="Path_69823" data-name="Path 69823" d="M279.662,119.87a7,7,0,0,1-3.8,3.42c-2.17.79-3.31-1.13-2.75-3.27.51-1.94,2.25-4.67,4.45-4.53S280.622,117.91,279.662,119.87Z" transform="translate(-210.694 -91.23)" fill="#ffb573"/>
          <path id="Path_69824" data-name="Path 69824" d="M288.9,113.51c-.1.63-.53,1.09-.94,1s-.66-.61-.56-1.24.53-1.1.95-1S289.005,112.88,288.9,113.51Z" transform="translate(-233.967 -91.23)" fill="#263238"/>
          <path id="Path_69825" data-name="Path 69825" d="M296.066,112.55c-.1.63-.52,1.09-.94,1s-.66-.61-.56-1.25.53-1.09.95-1S296.176,111.91,296.066,112.55Z" transform="translate(-248.308 -91.23)" fill="#263238"/>
          <path id="Path_69826" data-name="Path 69826" d="M296.28,113.17a24.211,24.211,0,0,1-3.94,5,3.7,3.7,0,0,0,2.93,1Z" transform="translate(-246.292 -91.23)" fill="#ed893e"/>
          <path id="Path_69827" data-name="Path 69827" d="M287.949,121.18a5.46,5.46,0,0,0,4-1.59.187.187,0,0,0-.27-.26,5.22,5.22,0,0,1-4.43,1.41.19.19,0,1,0-.05.37A4.809,4.809,0,0,0,287.949,121.18Z" transform="translate(-236.671 -91.23)" fill="#263238"/>
          <path id="Path_69828" data-name="Path 69828" d="M287.775,123.26a5.46,5.46,0,0,0,2.18-3.73.19.19,0,0,0-.17-.2.18.18,0,0,0-.2.17,5.33,5.33,0,0,1-2.62,3.85.18.18,0,0,0-.07.25.19.19,0,0,0,.26.07,7.4,7.4,0,0,0,.62-.41Z" transform="translate(-234.497 -91.23)" fill="#263238"/>
          <path id="Path_69829" data-name="Path 69829" d="M287.245,111.5a.339.339,0,0,0,.34-.51,3.64,3.64,0,0,0-2.78-2,.376.376,0,1,0-.05.75,2.9,2.9,0,0,1,2.17,1.55A.35.35,0,0,0,287.245,111.5Z" transform="translate(-229.707 -91.23)" fill="#263238"/>
          <path id="Path_69830" data-name="Path 69830" d="M294.561,109.68a.36.36,0,0,0,.31-.16,3.14,3.14,0,0,1,2.4-1.4.38.38,0,0,0,0-.75h0a3.86,3.86,0,0,0-3,1.72.37.37,0,0,0,.09.52.33.33,0,0,0,.2.07Z" transform="translate(-249.463 -91.23)" fill="#263238"/>
          <path id="Path_69831" data-name="Path 69831" d="M227.722,146.26c2,1.63,4.11,3.44,6.12,5.21s4.06,3.59,6,5.45a117.1,117.1,0,0,1,10.82,11.46l1.14,1.48.14.19a1.092,1.092,0,0,1-.08-.14,2.171,2.171,0,0,1-.15-.35,1.859,1.859,0,0,1-.12-.63c0-.34.06-.34,0-.18a3.251,3.251,0,0,1-.26.89,14.4,14.4,0,0,1-1.5,2.68,35.218,35.218,0,0,1-2.22,2.92,73.3,73.3,0,0,1-5.3,5.8c-1.89,1.89-3.89,3.8-5.8,5.55l-.13.11a4.49,4.49,0,0,0,5.47,7.09,90.111,90.111,0,0,0,14-10.95c1.09-1.09,2.16-2.23,3.21-3.49a28.27,28.27,0,0,0,3-4.39,16.533,16.533,0,0,0,1.27-3,11.211,11.211,0,0,0,.46-4.33,9.9,9.9,0,0,0-.62-2.67,10.13,10.13,0,0,0-.61-1.29l-.36-.59-.16-.24-1.3-1.93a108.8,108.8,0,0,0-11.53-13.59c-2-2.08-4.1-4.11-6.23-6.07s-4.24-3.85-6.59-5.77a7,7,0,0,0-8.73,10.75Z" transform="translate(-147.334 -91.23)" fill="#fff"/>
          <path id="Path_69832" data-name="Path 69832" d="M227.722,146.26c2,1.63,4.11,3.44,6.12,5.21s4.06,3.59,6,5.45a117.1,117.1,0,0,1,10.82,11.46l1.14,1.48.14.19a1.092,1.092,0,0,1-.08-.14,2.171,2.171,0,0,1-.15-.35,1.859,1.859,0,0,1-.12-.63c0-.34.06-.34,0-.18a3.251,3.251,0,0,1-.26.89,14.4,14.4,0,0,1-1.5,2.68,35.218,35.218,0,0,1-2.22,2.92,73.3,73.3,0,0,1-5.3,5.8c-1.89,1.89-3.89,3.8-5.8,5.55l-.13.11a4.49,4.49,0,0,0,5.47,7.09,90.111,90.111,0,0,0,14-10.95c1.09-1.09,2.16-2.23,3.21-3.49a28.27,28.27,0,0,0,3-4.39,16.533,16.533,0,0,0,1.27-3,11.211,11.211,0,0,0,.46-4.33,9.9,9.9,0,0,0-.62-2.67,10.13,10.13,0,0,0-.61-1.29l-.36-.59-.16-.24-1.3-1.93a108.8,108.8,0,0,0-11.53-13.59c-2-2.08-4.1-4.11-6.23-6.07s-4.24-3.85-6.59-5.77a7,7,0,0,0-8.73,10.75Z" transform="translate(-147.334 -91.23)" opacity="0.2"/>
          <path id="Path_69833" data-name="Path 69833" d="M255.656,188.24l-6.8,4.16,8.69,4.95s5.78-4.32,3.31-7.11l-2.9-2A2.11,2.11,0,0,0,255.656,188.24Z" transform="translate(-167.998 -91.23)" fill="#ffb573"/>
          <path id="Path_69834" data-name="Path 69834" d="M253.9,200l3.74,2.2a2.25,2.25,0,0,0,3.12-.84l2.2-4-8.69-4.95-1.4,5A2.28,2.28,0,0,0,253.9,200Z" transform="translate(-173.41 -91.23)" fill="#ffb573"/>
        </g>
        <g id="freepik--Megaphone--inject-30" transform="translate(58.145 20.792)">
          <path id="Path_69835" data-name="Path 69835" d="M341.24,129.38l-9.21-1.81c2.53,4.46-1.19,8.73-4.53,11.41-1.59,1.28-.47,3.57,2,4l6,1.18C342.74,145.62,341.24,129.38,341.24,129.38Z" transform="translate(-226.275 -75.792)" fill="#fff"/>
          <path id="Path_69836" data-name="Path 69836" d="M339.463,130.09,318.343,126a12.72,12.72,0,0,1-10-14.9h0a12.74,12.74,0,0,1,14.9-10l21.11,4.14a12.75,12.75,0,0,1,10,14.91h0A12.73,12.73,0,0,1,339.463,130.09Z" transform="translate(-220.838 -75.792)" fill="#fff"/>
          <path id="Path_69837" data-name="Path 69837" d="M339.463,130.09,318.343,126a12.72,12.72,0,0,1-10-14.9h0a12.74,12.74,0,0,1,14.9-10l21.11,4.14a12.75,12.75,0,0,1,10,14.91h0A12.73,12.73,0,0,1,339.463,130.09Z" transform="translate(-220.838 -75.792)" fill="#fff" opacity="0.3"/>
          <path id="Path_69838" data-name="Path 69838" d="M336.089,134.4l36-.48c3.12.61,11-39.79,7.92-40.4l-33.14-14Z" transform="translate(-274.944 -75.792)" fill="#fff"/>
          <path id="Path_69839" data-name="Path 69839" d="M378.2,107.51c-3,15.16-6.67,27.2-8.26,26.89s-.47-12.86,2.51-28,6.67-27.2,8.26-26.89S381.172,92.34,378.2,107.51Z" transform="translate(-308.797 -75.792)" fill="#fff"/>
          <path id="Path_69840" data-name="Path 69840" d="M378.2,107.51c-3,15.16-6.67,27.2-8.26,26.89s-.47-12.86,2.51-28,6.67-27.2,8.26-26.89S381.172,92.34,378.2,107.51Z" transform="translate(-308.797 -75.792)" opacity="0.3"/>
          <path id="Path_69841" data-name="Path 69841" d="M373.162,105.64c.73-3.71,9-5.22,10.75-4.87s2.6,3.63,1.88,7.34-2.75,6.43-4.51,6.09S372.462,109.34,373.162,105.64Z" transform="translate(-317.307 -75.792)" fill="#fff"/>
          <rect id="Rectangle_30652" data-name="Rectangle 30652" width="47.45" height="1.07" transform="matrix(-0.987, -0.16, 0.16, -0.987, 46.841, 28.856)" fill="#fff"/>
          <rect id="Rectangle_30653" data-name="Rectangle 30653" width="25.24" height="1.07" transform="matrix(-0.761, -0.649, 0.649, -0.761, 50.733, 17.189)" fill="#fff"/>
          <rect id="Rectangle_30654" data-name="Rectangle 30654" width="1.07" height="7.47" transform="matrix(-0.333, -0.943, 0.943, -0.333, 16.022, 54.135)" fill="#fff"/>
          <rect id="Rectangle_30655" data-name="Rectangle 30655" width="1.07" height="18.8" transform="matrix(-0.318, -0.948, 0.948, -0.318, 30.748, 48.939)" fill="#fff"/>
        </g>
      </g>
    </g>
  </g>
</svg>
