<svg id="Group_183515" data-name="Group 183515" xmlns="http://www.w3.org/2000/svg" width="35.334" height="37.246" viewBox="0 0 35.334 37.246">
  <path id="Path_69671" data-name="Path 69671" d="M7.271,12.76A1.432,1.432,0,0,1,8.8,14.093l.879,13.178a49.806,49.806,0,0,0,.562,5.711,4.308,4.308,0,0,0,1.146,2.489,4.292,4.292,0,0,0,2.559.978,49.641,49.641,0,0,0,5.737.181h1.478a49.642,49.642,0,0,0,5.737-.181,4.292,4.292,0,0,0,2.559-.978A4.308,4.308,0,0,0,30.6,32.982a49.807,49.807,0,0,0,.562-5.711l.879-13.178a1.433,1.433,0,0,1,2.859.191l-.886,13.278a50.481,50.481,0,0,1-.6,5.982,7.089,7.089,0,0,1-2,4.018,7.071,7.071,0,0,1-4.144,1.727,50.333,50.333,0,0,1-6.007.206H19.577a50.817,50.817,0,0,1-6.007-.2,7.085,7.085,0,0,1-4.144-1.728,7.1,7.1,0,0,1-2-4.018,50.89,50.89,0,0,1-.6-5.982L5.936,14.284A1.432,1.432,0,0,1,7.271,12.76Zm10-10.508h-.088a7.275,7.275,0,0,0-1.113.053,4.3,4.3,0,0,0-3.132,2.259,6.945,6.945,0,0,0-.4,1.039l-.029.084-.185.554A2.387,2.387,0,0,1,9.913,7.979H4.183a1.433,1.433,0,0,0,0,2.867H36.651a1.432,1.432,0,0,0,0-2.865h-5.9a2.387,2.387,0,0,1-2.24-1.738l-.185-.556L28.3,5.6a7.385,7.385,0,0,0-.4-1.039A4.3,4.3,0,0,0,24.76,2.305a7.13,7.13,0,0,0-1.113-.053H17.275ZM14.964,7.38a5.3,5.3,0,0,1-.262.6H26.131a5.277,5.277,0,0,1-.26-.6L25.8,7.164l-.189-.573a5.95,5.95,0,0,0-.254-.7,1.432,1.432,0,0,0-1.045-.754,5.947,5.947,0,0,0-.749-.017H17.275a5.4,5.4,0,0,0-.749.019,1.432,1.432,0,0,0-1.045.752,6.108,6.108,0,0,0-.254.7l-.191.573-.073.214Z" transform="translate(-2.749 -2.248)" fill="#fdc7c7" fill-rule="evenodd"/>
</svg>
