<svg xmlns="http://www.w3.org/2000/svg" width="16.871" height="17.784" viewBox="0 0 16.871 17.784">
  <g id="Group_183319" data-name="Group 183319" transform="translate(-2.75 -2.248)">
    <g id="Group_183170" data-name="Group 183170" transform="translate(2.749 2.248)">
      <path id="Path_69671" data-name="Path 69671" d="M4.908,7.267a.684.684,0,0,1,.728.637L6.056,14.2a23.781,23.781,0,0,0,.268,2.727,2.057,2.057,0,0,0,.547,1.188,2.049,2.049,0,0,0,1.222.467,23.7,23.7,0,0,0,2.739.087h.706a23.7,23.7,0,0,0,2.739-.087,2.049,2.049,0,0,0,1.222-.467,2.057,2.057,0,0,0,.547-1.188,23.781,23.781,0,0,0,.268-2.727L16.734,7.9a.684.684,0,1,1,1.365.091l-.423,6.34a24.1,24.1,0,0,1-.288,2.856,3.385,3.385,0,0,1-.955,1.919,3.376,3.376,0,0,1-1.979.824,24.032,24.032,0,0,1-2.868.1h-.8a24.263,24.263,0,0,1-2.868-.1,3.383,3.383,0,0,1-1.979-.825,3.388,3.388,0,0,1-.955-1.919,24.3,24.3,0,0,1-.288-2.856l-.423-6.34A.684.684,0,0,1,4.908,7.267ZM9.685,2.25H9.643a3.473,3.473,0,0,0-.532.026,2.052,2.052,0,0,0-1.5,1.079,3.316,3.316,0,0,0-.192.5l-.014.04-.088.264a1.14,1.14,0,0,1-1.152.83H3.434a.684.684,0,0,0,0,1.369h15.5a.684.684,0,0,0,0-1.368H16.118a1.14,1.14,0,0,1-1.07-.83L14.96,3.89l-.013-.04a3.526,3.526,0,0,0-.192-.5,2.052,2.052,0,0,0-1.5-1.079,3.4,3.4,0,0,0-.532-.026H9.685ZM8.582,4.7a2.529,2.529,0,0,1-.125.287h5.457a2.52,2.52,0,0,1-.124-.287l-.036-.1-.09-.274a2.841,2.841,0,0,0-.121-.336.684.684,0,0,0-.5-.36,2.84,2.84,0,0,0-.357-.008h-3a2.577,2.577,0,0,0-.357.009.684.684,0,0,0-.5.359,2.916,2.916,0,0,0-.121.336L8.616,4.6l-.035.1Z" transform="translate(-2.749 -2.248)" fill="#f91818" fill-rule="evenodd"/>
    </g>
  </g>
</svg>
