<svg width="20" height="20" viewBox="0 0 20 20" fill="none" xmlns="http://www.w3.org/2000/svg">
<path d="M16.9417 14.7142C17.0334 14.4092 17.0834 14.085 17.0834 13.75V6.25C17.0834 5.36594 16.7322 4.5181 16.107 3.89297C15.4819 3.26785 14.6341 2.91666 13.75 2.91666H6.25002C5.36597 2.91666 4.51812 3.26785 3.893 3.89297C3.26788 4.5181 2.91669 5.36594 2.91669 6.25V13.8083C2.93198 14.6822 3.28991 15.5152 3.91338 16.1277C4.53686 16.7403 5.37598 17.0835 6.25002 17.0833H13.75L13.8475 17.0817M16.9417 14.7142L16.8684 14.6275L14.8134 12.1475C14.6574 11.9594 14.462 11.8078 14.241 11.7036C14.02 11.5994 13.7788 11.545 13.5345 11.5444C13.2902 11.5438 13.0487 11.5969 12.8271 11.6999C12.6056 11.803 12.4094 11.9535 12.2525 12.1408L11.1592 13.4458L10.9809 13.6633M16.9417 14.7142C16.7395 15.3836 16.332 15.9717 15.7767 16.3967C15.2214 16.8217 14.5465 17.0613 13.8475 17.0817M10.9809 13.6633L13.77 16.9933L13.8475 17.0817M10.9809 13.6633L8.29169 10.4525C8.13525 10.2658 7.9398 10.1157 7.71909 10.0126C7.49837 9.90963 7.25776 9.85624 7.01419 9.85624C6.77061 9.85624 6.53 9.90963 6.30929 10.0126C6.08857 10.1157 5.89312 10.2658 5.73669 10.4525L3.06502 13.6417L2.91752 13.8092" stroke="#C7C7C7" stroke-width="1.5" stroke-linecap="round" stroke-linejoin="round"/>
<path d="M12.5759 8.67416C13.2662 8.67416 13.8259 8.11452 13.8259 7.42416C13.8259 6.73381 13.2662 6.17416 12.5759 6.17416C11.8855 6.17416 11.3259 6.73381 11.3259 7.42416C11.3259 8.11452 11.8855 8.67416 12.5759 8.67416Z" fill="#C7C7C7"/>
</svg>
