<svg xmlns="http://www.w3.org/2000/svg" width="14.423" height="17.233" viewBox="0 0 14.423 17.233">
  <path id="Path_73429" data-name="Path 73429" d="M7355.152,370.177a5.722,5.722,0,0,0-3.973,1.59,5.331,5.331,0,0,0-1.638,3.84c0,2.221,1.427,4.362,2.991,6.021a2.631,2.631,0,0,0,5.226,0c1.576-1.662,3-3.8,3-6.024a5.344,5.344,0,0,0-1.651-3.84A5.693,5.693,0,0,0,7355.152,370.177Zm0,15.682-.46-.3h0l-.012,0-.013-.011-.062-.041c-.323-.233-.658-.477-.969-.73a22.361,22.361,0,0,1-2.284-2.093c-1.639-1.734-3.413-4.247-3.413-7.069a6.865,6.865,0,0,1,2.11-4.936,7.368,7.368,0,0,1,10.19,0,6.877,6.877,0,0,1,2.122,4.936c0,2.821-1.787,5.335-3.413,7.069a22.062,22.062,0,0,1-3.053,2.669c-.088.066-.175.132-.273.195l-.013.011-.013,0h0l-.446.3Zm0-11.8a1.651,1.651,0,0,0-1.142.454,1.539,1.539,0,0,0,0,2.194,1.651,1.651,0,0,0,1.142.454,1.626,1.626,0,0,0,1.13-.454,1.514,1.514,0,0,0,0-2.194A1.626,1.626,0,0,0,7355.152,374.055Zm-3.215,1.552a3.077,3.077,0,0,1,.943-2.194,3.278,3.278,0,0,1,4.53,0,3.024,3.024,0,0,1,0,4.389,3.278,3.278,0,0,1-4.53,0A3.077,3.077,0,0,1,7351.938,375.607Z" transform="translate(-7347.94 -368.625)" fill="#C7C7C7"/>
</svg>
