<svg xmlns="http://www.w3.org/2000/svg" xmlns:xlink="http://www.w3.org/1999/xlink" width="105" height="166" viewBox="0 0 105 166">
  <defs>
    <clipPath id="clip-path">
      <rect id="Rectangle_29389" data-name="Rectangle 29389" width="105" height="166" transform="translate(104.416 269.271)" fill="#fff"/>
    </clipPath>
  </defs>
  <g id="Group_176539" data-name="Group 176539" transform="translate(-104.416 -269.271)" clip-path="url(#clip-path)">
    <path id="Path_71124" data-name="Path 71124" d="M213.773,346.352a9.944,9.944,0,0,0-14.005,0l-1.317,1.314-.193.192,3.34,3.332,1.51-1.506a5.128,5.128,0,0,1,7.26,0,5.139,5.139,0,0,1-7.292,7.241l-1.285-1.281-2.313-2.307-3.34,3.332,3.6,3.589A9.862,9.862,0,0,0,216.6,353.3,9.749,9.749,0,0,0,213.773,346.352Z" transform="translate(-33.729 -27.147)" fill="#fff" opacity="0.42"/>
    <path id="Path_71125" data-name="Path 71125" d="M185.371,269a3.621,3.621,0,1,0,3.63,3.62A3.643,3.643,0,0,0,185.371,269Z" transform="translate(-28.487 -0.034)" fill="#fff" opacity="0.42"/>
    <path id="Path_71126" data-name="Path 71126" d="M177.775,324.528l1.831-1.826,4.369-4.358a16.06,16.06,0,0,0,0-22.684L172.6,284.317l-11.371,11.342a16.06,16.06,0,0,0,0,22.684L165.6,322.7l1.51,1.506,3.341-3.332-5.879-5.864a11.35,11.35,0,0,1,0-16.02l8.031-8.01,8.031,8.01a11.35,11.35,0,0,1,0,16.02l-6.971,6.921-6.456,6.441-2.217-2.051-1.51-1.506a9.868,9.868,0,1,0,0,13.97l3.855-3.845,9.637,8.907,3.212-3.461-9.508-8.779.867-.865Zm-16.351,9.612-1.285,1.281a5.123,5.123,0,0,1-8.769-3.588,5.082,5.082,0,0,1,1.478-3.62,5.128,5.128,0,0,1,7.26,0L161.2,329.3l.032.032.385.385,2.217,2.051Z" transform="translate(-15.686 -5.611)" fill="#fff" opacity="0.42"/>
    <path id="Path_71127" data-name="Path 71127" d="M122.342,477.218a11.373,11.373,0,0,0-3.277-7.466,11.106,11.106,0,0,0-8-3.268L111,461.23a15.662,15.662,0,0,1,11.5,4.742,16.007,16.007,0,0,1,4.754,11.246v16.565H104v-4.742h18.342Z" transform="translate(-0.182 -70.022)" fill="#fff"/>
    <path id="Path_71128" data-name="Path 71128" d="M149.059,477.941v-.384a16.266,16.266,0,0,1,16.254-16.277h.418a16.215,16.215,0,0,1,15.933,16.277v11.534h5.429v4.742h-5.847a15.041,15.041,0,0,1-4.176,7.305,15.924,15.924,0,0,1-11.564,4.678h-.45v-4.87h.064a11.388,11.388,0,0,0,10.6-7.113H164.606a15.583,15.583,0,0,1-10.826-4.806A15.956,15.956,0,0,1,149.059,477.941ZM165.7,466.534h-.482a11.282,11.282,0,0,0-11.243,11.31v.064a10.707,10.707,0,0,0,3.277,7.85,10.947,10.947,0,0,0,7.613,3.332h11.724V477.845a11.124,11.124,0,0,0-10.889-11.31Z" transform="translate(-16.588 -70.041)" fill="#fff"/>
    <path id="Path_71129" data-name="Path 71129" d="M231.705,481.643a10.947,10.947,0,0,0,7.613-3.332,11.3,11.3,0,0,0-16-15.956,10.877,10.877,0,0,0-3.34,7.978h-5.043v-.224a16.26,16.26,0,1,1,16.993,16.276H206.392v-4.742h13.363l11.95-.064Zm3.34-37.2a3.435,3.435,0,0,1-1.092,2.6,3.5,3.5,0,0,1-2.57,1.025,3.721,3.721,0,0,1-2.634-1.025,3.554,3.554,0,0,1-1.092-2.6,3.431,3.431,0,0,1,1.092-2.6,3.588,3.588,0,0,1,2.634-1.026,3.678,3.678,0,0,1,2.57,1.026A3.433,3.433,0,0,1,235.046,444.445Z" transform="translate(-37.462 -62.593)" fill="#fff"/>
    <path id="Path_71130" data-name="Path 71130" d="M127.115,386.932H122.3l-14.166,13.9v-13.9H104.4v27.875h3.726v-9.74l4.657-4.357,10.119,14.1h4.69l-12.271-16.628Z" transform="translate(-0.33 -42.972)" fill="#fff"/>
    <path id="Path_71131" data-name="Path 71131" d="M163.91,398.915H149.2V386.932h-3.726v27.875H149.2V402.055H163.91v12.752h3.726V386.932H163.91Z" transform="translate(-15.282 -42.972)" fill="#fff"/>
    <path id="Path_71132" data-name="Path 71132" d="M208.413,404.746a7.9,7.9,0,0,1-1.863,5.671,7.127,7.127,0,0,1-5.429,1.955,7.912,7.912,0,0,1-5.75-1.955,7.555,7.555,0,0,1-2.024-5.671V386.932h-3.726v17.814a13.472,13.472,0,0,0,.771,4.806,8.495,8.495,0,0,0,5.847,5.319,17.151,17.151,0,0,0,4.85.609c3.5,0,6.2-.9,8.127-2.723,1.927-1.794,2.891-4.486,2.891-8.011V386.932h-3.695Z" transform="translate(-31.356 -42.972)" fill="#fff"/>
    <path id="Path_71133" data-name="Path 71133" d="M253.94,390.2c-2.313-2.179-5.653-3.268-9.958-3.268h-9.6v27.875h9.6a17.193,17.193,0,0,0,6.039-.961,10.477,10.477,0,0,0,4.175-2.82,12.053,12.053,0,0,0,2.442-4.582,22.7,22.7,0,0,0,.771-6.216C257.409,395.742,256.253,392.41,253.94,390.2Zm-.771,14.9a10.511,10.511,0,0,1-1.349,3.012,7.119,7.119,0,0,1-1.863,1.922,9.333,9.333,0,0,1-2.088,1.089,8.537,8.537,0,0,1-1.992.481c-.61.064-1.156.1-1.574.1h-6.2V390.071h6.264a11.332,11.332,0,0,1,4.337.737,7.143,7.143,0,0,1,2.891,2.114,8.289,8.289,0,0,1,1.606,3.332,19.025,19.025,0,0,1,.481,4.486A15.589,15.589,0,0,1,253.169,405.1Z" transform="translate(-47.651 -42.972)" fill="#fff"/>
  </g>
</svg>
