<svg xmlns="http://www.w3.org/2000/svg" width="22.198" height="24.748" viewBox="0 0 22.198 24.748">
  <g id="Group_183418" data-name="Group 183418" transform="translate(-5.133 -3.733)">
    <g id="Group_183039" data-name="Group 183039" transform="translate(5.133 3.733)">
      <path id="Path_69447" data-name="Path 69447" d="M16.217,3.733a8.432,8.432,0,0,1,8.577,8.575v3.438a2.427,2.427,0,0,0,.742,1.743l.7.683,0,0a3.612,3.612,0,0,1,1.1,2.582v.008a3.548,3.548,0,0,1-3.564,3.493.95.95,0,0,1-.155-.013H8.7a3.531,3.531,0,0,1-3.565-3.5,3.613,3.613,0,0,1,1.1-2.582h0l.7-.683a2.429,2.429,0,0,0,.743-1.744v-3.6a8.475,8.475,0,0,1,8.547-8.4ZM23.9,22.349a1.642,1.642,0,0,0,1.529-1.6,1.71,1.71,0,0,0-.525-1.218l0,0-.7-.685a4.331,4.331,0,0,1-1.312-3.1V12.308a6.531,6.531,0,0,0-6.669-6.672h0a6.572,6.572,0,0,0-6.646,6.5v3.6a4.331,4.331,0,0,1-1.313,3.1l-.7.685,0,0a1.709,1.709,0,0,0-.525,1.222,1.629,1.629,0,0,0,1.662,1.6H23.779a1.041,1.041,0,0,1,.12.008Zm-10.61,5.181a.952.952,0,0,1,.951-.951h3.971a.951.951,0,1,1,0,1.9H14.241A.952.952,0,0,1,13.289,27.529Z" transform="translate(-5.133 -3.733)" fill="#fff" fill-rule="evenodd"/>
    </g>
  </g>
</svg>
